<svg xmlns="http://www.w3.org/2000/svg" width="14.769" height="14.765" viewBox="0 0 14.769 14.765"><path d="M250.348,29.384a4.464,4.464,0,1,1-8.928,0,4.41,4.41,0,0,1,.084-.862h-3v5.935a2.308,2.308,0,0,0,2.308,2.308H250.96a2.308,2.308,0,0,0,2.309-2.308V28.526h-3a4.482,4.482,0,0,1,.083.862M250.96,22H240.808a2.309,2.309,0,0,0-2.308,2.309v2.5h3.739a4.463,4.463,0,0,1,7.291,0h3.736v-2.5A2.309,2.309,0,0,0,250.96,22m1.13,2.851a.413.413,0,0,1-.412.412h-1.236a.414.414,0,0,1-.412-.412V23.617a.414.414,0,0,1,.412-.413h1.235a.413.413,0,0,1,.412.413Zm-3.459,4.533a2.747,2.747,0,1,0-2.747,2.747,2.747,2.747,0,0,0,2.747-2.747" transform="translate(-238.5 -22)" fill="#fff"/></svg>