<svg xmlns="http://www.w3.org/2000/svg" id="Left_Arrow" width="40.173" height="40.173" viewBox="0 0 40.173 40.173">
    <defs>
        <style>
            .cls-2{fill:none;stroke:#5a5a5a}
        </style>
    </defs>
    <g id="Group_17566">
        <g id="Group_17563">
            <g id="Path_1767" fill="none" stroke="none" opacity="0.447">
                <path d="M20.086 40.173A20.086 20.086 0 1 0 0 20.086a20.086 20.086 0 0 0 20.086 20.087z" transform="rotate(-90 20.087 20.087)"/>
                <path fill="#5a5a5a" d="M20.086 39.173c2.578 0 5.077-.505 7.43-1.5 2.272-.96 4.313-2.337 6.067-4.09 1.753-1.754 3.13-3.795 4.09-6.068.995-2.352 1.5-4.851 1.5-7.429 0-2.577-.505-5.076-1.5-7.429-.96-2.272-2.337-4.314-4.09-6.067-1.754-1.753-3.795-3.13-6.068-4.09-2.352-.996-4.851-1.5-7.429-1.5-2.577 0-5.076.504-7.429 1.5-2.272.96-4.314 2.337-6.067 4.09-1.753 1.753-3.13 3.795-4.09 6.067C1.503 15.01 1 17.51 1 20.087c0 2.577.504 5.076 1.5 7.428.96 2.273 2.337 4.314 4.09 6.068 1.753 1.753 3.795 3.13 6.067 4.09 2.353.995 4.852 1.5 7.43 1.5m0 1C8.992 40.173 0 31.18 0 20.086 0 8.993 8.993 0 20.086 0 31.18 0 40.173 8.993 40.173 20.086c0 11.094-8.993 20.087-20.087 20.087z" transform="rotate(-90 20.087 20.087)"/>
            </g>
        </g>
        <g id="Group_36" transform="translate(15.711 14.745)">
            <path id="Path_58" d="M9.952 0H0" class="cls-2" transform="translate(.225 5.341)"/>
            <path id="Path_59" d="M4 0s.324 3.221-4 5.341" class="cls-2"/>
            <path id="Path_60" d="M4 5.341S4.321 2.121 0 0" class="cls-2" transform="translate(0 5.341)"/>
        </g>
    </g>
</svg>
