<svg xmlns="http://www.w3.org/2000/svg" width="15" height="14.763" viewBox="0 0 15 14.763"><g fill="none"><path d="M7.5,0,9.375,5.49,15,5.639,10.534,9.181l1.6,5.582L7.5,11.462l-4.635,3.3,1.6-5.582L0,5.639,5.625,5.49Z" stroke="none"/><path d="M 7.5 3.094196319580078 L 6.346590042114258 6.47150707244873 L 2.778009414672852 6.565929412841797 L 5.611989974975586 8.813467025756836 L 4.614864349365234 12.28921318054199 L 7.5 10.23444652557373 L 10.38513565063477 12.28921318054199 L 9.388010025024414 8.813467025756836 L 12.22199058532715 6.565929412841797 L 8.653409957885742 6.47150707244873 L 7.5 3.094196319580078 M 7.5 -3.814697265625e-06 L 9.375 5.490246772766113 L 15 5.639086723327637 L 10.53380966186523 9.181076049804688 L 12.13525009155273 14.7633171081543 L 7.5 11.46213722229004 L 2.864749908447266 14.7633171081543 L 4.466190338134766 9.181076049804688 L 0 5.639086723327637 L 5.625 5.490246772766113 L 7.5 -3.814697265625e-06 Z" stroke="none" fill="#a45f3f"/></g></svg>