<svg xmlns="http://www.w3.org/2000/svg" width="31.148" height="31.361" viewBox="0 0 31.148 31.361">
    <defs>
        <style>
            .cls-1{fill:#a7674a}
        </style>
    </defs>
    <g id="Group_183" transform="translate(-453.725 -367.138)">
        <path id="Path_461" d="M484.9 381.667v1.9h-31.118V381.7h9.982l.056-.261-9.286-3.809.678-1.778 9.563 3.91.134-.178-7.328-7.232 1.448-1.219 6.863 6.936.361-.231-3.8-9.187 1.71-.738 3.921 9.294.261-.052v-10.017h1.9v9.839l.339.09 3.817-9.133 1.738.616-4 9.811 7.5-7.531 1.274 1.589-7.114 7.061.14.205 9.434-3.885.734 1.688-9.324 3.931.057.248z" class="cls-1" transform="translate(-.027)"/>
        <path id="Path_462" d="M453.725 397.691v-1.9h31.119v1.868h-9.981l-.056.261 9.285 3.809-.677 1.778-9.564-3.91-.134.178 7.328 7.232-1.448 1.22-6.863-6.936-.361.231 3.8 9.187-1.71.738-3.921-9.294-.261.053v10.014h-1.9v-9.839l-.339-.09-3.817 9.133-1.737-.616 4-9.811-7.5 7.531-1.274-1.589 7.114-7.061-.141-.205-9.434 3.885-.733-1.688 9.324-3.931-.057-.248z" class="cls-1" transform="translate(0 -13.722)"/>
    </g>
</svg>
