<?xml version="1.0" encoding="UTF-8"?>
<svg xmlns="http://www.w3.org/2000/svg" width="132" height="20" viewBox="0 0 132 20" fill="none">
  <path d="M0 0.233006C0 0.145926 0.0729184 0.0878731 0.145844 0.0878731H8.10928C11.3472 0.0878731 13.6953 1.74238 13.6953 5.34166C13.6953 7.57669 12.0618 9.04253 11.0409 9.62305C10.8804 9.73916 10.6762 9.7827 10.895 9.84075C12.0181 10.16 14.6288 10.9873 14.7163 14.4414C14.8038 17.8956 12.6744 20 8.576 20H0.145844C0.0583333 20 0 19.9274 0 19.8549V0.233006ZM7.36544 9.71013C10.3554 9.71013 11.3909 7.67828 11.3909 5.2836C11.3909 1.93105 9.72822 0.813534 7.71548 0.813534H2.43569C2.27526 0.813534 2.20233 0.813534 2.20233 1.03123V9.46341C2.20233 9.68111 2.24609 9.72465 2.40652 9.72465H7.35086L7.36544 9.71013ZM7.67173 19.2889C9.97616 19.2889 12.441 18.4326 12.441 14.8333C12.441 11.9742 11.3909 10.4068 8.59058 10.4068H2.43569C2.27526 10.4068 2.21692 10.4358 2.21692 10.6535V19.0276C2.21692 19.2453 2.26068 19.2889 2.42111 19.2889H7.67173Z" fill="#1B2E2F"></path>
  <path d="M31.6946 0.276885L39.8331 19.3763C39.9352 19.623 39.9643 19.7101 39.7601 19.7101H37.762C37.6307 19.7101 37.5724 19.652 37.514 19.5214L35.5305 14.9497C35.4721 14.8191 35.4138 14.7901 35.2679 14.7901L24.9563 14.8481C24.8251 14.8481 24.7667 14.8481 24.7084 14.9933L22.7686 19.5214C22.6956 19.681 22.6373 19.7101 22.506 19.7101H21.9664C21.7768 19.7101 21.6601 19.6375 21.7476 19.4343L29.9152 0.262372C29.9736 0.131753 30.0465 0.0736999 30.1778 0.0736999H31.4321C31.5633 0.0736999 31.6654 0.131753 31.7238 0.262372L31.6946 0.276885ZM34.9471 13.6726L30.309 2.51192C30.2215 2.32325 30.0027 2.32325 29.9152 2.51192L25.2043 13.6726C25.1168 13.8613 25.1751 13.9483 25.3647 13.9483H34.845C35.0346 13.9483 35.02 13.8613 34.9471 13.6726Z" fill="#1B2E2F"></path>
  <path d="M123.783 0.276885L131.921 19.3763C132.023 19.623 132.052 19.7101 131.848 19.7101H129.85C129.719 19.7101 129.66 19.652 129.602 19.5214L127.618 14.9497C127.56 14.8191 127.502 14.7901 127.356 14.7901L117.044 14.8481C116.913 14.8481 116.855 14.8481 116.796 14.9933L114.857 19.5214C114.784 19.681 114.725 19.7101 114.594 19.7101H114.054C113.865 19.7101 113.748 19.6375 113.836 19.4343L122.003 0.262372C122.062 0.131753 122.134 0.0736999 122.266 0.0736999H123.52C123.651 0.0736999 123.753 0.131753 123.812 0.262372L123.783 0.276885ZM127.035 13.6726L122.397 2.51192C122.309 2.32325 122.091 2.32325 122.003 2.51192L117.292 13.6726C117.205 13.8613 117.263 13.9483 117.453 13.9483H126.933C127.123 13.9483 127.108 13.8613 127.035 13.6726Z" fill="#1B2E2F"></path>
  <path d="M57.2621 0.813534L56.9996 0.378138C56.8683 0.189466 56.7954 0.0878731 56.5766 0.0878731H44.9961C44.7774 0.0878731 44.6898 0.189466 44.5732 0.378138L44.3106 0.813534C44.121 1.14734 44.369 1.19088 44.5294 1.19088H49.3716C49.5321 1.19088 49.6488 1.30698 49.6488 1.46663V19.4485C49.6488 19.6081 49.7654 19.7242 49.9259 19.7242H51.6323C51.7928 19.7242 51.9094 19.6081 51.9094 19.4485V1.45212C51.9094 1.29247 52.0261 1.17636 52.1865 1.17636H57.0288C57.1892 1.17636 57.4372 1.13283 57.2476 0.799021L57.2621 0.813534Z" fill="#1B2E2F"></path>
  <path d="M82.7998 9.8835C82.7998 15.5582 78.9202 19.796 73.232 19.796C67.5439 19.796 63.6643 15.5582 63.6643 9.8835C63.6643 4.20883 67.5439 0 73.232 0C78.9202 0 82.7998 4.20883 82.7998 9.8835ZM65.9833 9.8835C65.9833 16.4144 68.9003 19.1139 73.2174 19.1139C77.5346 19.1139 80.437 16.4725 80.437 9.8835C80.437 3.2945 77.5346 0.827253 73.2174 0.827253C68.9003 0.827253 65.9833 3.43963 65.9833 9.8835Z" fill="#1B2E2F"></path>
  <path d="M104.414 19.6372L97.0194 10.6825C96.8882 10.5229 96.7569 10.5664 96.6402 10.6825L93.9128 13.6868C93.7816 13.8174 93.7816 13.8754 93.7816 14.0206V19.4485C93.7816 19.6081 93.6795 19.7242 93.519 19.7242H91.9147C91.7542 19.7242 91.6521 19.6081 91.6521 19.4485V0.363624C91.6521 0.203979 91.7542 0.0878731 91.9147 0.0878731H93.519C93.6795 0.0878731 93.7816 0.203979 93.7816 0.363624V11.6694C93.7816 11.9161 93.942 12.0032 94.1024 11.8L104.574 0.247519C104.677 0.131413 104.764 0.0878731 104.895 0.0878731H105.581C105.8 0.0878731 105.873 0.247519 105.741 0.407164L98.3758 8.73775C98.2737 8.85386 98.3029 9.0135 98.3758 9.1296L106.835 19.463C106.966 19.6227 106.894 19.7968 106.675 19.7968H104.749C104.618 19.7968 104.502 19.7678 104.399 19.6372H104.414Z" fill="#1B2E2F"></path>
</svg>
