<?xml version="1.0" standalone="no"?>
<!DOCTYPE svg PUBLIC "-//W3C//DTD SVG 1.1//EN" "http://www.w3.org/Graphics/SVG/1.1/DTD/svg11.dtd" >
<svg xmlns="http://www.w3.org/2000/svg" xmlns:xlink="http://www.w3.org/1999/xlink" version="1.1">
<metadata>
Created by FontForge 20170731 at Thu Apr  8 13:37:26 2021
 By Aleksey,,,
Copyright (c) 2020 by Sofia Mohr. All rights reserved.
</metadata>
<defs>
<font id="Aguila-Regular" horiz-adv-x="0" >
  <font-face 
    font-family="Aguila-Regular"
    font-weight="400"
    font-stretch="normal"
    units-per-em="2048"
    panose-1="0 0 5 0 0 0 0 0 0 0"
    ascent="1638"
    descent="-410"
    x-height="1024"
    cap-height="1391"
    bbox="-1532 -602 4520 1978"
    underline-thickness="102"
    underline-position="-307"
    unicode-range="U+0020-FB02"
  />
<missing-glyph horiz-adv-x="1085" 
d="M102 1495h881v-1495h-881v1495zM236 1423l307 -587l307 587h-614zM498 748l-314 598v-1196zM590 748l311 -598v1196zM543 659l-307 -587h614z" />
    <glyph glyph-name="fi" unicode="fi" horiz-adv-x="1167" 
d="M995 1024v-1024h-161v995h-474l2 -995h-161v995h-152v29h152q6 524 465 524q159 0 247 -39v-100q-111 111 -243 111q-156 0 -233 -111.5t-77 -355.5v-29h635z" />
    <glyph glyph-name="fl" unicode="fl" horiz-adv-x="1177" 
d="M844 1475h162v-1475h-162v1430q-64 45 -164 45q-143 0 -231.5 -89t-88.5 -274v-88h320v-29h-320l2 -995h-161v995h-152v29h152q0 237 123.5 359t337.5 122q108 0 182 -45v15z" />
    <glyph glyph-name="f_f_i" unicode="ffi" horiz-adv-x="1789" 
d="M1608 1024v-1024h-162v995h-473l2 -995h-162v995h-453l2 -995h-161v995h-152v29h152q0 236 111.5 358.5t299.5 122.5q94 0 169 -38.5t110 -106.5q113 188 387 188q160 0 248 -39v-100q-111 111 -244 111q-156 0 -232.5 -111.5t-76.5 -355.5v-29h635zM813 1024
q3 183 59 301q-32 76 -96.5 113t-144.5 37q-118 0 -194.5 -89.5t-76.5 -273.5v-88h453z" />
    <glyph glyph-name="f_f_l" unicode="ffl" horiz-adv-x="1763" 
d="M1436 1475h161v-1475h-161v1430q-64 45 -162 45q-145 0 -233.5 -89t-88.5 -274v-88h320v-29h-320l2 -995h-161v995h-433l2 -995h-161v995h-152v29h152q0 236 111.5 358.5t299.5 122.5q93 0 169 -39.5t112 -109.5q119 149 360 149q109 0 183 -45v15zM793 1024
q0 184 77 303q-32 74 -96.5 111t-142.5 37q-118 0 -194.5 -89.5t-76.5 -273.5v-88h433z" />
    <glyph glyph-name=".notdef" horiz-adv-x="1085" 
d="M102 1495h881v-1495h-881v1495zM236 1423l307 -587l307 587h-614zM498 748l-314 598v-1196zM590 748l311 -598v1196zM543 659l-307 -587h614z" />
    <glyph glyph-name=".null" 
 />
    <glyph glyph-name="nonmarkingreturn" horiz-adv-x="682" 
 />
    <glyph glyph-name="space" unicode=" " horiz-adv-x="507" 
 />
    <glyph glyph-name="exclam" unicode="!" horiz-adv-x="493" 
d="M229 352l-67 1041h170l-70 -1041h-33zM246 -29q-48 0 -81.5 33t-33.5 82t34 84t81 35q49 0 82.5 -34.5t33.5 -84.5q0 -49 -33 -82t-83 -33z" />
    <glyph glyph-name="quotedbl" unicode="&#x22;" horiz-adv-x="727" 
d="M170 971l-72 504h170l-73 -504h-25zM535 971l-76 504h170l-74 -504h-20z" />
    <glyph glyph-name="numbersign" unicode="#" horiz-adv-x="1398" 
d="M1333 922h-323l-78 -420h317v-29h-323l-88 -473h-29l88 473h-491l-89 -473h-28l88 473h-311v29h317l78 420h-311v28h317l90 482h29l-90 -482h491l90 482h29l-90 -482h317v-28zM903 502l78 420h-492l-77 -420h491z" />
    <glyph glyph-name="dollar" unicode="$" horiz-adv-x="1089" 
d="M1006 352q0 -167 -122 -267t-315 -114v-121h-32v119h-25q-115 0 -228 25t-175 53v96q149 -145 405 -145h23v592l-99 41q-79 34 -129.5 63.5t-98.5 73t-70.5 102t-22.5 134.5q0 80 33.5 143t92 103.5t133 63t161.5 27.5v123h32v-123h6q88 0 178 -19.5t146 -47.5v-94
q-133 133 -326 133h-4v-551l64 -27q55 -24 89 -39.5t78 -39t70.5 -43.5t55.5 -48.5t44.5 -59t25.5 -69.5t10 -84zM514 786l23 -10v537q-62 -4 -114 -19t-94.5 -42.5t-66.5 -72.5t-24 -104q0 -57 17.5 -99.5t57.5 -76.5t83.5 -57.5t117.5 -55.5zM569 0q142 12 228 81t86 175
q0 53 -17 96.5t-41.5 73.5t-70.5 59.5t-83.5 47.5t-101.5 45v-578z" />
    <glyph glyph-name="percent" unicode="%" horiz-adv-x="1691" 
d="M401 666q-140 0 -237.5 94.5t-97.5 240.5q0 148 96.5 244t238.5 96q143 0 239.5 -96t96.5 -244q0 -145 -98 -240t-238 -95zM510 0l657 1341h31l-655 -1341h-33zM401 694q93 0 148 84.5t55 222.5q0 144 -55 229t-148 85q-92 0 -147 -85t-55 -229q0 -138 54.5 -222.5
t147.5 -84.5zM1292 -31q-140 0 -238 95t-98 241q0 148 96.5 244t239.5 96t239.5 -96t96.5 -244q0 -146 -98 -241t-238 -95zM1292 -2q93 0 148 84.5t55 222.5q0 144 -55 228.5t-148 84.5t-147.5 -84.5t-54.5 -228.5q0 -138 54.5 -222.5t147.5 -84.5z" />
    <glyph glyph-name="ampersand" unicode="&#x26;" horiz-adv-x="1267" 
d="M1194 0h-176l-76 104q-165 -137 -420 -137q-213 0 -329.5 95.5t-116.5 250.5q0 41 10.5 79t24.5 67.5t42.5 61t50 51.5t63 48.5t64.5 43t71.5 43.5t68.5 41q-119 160 -158 236.5t-39 160.5q0 121 93 198.5t243 77.5q145 0 231.5 -64t86.5 -183q0 -39 -10 -73.5t-33.5 -67
t-45.5 -57t-63.5 -55.5t-68 -49.5t-77.5 -51.5q-17 -11 -26 -17l412 -559q86 151 86 381h84q-27 -253 -146 -414zM612 1393q-96 0 -146 -54t-50 -135q0 -84 36 -161t138 -220q110 78 163.5 157t53.5 183q0 230 -195 230zM573 10q217 0 351 119l-435 594q-55 -42 -96 -80.5
t-78.5 -87.5t-57 -106.5t-19.5 -120.5q0 -144 90.5 -231t244.5 -87z" />
    <glyph glyph-name="quotesingle" unicode="'" horiz-adv-x="364" 
d="M168 971l-68 504h164l-67 -504h-29z" />
    <glyph glyph-name="parenleft" unicode="(" horiz-adv-x="563" 
d="M489 -248q-81 76 -147.5 164t-122 194.5t-86.5 235t-31 264.5q0 261 108.5 483t278.5 382h31q-127 -154 -194.5 -376.5t-67.5 -488.5q0 -265 67.5 -484t194.5 -374h-31z" />
    <glyph glyph-name="parenright" unicode=")" horiz-adv-x="563" 
d="M45 -248q127 155 194.5 374t67.5 484q0 266 -67.5 488.5t-194.5 376.5h31q80 -76 147 -165.5t122 -198t86.5 -237.5t31.5 -264q0 -136 -31 -264.5t-87 -235.5t-122 -194t-147 -164h-31z" />
    <glyph glyph-name="asterisk" unicode="*" horiz-adv-x="890" 
d="M780 1274l-305 -191l293 -182l-18 -27l-289 181v-336h-33v336l-289 -181l-18 27l293 182l-305 191l18 29l301 -189v361h33v-361l301 189z" />
    <glyph glyph-name="plus" unicode="+" horiz-adv-x="1105" 
d="M1034 698v-28h-467v-467h-32v467h-463v28h463v467h32v-467h467z" />
    <glyph glyph-name="comma" unicode="," horiz-adv-x="432" 
d="M96 -313q59 71 96 134.5t84 166.5q-24 -15 -65 -15q-47 0 -79 33t-32 82q0 50 33 83.5t82 33.5q50 0 83.5 -33t33.5 -86q0 -25 -5 -46t-11.5 -37t-32.5 -77l-111 -239h-76z" />
    <glyph glyph-name="hyphen" unicode="-" horiz-adv-x="899" 
d="M76 467v29h749v-29h-749z" />
    <glyph glyph-name="period" unicode="." horiz-adv-x="458" 
d="M229 -31q-48 0 -81 33t-33 82t33.5 84t80.5 35q49 0 82 -34.5t33 -84.5t-33 -82.5t-82 -32.5z" />
    <glyph glyph-name="slash" unicode="/" horiz-adv-x="712" 
d="M68 -215l548 1786h31l-547 -1786h-32z" />
    <glyph glyph-name="zero" unicode="0" horiz-adv-x="1361" 
d="M682 -31q-113 0 -207.5 38.5t-160 104t-111 153.5t-67 186.5t-21.5 203.5t22 204t68.5 187t112 153.5t159.5 103.5t205 38t205 -38t159.5 -103.5t112 -153.5t68.5 -187t22 -204t-21.5 -203.5t-67 -186.5t-111 -153.5t-160 -104t-207.5 -38.5zM682 -2q126 0 216.5 88
t133.5 234t43 335q0 188 -43 334.5t-133.5 235t-216.5 88.5q-125 0 -215.5 -88.5t-134 -235t-43.5 -334.5t43.5 -335t134 -234.5t215.5 -87.5z" />
    <glyph glyph-name="one" unicode="1" horiz-adv-x="716" 
d="M348 0v1223l-305 -191v37l449 283h24v-1352h-168z" />
    <glyph glyph-name="two" unicode="2" horiz-adv-x="1067" 
d="M84 0v86q351 221 516.5 433.5t165.5 453.5q0 170 -72.5 255t-247.5 85q-116 0 -195.5 -42.5t-150.5 -113.5v92q65 34 162 63t187 29q493 0 493 -362q0 -91 -37 -182t-96.5 -169.5t-156.5 -166t-192.5 -159.5t-228.5 -163h727v-139h-874z" />
    <glyph glyph-name="three" unicode="3" horiz-adv-x="1073" 
d="M457 -31q-95 0 -195.5 26t-175.5 66v93q89 -77 169.5 -115.5t193.5 -38.5q175 0 256 93t81 251q0 173 -95.5 253.5t-295.5 82.5h-55v33h57q165 2 264 88.5t99 240.5q0 137 -69.5 203t-213.5 66q-79 0 -144.5 -22.5t-104 -50t-101.5 -81.5v92q173 92 360 92
q217 0 325 -74.5t108 -217.5q0 -149 -112.5 -243.5t-315.5 -103.5v-8q101 1 182 -17.5t146 -58t100.5 -108.5t35.5 -164q0 -177 -129.5 -277t-369.5 -100z" />
    <glyph glyph-name="four" unicode="4" horiz-adv-x="1144" 
d="M1090 371v-29h-220v-342h-163v342h-674v23l813 987h24v-981h220zM76 371h631v770z" />
    <glyph glyph-name="five" unicode="5" horiz-adv-x="1097" 
d="M465 -31q-194 0 -359 90v93q174 -154 357 -154q179 0 272.5 107t93.5 292q0 57 -13 111t-41 103t-69.5 85.5t-103 58t-135.5 21.5q-77 0 -157 -29.5t-120 -82.5l-24 4l8 643h737v-140h-704l-4 -450q58 46 151 72t183 26q117 0 209 -33.5t147 -91.5t83 -130t28 -154
q0 -204 -142.5 -322.5t-396.5 -118.5z" />
    <glyph glyph-name="six" unicode="6" horiz-adv-x="1171" 
d="M666 858q137 0 236.5 -60.5t146.5 -157.5t47 -216q0 -196 -129 -320t-338 -124q-122 0 -220.5 44t-162.5 121.5t-98.5 181t-34.5 222.5q0 146 41.5 273.5t114 221t169.5 161.5t210 102t233 34v-24q-247 0 -405.5 -173t-192.5 -460q64 74 167.5 124t215.5 50zM629 10
q147 0 228 106.5t81 295.5q0 179 -85 289t-237 110q-217 0 -337 -166q-5 -92 -5 -110q0 -143 39 -260t121.5 -191t194.5 -74z" />
    <glyph glyph-name="seven" unicode="7" horiz-adv-x="966" 
d="M225 0v29l617 1142h-785v140h856v-27l-495 -1284h-193z" />
    <glyph glyph-name="eight" unicode="8" horiz-adv-x="1173" 
d="M684 713q70 -33 117 -57.5t101.5 -62t86.5 -75t54 -90t22 -111.5q0 -151 -133 -249.5t-350 -98.5q-213 0 -342 90t-129 246q0 246 348 363q-53 28 -92 52t-80.5 58t-68 69t-43.5 81t-17 98q0 136 116.5 225.5t315.5 89.5q189 0 304.5 -84t115.5 -219q0 -99 -81.5 -184.5
t-244.5 -140.5zM291 1075q0 -42 11.5 -79t36.5 -67.5t50.5 -54.5t68 -49t73.5 -40.5t81 -39.5q32 -14 43 -20q56 26 95.5 52t74 62.5t51.5 85t17 109.5q0 128 -86 203.5t-223 75.5q-127 0 -210 -66t-83 -172zM582 -2q155 0 252.5 78.5t97.5 195.5q0 39 -12.5 74.5
t-31.5 62.5t-50 54t-60 46t-69.5 40t-70.5 34.5t-71.5 32t-64.5 29.5q-14 7 -15 8q-131 -59 -195.5 -141.5t-64.5 -204.5q0 -147 94.5 -228t260.5 -81z" />
    <glyph glyph-name="nine" unicode="9" horiz-adv-x="1171" 
d="M569 1341q122 0 216.5 -42t153.5 -117t89.5 -175t30.5 -221q0 -188 -64 -343.5t-170 -255t-239 -153.5t-275 -54v24q241 0 390.5 170.5t185.5 458.5q-62 -71 -167.5 -120.5t-213.5 -49.5q-138 0 -237 60.5t-146 158t-47 219.5q0 194 138.5 317t354.5 123zM553 508
q103 0 192 44.5t146 119.5q6 68 6 139q0 104 -19 191.5t-57 157.5t-102.5 109.5t-149.5 39.5q-154 0 -245 -103t-91 -284q0 -184 82 -299t238 -115z" />
    <glyph glyph-name="colon" unicode=":" horiz-adv-x="503" 
d="M252 612q-48 0 -81.5 33t-33.5 82t33.5 83t81.5 34q49 0 82 -33.5t33 -83.5q0 -49 -32.5 -82t-82.5 -33zM252 -31q-48 0 -81.5 33t-33.5 82t34 84t81 35q49 0 82 -34.5t33 -84.5t-32.5 -82.5t-82.5 -32.5z" />
    <glyph glyph-name="semicolon" unicode=";" horiz-adv-x="561" 
d="M287 612q-48 0 -81.5 33t-33.5 82t34 84t81 35q49 0 81.5 -34.5t32.5 -84.5t-32.5 -82.5t-81.5 -32.5zM168 -313q59 71 96 134.5t84 166.5q-24 -15 -63 -15q-49 0 -81 32.5t-32 82.5q0 49 33.5 83t81.5 34q52 0 85.5 -33t33.5 -86q0 -32 -6.5 -53t-34.5 -82
q-7 -16 -11 -25l-110 -239h-76z" />
    <glyph glyph-name="less" unicode="&#x3c;" horiz-adv-x="1105" 
d="M842 201l-594 465v30l594 467v-33l-570 -448l570 -449v-32z" />
    <glyph glyph-name="equal" unicode="=" horiz-adv-x="1105" 
d="M76 844v28h954v-28h-954zM76 498v28h954v-28h-954z" />
    <glyph glyph-name="greater" unicode="&#x3e;" horiz-adv-x="1105" 
d="M264 201v32l570 449l-570 448v33l594 -467v-30z" />
    <glyph glyph-name="question" unicode="?" horiz-adv-x="925" 
d="M408 352v312q46 24 79.5 45.5t74.5 58t66.5 76t43.5 98t18 127.5q0 148 -65 236t-207 88q-118 0 -203.5 -46t-157.5 -118v92q69 36 172.5 68t200.5 32q195 0 306.5 -89.5t111.5 -254.5q0 -68 -24.5 -128.5t-64 -105.5t-94 -82.5t-109.5 -61.5t-116 -42v-305h-32zM430 -31
q-48 0 -81.5 33t-33.5 82t33.5 83t81.5 34q49 0 82 -33.5t33 -83.5t-32.5 -82.5t-82.5 -32.5z" />
    <glyph glyph-name="at" unicode="@" horiz-adv-x="1576" 
d="M1255 281q34 0 69 27.5t66.5 80.5t51.5 144t20 204q0 272 -176 447.5t-459 175.5q-201 0 -358.5 -92t-245.5 -257t-88 -374q0 -210 89 -372t250.5 -251.5t369.5 -89.5q139 0 232.5 41.5t164.5 112.5v-98q-173 -84 -403 -84q-216 0 -384 95t-260 263.5t-92 382.5
q0 213 92 384.5t258 269.5t375 98q192 0 344.5 -83.5t238 -234t85.5 -342.5q0 -232 -84 -364t-207 -132q-91 0 -129 58t-45 166q-10 -38 -32.5 -74.5t-57.5 -71.5t-89 -56.5t-118 -21.5q-157 0 -252.5 109.5t-95.5 284.5q0 180 99.5 297.5t254.5 117.5q95 0 173 -52.5
t116 -153.5l98 217h33l2 -592q0 -91 20.5 -135.5t73.5 -44.5zM776 289q59 0 106 22t75.5 58.5t45.5 73.5t25 77v258q-36 107 -102.5 158t-149.5 51q-121 0 -184.5 -95t-63.5 -255q0 -159 62.5 -253.5t185.5 -94.5z" />
    <glyph glyph-name="A" unicode="A" horiz-adv-x="1261" 
d="M1065 0l-137 330h-703q-85 -261 -92 -330h-90q79 191 241 609.5t234 598.5l90 224h25l604 -1432h-172zM233 358h682l-356 850h-8q-191 -462 -318 -850z" />
    <glyph glyph-name="B" unicode="B" horiz-adv-x="1310" 
d="M201 0v1391h454q225 0 343 -82.5t118 -241.5q0 -131 -82.5 -215t-234.5 -109v-6q411 -36 411 -377q0 -169 -125 -264.5t-340 -95.5h-544zM371 748h268q135 0 228.5 80t93.5 229q0 305 -322 305h-268v-614zM371 29h309q169 0 262.5 86.5t93.5 253.5q0 169 -96 259.5
t-260 90.5h-309v-690z" />
    <glyph glyph-name="C" unicode="C" horiz-adv-x="1286" 
d="M852 -31q-339 0 -541 197t-202 528q0 159 53 294t149.5 230.5t237 149t309.5 53.5q107 0 208 -18.5t153 -46.5v-92q-62 62 -145.5 95.5t-211.5 33.5q-173 0 -304 -92t-199 -250t-68 -357q0 -314 155 -504t422 -190q199 0 351 94v-37q-170 -88 -367 -88z" />
    <glyph glyph-name="D" unicode="D" horiz-adv-x="1517" 
d="M201 0v1391h469q348 0 542.5 -185.5t194.5 -509.5q0 -326 -194 -511t-543 -185h-469zM371 29h299q263 0 409 175t146 492q0 315 -147 490.5t-408 175.5h-299v-1333z" />
    <glyph glyph-name="E" unicode="E" horiz-adv-x="1069" 
d="M393 29q263 0 382.5 10t228.5 41v-80h-803v1391h757v-80q-181 51 -581 51h-6v-651q339 7 487 24v-78q-233 25 -487 25v-653h22z" />
    <glyph glyph-name="F" unicode="F" horiz-adv-x="1007" 
d="M201 1391h757v-80q-181 51 -581 51h-6v-635q329 7 487 25v-78q-224 24 -487 24v-698h-170v1391z" />
    <glyph glyph-name="G" unicode="G" horiz-adv-x="1441" 
d="M827 -31q-215 0 -380 95t-253 261t-88 375q0 157 54 290.5t151.5 228.5t241 148.5t315.5 53.5q106 0 207 -18.5t154 -46.5v-96q-137 133 -357 133q-135 0 -245.5 -53.5t-184 -146.5t-113.5 -219.5t-40 -273.5q0 -205 69 -364t195 -247.5t289 -88.5q183 0 321 84v610h164
v-575q-218 -147 -500 -150z" />
    <glyph glyph-name="H" unicode="H" horiz-adv-x="1552" 
d="M201 0v1391h170v-703h811v703h170v-1391h-170v659h-811v-659h-170z" />
    <glyph glyph-name="I" unicode="I" horiz-adv-x="571" 
d="M201 0v1391h170v-1391h-170z" />
    <glyph glyph-name="J" unicode="J" horiz-adv-x="866" 
d="M285 -31q-150 0 -252 45v95q52 -54 107 -82.5t141 -28.5q229 0 229 313v1080h170v-1000q0 -93 -21 -167t-65.5 -132.5t-123 -90.5t-185.5 -32z" />
    <glyph glyph-name="K" unicode="K" horiz-adv-x="1323" 
d="M821 717l488 -717h-181l-491 717h-266v-717h-170v1391h170v-646h258q179 186 299.5 333.5t238.5 312.5h99q-26 -32 -51.5 -62.5t-58 -67t-54.5 -61t-64.5 -69.5t-61.5 -65.5t-73 -76t-72.5 -74.5t-85 -87t-86.5 -89v-22h162z" />
    <glyph glyph-name="L" unicode="L" horiz-adv-x="980" 
d="M377 29q242 0 356 10t225 41v-80h-757v1391h170v-1362h6z" />
    <glyph glyph-name="M" unicode="M" horiz-adv-x="1695" 
d="M178 0q25 429 27 588v844h22l621 -1115h8l617 1115h22v-1432h-170v1092h-8l-518 -942h-25l-530 978h-8v-542q0 -235 26 -586h-84z" />
    <glyph glyph-name="N" unicode="N" horiz-adv-x="1439" 
d="M1212 -41l-968 1227h-8v-635q0 -200 26 -551h-84q2 26 7.5 111.5t8.5 142.5t6.5 142.5t4.5 156.5v879h22l971 -1221h6v629q0 146 -24 551h82q-2 -27 -7.5 -111.5t-8.5 -141.5t-6.5 -142t-4.5 -156v-881h-23z" />
    <glyph glyph-name="O" unicode="O" horiz-adv-x="1628" 
d="M811 -31q-206 0 -366.5 92.5t-248 258t-87.5 376.5q0 208 87 372.5t248 258.5t367 94q156 0 289 -55t225.5 -150.5t144.5 -230t52 -289.5q0 -210 -88 -375.5t-250.5 -258.5t-372.5 -93zM811 -2q250 0 386 189t136 509q0 208 -59.5 364t-178 244.5t-284.5 88.5t-285 -90
t-177 -245.5t-58 -361.5q0 -210 59 -366t177 -244t284 -88z" />
    <glyph glyph-name="P" unicode="P" horiz-adv-x="1253" 
d="M201 0v1391h516q213 0 339 -111t126 -291q0 -209 -138 -316t-399 -110h-274v-563h-170zM371 592h247q386 0 386 395q0 59 -9 109.5t-33.5 100.5t-63 85.5t-102 57.5t-145.5 22h-280v-770z" />
    <glyph glyph-name="Q" unicode="Q" horiz-adv-x="1628" 
d="M840 -31q241 -115 415.5 -171t225.5 -54v-115q-47 10 -101 29.5t-128.5 56t-132 67t-168.5 90.5t-181 97q-296 15 -478.5 216.5t-182.5 510.5q0 208 87 372.5t248 258.5t367 94q156 0 289 -55t225.5 -150.5t144.5 -230t52 -289.5q0 -205 -84.5 -368t-240 -257.5
t-357.5 -101.5zM291 696q0 -210 59 -366t177 -244t284 -88q250 0 386 189t136 509q0 208 -59.5 364t-178 244.5t-284.5 88.5t-285 -90t-177 -245.5t-58 -361.5z" />
    <glyph glyph-name="R" unicode="R" horiz-adv-x="1296" 
d="M1214 0h-182l-373 684h-36h-252v-684h-170v1391h487q246 0 357.5 -82t111.5 -258q0 -167 -123 -260t-346 -105l17 -27h155zM371 713h252q196 0 280 86.5t84 247.5q0 72 -16 126.5t-53 98.5t-104.5 67t-164.5 23h-278v-649z" />
    <glyph glyph-name="S" unicode="S" horiz-adv-x="1077" 
d="M502 -31q-112 0 -223.5 27t-174.5 57v99q150 -154 402 -154q166 0 269.5 75t103.5 201q0 33 -6 62t-14 52t-25 45.5t-30.5 38.5t-40.5 34.5t-44 29.5t-52 28t-54.5 25.5t-59.5 26.5l-119 54q-64 29 -108.5 54t-87.5 59.5t-68.5 73t-41 91.5t-15.5 117q0 89 36.5 158
t100.5 111.5t145.5 64.5t175.5 22q88 0 177 -21t147 -50v-99q-138 142 -326 142q-92 0 -165.5 -24t-123 -83.5t-49.5 -148.5q0 -60 17 -105t57 -81.5t85 -62.5t120 -61l119 -53q54 -25 88 -41t77.5 -41t70 -46t55 -51.5t44 -63t25.5 -74t10 -90.5q0 -128 -68 -219.5
t-178.5 -135t-250.5 -43.5z" />
    <glyph glyph-name="T" unicode="T" horiz-adv-x="1167" 
d="M23 1391h1122v-80q-163 43 -475 49v-1360h-170v1360q-314 -6 -477 -49v80z" />
    <glyph glyph-name="U" unicode="U" horiz-adv-x="1433" 
d="M727 -31q-545 0 -545 588v834h170v-883q0 -124 20.5 -212t68.5 -154t131.5 -98t203.5 -32q213 0 324.5 143.5t111.5 424.5v260q0 146 -24 551h82q-1 -21 -7 -110.5t-9 -143.5t-6 -140t-3 -157v-260q0 -303 -127 -457t-391 -154z" />
    <glyph glyph-name="V" unicode="V" horiz-adv-x="1255" 
d="M625 -41l-605 1432h173l505 -1209h9q124 298 224 579.5t144 430.5t51 199h88q-80 -195 -244 -618t-231 -591l-90 -223h-24z" />
    <glyph glyph-name="W" unicode="W" horiz-adv-x="2029" 
d="M1901 1391h92q-56 -154 -193.5 -550t-228.5 -644l-86 -238h-25l-446 1239l-426 -1239h-25l-538 1432h172l440 -1180h8l416 1221h24l445 -1235h6q169 474 259.5 781t105.5 413z" />
    <glyph glyph-name="X" unicode="X" horiz-adv-x="1171" 
d="M1169 0h-184l-453 672q-275 -403 -397 -672h-96q36 58 113.5 172t187 273.5t172.5 252.5l-467 693h184l398 -588q138 199 214 330t136 258h94q-44 -71 -203.5 -297.5t-222.5 -319.5z" />
    <glyph glyph-name="Y" unicode="Y" horiz-adv-x="1183" 
d="M500 0v621l-437 770h179l399 -713h8q321 508 408 713h92q-202 -304 -479 -729v-662h-170z" />
    <glyph glyph-name="Z" unicode="Z" horiz-adv-x="1134" 
d="M463 29q433 0 614 51v-80h-1007v29l802 1333h-194q-434 0 -615 -51v80h1000v-29l-803 -1333h203z" />
    <glyph glyph-name="bracketleft" unicode="[" horiz-adv-x="626" 
d="M182 -248v1723h414v-29h-258v-1665h258v-29h-414z" />
    <glyph glyph-name="backslash" unicode="\" horiz-adv-x="712" 
d="M612 -215l-546 1786h30l549 -1786h-33z" />
    <glyph glyph-name="bracketright" unicode="]" horiz-adv-x="626" 
d="M31 -248v29h258v1665h-258v29h413v-1723h-413z" />
    <glyph glyph-name="asciicircum" unicode="^" horiz-adv-x="1105" 
d="M170 1139l-12 26l340 375h110l340 -375l-12 -26l-383 299z" />
    <glyph glyph-name="underscore" unicode="_" horiz-adv-x="925" 
d="M-4 -119v29h934v-29h-934z" />
    <glyph glyph-name="grave" unicode="`" horiz-adv-x="600" 
d="M416 1192l-377 346v14h194l211 -360h-28z" />
    <glyph glyph-name="a" unicode="a" horiz-adv-x="1103" 
d="M549 1053q116 0 195 -29t122.5 -88.5t61.5 -136t18 -185.5v-655h-39l-114 313q-47 -124 -162.5 -214.5t-265.5 -90.5q-133 0 -211 66.5t-78 183.5q0 359 706 363v100q0 69 -4.5 116t-19.5 93.5t-41.5 73.5t-73 44t-111.5 17q-201 0 -376 -162v92q212 99 393 99zM434 37
q111 0 202.5 75t145.5 201v242q-59 -3 -108 -8t-108 -15t-104 -24t-89.5 -37t-74 -52t-47.5 -70t-18 -91q0 -118 55 -169.5t146 -51.5z" />
    <glyph glyph-name="b" unicode="b" horiz-adv-x="1280" 
d="M727 1053q210 0 331.5 -137.5t121.5 -380.5q0 -163 -52.5 -290.5t-156 -201.5t-242.5 -74q-88 0 -162.5 30t-122.5 78t-78 99.5t-42 102.5l-115 -320h-37v1516h162v-709q48 137 156 212t237 75zM676 35q82 0 146 36t103.5 100.5t60 150t20.5 188.5q0 216 -85.5 346.5
t-246.5 130.5q-112 0 -201 -66t-139 -210v-379q10 -43 25 -80t42.5 -78.5t63 -71t90.5 -48.5t121 -19z" />
    <glyph glyph-name="c" unicode="c" horiz-adv-x="1038" 
d="M631 -33q-247 0 -390 149t-143 396q0 246 157.5 394.5t426.5 148.5q75 0 155 -16.5t130 -43.5v-92q-60 62 -126.5 92.5t-160.5 30.5q-185 0 -296.5 -132t-111.5 -382q0 -239 104.5 -374.5t289.5 -135.5q84 0 165.5 25.5t135.5 66.5v-28q-55 -44 -146.5 -71.5
t-189.5 -27.5z" />
    <glyph glyph-name="d" unicode="d" horiz-adv-x="1280" 
d="M946 1475h164v-1516h-39l-119 340q-9 -41 -27.5 -84t-53 -88t-78 -79.5t-107 -56.5t-135.5 -22q-210 0 -330.5 145t-120.5 380q0 247 125 403t332 156q127 0 234 -73.5t155 -209.5v705zM604 35q64 0 118 21t89.5 52.5t64 75.5t44 83t26.5 83v361q-50 143 -140 209.5
t-202 66.5q-161 0 -245.5 -130t-84.5 -347q0 -103 20.5 -188.5t60 -150t103.5 -100.5t146 -36z" />
    <glyph glyph-name="e" unicode="e" horiz-adv-x="1157" 
d="M1061 516h-791q0 -243 109 -378.5t303 -135.5q64 0 117.5 10.5t96.5 31.5t68.5 37.5t59.5 43.5v-33q-71 -57 -157.5 -91t-217.5 -34q-168 0 -295 72.5t-192.5 197t-65.5 281.5q0 130 47 235.5t124.5 169.5t171 98t192.5 34q191 0 314.5 -125t123.5 -318q0 -38 -8 -96z
M270 545h648q0 16 1 47t1 45q0 183 -75.5 286t-213.5 103q-164 0 -259.5 -121t-101.5 -360z" />
    <glyph glyph-name="f" unicode="f" horiz-adv-x="643" 
d="M584 1477q-36 0 -65.5 -7.5t-58 -28.5t-47.5 -55t-30.5 -89.5t-11.5 -129.5v-143h262v-29h-262v-995h-160v995h-164v29h164v61q0 92 21 166.5t64.5 132.5t116 89.5t169.5 31.5q118 0 206 -39v-100q-111 111 -204 111z" />
    <glyph glyph-name="g" unicode="g" horiz-adv-x="1120" 
d="M764 174q309 0 309 -221q0 -144 -131.5 -233t-368.5 -89q-303 0 -464 84v92q64 -65 182.5 -106t286.5 -41q190 0 299.5 66.5t109.5 164.5q0 144 -223 144h-604l-39 139l186 221q-92 44 -144 122.5t-52 182.5q0 155 118 254t316 99q113 0 203 -35l260 94v-108l-220 -5
q91 -44 142 -124t51 -179q0 -162 -113 -256t-323 -94q-114 0 -207 35l-176 -207h602zM545 1024q-133 0 -209 -87.5t-76 -240.5q0 -147 76 -234t209 -87q134 0 210 86.5t76 234.5q0 153 -76 240.5t-210 87.5z" />
    <glyph glyph-name="h" unicode="h" horiz-adv-x="1257" 
d="M715 1053q187 0 286 -103t99 -297v-653h-164v666q0 162 -67.5 241.5t-215.5 79.5q-124 0 -198.5 -71t-120.5 -205v-711h-162v1475h162v-707q45 132 141 208.5t240 76.5z" />
    <glyph glyph-name="i" unicode="i" horiz-adv-x="505" 
d="M252 1200q-47 0 -80 34t-33 81t33 79.5t80 32.5q48 0 81.5 -32.5t33.5 -79.5t-34 -81t-81 -34zM172 0v1024h162v-1024h-162z" />
    <glyph glyph-name="j" unicode="j" horiz-adv-x="499" 
d="M248 1200q-47 0 -81 34t-34 81t33.5 79.5t81.5 32.5q47 0 80.5 -32.5t33.5 -79.5t-33.5 -81t-80.5 -34zM-31 -369q-114 0 -202 39v101q59 -55 105 -83t95 -28q207 0 207 313l-6 1051h162v-971q0 -75 -10.5 -136t-36.5 -115t-66.5 -91t-103 -58.5t-144.5 -21.5z" />
    <glyph glyph-name="k" unicode="k" horiz-adv-x="1095" 
d="M172 0v1475h162v-910h168q53 48 103.5 100t86.5 92t74.5 87.5t58 72.5t47.5 63t33 44h107q-67 -58 -227.5 -222t-245.5 -241v-14h137l422 -547h-176l-412 537h-176v-537h-162z" />
    <glyph glyph-name="l" unicode="l" horiz-adv-x="505" 
d="M172 0v1475h162v-1475h-162z" />
    <glyph glyph-name="m" unicode="m" horiz-adv-x="1970" 
d="M1446 1053q182 0 273 -103t91 -297v-653h-161v666q0 160 -61 240.5t-202 80.5q-231 0 -315 -266q2 -18 2 -55v-666h-164v666q0 161 -60.5 241t-201.5 80q-127 0 -197 -70t-116 -206v-711h-162v1065h37l123 -295q98 283 377 283q148 0 238 -75t116 -206q104 281 383 281z
" />
    <glyph glyph-name="n" unicode="n" horiz-adv-x="1259" 
d="M721 1053q187 0 284 -101.5t97 -298.5v-653h-164v666q0 161 -67 241t-212 80q-228 0 -323 -276v-711h-164v1065h37l125 -293q46 129 145.5 205t241.5 76z" />
    <glyph glyph-name="o" unicode="o" horiz-adv-x="1294" 
d="M647 -31q-165 0 -291.5 72t-193 194.5t-66.5 276.5t66.5 276t193 193.5t291.5 71.5q250 0 401.5 -153t151.5 -388q0 -110 -39 -208.5t-109.5 -173t-175.5 -118t-229 -43.5zM647 -2q179 0 279 135.5t100 378.5q0 244 -100 378t-279 134t-278 -134t-99 -378
q0 -243 99.5 -378.5t277.5 -135.5z" />
    <glyph glyph-name="p" unicode="p" horiz-adv-x="1282" 
d="M731 1053q210 0 330.5 -137.5t120.5 -380.5q0 -163 -52.5 -290.5t-156 -201.5t-242.5 -74q-87 0 -160 28.5t-119.5 73.5t-75.5 92.5t-40 94.5v-596h-166v1403h39l127 -295q46 130 152.5 206.5t242.5 76.5zM678 35q82 0 146 36t103.5 100.5t60 150t20.5 188.5
q0 217 -84.5 347t-245.5 130q-113 0 -202.5 -66t-139.5 -210v-379q39 -147 122 -222t220 -75z" />
    <glyph glyph-name="q" unicode="q" horiz-adv-x="1284" 
d="M1075 1065h39v-1421h-168v659q-6 -39 -24 -82t-51 -88.5t-76.5 -81.5t-107 -59t-136.5 -23q-210 0 -330.5 145t-120.5 380q0 247 125 403t332 156q132 0 237.5 -77.5t151.5 -203.5zM946 354v357q-50 144 -139.5 210t-202.5 66q-161 0 -245.5 -130t-84.5 -347
q0 -103 20.5 -188.5t60 -150t103.5 -100.5t146 -36q63 0 116.5 21t89.5 53.5t64.5 77t44.5 84.5t27 83z" />
    <glyph glyph-name="r" unicode="r" horiz-adv-x="696" 
d="M332 838q32 94 123.5 155.5t195.5 61.5v-88q-45 0 -79 -3t-74.5 -13.5t-69.5 -29.5t-54.5 -53.5t-39.5 -81.5v-786h-162v1065h37z" />
    <glyph glyph-name="s" unicode="s" horiz-adv-x="944" 
d="M477 -31q-210 0 -379 88v99q175 -158 369 -158q120 0 195 52t75 145q0 45 -18.5 83t-43.5 62.5t-67.5 47.5t-72.5 35t-77 29q-5 2 -7.5 2.5t-6 2t-6.5 2.5q-37 13 -53.5 19.5t-51.5 20.5t-52 23.5t-45.5 26.5t-43.5 32t-34.5 37t-28.5 44.5t-16 52t-7 61.5q0 123 96 200
t259 77q86 0 180.5 -22t149.5 -50v-98q-137 141 -326 141q-105 0 -164 -49t-59 -139q0 -40 15.5 -74t38 -56.5t58.5 -43t67 -34t74 -29.5q13 -5 19 -7q148 -55 203 -87q144 -84 149 -227v-10q0 -130 -102 -214.5t-287 -84.5z" />
    <glyph glyph-name="t" unicode="t" horiz-adv-x="669" 
d="M254 0v995h-231v29h231l125 270h37v-270h231v-29h-231v-995h-162z" />
    <glyph glyph-name="u" unicode="u" horiz-adv-x="1257" 
d="M924 1024h163v-1065h-36l-125 305q-26 -126 -122.5 -209.5t-244.5 -83.5q-202 0 -301.5 108.5t-99.5 328.5v616h161v-629q0 -191 64 -277.5t227 -86.5q246 0 314 303v690z" />
    <glyph glyph-name="v" unicode="v" horiz-adv-x="1032" 
d="M500 -41l-461 1063h172l367 -870h8q97 221 169 406.5t99 264t66 201.5h75q-45 -99 -171.5 -397t-209.5 -475l-92 -193h-22z" />
    <glyph glyph-name="w" unicode="w" horiz-adv-x="1628" 
d="M1516 1024h75q-45 -111 -140.5 -365t-197.5 -499l-88 -203h-22l-324 893l-342 -891h-22l-416 1065h172l315 -842h9l333 883h25l324 -903h8q217 562 291 862z" />
    <glyph glyph-name="x" unicode="x" horiz-adv-x="980" 
d="M958 0h-194l-332 465q-130 -182 -191.5 -277.5t-105.5 -187.5h-84q49 69 111 151t139 184t115 152l-383 537h192l320 -446q120 168 177.5 259t102.5 187h84q-31 -42 -156.5 -211.5t-189.5 -259.5z" />
    <glyph glyph-name="y" unicode="y" horiz-adv-x="1028" 
d="M918 1024h77l-381 -831l-92 -193l-170 -369l-82 52l228 317l-459 1022h170l369 -829h8q148 339 217.5 515t114.5 316z" />
    <glyph glyph-name="z" unicode="z" horiz-adv-x="901" 
d="M426 29q263 0 428 51v-80h-799v29l592 966h-129q-264 0 -432 -51v80h739v-29l-592 -966h193z" />
    <glyph glyph-name="braceleft" unicode="{" horiz-adv-x="649" 
d="M557 -281q-101 0 -166 15.5t-100 50.5t-47.5 79.5t-12.5 112.5v459q0 160 -184 160h-22v33h22q184 0 184 159v459q0 68 13 112.5t47.5 79.5t99 50.5t164.5 15.5h51v-28h-51q-87 0 -128.5 -42t-41.5 -151l2 -446q0 -62 -20 -104.5t-59 -66t-77 -34.5t-94 -19v-4
q44 -6 75.5 -13.5t67 -23.5t57 -38.5t36 -60t14.5 -87.5v-446q0 -109 41 -151t129 -42h51v-29h-51z" />
    <glyph glyph-name="bar" unicode="|" horiz-adv-x="397" 
d="M182 -215v1743h33v-1743h-33z" />
    <glyph glyph-name="braceright" unicode="}" horiz-adv-x="649" 
d="M41 -281v29h51q88 0 129 42t41 151v446q0 50 14.5 87.5t36 60t57 38.5t67 23.5t75.5 13.5v4q-56 8 -94 19t-77 34.5t-59 66t-20 104.5l2 446q0 109 -41.5 151t-128.5 42h-51v28h51q96 0 160 -16t99.5 -50t50 -79.5t14.5 -112.5v-459q0 -159 184 -159h23v-33h-23
q-184 0 -184 -160v-459q0 -67 -14 -112.5t-50 -79.5t-100 -50t-162 -16h-51z" />
    <glyph glyph-name="asciitilde" unicode="~" horiz-adv-x="1105" 
d="M84 514q0 62 21.5 110t57 75.5t76.5 41t85 13.5q49 0 101 -18t97.5 -44t90.5 -52t97.5 -44t102.5 -18q92 0 137 58.5t45 149.5h33q0 -103 -55 -170t-160 -67q-53 0 -107 18t-100 44t-91 52t-96 44t-100 18q-38 0 -72.5 -11t-64.5 -34t-47.5 -66t-17.5 -100h-33z" />
    <glyph glyph-name="uni00A0" unicode="&#xa0;" horiz-adv-x="507" 
 />
    <glyph glyph-name="exclamdown" unicode="&#xa1;" horiz-adv-x="473" 
d="M238 1135q48 0 81 -33t33 -82t-33.5 -84t-80.5 -35q-49 0 -83 34.5t-34 84.5q0 49 33.5 82t83.5 33zM219 754h33l70 -1041h-168z" />
    <glyph glyph-name="cent" unicode="&#xa2;" horiz-adv-x="1093" 
d="M696 1171q-27 0 -39 -2v-1026q12 -2 39 -2q94 0 160.5 30.5t126.5 92.5v-92q-50 -27 -129.5 -43t-155.5 -16h-41v-193h-32v197q-238 20 -375 165t-137 375q0 228 137 373.5t375 165.5v197h32v-193h41q76 0 155.5 -16t129.5 -43v-94q-60 62 -126.5 93t-160.5 31zM625 147
v1018q-156 -24 -247 -154.5t-91 -355.5t91 -354.5t247 -153.5z" />
    <glyph glyph-name="sterling" unicode="&#xa3;" horiz-adv-x="1128" 
d="M219 119h821v-119h-962v27q94 44 144 139t50 223q0 41 -15.5 137t-20.5 133h-138v29h135q-8 57 -8 146q0 252 135.5 379.5t389.5 127.5q144 0 282 -73v-88q-36 35 -56.5 52.5t-54.5 39.5t-72 31.5t-85 9.5q-183 0 -267.5 -122t-99.5 -386q-1 -22 -4 -61t-4 -56h379v-29
h-383q-12 -126 -28 -215t-38.5 -146.5t-40.5 -89.5t-48 -74q-7 -10 -11 -15z" />
    <glyph glyph-name="currency" unicode="&#xa4;" horiz-adv-x="1114" 
d="M154 158l-23 20l174 207q-53 50 -82.5 120.5t-29.5 149.5q0 164 114 275l-178 213l21 18l180 -215q99 86 227 86t227 -86l181 215l20 -18l-178 -213q115 -112 115 -275q0 -79 -30 -149.5t-83 -120.5l174 -207l-22 -20l-177 207q-98 -82 -227 -82t-227 82zM557 309
q137 0 236.5 102.5t99.5 243.5t-100 245t-236 104t-236 -104t-100 -245t99.5 -243.5t236.5 -102.5z" />
    <glyph glyph-name="yen" unicode="&#xa5;" horiz-adv-x="1253" 
d="M690 616v-43h406v-28h-406v-226h406v-28h-404v-291h-166v291h-370v28h370v226h-370v28h370v11l-436 725h172l404 -664h8q293 434 403 664h92q-66 -93 -479 -693z" />
    <glyph glyph-name="brokenbar" unicode="&#xa6;" horiz-adv-x="397" 
d="M182 764v764h33v-764h-33zM182 -215v764h33v-764h-33z" />
    <glyph glyph-name="section" unicode="&#xa7;" horiz-adv-x="1146" 
d="M1065 332q0 -186 -174 -281q37 -64 37 -143q0 -135 -109.5 -226.5t-277.5 -91.5q-122 0 -226.5 26t-173.5 58v99q73 -73 164 -113.5t238 -40.5q130 0 206 63t76 160q0 77 -51.5 136t-167.5 145l-291 221q-116 87 -169.5 165t-53.5 179q0 99 47 160.5t135 107.5
q-38 71 -38 164q0 127 94 214t256 87q89 0 178 -21t145 -50v-99q-64 66 -141 104t-184 38q-127 0 -188.5 -62t-61.5 -162q0 -33 12 -64t28 -54.5t50 -55t59 -50.5t74 -56l291 -221q119 -90 168 -159.5t49 -176.5zM874 78q47 22 78 65.5t31 102.5q0 69 -45 122t-152 136
l-315 250q-132 104 -182 178q-49 -23 -80 -66t-31 -100q0 -69 45.5 -122.5t153.5 -135.5l315 -250q129 -101 182 -180z" />
    <glyph glyph-name="dieresis" unicode="&#xa8;" horiz-adv-x="868" 
d="M233 1178q-46 0 -77 31.5t-31 78.5q0 46 31.5 78.5t76.5 32.5q46 0 77.5 -32.5t31.5 -78.5q0 -47 -31.5 -78.5t-77.5 -31.5zM643 1178q-46 0 -77 31.5t-31 78.5q0 46 31.5 78.5t76.5 32.5q46 0 78.5 -32.5t32.5 -78.5q0 -47 -32.5 -78.5t-78.5 -31.5z" />
    <glyph glyph-name="copyright" unicode="&#xa9;" horiz-adv-x="1730" 
d="M864 -31q-153 0 -291 59t-237.5 158.5t-158 237.5t-58.5 291t58.5 291t158 237.5t237.5 158t291 58.5t292 -58.5t239.5 -158t159.5 -237.5t59 -291t-59 -291t-159.5 -237.5t-239.5 -158.5t-292 -59zM864 -2q196 0 361 96t260.5 261t95.5 360t-95.5 360t-260.5 261
t-361 96q-195 0 -359 -96t-258.5 -260.5t-94.5 -360.5t94.5 -360.5t258.5 -260.5t359 -96zM883 307q-180 0 -296 112.5t-116 295.5q0 182 124 294.5t320 112.5q122 0 207 -47v-80q-46 51 -93.5 75t-110.5 24q-146 0 -233 -103t-87 -276q0 -161 77.5 -270t213.5 -109
q66 0 129.5 19t103.5 51v-31q-40 -31 -107 -49.5t-132 -18.5z" />
    <glyph glyph-name="ordfeminine" unicode="&#xaa;" horiz-adv-x="890" 
d="M723 1569h25v-713h-23l-82 211q-7 -32 -26 -64.5t-49 -64t-77.5 -51t-103.5 -19.5q-135 0 -213 92t-78 242q0 158 81.5 258.5t213.5 100.5q84 0 151 -47.5t97 -124.5zM422 911q49 0 88 19.5t64 52t40 64t25 67.5v217q-31 93 -88.5 139t-128.5 46q-102 0 -154.5 -82.5
t-52.5 -221.5q0 -136 51.5 -218.5t155.5 -82.5z" />
    <glyph glyph-name="guillemotleft" unicode="&#xab;" horiz-adv-x="1183" 
d="M621 49l-519 434v35l519 434v-26l-367 -424l367 -426v-27zM1077 49l-518 434v35l518 434v-26l-366 -424l366 -426v-27z" />
    <glyph glyph-name="registered" unicode="&#xae;" horiz-adv-x="1720" 
d="M868 1421q152 0 288.5 -56.5t234.5 -153t155.5 -232t57.5 -287.5q0 -200 -101 -367t-272 -262.5t-373 -95.5q-205 0 -374.5 95t-267 261.5t-97.5 368.5q0 152 58.5 287.5t158.5 232t239 153t293 56.5zM858 -4q146 0 278 55t227 147.5t151.5 221.5t56.5 272
q0 146 -54.5 276t-148.5 223t-224 147.5t-276 54.5q-198 0 -362.5 -92.5t-259 -253.5t-94.5 -355q0 -145 54.5 -274t148.5 -221.5t225 -146.5t278 -54zM961 668q35 0 49 -11.5t37 -58.5l157 -291h-123l-211 385h-16h-143v-385h-117v787h293q291 0 291 -193q0 -90 -73 -143
t-196 -64l15 -26h37zM711 721h143q205 0 205 176q0 81 -42.5 123t-146.5 45h-159v-344z" />
    <glyph glyph-name="macron" unicode="&#xaf;" horiz-adv-x="798" 
d="M109 1309v32h581v-32h-581z" />
    <glyph glyph-name="degree" unicode="&#xb0;" horiz-adv-x="763" 
d="M383 819q-121 0 -204 83.5t-83 201.5q0 120 83.5 203.5t203.5 83.5q119 0 202 -83t83 -204q0 -118 -81.5 -201.5t-203.5 -83.5zM383 848q106 0 179 74.5t73 181.5q0 109 -73 183.5t-179 74.5t-180 -75.5t-74 -182.5t74 -181.5t180 -74.5z" />
    <glyph glyph-name="plusminus" unicode="&#xb1;" horiz-adv-x="1105" 
d="M530 471v342h-458v29h458v475h29v-475h475v-29h-475v-342h-29zM72 317v31h962v-31h-962z" />
    <glyph glyph-name="acute" unicode="&#xb4;" horiz-adv-x="600" 
d="M152 1192l210 360h195v-14l-375 -346h-30z" />
    <glyph glyph-name="paragraph" unicode="&#xb6;" horiz-adv-x="1277" 
d="M692 -369v811h-149q-210 0 -341.5 133.5t-131.5 344.5q0 208 131.5 339.5t341.5 131.5h612v-29h-88v-1731h-33v1731h-309v-1731h-33z" />
    <glyph glyph-name="periodcentered" unicode="&#xb7;" horiz-adv-x="491" 
d="M246 551q-48 0 -81.5 33t-33.5 82t33.5 82.5t81.5 33.5q49 0 81.5 -33t32.5 -83t-32.5 -82.5t-81.5 -32.5z" />
    <glyph glyph-name="cedilla" unicode="&#xb8;" horiz-adv-x="720" 
d="M311 -340q-109 0 -188 59v72q49 -54 89 -79t95 -25q61 0 92 34t31 91q0 71 -46.5 107t-131.5 56l78 129h26l-59 -100q118 -21 179 -60t61 -118q0 -72 -61.5 -119t-164.5 -47z" />
    <glyph glyph-name="ordmasculine" unicode="&#xba;" horiz-adv-x="878" 
d="M440 872q-158 0 -254 98t-96 247q0 148 96 245t254 97t254.5 -97t96.5 -245q0 -144 -97 -244.5t-254 -100.5zM440 901q111 0 167.5 81t56.5 235q0 313 -224 313q-225 0 -225 -313q0 -316 225 -316z" />
    <glyph glyph-name="guillemotright" unicode="&#xbb;" horiz-adv-x="1183" 
d="M106 49v27l365 426l-365 424v26l519 -434v-35zM563 49v27l365 426l-365 424v26l518 -434v-35z" />
    <glyph glyph-name="onequarter" unicode="&#xbc;" horiz-adv-x="1409" 
d="M346 559h-119v701l-168 -101v31l265 162h22v-793zM997 1341h31l-655 -1341h-33zM1335 231v-24h-86v-207h-114v207h-412v14l504 572h22v-562h86zM766 231h369v420z" />
    <glyph glyph-name="onehalf" unicode="&#xbd;" horiz-adv-x="1536" 
d="M225 567v693l-168 -101v31l265 162h22v-785h-119zM324 0l657 1341h31l-656 -1341h-32zM915 0v53q89 69 142 113.5t107 98.5t81.5 98t44.5 96t17 110q0 96 -35 143.5t-133 47.5q-118 0 -215 -101v72q39 22 104 37.5t113 15.5q144 0 218.5 -49.5t74.5 -171.5
q0 -57 -29.5 -114t-98.5 -121t-114.5 -100t-142.5 -107q-15 -11 -23 -17h414v-104h-525z" />
    <glyph glyph-name="threequarters" unicode="&#xbe;" horiz-adv-x="1531" 
d="M600 741q0 -99 -80 -156t-219 -57q-54 0 -113 13t-96 34v72q45 -47 91.5 -69.5t115.5 -22.5q180 0 180 195q0 92 -50 140.5t-163 49.5h-47v29h47q94 2 146.5 47t52.5 135q0 79 -34 121.5t-120 42.5q-63 0 -108 -24.5t-94 -73.5v71q43 22 100.5 37.5t105.5 15.5
q263 0 263 -182q0 -80 -66 -137.5t-182 -63.5v-6q125 3 197.5 -52.5t72.5 -158.5zM1143 1341h31l-656 -1341h-33zM1466 231v-24h-84v-207h-114v207h-412v14l502 572h24v-562h84zM899 231h369v420z" />
    <glyph glyph-name="questiondown" unicode="&#xbf;" horiz-adv-x="917" 
d="M492 1083q47 0 80.5 -33.5t33.5 -80.5q0 -49 -33.5 -84t-80.5 -35q-49 0 -82 34.5t-33 84.5q0 48 33 81t82 33zM514 698v-309q-46 -24 -79.5 -45.5t-75 -58t-67 -76.5t-43.5 -99t-18 -128q0 -147 65 -234.5t208 -87.5q118 0 204 46t156 118v-92q-70 -37 -172.5 -69
t-199.5 -32q-195 0 -306.5 89.5t-111.5 254.5q0 84 36 156.5t97.5 122.5t129 84.5t144.5 56.5v303h33z" />
    <glyph glyph-name="Agrave" unicode="&#xc0;" horiz-adv-x="1261" 
d="M756 1567h-31l-377 346v14h195zM1065 0l-137 330h-703q-85 -261 -92 -330h-90q79 191 241 609.5t234 598.5l90 224h25l604 -1432h-172zM233 358h682l-356 850h-8q-191 -462 -318 -850z" />
    <glyph glyph-name="Aacute" unicode="&#xc1;" horiz-adv-x="1261" 
d="M954 1923l-376 -348h-29l211 360h194v-12zM1065 0l-137 330h-703q-85 -261 -92 -330h-90q79 191 241 609.5t234 598.5l90 224h25l604 -1432h-172zM233 358h682l-356 850h-8q-191 -462 -318 -850z" />
    <glyph glyph-name="Acircumflex" unicode="&#xc2;" horiz-adv-x="1261" 
d="M629 1817l-330 -271h-33l309 365h109l309 -365h-32zM1065 0l-137 330h-703q-85 -261 -92 -330h-90q79 191 241 609.5t234 598.5l90 224h25l604 -1432h-172zM233 358h682l-356 850h-8q-191 -462 -318 -850z" />
    <glyph glyph-name="Atilde" unicode="&#xc3;" horiz-adv-x="1261" 
d="M416 1755q-111 0 -111 -153h-29q0 251 179 251q45 0 97 -25t92 -54.5t94 -54.5t102 -25q106 0 106 155h29q0 -132 -40.5 -195t-135.5 -63q-45 0 -89.5 17t-80.5 41t-70.5 48t-71.5 41t-71 17zM1065 0l-137 330h-703q-85 -261 -92 -330h-90q79 191 241 609.5t234 598.5
l90 224h25l604 -1432h-172zM233 358h682l-356 850h-8q-191 -462 -318 -850z" />
    <glyph glyph-name="Adieresis" unicode="&#xc4;" horiz-adv-x="1261" 
d="M424 1618q-46 0 -77.5 32.5t-31.5 78.5q0 47 31.5 79.5t77.5 32.5t77 -32.5t31 -79.5q0 -46 -31.5 -78.5t-76.5 -32.5zM834 1618q-46 0 -77.5 32.5t-31.5 78.5q0 47 31.5 79.5t77.5 32.5t78 -32.5t32 -79.5q0 -46 -32 -78.5t-78 -32.5zM1065 0l-137 330h-703
q-85 -261 -92 -330h-90q79 191 241 609.5t234 598.5l90 224h25l604 -1432h-172zM233 358h682l-356 850h-8q-191 -462 -318 -850z" />
    <glyph glyph-name="Aring" unicode="&#xc5;" horiz-adv-x="1261" 
d="M629 1548q-87 0 -145 59t-58 144q0 84 58 142.5t145 58.5q85 0 142.5 -58.5t57.5 -142.5q0 -85 -57 -144t-143 -59zM629 1919q-73 0 -119.5 -47.5t-46.5 -120.5t46.5 -121.5t119.5 -48.5q71 0 117.5 48.5t46.5 121.5q0 71 -46.5 119.5t-117.5 48.5zM1065 0l-137 330h-703
q-85 -261 -92 -330h-90q79 191 241 609.5t234 598.5l90 224h25l604 -1432h-172zM233 358h682l-356 850h-8q-191 -462 -318 -850z" />
    <glyph glyph-name="AE" unicode="&#xc6;" horiz-adv-x="1673" 
d="M995 29q264 0 384 10t229 41v-80h-805v397h-524q-138 -263 -193 -397h-100q402 669 817 1391h758v-80q-181 51 -582 51h-4v-651q340 7 485 24v-78q-233 25 -485 25v-653h20zM295 426h508v903q-25 -45 -221.5 -390t-286.5 -513z" />
    <glyph glyph-name="Ccedilla" unicode="&#xc7;" horiz-adv-x="1286" 
d="M862 1393q-173 0 -304 -92t-199 -250t-68 -357q0 -314 155 -504t422 -190q199 0 351 94v-37q-170 -88 -367 -88q-37 0 -55 2l-54 -92q118 -21 178 -60t60 -118q0 -73 -60 -119.5t-163 -46.5q-108 0 -191 59v74q50 -56 90 -81t97 -25q61 0 92 34t31 91q0 71 -47.5 106.5
t-131.5 56.5l72 123q-304 23 -482.5 216.5t-178.5 504.5q0 159 53 294t149.5 230.5t237 149t309.5 53.5q107 0 208 -18.5t153 -46.5v-92q-62 62 -145.5 95.5t-211.5 33.5z" />
    <glyph glyph-name="Egrave" unicode="&#xc8;" horiz-adv-x="1069" 
d="M717 1556h-29l-377 347v14h195zM393 29q263 0 382.5 10t228.5 41v-80h-803v1391h757v-80q-181 51 -581 51h-6v-651q339 7 487 24v-78q-233 25 -487 25v-653h22z" />
    <glyph glyph-name="Eacute" unicode="&#xc9;" horiz-adv-x="1069" 
d="M918 1913l-377 -348h-29l211 360h195v-12zM393 29q263 0 382.5 10t228.5 41v-80h-803v1391h757v-80q-181 51 -581 51h-6v-651q339 7 487 24v-78q-233 25 -487 25v-653h22z" />
    <glyph glyph-name="Ecircumflex" unicode="&#xca;" horiz-adv-x="1069" 
d="M592 1806l-332 -270h-31l308 365h110l309 -365h-32zM393 29q263 0 382.5 10t228.5 41v-80h-803v1391h757v-80q-181 51 -581 51h-6v-651q339 7 487 24v-78q-233 25 -487 25v-653h22z" />
    <glyph glyph-name="Edieresis" unicode="&#xcb;" horiz-adv-x="1069" 
d="M387 1608q-47 0 -79 32t-32 78q0 47 32 80t79 33q46 0 77.5 -33t31.5 -80q0 -46 -31.5 -78t-77.5 -32zM797 1608q-46 0 -77.5 32t-31.5 78q0 47 31.5 80t77.5 33t78 -33t32 -80q0 -46 -32 -78t-78 -32zM393 29q263 0 382.5 10t228.5 41v-80h-803v1391h757v-80
q-181 51 -581 51h-6v-651q339 7 487 24v-78q-233 25 -487 25v-653h22z" />
    <glyph glyph-name="Igrave" unicode="&#xcc;" horiz-adv-x="571" 
d="M389 1559l-377 346v14h195l213 -360h-31zM201 0v1391h170v-1391h-170z" />
    <glyph glyph-name="Iacute" unicode="&#xcd;" horiz-adv-x="571" 
d="M211 1569l213 360h192v-14l-374 -346h-31zM201 0v1391h170v-1391h-170z" />
    <glyph glyph-name="Icircumflex" unicode="&#xce;" horiz-adv-x="571" 
d="M-70 1540l308 365h110l307 -365h-30l-332 270l-332 -270h-31zM201 0v1391h170v-1391h-170z" />
    <glyph glyph-name="Idieresis" unicode="&#xcf;" horiz-adv-x="571" 
d="M88 1612q-47 0 -79 31.5t-32 78.5q0 46 32 78.5t79 32.5q46 0 77.5 -32.5t31.5 -78.5q0 -47 -31.5 -78.5t-77.5 -31.5zM498 1612q-46 0 -78.5 31.5t-32.5 78.5q0 46 32.5 78.5t78.5 32.5t78 -32.5t32 -78.5q0 -47 -32 -78.5t-78 -31.5zM201 0v1391h170v-1391h-170z" />
    <glyph glyph-name="Eth" unicode="&#xd0;" horiz-adv-x="1527" 
d="M682 1391q348 0 541.5 -185t193.5 -510q0 -326 -193.5 -511t-541.5 -185h-471v676h-150v29h150v686h471zM682 29q262 0 408.5 175t146.5 492q0 315 -147 490.5t-408 175.5h-299v-657h293v-29h-293v-647h299z" />
    <glyph glyph-name="Ntilde" unicode="&#xd1;" horiz-adv-x="1439" 
d="M936 1550q-45 0 -89.5 17t-80.5 41t-70.5 48t-71.5 41t-71 17q-111 0 -111 -153h-28q0 251 178 251q45 0 97 -25t92 -54.5t94 -54.5t102 -25q106 0 106 155h29q0 -132 -40.5 -195t-135.5 -63zM1212 -41l-968 1227h-8v-635q0 -200 26 -551h-84q2 26 7.5 111.5t8.5 142.5
t6.5 142.5t4.5 156.5v879h22l971 -1221h6v629q0 146 -24 551h82q-2 -27 -7.5 -111.5t-8.5 -141.5t-6.5 -142t-4.5 -156v-881h-23z" />
    <glyph glyph-name="Ograve" unicode="&#xd2;" horiz-adv-x="1628" 
d="M915 1556l-376 347v14h194l213 -361h-31zM811 -31q-206 0 -366.5 92.5t-248 258t-87.5 376.5q0 208 87 372.5t248 258.5t367 94q156 0 289 -55t225.5 -150.5t144.5 -230t52 -289.5q0 -210 -88 -375.5t-250.5 -258.5t-372.5 -93zM811 -2q250 0 386 189t136 509
q0 208 -59.5 364t-178 244.5t-284.5 88.5t-285 -90t-177 -245.5t-58 -361.5q0 -210 59 -366t177 -244t284 -88z" />
    <glyph glyph-name="Oacute" unicode="&#xd3;" horiz-adv-x="1628" 
d="M739 1565l211 360h195v-12l-377 -348h-29zM811 -31q-206 0 -366.5 92.5t-248 258t-87.5 376.5q0 208 87 372.5t248 258.5t367 94q156 0 289 -55t225.5 -150.5t144.5 -230t52 -289.5q0 -210 -88 -375.5t-250.5 -258.5t-372.5 -93zM811 -2q250 0 386 189t136 509
q0 208 -59.5 364t-178 244.5t-284.5 88.5t-285 -90t-177 -245.5t-58 -361.5q0 -210 59 -366t177 -244t284 -88z" />
    <glyph glyph-name="Ocircumflex" unicode="&#xd4;" horiz-adv-x="1628" 
d="M457 1536l309 365h108l310 -365h-33l-332 270l-330 -270h-32zM811 -31q-206 0 -366.5 92.5t-248 258t-87.5 376.5q0 208 87 372.5t248 258.5t367 94q156 0 289 -55t225.5 -150.5t144.5 -230t52 -289.5q0 -210 -88 -375.5t-250.5 -258.5t-372.5 -93zM811 -2q250 0 386 189
t136 509q0 208 -59.5 364t-178 244.5t-284.5 88.5t-285 -90t-177 -245.5t-58 -361.5q0 -210 59 -366t177 -244t284 -88z" />
    <glyph glyph-name="Otilde" unicode="&#xd5;" horiz-adv-x="1628" 
d="M983 1581q-45 0 -89.5 17t-80.5 41t-70.5 48t-71.5 41t-71 17q-111 0 -111 -154h-28q0 252 178 252q45 0 97 -25t92 -55t94 -55t102 -25q40 0 64.5 24t33 57t8.5 75h29q0 -132 -40.5 -195t-135.5 -63zM811 -31q-206 0 -366.5 92.5t-248 258t-87.5 376.5q0 208 87 372.5
t248 258.5t367 94q156 0 289 -55t225.5 -150.5t144.5 -230t52 -289.5q0 -210 -88 -375.5t-250.5 -258.5t-372.5 -93zM811 -2q250 0 386 189t136 509q0 208 -59.5 364t-178 244.5t-284.5 88.5t-285 -90t-177 -245.5t-58 -361.5q0 -210 59 -366t177 -244t284 -88z" />
    <glyph glyph-name="Odieresis" unicode="&#xd6;" horiz-adv-x="1628" 
d="M614 1608q-46 0 -78 32t-32 78q0 47 32 80t78 33t77.5 -33t31.5 -80q0 -46 -31.5 -78t-77.5 -32zM1024 1608q-46 0 -77.5 32t-31.5 78q0 47 31.5 80t77.5 33t78.5 -33t32.5 -80q0 -46 -32.5 -78t-78.5 -32zM811 -31q-206 0 -366.5 92.5t-248 258t-87.5 376.5
q0 208 87 372.5t248 258.5t367 94q156 0 289 -55t225.5 -150.5t144.5 -230t52 -289.5q0 -210 -88 -375.5t-250.5 -258.5t-372.5 -93zM811 -2q250 0 386 189t136 509q0 208 -59.5 364t-178 244.5t-284.5 88.5t-285 -90t-177 -245.5t-58 -361.5q0 -210 59 -366t177 -244
t284 -88z" />
    <glyph glyph-name="multiply" unicode="&#xd7;" horiz-adv-x="1105" 
d="M944 1055l-371 -371l371 -371l-20 -20l-371 371l-371 -371l-22 22l370 371l-368 369l20 20l369 -368l371 370z" />
    <glyph glyph-name="Oslash" unicode="&#xd8;" horiz-adv-x="1652" 
d="M1556 1391l-200 -201q174 -199 174 -494q0 -210 -88 -375.5t-250 -258.5t-371 -93q-304 0 -497 193l-162 -162h-45l184 184q-184 200 -184 512q0 208 87.5 372.5t248.5 258.5t368 94q155 0 286.5 -54t227.5 -153l176 177h45zM299 696q0 -250 88 -428l864 862
q-68 126 -176.5 194.5t-253.5 68.5q-125 0 -224.5 -51.5t-164.5 -144t-99 -220t-34 -281.5zM1343 696q0 236 -77 404l-865 -860q138 -242 420 -242q166 0 284.5 87.5t178 244t59.5 366.5z" />
    <glyph glyph-name="Ugrave" unicode="&#xd9;" horiz-adv-x="1433" 
d="M831 1528l-376 344v14h194l213 -358h-31zM727 -31q-545 0 -545 588v834h170v-883q0 -124 20.5 -212t68.5 -154t131.5 -98t203.5 -32q213 0 324.5 143.5t111.5 424.5v260q0 146 -24 551h82q-1 -21 -7 -110.5t-9 -143.5t-6 -140t-3 -157v-260q0 -303 -127 -457t-391 -154z
" />
    <glyph glyph-name="Uacute" unicode="&#xda;" horiz-adv-x="1433" 
d="M655 1536l211 360h195v-12l-377 -348h-29zM727 -31q-545 0 -545 588v834h170v-883q0 -124 20.5 -212t68.5 -154t131.5 -98t203.5 -32q213 0 324.5 143.5t111.5 424.5v260q0 146 -24 551h82q-1 -21 -7 -110.5t-9 -143.5t-6 -140t-3 -157v-260q0 -303 -127 -457t-391 -154z
" />
    <glyph glyph-name="Ucircumflex" unicode="&#xdb;" horiz-adv-x="1433" 
d="M373 1507l309 365h109l309 -365h-33l-330 271l-331 -271h-33zM727 -31q-545 0 -545 588v834h170v-883q0 -124 20.5 -212t68.5 -154t131.5 -98t203.5 -32q213 0 324.5 143.5t111.5 424.5v260q0 146 -24 551h82q-1 -21 -7 -110.5t-9 -143.5t-6 -140t-3 -157v-260
q0 -303 -127 -457t-391 -154z" />
    <glyph glyph-name="Udieresis" unicode="&#xdc;" horiz-adv-x="1433" 
d="M530 1579q-46 0 -77 32t-31 79q0 46 31.5 79t76.5 33q46 0 78.5 -33t32.5 -79q0 -47 -32.5 -79t-78.5 -32zM940 1579q-46 0 -77.5 32t-31.5 79q0 46 32 79t77 33q46 0 78.5 -33t32.5 -79q0 -47 -32.5 -79t-78.5 -32zM727 -31q-545 0 -545 588v834h170v-883
q0 -124 20.5 -212t68.5 -154t131.5 -98t203.5 -32q213 0 324.5 143.5t111.5 424.5v260q0 146 -24 551h82q-1 -21 -7 -110.5t-9 -143.5t-6 -140t-3 -157v-260q0 -303 -127 -457t-391 -154z" />
    <glyph glyph-name="Yacute" unicode="&#xdd;" horiz-adv-x="1183" 
d="M537 1534l211 360h194v-12l-377 -348h-28zM500 0v621l-437 770h179l399 -713h8q321 508 408 713h92q-202 -304 -479 -729v-662h-170z" />
    <glyph glyph-name="Thorn" unicode="&#xde;" horiz-adv-x="1216" 
d="M655 1112q213 0 339 -109t126 -290q0 -417 -536 -432h-213v-281h-170v1391h170v-279h284zM557 309q387 0 387 387q0 59 -10 112t-35 104.5t-63.5 88.5t-101 59.5t-142.5 22.5h-221v-774h186z" />
    <glyph glyph-name="germandbls" unicode="&#xdf;" horiz-adv-x="1228" 
d="M653 825q0 -46 28 -83.5t73 -64.5t99 -53.5t108 -57t99 -67.5t73 -93.5t28 -126.5q0 -140 -97 -225t-265 -85q-157 0 -312 86v92q32 -36 55.5 -57.5t61.5 -45.5t86 -35t109 -11q100 0 162.5 58.5t62.5 174.5q0 53 -23.5 98t-61 77t-82.5 62l-90 60t-82.5 63t-61 79.5
t-23.5 101.5q0 45 16.5 85t42.5 70.5t57.5 60.5t62.5 60.5t57 62.5t42.5 75t16.5 92q0 100 -67.5 149.5t-174.5 49.5q-156 0 -226.5 -103.5t-70.5 -329.5v-1044h-147v995h-178v29h178v20q0 461 450 461q96 0 175.5 -24.5t132.5 -78t53 -128.5q0 -64 -38 -119.5t-92 -94.5
t-107.5 -74.5t-91.5 -76.5t-38 -84z" />
    <glyph glyph-name="agrave" unicode="&#xe0;" horiz-adv-x="1103" 
d="M633 1159h-29l-377 346v15h195zM549 1053q116 0 195 -29t122.5 -88.5t61.5 -136t18 -185.5v-655h-39l-114 313q-47 -124 -162.5 -214.5t-265.5 -90.5q-133 0 -211 66.5t-78 183.5q0 359 706 363v100q0 69 -4.5 116t-19.5 93.5t-41.5 73.5t-73 44t-111.5 17
q-201 0 -376 -162v92q212 99 393 99zM434 37q111 0 202.5 75t145.5 201v242q-59 -3 -108 -8t-108 -15t-104 -24t-89.5 -37t-74 -52t-47.5 -70t-18 -91q0 -118 55 -169.5t146 -51.5z" />
    <glyph glyph-name="aacute" unicode="&#xe1;" horiz-adv-x="1103" 
d="M864 1520l-375 -346h-30l213 358h192v-12zM549 1053q116 0 195 -29t122.5 -88.5t61.5 -136t18 -185.5v-655h-39l-114 313q-47 -124 -162.5 -214.5t-265.5 -90.5q-133 0 -211 66.5t-78 183.5q0 359 706 363v100q0 69 -4.5 116t-19.5 93.5t-41.5 73.5t-73 44t-111.5 17
q-201 0 -376 -162v92q212 99 393 99zM434 37q111 0 202.5 75t145.5 201v242q-59 -3 -108 -8t-108 -15t-104 -24t-89.5 -37t-74 -52t-47.5 -70t-18 -91q0 -118 55 -169.5t146 -51.5z" />
    <glyph glyph-name="acircumflex" unicode="&#xe2;" horiz-adv-x="1103" 
d="M530 1427l-331 -270h-33l309 365h111l307 -365h-31zM549 1053q116 0 195 -29t122.5 -88.5t61.5 -136t18 -185.5v-655h-39l-114 313q-47 -124 -162.5 -214.5t-265.5 -90.5q-133 0 -211 66.5t-78 183.5q0 359 706 363v100q0 69 -4.5 116t-19.5 93.5t-41.5 73.5t-73 44
t-111.5 17q-201 0 -376 -162v92q212 99 393 99zM434 37q111 0 202.5 75t145.5 201v242q-59 -3 -108 -8t-108 -15t-104 -24t-89.5 -37t-74 -52t-47.5 -70t-18 -91q0 -118 55 -169.5t146 -51.5z" />
    <glyph glyph-name="atilde" unicode="&#xe3;" horiz-adv-x="1103" 
d="M324 1366q-109 0 -109 -154h-29q0 124 42 188t134 64q45 0 97 -25t92.5 -54.5t94.5 -54.5t102 -25q108 0 108 155h29q0 -132 -41.5 -195t-136.5 -63q-45 0 -89.5 17t-80.5 41t-70 48t-71.5 41t-71.5 17zM549 1053q116 0 195 -29t122.5 -88.5t61.5 -136t18 -185.5v-655
h-39l-114 313q-47 -124 -162.5 -214.5t-265.5 -90.5q-133 0 -211 66.5t-78 183.5q0 359 706 363v100q0 69 -4.5 116t-19.5 93.5t-41.5 73.5t-73 44t-111.5 17q-201 0 -376 -162v92q212 99 393 99zM434 37q111 0 202.5 75t145.5 201v242q-59 -3 -108 -8t-108 -15t-104 -24
t-89.5 -37t-74 -52t-47.5 -70t-18 -91q0 -118 55 -169.5t146 -51.5z" />
    <glyph glyph-name="adieresis" unicode="&#xe4;" horiz-adv-x="1103" 
d="M324 1227q-46 0 -77.5 31.5t-31.5 78.5q0 46 31.5 78.5t77.5 32.5t78 -32.5t32 -78.5q0 -47 -32 -78.5t-78 -31.5zM735 1227q-46 0 -78 31.5t-32 78.5q0 46 32 78.5t78 32.5t77.5 -32.5t31.5 -78.5q0 -47 -31.5 -78.5t-77.5 -31.5zM549 1053q116 0 195 -29t122.5 -88.5
t61.5 -136t18 -185.5v-655h-39l-114 313q-47 -124 -162.5 -214.5t-265.5 -90.5q-133 0 -211 66.5t-78 183.5q0 359 706 363v100q0 69 -4.5 116t-19.5 93.5t-41.5 73.5t-73 44t-111.5 17q-201 0 -376 -162v92q212 99 393 99zM434 37q111 0 202.5 75t145.5 201v242
q-59 -3 -108 -8t-108 -15t-104 -24t-89.5 -37t-74 -52t-47.5 -70t-18 -91q0 -118 55 -169.5t146 -51.5z" />
    <glyph glyph-name="aring" unicode="&#xe5;" horiz-adv-x="1103" 
d="M528 1145q-87 0 -144.5 58.5t-57.5 144.5q0 84 57.5 142t144.5 58q86 0 143.5 -58t57.5 -142q0 -85 -57.5 -144t-143.5 -59zM528 1516q-73 0 -119.5 -47.5t-46.5 -120.5t46.5 -121.5t119.5 -48.5q71 0 117.5 48.5t46.5 121.5q0 71 -46.5 119.5t-117.5 48.5zM549 1053
q116 0 195 -29t122.5 -88.5t61.5 -136t18 -185.5v-655h-39l-114 313q-47 -124 -162.5 -214.5t-265.5 -90.5q-133 0 -211 66.5t-78 183.5q0 359 706 363v100q0 69 -4.5 116t-19.5 93.5t-41.5 73.5t-73 44t-111.5 17q-201 0 -376 -162v92q212 99 393 99zM434 37
q111 0 202.5 75t145.5 201v242q-59 -3 -108 -8t-108 -15t-104 -24t-89.5 -37t-74 -52t-47.5 -70t-18 -91q0 -118 55 -169.5t146 -51.5z" />
    <glyph glyph-name="ae" unicode="&#xe6;" horiz-adv-x="1841" 
d="M1747 516h-791q0 -243 109 -378.5t303 -135.5q64 0 117.5 10.5t96.5 31.5t68.5 37.5t59.5 43.5v-33q-156 -125 -375 -125q-143 0 -255.5 52.5t-184.5 146.5q-66 75 -92 170q-43 -169 -161 -270t-273 -101q-133 0 -213 67.5t-80 184.5q0 359 708 363l-2 131q0 76 -11 130
t-39 98t-79 65.5t-127 21.5q-184 0 -364 -162v92q215 99 397 99q270 0 346 -181q76 88 185.5 134.5t226.5 46.5q191 0 314.5 -125t123.5 -318q0 -38 -8 -96zM956 545h648q0 16 1 47t1 45q0 183 -75.5 286t-213.5 103q-164 0 -259.5 -121t-101.5 -360zM432 37q119 0 214.5 86
t146.5 258q-6 39 -9 76q-2 20 -2 61v37q-60 -3 -107.5 -8t-107 -14.5t-104.5 -23t-90.5 -36.5t-75 -52t-48 -70.5t-18.5 -92.5q0 -118 55 -169.5t146 -51.5z" />
    <glyph glyph-name="ccedilla" unicode="&#xe7;" horiz-adv-x="1038" 
d="M680 1026q-185 0 -296.5 -132t-111.5 -382q0 -239 104.5 -374.5t289.5 -135.5q84 0 165.5 25.5t135.5 66.5v-28q-55 -44 -146.5 -71.5t-189.5 -27.5h-2l-56 -94q118 -21 179 -60t61 -118q0 -72 -60.5 -119t-162.5 -47q-112 0 -191 59v74q50 -56 89.5 -81t95.5 -25
q61 0 92 34t31 91q0 71 -47 107t-132 56l74 123q-233 9 -368.5 158t-135.5 387q0 246 157.5 394.5t426.5 148.5q75 0 155 -16.5t130 -43.5v-92q-60 62 -126.5 92.5t-160.5 30.5z" />
    <glyph glyph-name="egrave" unicode="&#xe8;" horiz-adv-x="1157" 
d="M735 1163h-28l-377 346v15h194zM1061 516h-791q0 -243 109 -378.5t303 -135.5q64 0 117.5 10.5t96.5 31.5t68.5 37.5t59.5 43.5v-33q-71 -57 -157.5 -91t-217.5 -34q-168 0 -295 72.5t-192.5 197t-65.5 281.5q0 130 47 235.5t124.5 169.5t171 98t192.5 34
q191 0 314.5 -125t123.5 -318q0 -38 -8 -96zM270 545h648q0 16 1 47t1 45q0 183 -75.5 286t-213.5 103q-164 0 -259.5 -121t-101.5 -360z" />
    <glyph glyph-name="eacute" unicode="&#xe9;" horiz-adv-x="1157" 
d="M969 1524l-377 -348h-29l211 360h195v-12zM1061 516h-791q0 -243 109 -378.5t303 -135.5q64 0 117.5 10.5t96.5 31.5t68.5 37.5t59.5 43.5v-33q-71 -57 -157.5 -91t-217.5 -34q-168 0 -295 72.5t-192.5 197t-65.5 281.5q0 130 47 235.5t124.5 169.5t171 98t192.5 34
q191 0 314.5 -125t123.5 -318q0 -38 -8 -96zM270 545h648q0 16 1 47t1 45q0 183 -75.5 286t-213.5 103q-164 0 -259.5 -121t-101.5 -360z" />
    <glyph glyph-name="ecircumflex" unicode="&#xea;" horiz-adv-x="1157" 
d="M633 1432l-332 -271h-31l308 365h110l309 -365h-32zM1061 516h-791q0 -243 109 -378.5t303 -135.5q64 0 117.5 10.5t96.5 31.5t68.5 37.5t59.5 43.5v-33q-71 -57 -157.5 -91t-217.5 -34q-168 0 -295 72.5t-192.5 197t-65.5 281.5q0 130 47 235.5t124.5 169.5t171 98
t192.5 34q191 0 314.5 -125t123.5 -318q0 -38 -8 -96zM270 545h648q0 16 1 47t1 45q0 183 -75.5 286t-213.5 103q-164 0 -259.5 -121t-101.5 -360z" />
    <glyph glyph-name="edieresis" unicode="&#xeb;" horiz-adv-x="1157" 
d="M428 1231q-47 0 -79 31.5t-32 78.5q0 46 32 78.5t79 32.5q46 0 77.5 -32.5t31.5 -78.5q0 -47 -31.5 -78.5t-77.5 -31.5zM838 1231q-46 0 -78.5 31.5t-32.5 78.5q0 46 32.5 78.5t78.5 32.5t78 -32.5t32 -78.5q0 -47 -32 -78.5t-78 -31.5zM1061 516h-791q0 -243 109 -378.5
t303 -135.5q64 0 117.5 10.5t96.5 31.5t68.5 37.5t59.5 43.5v-33q-71 -57 -157.5 -91t-217.5 -34q-168 0 -295 72.5t-192.5 197t-65.5 281.5q0 130 47 235.5t124.5 169.5t171 98t192.5 34q191 0 314.5 -125t123.5 -318q0 -38 -8 -96zM270 545h648q0 16 1 47t1 45
q0 183 -75.5 286t-213.5 103q-164 0 -259.5 -121t-101.5 -360z" />
    <glyph glyph-name="igrave" unicode="&#xec;" horiz-adv-x="505" 
d="M328 1163l-377 346v15h194l211 -361h-28zM172 0v1024h162v-1024h-162z" />
    <glyph glyph-name="iacute" unicode="&#xed;" horiz-adv-x="505" 
d="M182 1178l211 358h195v-12l-375 -346h-31zM172 0v1024h162v-1024h-162z" />
    <glyph glyph-name="icircumflex" unicode="&#xee;" horiz-adv-x="505" 
d="M-111 1161l308 365h110l309 -365h-32l-332 271l-332 -271h-31zM172 0v1024h162v-1024h-162z" />
    <glyph glyph-name="idieresis" unicode="&#xef;" horiz-adv-x="505" 
d="M47 1231q-46 0 -77 31.5t-31 78.5q0 46 31.5 78.5t76.5 32.5q46 0 78.5 -32.5t32.5 -78.5q0 -47 -32.5 -78.5t-78.5 -31.5zM457 1231q-46 0 -77.5 31.5t-31.5 78.5q0 46 31.5 78.5t77.5 32.5t78 -32.5t32 -78.5q0 -47 -32 -78.5t-78 -31.5zM172 0v1024h162v-1024h-162z
" />
    <glyph glyph-name="eth" unicode="&#xf0;" horiz-adv-x="1261" 
d="M805 1294q170 -132 260 -327.5t90 -434.5q0 -158 -65 -286t-186.5 -202.5t-276.5 -74.5t-276 71t-187 194t-66 276q0 233 148 388t381 155q162 0 288 -74q-59 174 -174 289l-262 -105v31l240 96q-122 107 -297 164l10 19q201 -54 346 -160l258 104v-31zM627 -2
q163 0 258.5 135.5t95.5 376.5q0 242 -95.5 378t-258.5 136t-259 -136t-96 -378q0 -241 96 -376.5t259 -135.5z" />
    <glyph glyph-name="ntilde" unicode="&#xf1;" horiz-adv-x="1259" 
d="M442 1366q-108 0 -108 -154h-29q0 124 42 188t134 64q45 0 97 -25t92 -54.5t94 -54.5t102 -25q59 0 84 44t25 111h29q0 -132 -42 -195t-137 -63q-45 0 -89.5 17t-80.5 41t-70 48t-71.5 41t-71.5 17zM721 1053q187 0 284 -101.5t97 -298.5v-653h-164v666q0 161 -67 241
t-212 80q-228 0 -323 -276v-711h-164v1065h37l125 -293q46 129 145.5 205t241.5 76z" />
    <glyph glyph-name="ograve" unicode="&#xf2;" horiz-adv-x="1294" 
d="M721 1159l-377 346v15h195l213 -361h-31zM647 -31q-165 0 -291.5 72t-193 194.5t-66.5 276.5t66.5 276t193 193.5t291.5 71.5q250 0 401.5 -153t151.5 -388q0 -110 -39 -208.5t-109.5 -173t-175.5 -118t-229 -43.5zM647 -2q179 0 279 135.5t100 378.5q0 244 -100 378
t-279 134t-278 -134t-99 -378q0 -243 99.5 -378.5t277.5 -135.5z" />
    <glyph glyph-name="oacute" unicode="&#xf3;" horiz-adv-x="1294" 
d="M578 1174l210 358h195v-12l-377 -346h-28zM647 -31q-165 0 -291.5 72t-193 194.5t-66.5 276.5t66.5 276t193 193.5t291.5 71.5q250 0 401.5 -153t151.5 -388q0 -110 -39 -208.5t-109.5 -173t-175.5 -118t-229 -43.5zM647 -2q179 0 279 135.5t100 378.5q0 244 -100 378
t-279 134t-278 -134t-99 -378q0 -243 99.5 -378.5t277.5 -135.5z" />
    <glyph glyph-name="ocircumflex" unicode="&#xf4;" horiz-adv-x="1294" 
d="M285 1157l309 365h108l310 -365h-33l-332 270l-330 -270h-32zM647 -31q-165 0 -291.5 72t-193 194.5t-66.5 276.5t66.5 276t193 193.5t291.5 71.5q250 0 401.5 -153t151.5 -388q0 -110 -39 -208.5t-109.5 -173t-175.5 -118t-229 -43.5zM647 -2q179 0 279 135.5t100 378.5
q0 244 -100 378t-279 134t-278 -134t-99 -378q0 -243 99.5 -378.5t277.5 -135.5z" />
    <glyph glyph-name="otilde" unicode="&#xf5;" horiz-adv-x="1294" 
d="M825 1202q-54 0 -110.5 25.5t-96 56.5t-88.5 56.5t-90 25.5q-108 0 -108 -154h-29q0 124 42 188t136 64q45 0 96.5 -25t91.5 -54.5t94 -54.5t103 -25q58 0 82.5 44.5t24.5 110.5h28q0 -132 -40.5 -195t-135.5 -63zM647 -31q-165 0 -291.5 72t-193 194.5t-66.5 276.5
t66.5 276t193 193.5t291.5 71.5q250 0 401.5 -153t151.5 -388q0 -110 -39 -208.5t-109.5 -173t-175.5 -118t-229 -43.5zM647 -2q179 0 279 135.5t100 378.5q0 244 -100 378t-279 134t-278 -134t-99 -378q0 -243 99.5 -378.5t277.5 -135.5z" />
    <glyph glyph-name="odieresis" unicode="&#xf6;" horiz-adv-x="1294" 
d="M442 1227q-46 0 -78 31.5t-32 78.5q0 46 32 78.5t78 32.5t77.5 -32.5t31.5 -78.5q0 -47 -31.5 -78.5t-77.5 -31.5zM852 1227q-46 0 -77.5 31.5t-31.5 78.5q0 46 31.5 78.5t77.5 32.5t78.5 -32.5t32.5 -78.5q0 -47 -32.5 -78.5t-78.5 -31.5zM647 -31q-165 0 -291.5 72
t-193 194.5t-66.5 276.5t66.5 276t193 193.5t291.5 71.5q250 0 401.5 -153t151.5 -388q0 -110 -39 -208.5t-109.5 -173t-175.5 -118t-229 -43.5zM647 -2q179 0 279 135.5t100 378.5q0 244 -100 378t-279 134t-278 -134t-99 -378q0 -243 99.5 -378.5t277.5 -135.5z" />
    <glyph glyph-name="divide" unicode="&#xf7;" horiz-adv-x="1105" 
d="M555 936q-31 0 -52.5 21.5t-21.5 52.5t21.5 52t52.5 21t52.5 -21t21.5 -52t-21.5 -52.5t-52.5 -21.5zM72 670v28h962v-28h-962zM555 279q-31 0 -52.5 21t-21.5 52t21.5 52.5t52.5 21.5t52.5 -21.5t21.5 -52.5t-21.5 -52t-52.5 -21z" />
    <glyph glyph-name="oslash" unicode="&#xf8;" horiz-adv-x="1312" 
d="M1061 897q147 -150 147 -385q0 -110 -39 -208.5t-109 -173t-175 -118t-230 -43.5q-231 0 -381 137l-106 -106h-43l127 127q-148 154 -148 385q0 154 66.5 276t193 193.5t291.5 71.5q232 0 383 -135l107 106h43zM279 512q0 -182 55 -301l631 633q-97 180 -310 180
q-178 0 -277 -134t-99 -378zM655 -2q180 0 279.5 135.5t99.5 378.5q0 181 -55 303l-631 -633q47 -89 126 -136.5t181 -47.5z" />
    <glyph glyph-name="ugrave" unicode="&#xf9;" horiz-adv-x="1257" 
d="M731 1161h-29l-376 346v15h194zM924 1024h163v-1065h-36l-125 305q-26 -126 -122.5 -209.5t-244.5 -83.5q-202 0 -301.5 108.5t-99.5 328.5v616h161v-629q0 -191 64 -277.5t227 -86.5q246 0 314 303v690z" />
    <glyph glyph-name="uacute" unicode="&#xfa;" horiz-adv-x="1257" 
d="M963 1520l-375 -346h-31l213 360h193v-14zM924 1024h163v-1065h-36l-125 305q-26 -126 -122.5 -209.5t-244.5 -83.5q-202 0 -301.5 108.5t-99.5 328.5v616h161v-629q0 -191 64 -277.5t227 -86.5q246 0 314 303v690z" />
    <glyph glyph-name="ucircumflex" unicode="&#xfb;" horiz-adv-x="1257" 
d="M627 1430l-330 -271h-33l309 365h109l309 -365h-33zM924 1024h163v-1065h-36l-125 305q-26 -126 -122.5 -209.5t-244.5 -83.5q-202 0 -301.5 108.5t-99.5 328.5v616h161v-629q0 -191 64 -277.5t227 -86.5q246 0 314 303v690z" />
    <glyph glyph-name="udieresis" unicode="&#xfc;" horiz-adv-x="1257" 
d="M422 1229q-46 0 -77.5 31t-31.5 77q0 47 31.5 80t77.5 33t78 -33t32 -80q0 -46 -32 -77t-78 -31zM834 1229q-46 0 -78.5 31.5t-32.5 76.5q0 47 32.5 80t78.5 33t77 -33t31 -80q0 -46 -31 -77t-77 -31zM924 1024h163v-1065h-36l-125 305q-26 -126 -122.5 -209.5
t-244.5 -83.5q-202 0 -301.5 108.5t-99.5 328.5v616h161v-629q0 -191 64 -277.5t227 -86.5q246 0 314 303v690z" />
    <glyph glyph-name="yacute" unicode="&#xfd;" horiz-adv-x="1028" 
d="M889 1520l-375 -346h-31l213 360h193v-14zM918 1024h77l-381 -831l-92 -193l-170 -369l-82 52l228 317l-459 1022h170l369 -829h8q148 339 217.5 515t114.5 316z" />
    <glyph glyph-name="thorn" unicode="&#xfe;" horiz-adv-x="1280" 
d="M729 1053q210 0 330.5 -137.5t120.5 -380.5q0 -163 -52.5 -290.5t-156 -201.5t-242.5 -74q-81 0 -151 26.5t-116.5 69.5t-76.5 86.5t-45 86.5h-6v-576h-162l-4 1813h166v-689h6q59 129 164.5 198t224.5 69zM672 37q160 0 247 131t87 342q0 213 -89 342t-247 129
q-107 0 -196 -61t-140 -191v-422q81 -270 338 -270z" />
    <glyph glyph-name="ydieresis" unicode="&#xff;" horiz-adv-x="1028" 
d="M348 1229q-46 0 -77 31t-31 77q0 47 31 80t77 33t78.5 -33t32.5 -80q0 -45 -32.5 -76.5t-78.5 -31.5zM760 1229q-46 0 -78.5 31.5t-32.5 76.5q0 47 32.5 80t78.5 33t77 -33t31 -80q0 -46 -31 -77t-77 -31zM918 1024h77l-381 -831l-92 -193l-170 -369l-82 52l228 317
l-459 1022h170l369 -829h8q148 339 217.5 515t114.5 316z" />
    <glyph glyph-name="Amacron" unicode="&#x100;" horiz-adv-x="1261" 
d="M911 1714v-33h-581v33h581zM1065 0l-137 330h-703q-85 -261 -92 -330h-90q79 191 241 609.5t234 598.5l90 224h25l604 -1432h-172zM233 358h682l-356 850h-8q-191 -462 -318 -850z" />
    <glyph glyph-name="amacron" unicode="&#x101;" horiz-adv-x="1103" 
d="M819 1309v-33h-581v33h581zM549 1053q116 0 195 -29t122.5 -88.5t61.5 -136t18 -185.5v-655h-39l-114 313q-47 -124 -162.5 -214.5t-265.5 -90.5q-133 0 -211 66.5t-78 183.5q0 359 706 363v100q0 69 -4.5 116t-19.5 93.5t-41.5 73.5t-73 44t-111.5 17q-201 0 -376 -162
v92q212 99 393 99zM434 37q111 0 202.5 75t145.5 201v242q-59 -3 -108 -8t-108 -15t-104 -24t-89.5 -37t-74 -52t-47.5 -70t-18 -91q0 -118 55 -169.5t146 -51.5z" />
    <glyph glyph-name="Abreve" unicode="&#x102;" horiz-adv-x="1261" 
d="M627 1597q-121 0 -193 86.5t-72 227.5h29q0 -106 67.5 -157.5t168.5 -51.5q100 0 166.5 51t66.5 158h29q0 -140 -72 -227t-190 -87zM1065 0l-137 330h-703q-85 -261 -92 -330h-90q79 191 241 609.5t234 598.5l90 224h25l604 -1432h-172zM233 358h682l-356 850h-8
q-191 -462 -318 -850z" />
    <glyph glyph-name="abreve" unicode="&#x103;" horiz-adv-x="1103" 
d="M530 1194q-122 0 -193 86t-71 227h29q0 -108 67 -159.5t168 -51.5q63 0 114 20t85.5 69.5t34.5 121.5h29q0 -140 -72.5 -226.5t-190.5 -86.5zM549 1053q116 0 195 -29t122.5 -88.5t61.5 -136t18 -185.5v-655h-39l-114 313q-47 -124 -162.5 -214.5t-265.5 -90.5
q-133 0 -211 66.5t-78 183.5q0 359 706 363v100q0 69 -4.5 116t-19.5 93.5t-41.5 73.5t-73 44t-111.5 17q-201 0 -376 -162v92q212 99 393 99zM434 37q111 0 202.5 75t145.5 201v242q-59 -3 -108 -8t-108 -15t-104 -24t-89.5 -37t-74 -52t-47.5 -70t-18 -91
q0 -118 55 -169.5t146 -51.5z" />
    <glyph glyph-name="Aogonek" unicode="&#x104;" horiz-adv-x="1261" 
d="M43 0q79 191 241 609.5t234 598.5l90 224h25l604 -1432h-18q-73 -49 -127 -130t-54 -165q0 -88 66 -88t104 90l21 -12q-21 -57 -63 -88t-93 -31q-65 0 -104 37t-39 98q0 174 260 289h-125l-137 330h-705q-82 -252 -90 -330h-90zM231 358h684l-356 850h-8
q-181 -440 -320 -850z" />
    <glyph glyph-name="aogonek" unicode="&#x105;" horiz-adv-x="1103" 
d="M932 -334l20 -10q-23 -59 -63.5 -89t-91.5 -30q-67 0 -105.5 37t-38.5 98q0 171 254 287l-114 313q-47 -124 -162.5 -214.5t-265.5 -90.5q-133 0 -211 66.5t-78 183.5q0 359 706 363v100q0 69 -4.5 116t-19.5 93.5t-41.5 73.5t-73 44t-111.5 17q-201 0 -376 -162v92
q212 99 393 99q116 0 195 -29t122.5 -88.5t61.5 -136t18 -185.5v-655h-8q-72 -48 -124 -129.5t-52 -165.5q0 -42 17 -65t48 -23t59.5 24.5t45.5 65.5zM434 37q111 0 202.5 75t145.5 201v242q-59 -3 -108 -8t-108 -15t-104 -24t-89.5 -37t-74 -52t-47.5 -70t-18 -91
q0 -118 55 -169.5t146 -51.5z" />
    <glyph glyph-name="Cacute" unicode="&#x106;" horiz-adv-x="1286" 
d="M786 1565l211 360h195v-12l-377 -348h-29zM852 -31q-339 0 -541 197t-202 528q0 159 53 294t149.5 230.5t237 149t309.5 53.5q107 0 208 -18.5t153 -46.5v-92q-62 62 -145.5 95.5t-211.5 33.5q-173 0 -304 -92t-199 -250t-68 -357q0 -314 155 -504t422 -190q199 0 351 94
v-37q-170 -88 -367 -88z" />
    <glyph glyph-name="cacute" unicode="&#x107;" horiz-adv-x="1038" 
d="M596 1174l211 360h194v-14l-376 -346h-29zM631 -33q-247 0 -390 149t-143 396q0 246 157.5 394.5t426.5 148.5q75 0 155 -16.5t130 -43.5v-92q-60 62 -126.5 92.5t-160.5 30.5q-185 0 -296.5 -132t-111.5 -382q0 -239 104.5 -374.5t289.5 -135.5q84 0 165.5 25.5
t135.5 66.5v-28q-55 -44 -146.5 -71.5t-189.5 -27.5z" />
    <glyph glyph-name="Cdotaccent" unicode="&#x10a;" horiz-adv-x="1286" 
d="M862 1606q-47 0 -80.5 33.5t-33.5 80.5q0 46 33.5 79.5t80.5 33.5t80 -33.5t33 -79.5q0 -47 -33 -80.5t-80 -33.5zM852 -31q-339 0 -541 197t-202 528q0 159 53 294t149.5 230.5t237 149t309.5 53.5q107 0 208 -18.5t153 -46.5v-92q-62 62 -145.5 95.5t-211.5 33.5
q-173 0 -304 -92t-199 -250t-68 -357q0 -314 155 -504t422 -190q199 0 351 94v-37q-170 -88 -367 -88z" />
    <glyph glyph-name="cdotaccent" unicode="&#x10b;" horiz-adv-x="1038" 
d="M647 1194q-46 0 -79 34t-33 83q0 46 33 79t79 33q47 0 81 -33t34 -79q0 -49 -33.5 -83t-81.5 -34zM631 -33q-247 0 -390 149t-143 396q0 246 157.5 394.5t426.5 148.5q75 0 155 -16.5t130 -43.5v-92q-60 62 -126.5 92.5t-160.5 30.5q-185 0 -296.5 -132t-111.5 -382
q0 -239 104.5 -374.5t289.5 -135.5q84 0 165.5 25.5t135.5 66.5v-28q-55 -44 -146.5 -71.5t-189.5 -27.5z" />
    <glyph glyph-name="Ccaron" unicode="&#x10c;" horiz-adv-x="1286" 
d="M786 1569l-309 364h33l330 -270l331 270h33l-309 -364h-109zM852 -31q-339 0 -541 197t-202 528q0 159 53 294t149.5 230.5t237 149t309.5 53.5q107 0 208 -18.5t153 -46.5v-92q-62 62 -145.5 95.5t-211.5 33.5q-173 0 -304 -92t-199 -250t-68 -357q0 -314 155 -504
t422 -190q199 0 351 94v-37q-170 -88 -367 -88z" />
    <glyph glyph-name="ccaron" unicode="&#x10d;" horiz-adv-x="1038" 
d="M559 1180l-307 364h31l331 -270l332 270h33l-309 -364h-111zM631 -33q-247 0 -390 149t-143 396q0 246 157.5 394.5t426.5 148.5q75 0 155 -16.5t130 -43.5v-92q-60 62 -126.5 92.5t-160.5 30.5q-185 0 -296.5 -132t-111.5 -382q0 -239 104.5 -374.5t289.5 -135.5
q84 0 165.5 25.5t135.5 66.5v-28q-55 -44 -146.5 -71.5t-189.5 -27.5z" />
    <glyph glyph-name="Dcaron" unicode="&#x10e;" horiz-adv-x="1517" 
d="M643 1538l-309 365h33l329 -271l332 271h33l-309 -365h-109zM201 0v1391h469q348 0 542.5 -185.5t194.5 -509.5q0 -326 -194 -511t-543 -185h-469zM371 29h299q263 0 409 175t146 492q0 315 -147 490.5t-408 175.5h-299v-1333z" />
    <glyph glyph-name="dcaron" unicode="&#x10f;" horiz-adv-x="1345" 
d="M1323 1503q47 0 79 -30t32 -80q0 -33 -7 -55t-35 -83q-6 -14 -10 -22l-67 -146h-62q72 98 127 213q-26 -16 -61 -16q-44 0 -74.5 32.5t-30.5 78.5t31.5 77t77.5 31zM946 770v705h164v-1516h-39l-119 340q-9 -41 -27.5 -84t-53 -88t-78 -79.5t-107 -56.5t-135.5 -22
q-210 0 -330.5 145t-120.5 380q0 247 125 403t332 156q127 0 234 -73.5t155 -209.5zM604 35q64 0 118 21t89.5 52.5t64 75.5t44 83t26.5 83v361q-50 143 -140 209.5t-202 66.5q-161 0 -245.5 -130t-84.5 -347q0 -103 20.5 -188.5t60 -150t103.5 -100.5t146 -36z" />
    <glyph glyph-name="Dcroat" unicode="&#x110;" horiz-adv-x="1527" 
d="M682 1391q348 0 541.5 -185t193.5 -510q0 -326 -193.5 -511t-541.5 -185h-471v676h-150v29h150v686h471zM682 29q262 0 408.5 175t146.5 492q0 315 -147 490.5t-408 175.5h-299v-657h293v-29h-293v-647h299z" />
    <glyph glyph-name="dcroat" unicode="&#x111;" horiz-adv-x="1280" 
d="M1333 1231v-29h-223v-1243h-39l-119 340q-9 -41 -27.5 -84t-53 -88t-78 -79.5t-107 -56.5t-135.5 -22q-210 0 -330.5 145t-120.5 380q0 247 125 403t332 156q127 0 234 -73.5t155 -209.5v432h-227v29h227v244h164v-244h223zM604 35q64 0 118 21t89.5 52.5t64 75.5t44 83
t26.5 83v361q-50 143 -140 209.5t-202 66.5q-161 0 -245.5 -130t-84.5 -347q0 -103 20.5 -188.5t60 -150t103.5 -100.5t146 -36z" />
    <glyph glyph-name="Emacron" unicode="&#x112;" horiz-adv-x="1069" 
d="M874 1704v-33h-581v33h581zM393 29q263 0 382.5 10t228.5 41v-80h-803v1391h757v-80q-181 51 -581 51h-6v-651q339 7 487 24v-78q-233 25 -487 25v-653h22z" />
    <glyph glyph-name="emacron" unicode="&#x113;" horiz-adv-x="1157" 
d="M924 1313v-33h-582v33h582zM1061 516h-791q0 -243 109 -378.5t303 -135.5q64 0 117.5 10.5t96.5 31.5t68.5 37.5t59.5 43.5v-33q-71 -57 -157.5 -91t-217.5 -34q-168 0 -295 72.5t-192.5 197t-65.5 281.5q0 130 47 235.5t124.5 169.5t171 98t192.5 34q191 0 314.5 -125
t123.5 -318q0 -38 -8 -96zM270 545h648q0 16 1 47t1 45q0 183 -75.5 286t-213.5 103q-164 0 -259.5 -121t-101.5 -360z" />
    <glyph glyph-name="Edotaccent" unicode="&#x116;" horiz-adv-x="1069" 
d="M586 1606q-46 0 -79.5 33.5t-33.5 80.5q0 46 33.5 79.5t79.5 33.5q47 0 80.5 -33.5t33.5 -79.5q0 -47 -33.5 -80.5t-80.5 -33.5zM393 29q263 0 382.5 10t228.5 41v-80h-803v1391h757v-80q-181 51 -581 51h-6v-651q339 7 487 24v-78q-233 25 -487 25v-653h22z" />
    <glyph glyph-name="edotaccent" unicode="&#x117;" horiz-adv-x="1157" 
d="M629 1229q-48 0 -81.5 32.5t-33.5 81.5q0 46 34 79.5t81 33.5t80.5 -33.5t33.5 -79.5q0 -49 -33 -81.5t-81 -32.5zM1061 516h-791q0 -243 109 -378.5t303 -135.5q64 0 117.5 10.5t96.5 31.5t68.5 37.5t59.5 43.5v-33q-71 -57 -157.5 -91t-217.5 -34q-168 0 -295 72.5
t-192.5 197t-65.5 281.5q0 130 47 235.5t124.5 169.5t171 98t192.5 34q191 0 314.5 -125t123.5 -318q0 -38 -8 -96zM270 545h648q0 16 1 47t1 45q0 183 -75.5 286t-213.5 103q-164 0 -259.5 -121t-101.5 -360z" />
    <glyph glyph-name="Eogonek" unicode="&#x118;" horiz-adv-x="1069" 
d="M995 -293l21 -12q-23 -57 -64.5 -88t-91.5 -31q-67 0 -105 37t-38 98q0 173 258 289h-774v1391h757v-80q-181 51 -581 51h-6v-651q339 7 487 24v-78q-233 25 -487 25v-653h22q263 0 382.5 10t228.5 41v-80q-72 -49 -125.5 -130t-53.5 -165q0 -88 66 -88t104 90z" />
    <glyph glyph-name="eogonek" unicode="&#x119;" horiz-adv-x="1157" 
d="M1061 516h-791q0 -243 109 -378.5t303 -135.5q64 0 117.5 10.5t96.5 31.5t68.5 37.5t59.5 43.5v-33q-77 -64 -176 -96q-69 -48 -118.5 -127.5t-49.5 -161.5q0 -88 63 -88q32 0 60 24t45 66l20 -10q-21 -58 -62.5 -88.5t-92.5 -30.5q-67 0 -105.5 36t-38.5 97
q0 160 209 264q-65 -10 -129 -10q-168 0 -295 72.5t-192.5 197t-65.5 281.5q0 130 47 235.5t124.5 169.5t171 98t192.5 34q191 0 314.5 -125t123.5 -318q0 -38 -8 -96zM270 545h648q0 16 1 47t1 45q0 183 -75.5 286t-213.5 103q-164 0 -259.5 -121t-101.5 -360z" />
    <glyph glyph-name="Ecaron" unicode="&#x11a;" horiz-adv-x="1069" 
d="M639 1569h-109l-309 364h33l330 -270l331 270h33zM393 29q263 0 382.5 10t228.5 41v-80h-803v1391h757v-80q-181 51 -581 51h-6v-651q339 7 487 24v-78q-233 25 -487 25v-653h22z" />
    <glyph glyph-name="ecaron" unicode="&#x11b;" horiz-adv-x="1157" 
d="M688 1182h-110l-310 366h33l332 -270l332 270h32zM1061 516h-791q0 -243 109 -378.5t303 -135.5q64 0 117.5 10.5t96.5 31.5t68.5 37.5t59.5 43.5v-33q-71 -57 -157.5 -91t-217.5 -34q-168 0 -295 72.5t-192.5 197t-65.5 281.5q0 130 47 235.5t124.5 169.5t171 98
t192.5 34q191 0 314.5 -125t123.5 -318q0 -38 -8 -96zM270 545h648q0 16 1 47t1 45q0 183 -75.5 286t-213.5 103q-164 0 -259.5 -121t-101.5 -360z" />
    <glyph glyph-name="Gbreve" unicode="&#x11e;" horiz-adv-x="1441" 
d="M858 1587q-122 0 -193 86.5t-71 227.5h29q0 -72 34.5 -121t85.5 -68.5t115 -19.5q99 0 166.5 51.5t67.5 157.5h28q0 -140 -72 -227t-190 -87zM827 -31q-215 0 -380 95t-253 261t-88 375q0 157 54 290.5t151.5 228.5t241 148.5t315.5 53.5q106 0 207 -18.5t154 -46.5v-96
q-137 133 -357 133q-135 0 -245.5 -53.5t-184 -146.5t-113.5 -219.5t-40 -273.5q0 -205 69 -364t195 -247.5t289 -88.5q183 0 321 84v610h164v-575q-218 -147 -500 -150z" />
    <glyph glyph-name="gbreve" unicode="&#x11f;" horiz-adv-x="1120" 
d="M545 1194q-122 0 -193 86t-71 227h28q0 -106 67.5 -157.5t168.5 -51.5q99 0 166 51.5t67 157.5h29q0 -140 -72 -226.5t-190 -86.5zM764 174q309 0 309 -221q0 -144 -131.5 -233t-368.5 -89q-303 0 -464 84v92q64 -65 182.5 -106t286.5 -41q190 0 299.5 66.5t109.5 164.5
q0 144 -223 144h-604l-39 139l186 221q-92 44 -144 122.5t-52 182.5q0 155 118 254t316 99q113 0 203 -35l260 94v-108l-220 -5q91 -44 142 -124t51 -179q0 -162 -113 -256t-323 -94q-114 0 -207 35l-176 -207h602zM545 1024q-133 0 -209 -87.5t-76 -240.5q0 -147 76 -234
t209 -87q134 0 210 86.5t76 234.5q0 153 -76 240.5t-210 87.5z" />
    <glyph glyph-name="Gdotaccent" unicode="&#x120;" horiz-adv-x="1441" 
d="M856 1606q-47 0 -81 33.5t-34 80.5q0 46 34 79.5t81 33.5q46 0 79.5 -33.5t33.5 -79.5q0 -47 -33.5 -80.5t-79.5 -33.5zM827 -31q-215 0 -380 95t-253 261t-88 375q0 157 54 290.5t151.5 228.5t241 148.5t315.5 53.5q106 0 207 -18.5t154 -46.5v-96q-137 133 -357 133
q-135 0 -245.5 -53.5t-184 -146.5t-113.5 -219.5t-40 -273.5q0 -205 69 -364t195 -247.5t289 -88.5q183 0 321 84v610h164v-575q-218 -147 -500 -150z" />
    <glyph glyph-name="gdotaccent" unicode="&#x121;" horiz-adv-x="1120" 
d="M539 1225q-46 0 -79.5 33.5t-33.5 80.5q0 46 33.5 79.5t79.5 33.5q47 0 80.5 -33.5t33.5 -79.5q0 -47 -33.5 -80.5t-80.5 -33.5zM764 174q309 0 309 -221q0 -144 -131.5 -233t-368.5 -89q-303 0 -464 84v92q64 -65 182.5 -106t286.5 -41q190 0 299.5 66.5t109.5 164.5
q0 144 -223 144h-604l-39 139l186 221q-92 44 -144 122.5t-52 182.5q0 155 118 254t316 99q113 0 203 -35l260 94v-108l-220 -5q91 -44 142 -124t51 -179q0 -162 -113 -256t-323 -94q-114 0 -207 35l-176 -207h602zM545 1024q-133 0 -209 -87.5t-76 -240.5q0 -147 76 -234
t209 -87q134 0 210 86.5t76 234.5q0 153 -76 240.5t-210 87.5z" />
    <glyph glyph-name="uni0122" unicode="&#x122;" horiz-adv-x="1441" 
d="M827 -31q-215 0 -380 95t-253 261t-88 375q0 157 54 290.5t151.5 228.5t241 148.5t315.5 53.5q106 0 207 -18.5t154 -46.5v-96q-137 133 -357 133q-135 0 -245.5 -53.5t-184 -146.5t-113.5 -219.5t-40 -273.5q0 -205 69 -364t195 -247.5t289 -88.5q183 0 321 84v610h164
v-575q-218 -147 -500 -150zM741 -602q96 124 138 213q-23 -17 -62 -17q-44 0 -74 31.5t-30 77.5t31.5 78.5t76.5 32.5q47 0 79 -30.5t32 -80.5q0 -36 -8 -59.5t-43 -100.5l-68 -145h-72z" />
    <glyph glyph-name="uni0123" unicode="&#x123;" horiz-adv-x="1120" 
d="M551 1198q-47 0 -79 31.5t-32 81.5q0 34 8 57.5t44 101.5l67 144h72q-95 -124 -137 -211q22 14 61 14q44 0 74 -31t30 -77t-31.5 -78.5t-76.5 -32.5zM764 174q309 0 309 -221q0 -144 -131.5 -233t-368.5 -89q-303 0 -464 84v92q64 -65 182.5 -106t286.5 -41
q190 0 299.5 66.5t109.5 164.5q0 144 -223 144h-604l-39 139l186 221q-92 44 -144 122.5t-52 182.5q0 155 118 254t316 99q113 0 203 -35l260 94v-108l-220 -5q91 -44 142 -124t51 -179q0 -162 -113 -256t-323 -94q-114 0 -207 35l-176 -207h602zM545 1024
q-133 0 -209 -87.5t-76 -240.5q0 -147 76 -234t209 -87q134 0 210 86.5t76 234.5q0 153 -76 240.5t-210 87.5z" />
    <glyph glyph-name="Hbar" unicode="&#x126;" horiz-adv-x="1552" 
d="M1483 1040v-28h-131v-1012h-170v659h-811v-659h-170v1012h-129v28h129v351h170v-351h811v351h170v-351h131zM1182 688v324h-811v-324h811z" />
    <glyph glyph-name="hbar" unicode="&#x127;" horiz-adv-x="1257" 
d="M715 1053q187 0 286 -103t99 -297v-653h-164v666q0 162 -67.5 241.5t-215.5 79.5q-124 0 -198.5 -71t-120.5 -205v-711h-162v1202h-147v29h147v244h162v-244h305v-29h-305v-434q45 132 141 208.5t240 76.5z" />
    <glyph glyph-name="Itilde" unicode="&#x128;" horiz-adv-x="571" 
d="M457 1583q-45 0 -89.5 17t-80.5 41t-70.5 48t-71.5 41t-71 17q-111 0 -111 -152h-29q0 250 179 250q45 0 97 -24.5t92 -54t94 -54t102 -24.5q106 0 106 155h29q0 -133 -41 -196.5t-135 -63.5zM201 0v1391h170v-1391h-170z" />
    <glyph glyph-name="itilde" unicode="&#x129;" horiz-adv-x="505" 
d="M414 1206q-49 0 -101 25.5t-88.5 55.5t-81.5 55.5t-82 25.5q-61 0 -85.5 -40t-24.5 -111h-29q0 251 178 251q40 0 88.5 -24.5t86 -54t87.5 -54t93 -24.5q108 0 108 153h29q0 -132 -41.5 -195t-136.5 -63zM172 0v1024h162v-1024h-162z" />
    <glyph glyph-name="Imacron" unicode="&#x12a;" horiz-adv-x="571" 
d="M-6 1675v33h581v-33h-581zM201 0v1391h170v-1391h-170z" />
    <glyph glyph-name="imacron" unicode="&#x12b;" horiz-adv-x="505" 
d="M-39 1280v33h582v-33h-582zM172 0v1024h162v-1024h-162z" />
    <glyph glyph-name="Iogonek" unicode="&#x12e;" horiz-adv-x="571" 
d="M362 -293l21 -12q-23 -57 -64.5 -88t-91.5 -31q-67 0 -105 37t-38 98q0 175 258 289h-141v1391h170v-1391q-72 -48 -125 -129.5t-53 -165.5q0 -88 65 -88q31 0 59 24.5t45 65.5z" />
    <glyph glyph-name="iogonek" unicode="&#x12f;" horiz-adv-x="505" 
d="M250 1229q-49 0 -82 33t-33 81q0 46 33 79.5t82 33.5q46 0 79 -33.5t33 -79.5q0 -47 -33 -80.5t-79 -33.5zM221 -383q31 0 59.5 24.5t45.5 65.5l20 -12q-23 -57 -64.5 -88t-91.5 -31q-67 0 -105 37t-38 98q0 174 260 289h-135v1024h162v-1024q-72 -48 -125 -129.5
t-53 -165.5q0 -88 65 -88z" />
    <glyph glyph-name="Idotaccent" unicode="&#x130;" horiz-adv-x="571" 
d="M289 1608q-47 0 -81 33.5t-34 80.5t34 81t81 34q46 0 79 -34t33 -81t-33 -80.5t-79 -33.5zM201 0v1391h170v-1391h-170z" />
    <glyph glyph-name="dotlessi" unicode="&#x131;" horiz-adv-x="505" 
d="M172 0v1024h162v-1024h-162z" />
    <glyph glyph-name="IJ" unicode="&#x132;" horiz-adv-x="1447" 
d="M201 0v1391h170v-1391h-170zM866 -31q-147 0 -252 45v95q52 -54 107.5 -82.5t142.5 -28.5q228 0 228 313v1080h170v-1000q0 -93 -21 -167t-66 -132.5t-123.5 -90.5t-185.5 -32z" />
    <glyph glyph-name="ij" unicode="&#x133;" horiz-adv-x="1079" 
d="M252 1200q-47 0 -80 34t-33 81t33 79.5t80 32.5q48 0 81.5 -32.5t33.5 -79.5t-34 -81t-81 -34zM827 1200q-46 0 -79 34t-33 81t33 79.5t79 32.5q48 0 81.5 -32.5t33.5 -79.5t-34 -81t-81 -34zM172 0v1024h162v-1024h-162zM549 -369q-113 0 -201 39v101q60 -55 105.5 -83
t95.5 -28q207 0 207 313l-6 1051h159v-971q0 -94 -17.5 -167t-57 -132.5t-111.5 -91t-174 -31.5z" />
    <glyph glyph-name="uni0136" unicode="&#x136;" horiz-adv-x="1323" 
d="M821 717l488 -717h-181l-491 717h-266v-717h-170v1391h170v-646h258q179 186 299.5 333.5t238.5 312.5h99q-26 -32 -51.5 -62.5t-58 -67t-54.5 -61t-64.5 -69.5t-61.5 -65.5t-73 -76t-72.5 -74.5t-85 -87t-86.5 -89v-22h162zM702 -154q48 0 80.5 -31t32.5 -81
q0 -35 -8 -58t-43 -100l-68 -145h-71q95 124 137 211q-24 -15 -62 -15q-45 0 -74.5 31.5t-29.5 77.5t31 78t75 32z" />
    <glyph glyph-name="uni0137" unicode="&#x137;" horiz-adv-x="1095" 
d="M172 0v1475h162v-910h168q53 48 103.5 100t86.5 92t74.5 87.5t58 72.5t47.5 63t33 44h107q-67 -58 -227.5 -222t-245.5 -241v-14h137l422 -547h-176l-412 537h-176v-537h-162zM492 -569q96 124 135 211q-21 -15 -60 -15q-45 0 -75.5 31.5t-30.5 77.5t32 78t76 32
q48 0 79.5 -31t31.5 -81q0 -36 -8 -60.5t-41 -97.5l-68 -145h-71z" />
    <glyph glyph-name="kgreenlandic" unicode="&#x138;" horiz-adv-x="1095" 
d="M172 0v1024h162v-459h168q53 48 103.5 100t86.5 92t74.5 87.5t58 72.5t47.5 63t33 44h107q-67 -58 -227.5 -222t-245.5 -241v-14h137l422 -547h-176l-412 537h-176v-537h-162z" />
    <glyph glyph-name="Lacute" unicode="&#x139;" horiz-adv-x="980" 
d="M616 1913l-376 -348h-29l211 360h194v-12zM377 29q242 0 356 10t225 41v-80h-757v1391h170v-1362h6z" />
    <glyph glyph-name="lacute" unicode="&#x13a;" horiz-adv-x="505" 
d="M182 1618l211 360h195v-12l-377 -348h-29zM172 0v1475h162v-1475h-162z" />
    <glyph glyph-name="uni013B" unicode="&#x13b;" horiz-adv-x="980" 
d="M377 29q242 0 356 10t225 41v-80h-757v1391h170v-1362h6zM588 -154q48 0 79 -31t31 -81q0 -36 -8 -60.5t-41 -97.5l-67 -145h-72q96 124 135 211q-21 -15 -59 -15q-45 0 -75 31.5t-30 77.5t31.5 78t75.5 32z" />
    <glyph glyph-name="uni013C" unicode="&#x13c;" horiz-adv-x="505" 
d="M172 0v1475h162v-1475h-162zM168 -569q96 124 135 211q-24 -15 -59 -15q-46 0 -76.5 31.5t-30.5 77.5t31.5 78t77.5 32q48 0 79 -31t31 -81q0 -46 -42 -141q-4 -11 -7 -17l-67 -145h-72z" />
    <glyph glyph-name="Lcaron" unicode="&#x13d;" horiz-adv-x="1019" 
d="M784 1206q-41 0 -68.5 30t-27.5 73t28.5 72.5t71.5 29.5q45 0 74 -28.5t29 -75.5q0 -34 -7.5 -58t-39.5 -92l-66 -141h-57q71 98 121 205q-21 -15 -58 -15zM377 29q242 0 356 10t225 41v-80h-757v1391h170v-1362h6z" />
    <glyph glyph-name="lcaron" unicode="&#x13e;" horiz-adv-x="569" 
d="M479 1087q67 87 127 213q-26 -16 -59 -16q-45 0 -76 32.5t-31 78.5t31.5 77t77.5 31q48 0 79 -30t31 -80q0 -36 -8 -59.5t-43 -100.5l-67 -146h-62zM172 0v1475h162v-1475h-162z" />
    <glyph glyph-name="Ldot" unicode="&#x13f;" horiz-adv-x="1017" 
d="M377 29q242 0 356 10t225 41v-80h-757v1391h170v-1362h6zM823 625q-43 0 -72.5 29.5t-29.5 72.5q0 44 29.5 74t72.5 30t72 -30t29 -74q0 -43 -29 -72.5t-72 -29.5z" />
    <glyph glyph-name="ldot" unicode="&#x140;" horiz-adv-x="679" 
d="M172 0v1475h162v-1475h-162zM537 645q-43 0 -73 29.5t-30 73.5q0 43 30 73.5t73 30.5t72.5 -30.5t29.5 -73.5q0 -44 -29.5 -73.5t-72.5 -29.5z" />
    <glyph glyph-name="Lslash" unicode="&#x141;" horiz-adv-x="1026" 
d="M420 29q243 0 357.5 10t223.5 41v-80h-757v504l-170 -137v43l170 137v844h172v-707l248 199v-43l-248 -199v-612h4z" />
    <glyph glyph-name="lslash" unicode="&#x142;" horiz-adv-x="708" 
d="M670 993v-37l-224 -159v-797h-163v678l-220 -158v37l220 158v760h163v-641z" />
    <glyph glyph-name="Nacute" unicode="&#x143;" horiz-adv-x="1439" 
d="M692 1534l211 360h195v-12l-377 -348h-29zM1212 -41l-968 1227h-8v-635q0 -200 26 -551h-84q2 26 7.5 111.5t8.5 142.5t6.5 142.5t4.5 156.5v879h22l971 -1221h6v629q0 146 -24 551h82q-2 -27 -7.5 -111.5t-8.5 -141.5t-6.5 -142t-4.5 -156v-881h-23z" />
    <glyph glyph-name="nacute" unicode="&#x144;" horiz-adv-x="1259" 
d="M985 1520l-377 -346h-28l211 358h194v-12zM721 1053q187 0 284 -101.5t97 -298.5v-653h-164v666q0 161 -67 241t-212 80q-228 0 -323 -276v-711h-164v1065h37l125 -293q46 129 145.5 205t241.5 76z" />
    <glyph glyph-name="uni0145" unicode="&#x145;" horiz-adv-x="1439" 
d="M1212 -41l-968 1227h-8v-635q0 -200 26 -551h-84q2 26 7.5 111.5t8.5 142.5t6.5 142.5t4.5 156.5v879h22l971 -1221h6v629q0 146 -24 551h82q-2 -27 -7.5 -111.5t-8.5 -141.5t-6.5 -142t-4.5 -156v-881h-23zM610 -569q96 124 135 211q-24 -15 -59 -15q-45 0 -75.5 31.5
t-30.5 77.5t31 78t77 32q48 0 79.5 -31t31.5 -81q0 -46 -42 -141q-4 -11 -7 -17l-68 -145h-72z" />
    <glyph glyph-name="uni0146" unicode="&#x146;" horiz-adv-x="1259" 
d="M721 1053q187 0 284 -101.5t97 -298.5v-653h-164v666q0 161 -67 241t-212 80q-228 0 -323 -276v-711h-164v1065h37l125 -293q46 129 145.5 205t241.5 76zM618 -154q48 0 80.5 -31t32.5 -81q0 -35 -8 -58t-43 -100l-68 -145h-71q96 124 135 211q-21 -15 -60 -15
q-45 0 -74.5 31.5t-29.5 77.5t31 78t75 32z" />
    <glyph glyph-name="Ncaron" unicode="&#x147;" horiz-adv-x="1439" 
d="M692 1538l-309 365h33l332 -271l329 271h33l-309 -365h-109zM1212 -41l-968 1227h-8v-635q0 -200 26 -551h-84q2 26 7.5 111.5t8.5 142.5t6.5 142.5t4.5 156.5v879h22l971 -1221h6v629q0 146 -24 551h82q-2 -27 -7.5 -111.5t-8.5 -141.5t-6.5 -142t-4.5 -156v-881h-23z
" />
    <glyph glyph-name="ncaron" unicode="&#x148;" horiz-adv-x="1259" 
d="M705 1178h-111l-309 366h32l332 -270l332 270h33zM721 1053q187 0 284 -101.5t97 -298.5v-653h-164v666q0 161 -67 241t-212 80q-228 0 -323 -276v-711h-164v1065h37l125 -293q46 129 145.5 205t241.5 76z" />
    <glyph glyph-name="napostrophe" unicode="&#x149;" horiz-adv-x="1304" 
d="M16 1532q48 0 79.5 -31t31.5 -80q0 -34 -7 -57t-33 -82q-2 -4 -3 -6.5t-3 -6.5t-3 -7l-68 -146h-63q74 96 127 213q-26 -16 -60 -16q-45 0 -75.5 31.5t-30.5 76.5q0 46 31.5 78.5t76.5 32.5zM764 1053q187 0 284 -101.5t97 -298.5v-653h-162v666q0 161 -66.5 241
t-211.5 80q-123 0 -201 -71.5t-125 -204.5v-711h-164v1065h37l125 -295q46 130 145 206.5t242 76.5z" />
    <glyph glyph-name="Eng" unicode="&#x14a;" horiz-adv-x="1439" 
d="M1180 1391h82q-2 -27 -7.5 -111.5t-8.5 -141.5t-6.5 -142t-4.5 -156v-881q0 -75 -11.5 -132t-38.5 -102.5t-76 -69.5t-118 -24q-126 0 -246 60v92q60 -61 117.5 -92t128.5 -31q107 0 160 72.5t53 226.5v10l-960 1217h-8v-635q0 -200 26 -551h-84q2 26 7.5 111.5
t8.5 142.5t6.5 142.5t4.5 156.5v879h22l971 -1221h6v629q0 146 -24 551z" />
    <glyph glyph-name="eng" unicode="&#x14b;" horiz-adv-x="1259" 
d="M721 1053q187 0 284 -101.5t97 -298.5v-653q0 -172 -94.5 -270.5t-274.5 -98.5q-60 0 -101 8.5t-91 30.5v33q75 -41 161 -41q53 0 93 15t73.5 51t51.5 104.5t18 167.5v666q0 161 -67 241t-212 80q-228 0 -323 -276v-711h-164v1065h37l125 -293q46 129 145.5 205t241.5 76
z" />
    <glyph glyph-name="Omacron" unicode="&#x14c;" horiz-adv-x="1628" 
d="M524 1671v33h582v-33h-582zM811 -31q-206 0 -366.5 92.5t-248 258t-87.5 376.5q0 208 87 372.5t248 258.5t367 94q156 0 289 -55t225.5 -150.5t144.5 -230t52 -289.5q0 -210 -88 -375.5t-250.5 -258.5t-372.5 -93zM811 -2q250 0 386 189t136 509q0 208 -59.5 364
t-178 244.5t-284.5 88.5t-285 -90t-177 -245.5t-58 -361.5q0 -210 59 -366t177 -244t284 -88z" />
    <glyph glyph-name="omacron" unicode="&#x14d;" horiz-adv-x="1294" 
d="M356 1276v33h582v-33h-582zM647 -31q-165 0 -291.5 72t-193 194.5t-66.5 276.5t66.5 276t193 193.5t291.5 71.5q250 0 401.5 -153t151.5 -388q0 -110 -39 -208.5t-109.5 -173t-175.5 -118t-229 -43.5zM647 -2q179 0 279 135.5t100 378.5q0 244 -100 378t-279 134
t-278 -134t-99 -378q0 -243 99.5 -378.5t277.5 -135.5z" />
    <glyph glyph-name="Ohungarumlaut" unicode="&#x150;" horiz-adv-x="1628" 
d="M600 1532l156 371h178v-15l-305 -356h-29zM954 1532l156 371h178v-15l-303 -356h-31zM811 -31q-206 0 -366.5 92.5t-248 258t-87.5 376.5q0 208 87 372.5t248 258.5t367 94q156 0 289 -55t225.5 -150.5t144.5 -230t52 -289.5q0 -210 -88 -375.5t-250.5 -258.5t-372.5 -93
zM811 -2q250 0 386 189t136 509q0 208 -59.5 364t-178 244.5t-284.5 88.5t-285 -90t-177 -245.5t-58 -361.5q0 -210 59 -366t177 -244t284 -88z" />
    <glyph glyph-name="ohungarumlaut" unicode="&#x151;" horiz-adv-x="1294" 
d="M408 1165l155 371h178v-12l-303 -359h-30zM764 1165l156 371h178v-12l-305 -359h-29zM647 -31q-165 0 -291.5 72t-193 194.5t-66.5 276.5t66.5 276t193 193.5t291.5 71.5q250 0 401.5 -153t151.5 -388q0 -110 -39 -208.5t-109.5 -173t-175.5 -118t-229 -43.5zM647 -2
q179 0 279 135.5t100 378.5q0 244 -100 378t-279 134t-278 -134t-99 -378q0 -243 99.5 -378.5t277.5 -135.5z" />
    <glyph glyph-name="OE" unicode="&#x152;" horiz-adv-x="2222" 
d="M1546 29q263 0 382.5 10t228.5 41v-80h-803v205q-95 -112 -234.5 -174t-308.5 -62q-206 0 -366.5 92.5t-248 258t-87.5 376.5q0 208 87 372.5t248 258.5t367 94q167 0 307.5 -62.5t235.5 -174.5v207h757v-80q-181 51 -581 51h-6v-651q339 7 487 24v-78q-233 25 -487 25
v-653h22zM811 -2q250 0 386 189t136 509q0 208 -59.5 364t-178 244.5t-284.5 88.5t-285 -90t-177 -245.5t-58 -361.5q0 -210 59 -366t177 -244t284 -88z" />
    <glyph glyph-name="oe" unicode="&#x153;" horiz-adv-x="2086" 
d="M1991 516h-791q0 -243 109.5 -378.5t304.5 -135.5q83 0 153.5 21.5t105 43t81.5 58.5v-33q-70 -56 -157 -90.5t-216 -34.5q-158 0 -279 63.5t-190 176.5q-73 -111 -192.5 -174.5t-272.5 -63.5q-165 0 -291.5 72t-193 194.5t-66.5 276.5t66.5 276t193 193.5t291.5 71.5
q154 0 273 -61t190 -169q74 113 196 172.5t257 59.5q190 0 313 -125.5t123 -317.5q0 -38 -8 -96zM1200 545h647q0 16 1 47t1 45q0 184 -74 286.5t-212 102.5q-164 0 -260.5 -121.5t-102.5 -359.5zM647 -2q179 0 279 135.5t100 378.5q0 244 -100 378t-279 134t-278 -134
t-99 -378q0 -243 99.5 -378.5t277.5 -135.5z" />
    <glyph glyph-name="Racute" unicode="&#x154;" horiz-adv-x="1296" 
d="M985 1884l-377 -346h-28l211 360h194v-14zM1214 0h-182l-373 684h-36h-252v-684h-170v1391h487q246 0 357.5 -82t111.5 -258q0 -167 -123 -260t-346 -105l17 -27h155zM371 713h252q196 0 280 86.5t84 247.5q0 72 -16 126.5t-53 98.5t-104.5 67t-164.5 23h-278v-649z" />
    <glyph glyph-name="racute" unicode="&#x155;" horiz-adv-x="696" 
d="M508 1503h194v-14l-376 -346h-29zM332 838q32 94 123.5 155.5t195.5 61.5v-88q-45 0 -79 -3t-74.5 -13.5t-69.5 -29.5t-54.5 -53.5t-39.5 -81.5v-786h-162v1065h37z" />
    <glyph glyph-name="uni0156" unicode="&#x156;" horiz-adv-x="1296" 
d="M860 659l354 -659h-182l-373 684h-36h-252v-684h-170v1391h487q246 0 357.5 -82t111.5 -258q0 -167 -123 -260t-346 -105l17 -27h155zM371 713h252q196 0 280 86.5t84 247.5q0 72 -16 126.5t-53 98.5t-104.5 67t-164.5 23h-278v-649zM666 -154q48 0 80 -31t32 -81
q0 -35 -8 -58t-43 -100l-68 -145h-71q95 124 137 211q-24 -15 -61 -15q-45 0 -75 31.5t-30 77.5t31.5 78t75.5 32z" />
    <glyph glyph-name="uni0157" unicode="&#x157;" horiz-adv-x="696" 
d="M332 838q32 94 123.5 155.5t195.5 61.5v-88q-45 0 -79 -3t-74.5 -13.5t-69.5 -29.5t-54.5 -53.5t-39.5 -81.5v-786h-162v1065h37zM250 -154q48 0 79 -31t31 -81q0 -46 -42 -141q-4 -11 -7 -17l-69 -145h-70q96 124 135 211q-24 -15 -59 -15q-46 0 -76.5 31.5t-30.5 77.5
t31.5 78t77.5 32z" />
    <glyph glyph-name="Rcaron" unicode="&#x158;" horiz-adv-x="1296" 
d="M688 1540h-108l-310 367h33l332 -271l330 271h32zM1214 0h-182l-373 684h-36h-252v-684h-170v1391h487q246 0 357.5 -82t111.5 -258q0 -167 -123 -260t-346 -105l17 -27h155zM371 713h252q196 0 280 86.5t84 247.5q0 72 -16 126.5t-53 98.5t-104.5 67t-164.5 23h-278
v-649z" />
    <glyph glyph-name="rcaron" unicode="&#x159;" horiz-adv-x="696" 
d="M442 1149h-108l-309 364h32l332 -270l330 270h33zM332 838q32 94 123.5 155.5t195.5 61.5v-88q-45 0 -79 -3t-74.5 -13.5t-69.5 -29.5t-54.5 -53.5t-39.5 -81.5v-786h-162v1065h37z" />
    <glyph glyph-name="Sacute" unicode="&#x15a;" horiz-adv-x="1077" 
d="M498 1565l211 360h194v-12l-377 -348h-28zM502 -31q-112 0 -223.5 27t-174.5 57v99q150 -154 402 -154q166 0 269.5 75t103.5 201q0 33 -6 62t-14 52t-25 45.5t-30.5 38.5t-40.5 34.5t-44 29.5t-52 28t-54.5 25.5t-59.5 26.5l-119 54q-64 29 -108.5 54t-87.5 59.5
t-68.5 73t-41 91.5t-15.5 117q0 89 36.5 158t100.5 111.5t145.5 64.5t175.5 22q88 0 177 -21t147 -50v-99q-138 142 -326 142q-92 0 -165.5 -24t-123 -83.5t-49.5 -148.5q0 -60 17 -105t57 -81.5t85 -62.5t120 -61l119 -53q54 -25 88 -41t77.5 -41t70 -46t55 -51.5t44 -63
t25.5 -74t10 -90.5q0 -128 -68 -219.5t-178.5 -135t-250.5 -43.5z" />
    <glyph glyph-name="sacute" unicode="&#x15b;" horiz-adv-x="944" 
d="M391 1174l211 358h195v-12l-377 -346h-29zM477 -31q-210 0 -379 88v99q175 -158 369 -158q120 0 195 52t75 145q0 45 -18.5 83t-43.5 62.5t-67.5 47.5t-72.5 35t-77 29q-5 2 -7.5 2.5t-6 2t-6.5 2.5q-37 13 -53.5 19.5t-51.5 20.5t-52 23.5t-45.5 26.5t-43.5 32t-34.5 37
t-28.5 44.5t-16 52t-7 61.5q0 123 96 200t259 77q86 0 180.5 -22t149.5 -50v-98q-137 141 -326 141q-105 0 -164 -49t-59 -139q0 -40 15.5 -74t38 -56.5t58.5 -43t67 -34t74 -29.5q13 -5 19 -7q148 -55 203 -87q144 -84 149 -227v-10q0 -130 -102 -214.5t-287 -84.5z" />
    <glyph glyph-name="Scedilla" unicode="&#x15e;" horiz-adv-x="1077" 
d="M999 367q0 -179 -123.5 -281t-320.5 -115l-57 -96q118 -21 178.5 -60t60.5 -118q0 -72 -60.5 -119t-162.5 -47q-111 0 -190 59v74q50 -56 89 -81t95 -25q61 0 92 34t31 91q0 71 -46.5 107t-131.5 56l73 123h-24q-112 0 -223.5 27t-174.5 57v99q150 -154 402 -154
q166 0 269.5 75t103.5 201q0 33 -6 62t-14 52t-25 45.5t-30.5 38.5t-40.5 34.5t-44 29.5t-52 28t-54.5 25.5t-59.5 26.5l-119 54q-64 29 -108.5 54t-87.5 59.5t-68.5 73t-41 91.5t-15.5 117q0 89 36.5 158t100.5 111.5t145.5 64.5t175.5 22q88 0 177 -21t147 -50v-99
q-138 142 -326 142q-92 0 -165.5 -24t-123 -83.5t-49.5 -148.5q0 -60 17 -105t57 -81.5t85 -62.5t120 -61l119 -53q54 -25 88 -41t77.5 -41t70 -46t55 -51.5t44 -63t25.5 -74t10 -90.5z" />
    <glyph glyph-name="scedilla" unicode="&#x15f;" horiz-adv-x="944" 
d="M866 268q0 -127 -95.5 -210t-270.5 -89l-56 -94q118 -21 179 -60t61 -118q0 -72 -61 -119t-164 -47q-110 0 -189 59v74q50 -56 89.5 -81t95.5 -25q61 0 92 34t31 91q0 71 -47 107t-132 56l74 123q-209 0 -375 88v99q175 -158 369 -158q120 0 195 52t75 145q0 45 -18.5 83
t-43.5 62.5t-67.5 47.5t-72.5 35t-77 29q-5 2 -7.5 2.5t-6 2t-6.5 2.5q-37 13 -53.5 19.5t-51.5 20.5t-52 23.5t-45.5 26.5t-43.5 32t-34.5 37t-28.5 44.5t-16 52t-7 61.5q0 123 96 200t259 77q86 0 180.5 -22t149.5 -50v-98q-137 141 -326 141q-105 0 -164 -49t-59 -139
q0 -40 15.5 -74t38 -56.5t58.5 -43t67 -34t74 -29.5q13 -5 19 -7q148 -55 203 -87q144 -84 149 -227v-10z" />
    <glyph glyph-name="Scaron" unicode="&#x160;" horiz-adv-x="1077" 
d="M498 1569l-310 364h33l332 -270l332 270h33l-310 -364h-110zM502 -31q-112 0 -223.5 27t-174.5 57v99q150 -154 402 -154q166 0 269.5 75t103.5 201q0 33 -6 62t-14 52t-25 45.5t-30.5 38.5t-40.5 34.5t-44 29.5t-52 28t-54.5 25.5t-59.5 26.5l-119 54q-64 29 -108.5 54
t-87.5 59.5t-68.5 73t-41 91.5t-15.5 117q0 89 36.5 158t100.5 111.5t145.5 64.5t175.5 22q88 0 177 -21t147 -50v-99q-138 142 -326 142q-92 0 -165.5 -24t-123 -83.5t-49.5 -148.5q0 -60 17 -105t57 -81.5t85 -62.5t120 -61l119 -53q54 -25 88 -41t77.5 -41t70 -46
t55 -51.5t44 -63t25.5 -74t10 -90.5q0 -128 -68 -219.5t-178.5 -135t-250.5 -43.5z" />
    <glyph glyph-name="scaron" unicode="&#x161;" horiz-adv-x="944" 
d="M436 1178l-309 366h33l332 -270l331 270h33l-309 -366h-111zM477 -31q-210 0 -379 88v99q175 -158 369 -158q120 0 195 52t75 145q0 45 -18.5 83t-43.5 62.5t-67.5 47.5t-72.5 35t-77 29q-5 2 -7.5 2.5t-6 2t-6.5 2.5q-37 13 -53.5 19.5t-51.5 20.5t-52 23.5t-45.5 26.5
t-43.5 32t-34.5 37t-28.5 44.5t-16 52t-7 61.5q0 123 96 200t259 77q86 0 180.5 -22t149.5 -50v-98q-137 141 -326 141q-105 0 -164 -49t-59 -139q0 -40 15.5 -74t38 -56.5t58.5 -43t67 -34t74 -29.5q13 -5 19 -7q148 -55 203 -87q144 -84 149 -227v-10q0 -130 -102 -214.5
t-287 -84.5z" />
    <glyph glyph-name="uni0162" unicode="&#x162;" horiz-adv-x="1167" 
d="M23 1391h1122v-80q-163 43 -475 49v-1360h-70l-55 -94q118 -21 178.5 -60t60.5 -118q0 -72 -61 -119t-164 -47q-109 0 -188 59v74q48 -56 88 -81.5t96 -25.5q61 0 92 34t31 91q0 71 -47 107.5t-131 56.5l73 123h-73v1360q-314 -6 -477 -49v80z" />
    <glyph glyph-name="uni0163" unicode="&#x163;" horiz-adv-x="669" 
d="M416 0h-68l-53 -90q117 -19 177 -58t60 -118q0 -73 -60 -120.5t-163 -47.5q-111 0 -188 61v72q48 -56 88 -81.5t96 -25.5q61 0 92 34t31 91q0 72 -47 109t-131 57l72 117h-68v995h-231v29h231l125 270h37v-270h231v-29h-231v-995z" />
    <glyph glyph-name="Tcaron" unicode="&#x164;" horiz-adv-x="1167" 
d="M623 1569h-111l-307 364h31l331 -270l332 270h33zM23 1391h1122v-80q-163 43 -475 49v-1360h-170v1360q-314 -6 -477 -49v80z" />
    <glyph glyph-name="tcaron" unicode="&#x165;" horiz-adv-x="669" 
d="M582 1141q74 96 127 213q-23 -17 -60 -17q-45 0 -75.5 31.5t-30.5 77.5t31 78t77 32q48 0 79.5 -30.5t31.5 -79.5q0 -36 -7.5 -59t-41.5 -101l-68 -145h-63zM254 0v995h-231v29h231l125 270h37v-270h231v-29h-231v-995h-162z" />
    <glyph glyph-name="Tbar" unicode="&#x166;" horiz-adv-x="1196" 
d="M37 1391h1122v-80q-163 43 -475 49v-606h293v-29h-293v-725h-170v725h-285v29h285v606q-317 -6 -477 -49v80z" />
    <glyph glyph-name="tbar" unicode="&#x167;" horiz-adv-x="731" 
d="M678 995h-229v-387h225v-28h-225v-580h-164v580h-228v28h228v387h-232v29h232l125 270h39v-270h229v-29z" />
    <glyph glyph-name="Utilde" unicode="&#x168;" horiz-adv-x="1433" 
d="M899 1550q-45 0 -89.5 17t-80.5 41t-70.5 48t-71.5 41t-71 17q-110 0 -110 -151h-29q0 249 178 249q45 0 97 -24.5t92 -54t94 -54t102 -24.5q107 0 107 155h28q0 -133 -41 -196.5t-135 -63.5zM727 -31q-545 0 -545 588v834h170v-883q0 -124 20.5 -212t68.5 -154
t131.5 -98t203.5 -32q213 0 324.5 143.5t111.5 424.5v260q0 146 -24 551h82q-1 -21 -7 -110.5t-9 -143.5t-6 -140t-3 -157v-260q0 -303 -127 -457t-391 -154z" />
    <glyph glyph-name="utilde" unicode="&#x169;" horiz-adv-x="1257" 
d="M422 1366q-111 0 -111 -152h-28q0 252 178 252q45 0 97 -25t92 -54.5t94 -54.5t102 -25q106 0 106 155h29q0 -133 -41 -196.5t-135 -63.5q-45 0 -89.5 17t-80.5 41t-70.5 48t-71.5 41t-71 17zM924 1024h163v-1065h-36l-125 305q-26 -126 -122.5 -209.5t-244.5 -83.5
q-202 0 -301.5 108.5t-99.5 328.5v616h161v-629q0 -191 64 -277.5t227 -86.5q246 0 314 303v690z" />
    <glyph glyph-name="Umacron" unicode="&#x16a;" horiz-adv-x="1433" 
d="M436 1642v33h582v-33h-582zM727 -31q-545 0 -545 588v834h170v-883q0 -124 20.5 -212t68.5 -154t131.5 -98t203.5 -32q213 0 324.5 143.5t111.5 424.5v260q0 146 -24 551h82q-1 -21 -7 -110.5t-9 -143.5t-6 -140t-3 -157v-260q0 -303 -127 -457t-391 -154z" />
    <glyph glyph-name="umacron" unicode="&#x16b;" horiz-adv-x="1257" 
d="M918 1311v-33h-582v33h582zM924 1024h163v-1065h-36l-125 305q-26 -126 -122.5 -209.5t-244.5 -83.5q-202 0 -301.5 108.5t-99.5 328.5v616h161v-629q0 -191 64 -277.5t227 -86.5q246 0 314 303v690z" />
    <glyph glyph-name="Uring" unicode="&#x16e;" horiz-adv-x="1433" 
d="M735 1509q-87 0 -145 59t-58 144q0 84 58 142.5t145 58.5q86 0 143.5 -58.5t57.5 -142.5q0 -85 -57.5 -144t-143.5 -59zM735 1542q71 0 117.5 48.5t46.5 121.5q0 71 -46.5 119.5t-117.5 48.5q-73 0 -119.5 -47.5t-46.5 -120.5t46.5 -121.5t119.5 -48.5zM727 -31
q-545 0 -545 588v834h170v-883q0 -124 20.5 -212t68.5 -154t131.5 -98t203.5 -32q213 0 324.5 143.5t111.5 424.5v260q0 146 -24 551h82q-1 -21 -7 -110.5t-9 -143.5t-6 -140t-3 -157v-260q0 -303 -127 -457t-391 -154z" />
    <glyph glyph-name="uring" unicode="&#x16f;" horiz-adv-x="1257" 
d="M627 1147q-87 0 -145 59t-58 144q0 84 58 142t145 58q86 0 143 -58t57 -142q0 -85 -57 -144t-143 -59zM627 1518q-73 0 -119.5 -47.5t-46.5 -120.5t46.5 -121.5t119.5 -48.5q71 0 117.5 48.5t46.5 121.5q0 71 -46.5 119.5t-117.5 48.5zM924 1024h163v-1065h-36l-125 305
q-26 -126 -122.5 -209.5t-244.5 -83.5q-202 0 -301.5 108.5t-99.5 328.5v616h161v-629q0 -191 64 -277.5t227 -86.5q246 0 314 303v690z" />
    <glyph glyph-name="Uhungarumlaut" unicode="&#x170;" horiz-adv-x="1433" 
d="M516 1501l156 371h178v-12l-305 -359h-29zM872 1501l154 371h178v-12l-303 -359h-29zM727 -31q-545 0 -545 588v834h170v-883q0 -124 20.5 -212t68.5 -154t131.5 -98t203.5 -32q213 0 324.5 143.5t111.5 424.5v260q0 146 -24 551h82q-1 -21 -7 -110.5t-9 -143.5t-6 -140
t-3 -157v-260q0 -303 -127 -457t-391 -154z" />
    <glyph glyph-name="uhungarumlaut" unicode="&#x171;" horiz-adv-x="1257" 
d="M721 1524l-303 -357h-29l156 371h176v-14zM1077 1524l-303 -357h-31l156 371h178v-14zM924 1024h163v-1065h-36l-125 305q-26 -126 -122.5 -209.5t-244.5 -83.5q-202 0 -301.5 108.5t-99.5 328.5v616h161v-629q0 -191 64 -277.5t227 -86.5q246 0 314 303v690z" />
    <glyph glyph-name="Uogonek" unicode="&#x172;" horiz-adv-x="1433" 
d="M1188 1391h82q-1 -21 -7 -110.5t-9 -143.5t-6 -140t-3 -157v-260q0 -508 -356 -594q-69 -48 -118.5 -127t-49.5 -162q0 -42 17 -65t48 -23q30 0 59 25t46 65l20 -10q-23 -59 -63.5 -89t-91.5 -30q-67 0 -105.5 37t-38.5 98q0 162 222 270q-52 -6 -107 -6q-545 0 -545 588
v834h170v-883q0 -124 20.5 -212t68.5 -154t131.5 -98t203.5 -32q213 0 324.5 143.5t111.5 424.5v260q0 146 -24 551z" />
    <glyph glyph-name="uogonek" unicode="&#x173;" horiz-adv-x="1257" 
d="M1073 -334l23 -12q-24 -58 -65 -88.5t-91 -30.5q-67 0 -105 37t-38 98q0 175 258 289h-4l-125 305q-26 -126 -122.5 -209.5t-244.5 -83.5q-202 0 -301.5 108.5t-99.5 328.5v616h161v-629q0 -191 64 -277.5t227 -86.5q246 0 314 303v-2l2 692h161v-1065h-4
q-73 -49 -126.5 -130t-53.5 -165q0 -43 18 -65.5t48 -22.5q32 0 60.5 24.5t43.5 65.5z" />
    <glyph glyph-name="Wcircumflex" unicode="&#x174;" horiz-adv-x="2029" 
d="M1059 1776l-332 -271h-31l308 365h110l309 -365h-32zM1901 1391h92q-56 -154 -193.5 -550t-228.5 -644l-86 -238h-25l-446 1239l-426 -1239h-25l-538 1432h172l440 -1180h8l416 1221h24l445 -1235h6q169 474 259.5 781t105.5 413z" />
    <glyph glyph-name="wcircumflex" unicode="&#x175;" horiz-adv-x="1628" 
d="M858 1430l-330 -271h-32l309 365h108l310 -365h-33zM1516 1024h75q-45 -111 -140.5 -365t-197.5 -499l-88 -203h-22l-324 893l-342 -891h-22l-416 1065h172l315 -842h9l333 883h25l324 -903h8q217 562 291 862z" />
    <glyph glyph-name="Ycircumflex" unicode="&#x176;" horiz-adv-x="1183" 
d="M254 1505l309 365h109l309 -365h-33l-330 271l-331 -271h-33zM500 0v621l-437 770h179l399 -713h8q321 508 408 713h92q-202 -304 -479 -729v-662h-170z" />
    <glyph glyph-name="ycircumflex" unicode="&#x177;" horiz-adv-x="1028" 
d="M555 1430l-332 -271h-33l310 365h110l308 -365h-31zM918 1024h77l-381 -831l-92 -193l-170 -369l-82 52l228 317l-459 1022h170l369 -829h8q148 339 217.5 515t114.5 316z" />
    <glyph glyph-name="Ydieresis" unicode="&#x178;" horiz-adv-x="1183" 
d="M412 1577q-46 0 -77.5 32.5t-31.5 78.5q0 47 31.5 79.5t77.5 32.5t78 -32.5t32 -79.5q0 -46 -32 -78.5t-78 -32.5zM821 1577q-45 0 -76.5 32.5t-31.5 78.5q0 47 31 79.5t77 32.5t78.5 -32.5t32.5 -79.5q0 -46 -32.5 -78.5t-78.5 -32.5zM500 0v621l-437 770h179l399 -713
h8q321 508 408 713h92q-202 -304 -479 -729v-662h-170z" />
    <glyph glyph-name="Zacute" unicode="&#x179;" horiz-adv-x="1134" 
d="M909 1915l-377 -348h-28l211 360h194v-12zM463 29q433 0 614 51v-80h-1007v29l802 1333h-194q-434 0 -615 -51v80h1000v-29l-803 -1333h203z" />
    <glyph glyph-name="zacute" unicode="&#x17a;" horiz-adv-x="901" 
d="M784 1522l-376 -346h-29l211 358h194v-12zM426 29q263 0 428 51v-80h-799v29l592 966h-129q-264 0 -432 -51v80h739v-29l-592 -966h193z" />
    <glyph glyph-name="Zdotaccent" unicode="&#x17b;" horiz-adv-x="1134" 
d="M580 1608q-47 0 -81 33.5t-34 80.5q0 46 34 79.5t81 33.5t79.5 -33.5t32.5 -79.5q0 -47 -32.5 -80.5t-79.5 -33.5zM463 29q433 0 614 51v-80h-1007v29l802 1333h-194q-434 0 -615 -51v80h1000v-29l-803 -1333h203z" />
    <glyph glyph-name="zdotaccent" unicode="&#x17c;" horiz-adv-x="901" 
d="M467 1227q-47 0 -81 33.5t-34 80.5q0 46 34 79.5t81 33.5q46 0 79.5 -33.5t33.5 -79.5q0 -47 -33.5 -80.5t-79.5 -33.5zM426 29q263 0 428 51v-80h-799v29l592 966h-129q-264 0 -432 -51v80h739v-29l-592 -966h193z" />
    <glyph glyph-name="Zcaron" unicode="&#x17d;" horiz-adv-x="1134" 
d="M629 1571h-111l-307 364h31l331 -270l332 270h33zM463 29q433 0 614 51v-80h-1007v29l802 1333h-194q-434 0 -615 -51v80h1000v-29l-803 -1333h203z" />
    <glyph glyph-name="zcaron" unicode="&#x17e;" horiz-adv-x="901" 
d="M516 1180h-110l-308 366h31l332 -270l332 270h32zM426 29q263 0 428 51v-80h-799v29l592 966h-129q-264 0 -432 -51v80h739v-29l-592 -966h193z" />
    <glyph glyph-name="uni01EA" unicode="&#x1ea;" horiz-adv-x="1628" 
d="M924 -23q-70 -49 -122 -129t-52 -163q0 -88 65 -88q32 0 60 24t45 66l20 -11q-23 -58 -64 -88t-92 -30q-67 0 -105 36.5t-38 98.5q0 167 244 280q-50 -4 -74 -4q-206 0 -366.5 92.5t-248 258t-87.5 376.5q0 208 87 372.5t248 258.5t367 94q156 0 289 -55t225.5 -150.5
t144.5 -230t52 -289.5q0 -289 -163.5 -486.5t-434.5 -232.5zM291 696q0 -210 59 -366t177 -244t284 -88q250 0 386 189t136 509q0 208 -59.5 364t-178 244.5t-284.5 88.5t-285 -90t-177 -245.5t-58 -361.5z" />
    <glyph glyph-name="uni01EB" unicode="&#x1eb;" horiz-adv-x="1294" 
d="M776 -18q-67 -50 -113.5 -126.5t-46.5 -156.5q0 -88 66 -88t104 90l21 -10q-23 -58 -64 -88.5t-92 -30.5q-67 0 -105 36.5t-38 98.5q0 159 213 266q-50 -4 -74 -4q-165 0 -291.5 72t-193 194.5t-66.5 276.5t66.5 276t193 193.5t291.5 71.5q250 0 401.5 -153t151.5 -388
q0 -194 -115 -341.5t-309 -188.5zM270 512q0 -243 99.5 -378.5t277.5 -135.5q179 0 279 135.5t100 378.5q0 244 -100 378t-279 134t-278 -134t-99 -378z" />
    <glyph glyph-name="AEacute" unicode="&#x1fc;" horiz-adv-x="1673" 
d="M1395 1882l-377 -348h-29l211 360h195v-12zM995 29q264 0 384 10t229 41v-80h-805v397h-524q-138 -263 -193 -397h-100q402 669 817 1391h758v-80q-181 51 -582 51h-4v-651q340 7 485 24v-78q-233 25 -485 25v-653h20zM295 426h508v903q-25 -45 -221.5 -390t-286.5 -513z
" />
    <glyph glyph-name="aeacute" unicode="&#x1fd;" horiz-adv-x="1841" 
d="M1286 1520l-377 -346h-28l211 360h194v-14zM1747 516h-791q0 -243 109 -378.5t303 -135.5q64 0 117.5 10.5t96.5 31.5t68.5 37.5t59.5 43.5v-33q-156 -125 -375 -125q-143 0 -255.5 52.5t-184.5 146.5q-66 75 -92 170q-43 -169 -161 -270t-273 -101q-133 0 -213 67.5
t-80 184.5q0 359 708 363l-2 131q0 76 -11 130t-39 98t-79 65.5t-127 21.5q-184 0 -364 -162v92q215 99 397 99q270 0 346 -181q76 88 185.5 134.5t226.5 46.5q191 0 314.5 -125t123.5 -318q0 -38 -8 -96zM956 545h648q0 16 1 47t1 45q0 183 -75.5 286t-213.5 103
q-164 0 -259.5 -121t-101.5 -360zM432 37q119 0 214.5 86t146.5 258q-6 39 -9 76q-2 20 -2 61v37q-60 -3 -107.5 -8t-107 -14.5t-104.5 -23t-90.5 -36.5t-75 -52t-48 -70.5t-18.5 -92.5q0 -118 55 -169.5t146 -51.5z" />
    <glyph glyph-name="Oslashacute" unicode="&#x1fe;" horiz-adv-x="1652" 
d="M1153 1913l-375 -348h-30l213 360h192v-12zM1556 1391l-200 -201q174 -199 174 -494q0 -210 -88 -375.5t-250 -258.5t-371 -93q-304 0 -497 193l-162 -162h-45l184 184q-184 200 -184 512q0 208 87.5 372.5t248.5 258.5t368 94q155 0 286.5 -54t227.5 -153l176 177h45z
M299 696q0 -250 88 -428l864 862q-68 126 -176.5 194.5t-253.5 68.5q-125 0 -224.5 -51.5t-164.5 -144t-99 -220t-34 -281.5zM1343 696q0 236 -77 404l-865 -860q138 -242 420 -242q166 0 284.5 87.5t178 244t59.5 366.5z" />
    <glyph glyph-name="oslashacute" unicode="&#x1ff;" horiz-adv-x="1312" 
d="M991 1520l-375 -346h-30l213 358h192v-12zM1061 897q147 -150 147 -385q0 -110 -39 -208.5t-109 -173t-175 -118t-230 -43.5q-231 0 -381 137l-106 -106h-43l127 127q-148 154 -148 385q0 154 66.5 276t193 193.5t291.5 71.5q232 0 383 -135l107 106h43zM279 512
q0 -182 55 -301l631 633q-97 180 -310 180q-178 0 -277 -134t-99 -378zM655 -2q180 0 279.5 135.5t99.5 378.5q0 181 -55 303l-631 -633q47 -89 126 -136.5t181 -47.5z" />
    <glyph glyph-name="uni0218" unicode="&#x218;" horiz-adv-x="1077" 
d="M502 -31q-112 0 -223.5 27t-174.5 57v99q150 -154 402 -154q166 0 269.5 75t103.5 201q0 33 -6 62t-14 52t-25 45.5t-30.5 38.5t-40.5 34.5t-44 29.5t-52 28t-54.5 25.5t-59.5 26.5l-119 54q-64 29 -108.5 54t-87.5 59.5t-68.5 73t-41 91.5t-15.5 117q0 89 36.5 158
t100.5 111.5t145.5 64.5t175.5 22q88 0 177 -21t147 -50v-99q-138 142 -326 142q-92 0 -165.5 -24t-123 -83.5t-49.5 -148.5q0 -60 17 -105t57 -81.5t85 -62.5t120 -61l119 -53q54 -25 88 -41t77.5 -41t70 -46t55 -51.5t44 -63t25.5 -74t10 -90.5q0 -128 -68 -219.5
t-178.5 -135t-250.5 -43.5zM451 -600q88 114 135 213q-21 -16 -60 -16q-46 0 -76 31t-30 77t31.5 78.5t76.5 32.5q48 0 79.5 -30.5t31.5 -80.5q0 -36 -8 -59.5t-43 -100.5l-68 -145h-69z" />
    <glyph glyph-name="uni0219" unicode="&#x219;" horiz-adv-x="944" 
d="M477 -31q-210 0 -379 88v99q175 -158 369 -158q120 0 195 52t75 145q0 45 -18.5 83t-43.5 62.5t-67.5 47.5t-72.5 35t-77 29q-5 2 -7.5 2.5t-6 2t-6.5 2.5q-37 13 -53.5 19.5t-51.5 20.5t-52 23.5t-45.5 26.5t-43.5 32t-34.5 37t-28.5 44.5t-16 52t-7 61.5q0 123 96 200
t259 77q86 0 180.5 -22t149.5 -50v-98q-137 141 -326 141q-105 0 -164 -49t-59 -139q0 -40 15.5 -74t38 -56.5t58.5 -43t67 -34t74 -29.5q13 -5 19 -7q148 -55 203 -87q144 -84 149 -227v-10q0 -130 -102 -214.5t-287 -84.5zM397 -600q96 124 135 211q-20 -14 -59 -14
q-46 0 -76 31t-30 77t31.5 78.5t76.5 32.5q48 0 79.5 -31.5t31.5 -81.5q0 -36 -8 -60.5t-41 -97.5l-68 -145h-72z" />
    <glyph glyph-name="uni021A" unicode="&#x21a;" horiz-adv-x="1167" 
d="M23 1391h1122v-80q-163 43 -475 49v-1360h-170v1360q-314 -6 -477 -49v80zM575 -154q48 0 79.5 -31t31.5 -81q0 -46 -42 -141q-4 -11 -7 -17l-68 -145h-71q96 124 135 211q-24 -15 -60 -15q-45 0 -75.5 31.5t-30.5 77.5t31 78t77 32z" />
    <glyph glyph-name="uni021B" unicode="&#x21b;" horiz-adv-x="669" 
d="M254 0v995h-231v29h231l125 270h37v-270h231v-29h-231v-995h-162zM246 -565q93 121 137 213q-23 -17 -61 -17q-44 0 -74.5 31.5t-30.5 77.5t31.5 78t77.5 32q47 0 78.5 -30t31.5 -80q0 -36 -8 -59.5t-43 -100.5l-68 -145h-71z" />
    <glyph glyph-name="uni0237" unicode="&#x237;" horiz-adv-x="499" 
d="M-31 -369q-114 0 -202 39v101q59 -55 105 -83t95 -28q207 0 207 313l-6 1051h162v-971q0 -75 -10.5 -136t-36.5 -115t-66.5 -91t-103 -58.5t-144.5 -21.5z" />
    <glyph glyph-name="circumflex" unicode="&#x2c6;" horiz-adv-x="915" 
d="M84 1184l307 366h111l307 -366h-31l-332 270l-331 -270h-31z" />
    <glyph glyph-name="caron" unicode="&#x2c7;" horiz-adv-x="915" 
d="M403 1184l-309 366h33l332 -270l329 270h33l-309 -366h-109z" />
    <glyph glyph-name="breve" unicode="&#x2d8;" horiz-adv-x="868" 
d="M436 1128q-122 0 -193 86.5t-71 227.5h29q0 -72 34.5 -121t85.5 -68.5t115 -19.5q99 0 166.5 51.5t67.5 157.5h28q0 -140 -72 -227t-190 -87z" />
    <glyph glyph-name="dotaccent" unicode="&#x2d9;" horiz-adv-x="489" 
d="M244 1167q-47 0 -81 34t-34 81t34 81t81 34t79.5 -33.5t32.5 -81.5t-32.5 -81.5t-79.5 -33.5z" />
    <glyph glyph-name="ring" unicode="&#x2da;" horiz-adv-x="616" 
d="M311 1110q-87 0 -144.5 58.5t-57.5 144.5q0 84 57.5 142t144.5 58q86 0 143.5 -58t57.5 -142q0 -85 -57.5 -144t-143.5 -59zM311 1143q71 0 117.5 48.5t46.5 121.5q0 71 -46.5 119.5t-117.5 48.5q-73 0 -119.5 -47.5t-46.5 -120.5t46.5 -121.5t119.5 -48.5z" />
    <glyph glyph-name="ogonek" unicode="&#x2db;" horiz-adv-x="540" 
d="M201 -387q-67 0 -105.5 37t-38.5 98q0 174 260 289h27q-72 -48 -125 -130t-53 -167q0 -42 17 -65t48 -23q32 0 59.5 25t45.5 67l20 -12q-23 -58 -64 -88.5t-91 -30.5z" />
    <glyph glyph-name="tilde" unicode="&#x2dc;" horiz-adv-x="991" 
d="M635 1204q-44 0 -88.5 17t-80.5 41t-70.5 48t-72 41t-71.5 17q-109 0 -109 -154h-28q0 124 42 188t136 64q45 0 96.5 -25t91 -54.5t93.5 -54.5t102 -25q108 0 108 155h29q0 -133 -41 -195.5t-137 -62.5z" />
    <glyph glyph-name="hungarumlaut" unicode="&#x2dd;" horiz-adv-x="905" 
d="M145 1184l156 370h178v-12l-303 -358h-31zM502 1184l155 370h179v-12l-306 -358h-28z" />
    <glyph glyph-name="gravecomb" unicode="&#x300;" 
d="M-184 1192l-377 346v14h194l211 -360h-28z" />
    <glyph glyph-name="acutecomb" unicode="&#x301;" 
d="M-477 1192l211 360h194v-14l-377 -346h-28z" />
    <glyph glyph-name="uni0302" unicode="&#x302;" 
d="M-825 1184l309 366h108l310 -366h-33l-330 270l-332 -270h-32z" />
    <glyph glyph-name="tildecomb" unicode="&#x303;" 
d="M-309 1204q-44 0 -88.5 17t-80.5 41t-70.5 48t-72 41t-71.5 17q-109 0 -109 -154h-28q0 124 42 188t136 64q45 0 96.5 -25t91 -54.5t93.5 -54.5t102 -25q108 0 108 155h29q0 -133 -41 -195.5t-137 -62.5z" />
    <glyph glyph-name="uni0304" unicode="&#x304;" 
d="M-690 1309v32h581v-32h-581z" />
    <glyph glyph-name="uni0306" unicode="&#x306;" 
d="M-432 1128q-122 0 -193 86.5t-71 227.5h28q0 -106 67.5 -157.5t168.5 -51.5q99 0 166 51.5t67 157.5h29q0 -140 -72 -227t-190 -87z" />
    <glyph glyph-name="uni0307" unicode="&#x307;" 
d="M-248 1167q-46 0 -79 34t-33 81t33 81t79 34q47 0 81 -34t34 -81t-34 -81t-81 -34z" />
    <glyph glyph-name="uni0308" unicode="&#x308;" 
d="M-649 1178q-46 0 -78.5 31.5t-32.5 78.5q0 46 32.5 78.5t78.5 32.5q45 0 76.5 -32.5t31.5 -78.5q0 -47 -31 -78.5t-77 -31.5zM-240 1178q-46 0 -77 31.5t-31 78.5q0 46 31.5 78.5t76.5 32.5q46 0 78.5 -32.5t32.5 -78.5q0 -47 -32.5 -78.5t-78.5 -31.5z" />
    <glyph glyph-name="uni030A" unicode="&#x30a;" 
d="M-305 1110q-87 0 -145 59t-58 144q0 84 58 142t145 58q86 0 143.5 -58t57.5 -142q0 -85 -57.5 -144t-143.5 -59zM-305 1143q71 0 117.5 48.5t46.5 121.5q0 71 -46.5 119.5t-117.5 48.5q-73 0 -119.5 -47.5t-46.5 -120.5t46.5 -121.5t119.5 -48.5z" />
    <glyph glyph-name="uni030B" unicode="&#x30b;" 
d="M-760 1184l156 370h178v-12l-305 -358h-29zM-403 1184l155 370h176v-12l-303 -358h-28z" />
    <glyph glyph-name="uni030C" unicode="&#x30c;" 
d="M-514 1184l-307 366h30l332 -270l332 270h33l-309 -366h-111z" />
    <glyph glyph-name="uni0326" unicode="&#x326;" 
d="M-326 -260q98 127 138 211q-22 -14 -62 -14q-44 0 -74 31t-30 77t31.5 78.5t76.5 32.5q47 0 79 -31.5t32 -81.5q0 -35 -8 -58t-43 -100l-68 -145h-72z" />
    <glyph glyph-name="uni0327" unicode="&#x327;" 
d="M-322 -340q-109 0 -188 59v72q49 -54 89 -79t95 -25q61 0 92 34t31 91q0 71 -46.5 107t-131.5 56l78 129h27l-60 -100q118 -21 179 -60t61 -118q0 -72 -61.5 -119t-164.5 -47z" />
    <glyph glyph-name="uni0328" unicode="&#x328;" 
d="M-340 -387q-67 0 -105 37t-38 98q0 175 258 289h28q-72 -48 -125 -130t-53 -167q0 -42 17.5 -65t48.5 -23q30 0 58.5 25t45.5 67l21 -12q-23 -57 -64.5 -88t-91.5 -31z" />
    <glyph glyph-name="uni0335" unicode="&#x335;" 
d="M-723 543v28h614v-28h-614z" />
    <glyph glyph-name="uni0336" unicode="&#x336;" 
d="M-1485 543v28h1411v-28h-1411z" />
    <glyph glyph-name="uni0337" unicode="&#x337;" 
d="M-893 289l795 553h45l-795 -553h-45z" />
    <glyph glyph-name="uni0338" unicode="&#x338;" 
d="M-1157 0l1020 1024h43l-1020 -1024h-43z" />
    <glyph glyph-name="Wgrave" unicode="&#x1e80;" horiz-adv-x="2029" 
d="M1184 1526h-29l-377 346v14h195zM1901 1391h92q-56 -154 -193.5 -550t-228.5 -644l-86 -238h-25l-446 1239l-426 -1239h-25l-538 1432h172l440 -1180h8l416 1221h24l445 -1235h6q169 474 259.5 781t105.5 413z" />
    <glyph glyph-name="wgrave" unicode="&#x1e81;" horiz-adv-x="1628" 
d="M952 1161h-28l-377 346v15h194zM1516 1024h75q-45 -111 -140.5 -365t-197.5 -499l-88 -203h-22l-324 893l-342 -891h-22l-416 1065h172l315 -842h9l333 883h25l324 -903h8q217 562 291 862z" />
    <glyph glyph-name="Wacute" unicode="&#x1e82;" horiz-adv-x="2029" 
d="M1384 1882l-376 -348h-29l211 360h194v-12zM1901 1391h92q-56 -154 -193.5 -550t-228.5 -644l-86 -238h-25l-446 1239l-426 -1239h-25l-538 1432h172l440 -1180h8l416 1221h24l445 -1235h6q169 474 259.5 781t105.5 413z" />
    <glyph glyph-name="wacute" unicode="&#x1e83;" horiz-adv-x="1628" 
d="M1184 1520l-375 -346h-31l213 360h193v-14zM1516 1024h75q-45 -111 -140.5 -365t-197.5 -499l-88 -203h-22l-324 893l-342 -891h-22l-416 1065h172l315 -842h9l333 883h25l324 -903h8q217 562 291 862z" />
    <glyph glyph-name="Wdieresis" unicode="&#x1e84;" horiz-adv-x="2029" 
d="M854 1577q-47 0 -79 32.5t-32 78.5q0 47 32 79.5t79 32.5q46 0 77.5 -32.5t31.5 -79.5q0 -46 -31.5 -78.5t-77.5 -32.5zM1264 1577q-46 0 -78.5 32.5t-32.5 78.5q0 47 32.5 79.5t78.5 32.5t78 -32.5t32 -79.5q0 -46 -32 -78.5t-78 -32.5zM1901 1391h92
q-56 -154 -193.5 -550t-228.5 -644l-86 -238h-25l-446 1239l-426 -1239h-25l-538 1432h172l440 -1180h8l416 1221h24l445 -1235h6q169 474 259.5 781t105.5 413z" />
    <glyph glyph-name="wdieresis" unicode="&#x1e85;" horiz-adv-x="1628" 
d="M643 1229q-46 0 -77 31t-31 77q0 47 31 80t77 33t78.5 -33t32.5 -80q0 -45 -32.5 -76.5t-78.5 -31.5zM1053 1229q-46 0 -77.5 31t-31.5 77q0 47 31.5 80t77.5 33t78 -33t32 -80q0 -46 -32 -77t-78 -31zM1516 1024h75q-45 -111 -140.5 -365t-197.5 -499l-88 -203h-22
l-324 893l-342 -891h-22l-416 1065h172l315 -842h9l333 883h25l324 -903h8q217 562 291 862z" />
    <glyph glyph-name="uni1E9E" unicode="&#x1e9e;" horiz-adv-x="1370" 
d="M805 952q0 -56 27 -105.5t70 -88t95.5 -77t104.5 -79.5t95 -86t70 -107t27 -133q0 -79 -33 -140t-89 -96.5t-123.5 -53t-143.5 -17.5q-80 0 -169.5 15.5t-137.5 42.5v86q79 -67 151.5 -91t157.5 -24q109 0 176.5 55t67.5 164q0 62 -25 114t-65 89.5t-88.5 72.5t-97.5 72
t-89 78.5t-65 101.5t-25 132q0 147 124 251t354 175q-168 77 -381 77q-212 0 -325.5 -118.5t-113.5 -317.5v-944h-172v879q0 263 150 397.5t465 134.5q124 0 219 -22t192 -68v-35q-54 -20 -85 -32.5t-75.5 -31.5t-70 -33.5t-57.5 -35t-49.5 -41t-34.5 -45.5t-24 -53.5
t-7 -61.5z" />
    <glyph glyph-name="Ygrave" unicode="&#x1ef2;" horiz-adv-x="1183" 
d="M713 1526l-377 346v14h194l213 -360h-30zM500 0v621l-437 770h179l399 -713h8q321 508 408 713h92q-202 -304 -479 -729v-662h-170z" />
    <glyph glyph-name="ygrave" unicode="&#x1ef3;" horiz-adv-x="1028" 
d="M657 1161h-28l-377 346v15h194zM918 1024h77l-381 -831l-92 -193l-170 -369l-82 52l228 317l-459 1022h170l369 -829h8q148 339 217.5 515t114.5 316z" />
    <glyph glyph-name="uni1EF8" unicode="&#x1ef8;" horiz-adv-x="1183" 
d="M780 1550q-45 0 -89.5 17t-80.5 41t-70.5 48t-71.5 41t-71 17q-110 0 -110 -153h-29q0 251 178 251q45 0 97 -25t92 -54.5t94 -54.5t102 -25q107 0 107 155h28q0 -132 -40.5 -195t-135.5 -63zM500 0v621l-437 770h179l399 -713h8q321 508 408 713h92q-202 -304 -479 -729
v-662h-170z" />
    <glyph glyph-name="uni1EF9" unicode="&#x1ef9;" horiz-adv-x="1028" 
d="M348 1366q-108 0 -108 -152h-29q0 252 176 252q45 0 97 -25t92 -54.5t94 -54.5t102 -25q59 0 84 44t25 111h28q0 -132 -41.5 -196t-136.5 -64q-45 0 -89.5 17t-80.5 41t-70 48t-71.5 41t-71.5 17zM918 1024h77l-381 -831l-92 -193l-170 -369l-82 52l228 317l-459 1022
h170l369 -829h8q148 339 217.5 515t114.5 316z" />
    <glyph glyph-name="endash" unicode="&#x2013;" horiz-adv-x="1206" 
d="M76 514v29h1057v-29h-1057z" />
    <glyph glyph-name="emdash" unicode="&#x2014;" horiz-adv-x="1533" 
d="M76 514v29h1384v-29h-1384z" />
    <glyph glyph-name="quoteleft" unicode="&#x2018;" horiz-adv-x="444" 
d="M332 1475q-59 -71 -96 -134.5t-84 -166.5q21 16 63 16q49 0 81 -32.5t32 -82.5q0 -49 -34 -84t-81 -35q-51 0 -85 33.5t-34 85.5q0 36 8 59.5t43 100.5l111 240h76z" />
    <glyph glyph-name="quoteright" unicode="&#x2019;" horiz-adv-x="438" 
d="M125 987q58 70 93.5 132t86.5 171q-24 -16 -65 -16q-47 0 -79 33t-32 82q0 50 33 83t82 33q50 0 83 -33t33 -86q0 -32 -6.5 -54t-32.5 -82q-6 -15 -10 -23l-110 -240h-76z" />
    <glyph glyph-name="quotesinglbase" unicode="&#x201a;" horiz-adv-x="432" 
d="M96 -313q59 71 96 134.5t84 166.5q-24 -15 -65 -15q-47 0 -79 33t-32 82q0 50 33 83.5t82 33.5q50 0 83.5 -33t33.5 -86q0 -25 -5 -46t-11.5 -37t-32.5 -77l-111 -239h-76z" />
    <glyph glyph-name="quotedblleft" unicode="&#x201c;" horiz-adv-x="827" 
d="M332 1475q-59 -71 -96 -134.5t-84 -166.5q21 16 63 16q49 0 81 -32.5t32 -82.5q0 -49 -34 -84t-81 -35q-51 0 -85 33.5t-34 85.5q0 36 8 59.5t43 100.5l111 240h76zM713 1475q-58 -70 -94.5 -132.5t-86.5 -168.5q24 16 66 16q47 0 79 -33t32 -82q0 -50 -33 -84.5
t-82 -34.5q-50 0 -83.5 33.5t-33.5 85.5q0 36 7.5 59t41.5 101l111 240h76z" />
    <glyph glyph-name="quotedblright" unicode="&#x201d;" horiz-adv-x="821" 
d="M125 987q58 70 93.5 132t86.5 171q-24 -16 -65 -16q-47 0 -79 33t-32 82q0 50 33 83t82 33q50 0 83 -33t33 -86q0 -32 -6.5 -54t-32.5 -82q-6 -15 -10 -23l-110 -240h-76zM506 987q58 71 95.5 134.5t86.5 168.5q-24 -16 -65 -16q-48 0 -80.5 33t-32.5 82t33.5 82.5
t81.5 33.5q52 0 85 -33t33 -86q0 -33 -7 -55t-35 -84q-2 -5 -3 -7l-3 -6t-3 -7l-108 -240h-78z" />
    <glyph glyph-name="quotedblbase" unicode="&#x201e;" horiz-adv-x="815" 
d="M96 -313q59 71 96 134.5t84 166.5q-24 -15 -65 -15q-47 0 -79 33t-32 82q0 50 33 83.5t82 33.5q50 0 83.5 -33t33.5 -86q0 -25 -5 -46t-11.5 -37t-32.5 -77l-111 -239h-76zM477 -313q58 71 95.5 134t86.5 167q-27 -15 -65 -15q-48 0 -80.5 33t-32.5 82t33.5 83t81.5 34
q52 0 85.5 -33t33.5 -86q0 -35 -8 -58t-43 -102l-109 -239h-78z" />
    <glyph glyph-name="dagger" unicode="&#x2020;" horiz-adv-x="1036" 
d="M987 1059v-29h-477v-1245h-33v1245h-426v29h426v512h33v-512h477z" />
    <glyph glyph-name="daggerdbl" unicode="&#x2021;" horiz-adv-x="1097" 
d="M1016 1030h-477v-704h477v-29h-477v-512h-33v512h-426v29h426v704h-426v29h426v512h33v-512h477v-29z" />
    <glyph glyph-name="bullet" unicode="&#x2022;" horiz-adv-x="741" 
d="M373 537q-83 0 -139 55t-56 137t56 138.5t139 56.5q80 0 135 -56.5t55 -138.5q0 -81 -55 -136.5t-135 -55.5z" />
    <glyph glyph-name="ellipsis" unicode="&#x2026;" horiz-adv-x="1353" 
d="M229 -31q-48 0 -81 33t-33 82t33.5 84t80.5 35q49 0 82 -34.5t33 -84.5t-33 -82.5t-82 -32.5zM678 -31q-50 0 -82.5 32.5t-32.5 82.5t33 84.5t82 34.5q47 0 81 -35t34 -84t-33.5 -82t-81.5 -33zM1124 -31q-49 0 -81.5 32.5t-32.5 82.5t32.5 84.5t81.5 34.5q47 0 81 -35
t34 -84t-33.5 -82t-81.5 -33z" />
    <glyph glyph-name="perthousand" unicode="&#x2030;" horiz-adv-x="2473" 
d="M401 666q-140 0 -237.5 94.5t-97.5 240.5q0 148 96.5 244t238.5 96q143 0 239.5 -96t96.5 -244q0 -145 -98 -240t-238 -95zM510 0l657 1341h31l-655 -1341h-33zM401 694q93 0 148 84.5t55 222.5q0 144 -55 229t-148 85q-92 0 -147 -85t-55 -229q0 -138 54.5 -222.5
t147.5 -84.5zM1292 -31q-140 0 -238 95t-98 241q0 148 96.5 244t239.5 96t239.5 -96t96.5 -244q0 -146 -98 -241t-238 -95zM2075 -31q-140 0 -238 95t-98 241q0 148 96.5 244t239.5 96q142 0 238.5 -96t96.5 -244q0 -146 -97.5 -241t-237.5 -95zM1292 -2q93 0 148 84.5
t55 222.5q0 144 -55 228.5t-148 84.5t-147.5 -84.5t-54.5 -228.5q0 -138 54.5 -222.5t147.5 -84.5zM2075 -2q93 0 147.5 84.5t54.5 222.5q0 144 -54.5 228.5t-147.5 84.5t-148 -84.5t-55 -228.5q0 -138 55 -222.5t148 -84.5z" />
    <glyph glyph-name="guilsinglleft" unicode="&#x2039;" horiz-adv-x="727" 
d="M621 49l-519 434v35l519 434v-26l-367 -424l367 -426v-27z" />
    <glyph glyph-name="guilsinglright" unicode="&#x203a;" horiz-adv-x="727" 
d="M106 49v27l365 426l-365 424v26l519 -434v-35z" />
    <glyph glyph-name="fraction" unicode="&#x2044;" horiz-adv-x="681" 
d="M-6 0l657 1341h31l-655 -1341h-33z" />
    <glyph glyph-name="Euro" unicode="&#x20ac;" horiz-adv-x="1349" 
d="M934 1313q-193 0 -319.5 -138t-157.5 -372h461v-27h-465q-7 -68 -7 -123q0 -21 5 -104h467v-27h-465q27 -247 150 -385.5t325 -138.5q191 0 311 127v-88q-49 -28 -136.5 -48t-178.5 -20q-274 0 -445.5 142.5t-206.5 410.5h-174v27h170q-4 66 -4 104q0 71 8 123h-174v27
h176q41 256 214 397t442 141q93 0 178 -20t135 -49v-90q-60 64 -131.5 97.5t-177.5 33.5z" />
    <glyph glyph-name="trademark" unicode="&#x2122;" horiz-adv-x="1804" 
d="M1616 1419h16v-790h-127v559h-4l-284 -479h-15l-295 479h-4v-236q0 -108 17 -323h-60q17 215 17 323v467h16l367 -577h6zM57 1391h697v-68q-176 39 -279 39h-6v-733h-127v733h-4q-105 0 -281 -39v68z" />
    <glyph glyph-name="minus" unicode="&#x2212;" horiz-adv-x="1105" 
d="M72 670v28h962v-28h-962z" />
    <glyph glyph-name="approxequal" unicode="&#x2248;" horiz-adv-x="1105" 
d="M84 739q0 62 21.5 110t57 75.5t76.5 41t85 13.5q49 0 101 -18t97.5 -44t90.5 -52t97.5 -44t102.5 -18q92 0 137 59t45 150h33q0 -103 -55 -170.5t-160 -67.5q-53 0 -107 18t-100 44t-91 52t-96 44t-100 18q-38 0 -72.5 -11t-64.5 -34t-47.5 -66t-17.5 -100h-33zM84 350
q0 62 21.5 110t57 75.5t76.5 41t85 13.5q49 0 101 -18t97.5 -44t90.5 -52t97.5 -44t102.5 -18q92 0 137 59t45 150h33q0 -103 -55 -170.5t-160 -67.5q-53 0 -107 18t-100 44t-91 52t-96 44t-100 18q-38 0 -72.5 -11t-64.5 -34t-47.5 -66t-17.5 -100h-33z" />
    <glyph glyph-name="notequal" unicode="&#x2260;" horiz-adv-x="1105" 
d="M1030 844h-438l-92 -318h530v-28h-538l-84 -295h-33l84 295h-383v28h391l92 318h-483v28h491l84 293h33l-84 -293h430v-28z" />
    <glyph glyph-name="uniF8FF" unicode="&#xf8ff;" horiz-adv-x="4724" 
d="M1149 408q-95 0 -136.5 40t-41.5 130v466h203q0 -62 -40 -122t-98 -86l2 -9q58 35 119 35h105v-162h-86v-98q0 -35 36 -35q28 0 50 15v-154q-36 -20 -113 -20zM1303 418v626h200q0 -67 -47 -122t-115 -70l5 -6q84 16 143 16h16v-444h-202zM2808 408q-95 0 -137.5 40.5
t-42.5 129.5v466h202q0 -62 -39 -122t-98 -86l4 -9q58 35 119 35h102v-162h-86v-98q0 -35 37 -35q27 0 49 15v-154q-36 -20 -110 -20zM205 418v624h203v-624h-203zM584 408q-66 0 -105 34t-39 90q0 60 41 98t111 38q92 0 135 -43h4v71q0 24 -12 38t-35 14q-47 0 -47 -60
l-184 29q37 160 249 160q110 0 172 -50t62 -135v-274h-201v45h-6q-14 -20 -51.5 -37.5t-93.5 -17.5zM1548 418v444h199v-133h6q17 143 145 143q70 0 110 -46t40 -134v-274h-205v264q0 55 -39 55q-22 0 -32 -13t-21 -52v-254h-203zM2337 408q-123 0 -190.5 63.5t-67.5 167.5
t69 168.5t189 64.5q122 0 190 -64.5t68 -168.5q0 -103 -67.5 -167t-190.5 -64zM3463 270v592h203v-133h6q21 143 150 143q170 0 170 -233q0 -115 -51.5 -173t-125.5 -58q-105 0 -141 88h-6v-226h-205zM4274 408q-120 0 -187 63.5t-67 167.5q0 103 70 168t190 65
q107 0 173.5 -64.5t66.5 -158.5v-18h-307q0 -39 18.5 -66.5t50.5 -27.5q55 0 62 69l168 -16q-18 -95 -83 -138.5t-155 -43.5zM3015 262v135h133q115 0 137 25l-2 6h-139q-83 0 -107 80l-110 354h204q6 -37 20 -110t24 -134t14 -110h4q13 125 61 354h203l-145 -424
q-63 -176 -217 -176h-80zM4213 655h12q62 0 87.5 12t25.5 38q0 45 -49 45q-34 0 -55 -26t-21 -69zM3738 506q31 0 46 27.5t15 89.5q0 66 -12 95.5t-43 29.5q-46 0 -62 -68v-148q21 -26 56 -26zM2337 535q59 0 59 104q0 106 -59 106q-58 0 -58 -106q0 -104 58 -104zM686 469
q30 0 45 23v104q-10 16 -39 16q-25 0 -40 -19t-15 -52q0 -72 49 -72z" />
    <glyph glyph-name="uni00A40301" horiz-adv-x="866" 
d="M522 1569l213 360h193v-14l-375 -346h-31zM285 -31q-150 0 -252 45v95q52 -54 107 -82.5t141 -28.5q229 0 229 313v1080h170v-1000q0 -93 -21 -167t-65.5 -132.5t-123 -90.5t-185.5 -32z" />
    <glyph glyph-name="i.loclTRK" horiz-adv-x="505" 
d="M248 1229q-47 0 -81 33.5t-34 80.5q0 46 34 79.5t81 33.5t80.5 -33.5t33.5 -79.5q0 -47 -33.5 -80.5t-80.5 -33.5zM172 0v1024h162v-1024h-162z" />
    <glyph glyph-name="uni006A0301" horiz-adv-x="499" 
d="M178 1174l213 360h193v-14l-375 -346h-31zM-31 -369q-114 0 -202 39v101q59 -55 105 -83t95 -28q207 0 207 313l-6 1051h162v-971q0 -75 -10.5 -136t-36.5 -115t-66.5 -91t-103 -58.5t-144.5 -21.5z" />
    <glyph glyph-name="a.ss01" horiz-adv-x="1284" 
d="M1075 1065h39v-1106h-33l-131 330q-9 -39 -28.5 -80.5t-54 -85t-78 -77.5t-105.5 -55.5t-133 -21.5q-210 0 -330.5 145t-120.5 380q0 247 125 403t332 156q132 0 237.5 -77.5t151.5 -203.5zM604 35q63 0 116.5 21t89.5 53.5t65 77t45 84.5t26 83v357q-50 144 -139.5 210
t-202.5 66q-161 0 -245.5 -130t-84.5 -347q0 -103 20.5 -188.5t60 -150t103.5 -100.5t146 -36z" />
    <glyph glyph-name="aacute.ss01" horiz-adv-x="1284" 
d="M958 1520l-374 -346h-31l213 358h192v-12zM1075 1065h39v-1106h-33l-131 330q-9 -39 -28.5 -80.5t-54 -85t-78 -77.5t-105.5 -55.5t-133 -21.5q-210 0 -330.5 145t-120.5 380q0 247 125 403t332 156q132 0 237.5 -77.5t151.5 -203.5zM604 35q63 0 116.5 21t89.5 53.5
t65 77t45 84.5t26 83v357q-50 144 -139.5 210t-202.5 66q-161 0 -245.5 -130t-84.5 -347q0 -103 20.5 -188.5t60 -150t103.5 -100.5t146 -36z" />
    <glyph glyph-name="abreve.ss01" horiz-adv-x="1284" 
d="M625 1194q-122 0 -193.5 86t-71.5 227h29q0 -108 67.5 -159.5t168.5 -51.5q46 0 86.5 12t74 36t53 66t19.5 97h29q0 -140 -72 -226.5t-190 -86.5zM1075 1065h39v-1106h-33l-131 330q-9 -39 -28.5 -80.5t-54 -85t-78 -77.5t-105.5 -55.5t-133 -21.5q-210 0 -330.5 145
t-120.5 380q0 247 125 403t332 156q132 0 237.5 -77.5t151.5 -203.5zM604 35q63 0 116.5 21t89.5 53.5t65 77t45 84.5t26 83v357q-50 144 -139.5 210t-202.5 66q-161 0 -245.5 -130t-84.5 -347q0 -103 20.5 -188.5t60 -150t103.5 -100.5t146 -36z" />
    <glyph glyph-name="acircumflex.ss01" horiz-adv-x="1284" 
d="M625 1427l-332 -270h-33l309 365h111l307 -365h-31zM1075 1065h39v-1106h-33l-131 330q-9 -39 -28.5 -80.5t-54 -85t-78 -77.5t-105.5 -55.5t-133 -21.5q-210 0 -330.5 145t-120.5 380q0 247 125 403t332 156q132 0 237.5 -77.5t151.5 -203.5zM604 35q63 0 116.5 21
t89.5 53.5t65 77t45 84.5t26 83v357q-50 144 -139.5 210t-202.5 66q-161 0 -245.5 -130t-84.5 -347q0 -103 20.5 -188.5t60 -150t103.5 -100.5t146 -36z" />
    <glyph glyph-name="adieresis.ss01" horiz-adv-x="1284" 
d="M418 1227q-46 0 -77.5 31.5t-31.5 78.5q0 46 31.5 78.5t77.5 32.5t78 -32.5t32 -78.5q0 -47 -32 -78.5t-78 -31.5zM829 1227q-46 0 -78 31.5t-32 78.5q0 46 32 78.5t78 32.5t77.5 -32.5t31.5 -78.5q0 -47 -31.5 -78.5t-77.5 -31.5zM1075 1065h39v-1106h-33l-131 330
q-9 -39 -28.5 -80.5t-54 -85t-78 -77.5t-105.5 -55.5t-133 -21.5q-210 0 -330.5 145t-120.5 380q0 247 125 403t332 156q132 0 237.5 -77.5t151.5 -203.5zM604 35q63 0 116.5 21t89.5 53.5t65 77t45 84.5t26 83v357q-50 144 -139.5 210t-202.5 66q-161 0 -245.5 -130
t-84.5 -347q0 -103 20.5 -188.5t60 -150t103.5 -100.5t146 -36z" />
    <glyph glyph-name="agrave.ss01" horiz-adv-x="1284" 
d="M727 1159h-29l-376 346v15h194zM1075 1065h39v-1106h-33l-131 330q-9 -39 -28.5 -80.5t-54 -85t-78 -77.5t-105.5 -55.5t-133 -21.5q-210 0 -330.5 145t-120.5 380q0 247 125 403t332 156q132 0 237.5 -77.5t151.5 -203.5zM604 35q63 0 116.5 21t89.5 53.5t65 77t45 84.5
t26 83v357q-50 144 -139.5 210t-202.5 66q-161 0 -245.5 -130t-84.5 -347q0 -103 20.5 -188.5t60 -150t103.5 -100.5t146 -36z" />
    <glyph glyph-name="amacron.ss01" horiz-adv-x="1284" 
d="M913 1309v-33h-581v33h581zM1075 1065h39v-1106h-33l-131 330q-9 -39 -28.5 -80.5t-54 -85t-78 -77.5t-105.5 -55.5t-133 -21.5q-210 0 -330.5 145t-120.5 380q0 247 125 403t332 156q132 0 237.5 -77.5t151.5 -203.5zM604 35q63 0 116.5 21t89.5 53.5t65 77t45 84.5
t26 83v357q-50 144 -139.5 210t-202.5 66q-161 0 -245.5 -130t-84.5 -347q0 -103 20.5 -188.5t60 -150t103.5 -100.5t146 -36z" />
    <glyph glyph-name="aogonek.ss01" horiz-adv-x="1284" 
d="M1102 -334l22 -12q-23 -58 -64 -88.5t-91 -30.5q-67 0 -105.5 37t-38.5 98q0 175 258 289h-2l-131 330q-9 -39 -28.5 -80.5t-54 -85t-78 -77.5t-105.5 -55.5t-133 -21.5q-210 0 -330.5 145t-120.5 380q0 247 125 403t332 156q132 0 237.5 -77.5t151.5 -203.5l129 293h39
v-1106h-2q-72 -48 -125 -129.5t-53 -165.5q0 -88 65 -88q31 0 59.5 24.5t43.5 65.5zM604 35q63 0 116.5 21t89.5 53.5t65 77t45 84.5t26 83v357q-50 144 -139.5 210t-202.5 66q-161 0 -245.5 -130t-84.5 -347q0 -103 20.5 -188.5t60 -150t103.5 -100.5t146 -36z" />
    <glyph glyph-name="aring.ss01" horiz-adv-x="1284" 
d="M623 1145q-87 0 -145 59t-58 144q0 84 58 142t145 58q86 0 143 -58t57 -142q0 -85 -57 -144t-143 -59zM623 1516q-73 0 -119.5 -47.5t-46.5 -120.5t46.5 -121.5t119.5 -48.5q71 0 117 48.5t46 121.5q0 71 -46 119.5t-117 48.5zM1075 1065h39v-1106h-33l-131 330
q-9 -39 -28.5 -80.5t-54 -85t-78 -77.5t-105.5 -55.5t-133 -21.5q-210 0 -330.5 145t-120.5 380q0 247 125 403t332 156q132 0 237.5 -77.5t151.5 -203.5zM604 35q63 0 116.5 21t89.5 53.5t65 77t45 84.5t26 83v357q-50 144 -139.5 210t-202.5 66q-161 0 -245.5 -130
t-84.5 -347q0 -103 20.5 -188.5t60 -150t103.5 -100.5t146 -36z" />
    <glyph glyph-name="atilde.ss01" horiz-adv-x="1284" 
d="M418 1366q-109 0 -109 -154h-28q0 124 42 188t134 64q45 0 97 -25t92 -54.5t94 -54.5t102 -25q108 0 108 155h29q0 -132 -41.5 -195t-136.5 -63q-45 0 -89.5 17t-80.5 41t-70 48t-71.5 41t-71.5 17zM1075 1065h39v-1106h-33l-131 330q-9 -39 -28.5 -80.5t-54 -85
t-78 -77.5t-105.5 -55.5t-133 -21.5q-210 0 -330.5 145t-120.5 380q0 247 125 403t332 156q132 0 237.5 -77.5t151.5 -203.5zM604 35q63 0 116.5 21t89.5 53.5t65 77t45 84.5t26 83v357q-50 144 -139.5 210t-202.5 66q-161 0 -245.5 -130t-84.5 -347q0 -103 20.5 -188.5
t60 -150t103.5 -100.5t146 -36z" />
    <glyph glyph-name="g.ss01" horiz-adv-x="1282" 
d="M1081 1065h37v-870q0 -284 -123.5 -424t-392.5 -140q-121 0 -205.5 22.5t-173.5 65.5v95q154 -154 363 -154q200 0 282 103t82 331v199q-11 -51 -39.5 -104t-75 -104t-120 -83.5t-160.5 -32.5q-210 0 -330.5 145t-120.5 380q0 247 125 403t332 156q132 0 237.5 -77.5
t151.5 -203.5zM608 35q76 0 138 29.5t101.5 79t63.5 98.5t39 104v365q-50 144 -139.5 210t-202.5 66q-161 0 -245 -130t-84 -347q0 -139 34.5 -243.5t110 -168t184.5 -63.5z" />
    <glyph glyph-name="gbreve.ss01" horiz-adv-x="1282" 
d="M633 1194q-120 0 -191 86t-71 227h28q0 -108 67.5 -159.5t166.5 -51.5q100 0 167.5 52t67.5 159h29q0 -140 -72.5 -226.5t-191.5 -86.5zM1081 1065h37v-870q0 -284 -123.5 -424t-392.5 -140q-121 0 -205.5 22.5t-173.5 65.5v95q154 -154 363 -154q200 0 282 103t82 331
v199q-11 -51 -39.5 -104t-75 -104t-120 -83.5t-160.5 -32.5q-210 0 -330.5 145t-120.5 380q0 247 125 403t332 156q132 0 237.5 -77.5t151.5 -203.5zM608 35q76 0 138 29.5t101.5 79t63.5 98.5t39 104v365q-50 144 -139.5 210t-202.5 66q-161 0 -245 -130t-84 -347
q0 -139 34.5 -243.5t110 -168t184.5 -63.5z" />
    <glyph glyph-name="uni0123.ss01" horiz-adv-x="1282" 
d="M653 1198q-48 0 -79 31.5t-31 81.5q0 35 8 59t43 100l68 144h69q-90 -117 -135 -211q22 14 61 14q44 0 74.5 -31t30.5 -77t-31.5 -78.5t-77.5 -32.5zM1081 1065h37v-870q0 -284 -123.5 -424t-392.5 -140q-121 0 -205.5 22.5t-173.5 65.5v95q154 -154 363 -154
q200 0 282 103t82 331v199q-11 -51 -39.5 -104t-75 -104t-120 -83.5t-160.5 -32.5q-210 0 -330.5 145t-120.5 380q0 247 125 403t332 156q132 0 237.5 -77.5t151.5 -203.5zM608 35q76 0 138 29.5t101.5 79t63.5 98.5t39 104v365q-50 144 -139.5 210t-202.5 66
q-161 0 -245 -130t-84 -347q0 -139 34.5 -243.5t110 -168t184.5 -63.5z" />
    <glyph glyph-name="gdotaccent.ss01" horiz-adv-x="1282" 
d="M629 1225q-46 0 -79.5 33.5t-33.5 80.5q0 46 33.5 79.5t79.5 33.5q47 0 80.5 -33.5t33.5 -79.5q0 -47 -33.5 -80.5t-80.5 -33.5zM1081 1065h37v-870q0 -284 -123.5 -424t-392.5 -140q-121 0 -205.5 22.5t-173.5 65.5v95q154 -154 363 -154q200 0 282 103t82 331v199
q-11 -51 -39.5 -104t-75 -104t-120 -83.5t-160.5 -32.5q-210 0 -330.5 145t-120.5 380q0 247 125 403t332 156q132 0 237.5 -77.5t151.5 -203.5zM608 35q76 0 138 29.5t101.5 79t63.5 98.5t39 104v365q-50 144 -139.5 210t-202.5 66q-161 0 -245 -130t-84 -347
q0 -139 34.5 -243.5t110 -168t184.5 -63.5z" />
    <glyph glyph-name="uni030C.alt" 
d="M-301 1190q77 107 127 213q-22 -14 -62 -14q-44 0 -74 31t-30 77t31.5 77.5t77.5 31.5q47 0 78.5 -30.5t31.5 -80.5q0 -35 -8.5 -60t-42.5 -100l-68 -145h-61z" />
    <glyph glyph-name="caron.alt" horiz-adv-x="479" 
d="M178 1190q77 107 127 213q-22 -14 -61 -14q-44 0 -74.5 31t-30.5 77t31.5 77.5t77.5 31.5q47 0 78.5 -30.5t31.5 -80.5q0 -35 -8.5 -60t-42.5 -100l-67 -145h-62z" />
    <glyph glyph-name="uni0308.case" 
d="M-573 1178q-46 0 -77.5 31.5t-31.5 78.5q0 46 31.5 78.5t77.5 32.5t78 -32.5t32 -78.5q0 -47 -32 -78.5t-78 -31.5zM-164 1178q-46 0 -77 31.5t-31 78.5q0 46 31.5 78.5t76.5 32.5q46 0 78.5 -32.5t32.5 -78.5q0 -47 -32.5 -78.5t-78.5 -31.5z" />
    <glyph glyph-name="uni0307.case" 
d="M-248 1167q-46 0 -79 34t-33 81t33 81t79 34q47 0 81 -34t34 -81t-34 -81t-81 -34z" />
    <glyph glyph-name="gravecomb.case" 
d="M-184 1192l-377 346v14h194l211 -360h-28z" />
    <glyph glyph-name="acutecomb.case" 
d="M-477 1192l211 360h194v-14l-377 -346h-28z" />
    <glyph glyph-name="uni030B.case" 
d="M-760 1184l156 370h178v-12l-305 -358h-29zM-403 1184l155 370h176v-12l-303 -358h-28z" />
    <glyph glyph-name="uni0302.case" 
d="M-815 1184l309 366h109l309 -366h-33l-332 270l-329 -270h-33z" />
    <glyph glyph-name="uni030C.case" 
d="M-514 1184l-307 366h30l332 -270l332 270h33l-309 -366h-111z" />
    <glyph glyph-name="uni0306.case" 
d="M-432 1128q-122 0 -193 86.5t-71 227.5h28q0 -106 67.5 -157.5t168.5 -51.5q99 0 166 51.5t67 157.5h29q0 -140 -72 -227t-190 -87z" />
    <glyph glyph-name="uni030A.case" 
d="M-305 1110q-87 0 -145 59t-58 144q0 84 58 142t145 58q86 0 143.5 -58t57.5 -142q0 -85 -57.5 -144t-143.5 -59zM-305 1143q71 0 117.5 48.5t46.5 121.5q0 71 -46.5 119.5t-117.5 48.5q-73 0 -119.5 -47.5t-46.5 -120.5t46.5 -121.5t119.5 -48.5z" />
    <glyph glyph-name="tildecomb.case" 
d="M-317 1204q-45 0 -89.5 17t-80.5 41t-70 48t-71.5 41t-71.5 17q-111 0 -111 -154h-29q0 252 178 252q45 0 97 -25t92.5 -54.5t94.5 -54.5t102 -25q106 0 106 155h29q0 -132 -40.5 -195t-135.5 -63z" />
    <glyph glyph-name="uni0304.case" 
d="M-694 1309v32h581v-32h-581z" />
    <glyph glyph-name="uni0337.case" 
d="M-909 219l809 580h34l-808 -580h-35z" />
    <glyph glyph-name="uni0338.case" 
d="M-1532 0l1395 1391h45l-1395 -1391h-45z" />
    <glyph glyph-name="dieresis.case" horiz-adv-x="868" 
d="M274 1178q-47 0 -78.5 31.5t-31.5 78.5q0 46 31.5 78.5t78.5 32.5q46 0 77.5 -32.5t31.5 -78.5q0 -47 -31.5 -78.5t-77.5 -31.5zM684 1178q-46 0 -78.5 31.5t-32.5 78.5q0 46 32.5 78.5t78.5 32.5t78.5 -32.5t32.5 -78.5q0 -47 -32.5 -78.5t-78.5 -31.5z" />
    <glyph glyph-name="dotaccent.case" horiz-adv-x="489" 
d="M244 1167q-47 0 -81 34t-34 81t34 81t81 34t79.5 -33.5t32.5 -81.5t-32.5 -81.5t-79.5 -33.5z" />
    <glyph glyph-name="grave.case" horiz-adv-x="600" 
d="M416 1192l-377 346v14h194l211 -360h-28z" />
    <glyph glyph-name="acute.case" horiz-adv-x="600" 
d="M152 1192l210 360h195v-14l-375 -346h-30z" />
    <glyph glyph-name="hungarumlaut.case" horiz-adv-x="905" 
d="M145 1184l156 370h178v-12l-303 -358h-31zM502 1184l155 370h179v-12l-306 -358h-28z" />
    <glyph glyph-name="circumflex.case" horiz-adv-x="915" 
d="M100 1184l310 366h110l307 -366h-30l-332 270l-332 -270h-33z" />
    <glyph glyph-name="caron.case" horiz-adv-x="915" 
d="M403 1184l-309 366h33l332 -270l329 270h33l-309 -366h-109z" />
    <glyph glyph-name="breve.case" horiz-adv-x="868" 
d="M436 1128q-122 0 -193 86.5t-71 227.5h29q0 -72 34.5 -121t85.5 -68.5t115 -19.5q99 0 166.5 51.5t67.5 157.5h28q0 -140 -72 -227t-190 -87z" />
    <glyph glyph-name="ring.case" horiz-adv-x="616" 
d="M305 1110q-87 0 -145 59t-58 144q0 84 58 142t145 58q86 0 143.5 -58t57.5 -142q0 -85 -57.5 -144t-143.5 -59zM305 1143q71 0 117.5 48.5t46.5 121.5q0 71 -46.5 119.5t-117.5 48.5q-73 0 -119.5 -47.5t-46.5 -120.5t46.5 -121.5t119.5 -48.5z" />
    <glyph glyph-name="tilde.case" horiz-adv-x="991" 
d="M657 1204q-45 0 -89.5 17t-80.5 41t-70.5 48t-71.5 41t-71 17q-110 0 -110 -154h-29q0 252 178 252q45 0 97 -25t92 -54.5t94 -54.5t102 -25q107 0 107 155h29q0 -132 -41 -195t-136 -63z" />
    <glyph glyph-name="macron.case" horiz-adv-x="798" 
d="M104 1309v32h582v-32h-582z" />
    <glyph glyph-name="IJacute" horiz-adv-x="1447" 
d="M211 1569l213 360h192v-14l-374 -346h-31zM1077 1569l211 360h195v-14l-377 -346h-29zM201 0v1391h170v-1391h-170zM866 -31q-147 0 -252 45v95q52 -54 107.5 -82.5t142.5 -28.5q228 0 228 313v1080h170v-1000q0 -93 -21 -167t-66 -132.5t-123.5 -90.5t-185.5 -32z" />
    <glyph glyph-name="ijacute" horiz-adv-x="1103" 
d="M182 1178l211 358h195v-12l-375 -346h-31zM782 1174l211 360h195v-14l-377 -346h-29zM172 0v1024h162v-1024h-162zM571 -369q-111 0 -202 39v101q63 -56 107.5 -83.5t94.5 -27.5q207 0 207 313l-8 1051h162v-971q0 -75 -10.5 -136t-36 -115t-66 -91t-103.5 -58.5
t-145 -21.5z" />
    </font>
</defs>
</svg>
