<?xml version="1.0" standalone="no"?>
<!DOCTYPE svg PUBLIC "-//W3C//DTD SVG 1.1//EN" "http://www.w3.org/Graphics/SVG/1.1/DTD/svg11.dtd" >
<svg xmlns="http://www.w3.org/2000/svg" xmlns:xlink="http://www.w3.org/1999/xlink" version="1.1">
<metadata>
Created by FontForge 20170731 at Thu Apr  8 13:22:36 2021
 By Aleksey,,,
Copyright (c) 2020 by Sofia Mohr. All rights reserved.
</metadata>
<defs>
<font id="Aguila-Medium" horiz-adv-x="0" >
  <font-face 
    font-family="Aguila-Medium"
    font-weight="500"
    font-stretch="normal"
    units-per-em="2048"
    panose-1="0 0 6 0 0 0 0 0 0 0"
    ascent="1638"
    descent="-410"
    x-height="1024"
    cap-height="1391"
    bbox="-1536 -635 4520 1978"
    underline-thickness="102"
    underline-position="-307"
    unicode-range="U+0020-FB02"
  />
<missing-glyph horiz-adv-x="1085" 
d="M102 1495h881v-1495h-881v1495zM236 1423l307 -587l307 587h-614zM498 748l-314 598v-1196zM590 748l311 -598v1196zM543 659l-307 -587h614z" />
    <glyph glyph-name="fi" unicode="fi" horiz-adv-x="1202" 
d="M1042 1024v-1024h-211v995h-438l4 -995h-211v995h-139v29h139q6 522 504 522q165 0 256 -39v-114q-109 125 -254 125q-151 0 -225 -108t-74 -343v-43h649z" />
    <glyph glyph-name="fl" unicode="fl" horiz-adv-x="1210" 
d="M842 1475h209v-1477h-209v1434q-56 41 -150 41q-136 0 -217.5 -83.5t-81.5 -263.5v-102h289v-29h-289l4 -995h-211v995h-139v29h139q0 230 125 355.5t351 125.5q115 0 180 -45v15z" />
    <glyph glyph-name="f_f_i" unicode="ffi" horiz-adv-x="1847" 
d="M1671 1024v-1024h-209v995h-440l4 -995h-211v995h-422l4 -995h-211v995h-139v29h139q0 229 114 355t318 126q97 0 173 -38.5t110 -104.5q121 184 418 184q165 0 256 -39v-114q-109 125 -254 125q-150 0 -224.5 -108.5t-74.5 -342.5v-43h649zM815 1024q3 185 66 305
q-31 71 -94.5 107.5t-137.5 36.5q-114 0 -185 -84t-71 -263v-102h422z" />
    <glyph glyph-name="f_f_l" unicode="ffl" horiz-adv-x="1810" 
d="M1448 1475h209v-1477h-209v1434q-56 41 -150 41q-136 0 -217.5 -83.5t-81.5 -263.5v-102h289v-29h-289l5 -995h-209v995h-402l4 -995h-211v995h-139v29h139q0 229 114 355t318 126q97 0 173.5 -38.5t111.5 -104.5q122 143 365 143q115 0 180 -45v15zM795 1024
q0 188 86 309q-32 70 -95 105t-137 35q-114 0 -185 -84t-71 -263v-102h402z" />
    <glyph glyph-name=".notdef" horiz-adv-x="1085" 
d="M102 1495h881v-1495h-881v1495zM236 1423l307 -587l307 587h-614zM498 748l-314 598v-1196zM590 748l311 -598v1196zM543 659l-307 -587h614z" />
    <glyph glyph-name=".null" 
 />
    <glyph glyph-name="nonmarkingreturn" horiz-adv-x="682" 
 />
    <glyph glyph-name="space" unicode=" " horiz-adv-x="489" 
 />
    <glyph glyph-name="exclam" unicode="!" horiz-adv-x="512" 
d="M238 381l-91 1012h218l-95 -1012h-32zM254 -29q-56 0 -95.5 39.5t-39.5 98.5q0 57 40 98t95 41q58 0 97.5 -40.5t39.5 -98.5q0 -60 -39 -99t-98 -39z" />
    <glyph glyph-name="quotedbl" unicode="&#x22;" horiz-adv-x="751" 
d="M172 938l-90 537h207l-92 -537h-25zM557 938l-92 537h205l-90 -537h-23z" />
    <glyph glyph-name="numbersign" unicode="#" horiz-adv-x="1392" 
d="M1331 922h-323l-78 -420h317v-29h-323l-88 -473h-29l88 473h-492l-88 -473h-28l88 473h-312v29h318l78 420h-312v28h318l90 482h29l-90 -482h491l90 482h29l-90 -482h317v-28zM901 502l78 420h-492l-77 -420h491z" />
    <glyph glyph-name="dollar" unicode="$" horiz-adv-x="1107" 
d="M1024 367q0 -176 -122.5 -279t-321.5 -117v-121h-33v119h-31q-116 0 -227 23.5t-176 52.5v109q155 -158 405 -158h29v561l-111 47q-63 28 -105.5 51t-87 56.5t-70.5 70.5t-43 88.5t-17 114.5q0 112 59 192t155 119.5t220 44.5v123h33v-123h2q89 0 180 -18.5t151 -46.5
v-109q-73 71 -151 109.5t-182 38.5v-527l63 -28q67 -30 108 -49.5t90.5 -48.5t78 -56t55 -63t38 -79.5t11.5 -96.5zM532 809l15 -6v512q-125 -8 -204 -65t-79 -163q0 -44 12.5 -79.5t31.5 -60.5t57 -50.5t72.5 -43t94.5 -44.5zM580 -2q137 13 214.5 79.5t77.5 166.5
q0 48 -16 88.5t-38.5 68t-65 55t-78 45t-94.5 42.5v-545z" />
    <glyph glyph-name="percent" unicode="%" horiz-adv-x="1705" 
d="M408 666q-146 0 -245.5 96t-99.5 242q-1 145 98.5 241t246.5 96t246.5 -96t99.5 -241q0 -146 -100 -242t-246 -96zM518 0l658 1341h30l-655 -1341h-33zM408 694q83 0 130.5 85.5t47.5 224.5q0 142 -47 225.5t-131 83.5q-83 0 -131 -83.5t-48 -225.5q0 -139 48 -224.5
t131 -85.5zM1300 -31q-146 0 -246 96t-100 242q0 145 99.5 241.5t246.5 96.5t247 -96.5t100 -241.5q0 -146 -101 -242t-246 -96zM1300 -2q83 0 130 85t47 224q0 142 -47 225.5t-130 83.5t-130.5 -83.5t-47.5 -225.5q0 -139 47.5 -224t130.5 -85z" />
    <glyph glyph-name="ampersand" unicode="&#x26;" horiz-adv-x="1290" 
d="M1235 0h-225l-74 98q-167 -129 -412 -129q-219 0 -336.5 92t-117.5 248q0 34 6.5 65t16 56.5t28 51.5t34 45t43.5 41.5t46.5 36t53 34.5t53.5 32t56.5 31.5t55.5 30.5q-116 160 -154.5 236.5t-38.5 160.5q0 128 101 209.5t256 81.5q152 0 241.5 -66.5t89.5 -187.5
q0 -46 -17 -88t-41 -73t-68 -66t-78 -57t-90 -57q-7 -4 -11 -6.5t-9.5 -6t-10.5 -6.5l401 -539q78 147 78 365h92q-27 -238 -141 -402zM631 1393q-91 0 -138 -51.5t-47 -129.5q0 -84 37.5 -167.5t132.5 -215.5q100 71 148.5 149t48.5 183q0 232 -182 232zM592 14
q200 0 328 107l-435 581q-99 -81 -155 -171t-56 -201q0 -141 85 -228.5t233 -87.5z" />
    <glyph glyph-name="quotesingle" unicode="'" horiz-adv-x="368" 
d="M170 938l-86 537h201l-86 -537h-29z" />
    <glyph glyph-name="parenleft" unicode="(" horiz-adv-x="581" 
d="M508 -248q-85 75 -154 159.5t-130 191.5t-95.5 237t-34.5 270q0 137 34.5 268t95 239.5t131 196t153.5 161.5h33q-124 -150 -187 -375.5t-63 -489.5q0 -263 62.5 -485.5t187.5 -372.5h-33z" />
    <glyph glyph-name="parenright" unicode=")" horiz-adv-x="581" 
d="M43 -248q123 150 185.5 372.5t62.5 485.5q0 264 -62.5 489.5t-185.5 375.5h31q83 -74 153 -161.5t130.5 -196t95 -239.5t34.5 -268q0 -140 -34.5 -270t-95.5 -237t-130 -191.5t-153 -159.5h-31z" />
    <glyph glyph-name="asterisk" unicode="*" horiz-adv-x="872" 
d="M772 1274l-305 -191l293 -182l-19 -27l-288 181v-336h-33v336l-289 -181l-18 27l293 182l-306 191l19 29l301 -189v361h33v-361l301 189z" />
    <glyph glyph-name="plus" unicode="+" horiz-adv-x="1105" 
d="M1034 698v-28h-467v-467h-32v467h-463v28h463v467h32v-467h467z" />
    <glyph glyph-name="comma" unicode="," horiz-adv-x="460" 
d="M109 -319q63 72 103.5 137t94.5 176q-33 -23 -82 -23q-57 0 -95 39.5t-38 98.5t39 99t96 40q61 0 101.5 -40t40.5 -102q0 -8 -0.5 -15.5t-1 -13t-2.5 -13.5t-3 -12.5t-4.5 -15t-5.5 -15t-8 -18.5t-9 -20.5t-11 -25.5t-13 -29l-112 -247h-90z" />
    <glyph glyph-name="hyphen" unicode="-" horiz-adv-x="878" 
d="M63 467v29h750v-29h-750z" />
    <glyph glyph-name="period" unicode="." horiz-adv-x="481" 
d="M240 -31q-58 0 -97 39t-39 98q0 57 39.5 98.5t96.5 41.5q58 0 96.5 -41t38.5 -99q0 -60 -38 -98.5t-97 -38.5z" />
    <glyph glyph-name="slash" unicode="/" horiz-adv-x="704" 
d="M66 -215l548 1786h31l-547 -1786h-32z" />
    <glyph glyph-name="zero" unicode="0" horiz-adv-x="1370" 
d="M686 -31q-140 0 -253 57.5t-183 154t-107 218.5t-37 256q0 107 23.5 207t71.5 187.5t116 152t163 102t206 37.5t205.5 -37.5t162.5 -102.5t116.5 -152t72 -187t23.5 -207q0 -134 -37 -256t-107 -218.5t-183 -154t-253 -57.5zM686 -2q116 0 197.5 87.5t119 233t37.5 336.5
q0 189 -37.5 334.5t-119 234.5t-197.5 89t-197.5 -89t-119 -234.5t-37.5 -334.5q0 -191 37.5 -336.5t119 -233t197.5 -87.5z" />
    <glyph glyph-name="one" unicode="1" horiz-adv-x="735" 
d="M328 0v1192l-289 -182v37l481 305h27v-1352h-219z" />
    <glyph glyph-name="two" unicode="2" horiz-adv-x="1081" 
d="M86 0v115q333 201 490 409.5t157 448.5q0 173 -67 256.5t-230 83.5q-77 0 -143.5 -25t-107.5 -56.5t-89 -82.5v104q64 33 161.5 60.5t182.5 27.5q523 0 523 -364q0 -66 -21 -131.5t-54.5 -122.5t-89 -118.5t-110.5 -111t-134 -108.5t-144.5 -103.5t-155.5 -103.5h723
v-178h-891z" />
    <glyph glyph-name="three" unicode="3" horiz-adv-x="1075" 
d="M446 -31q-91 0 -190 25t-174 63v105q89 -84 166 -124t186 -40q163 0 238.5 93.5t75.5 254.5q0 170 -86.5 252.5t-268.5 85.5h-63v33h65q150 3 241 87.5t91 231.5q0 277 -262 277q-57 0 -103.5 -10.5t-89 -36t-72 -49.5t-77.5 -68v104q76 39 171 63.5t185 24.5
q449 0 449 -294q0 -146 -115 -238.5t-328 -101.5v-9q109 0 194.5 -19t151.5 -59.5t101 -109t35 -162.5q0 -178 -134 -278.5t-387 -100.5z" />
    <glyph glyph-name="four" unicode="4" horiz-adv-x="1140" 
d="M1090 362v-28h-211v-334h-209v334h-645v22l829 996h25v-990h211zM68 362h602v728z" />
    <glyph glyph-name="five" unicode="5" horiz-adv-x="1101" 
d="M451 -31q-187 0 -353 88v103q176 -162 348 -162q167 0 254.5 106.5t87.5 284.5q0 72 -20 137t-60.5 120t-109.5 87.5t-158 32.5q-69 0 -142.5 -28t-113.5 -79l-22 3l8 649h750v-178h-717l-4 -416q62 45 155.5 71.5t184.5 26.5q96 0 176 -22t135 -59.5t93 -89t55.5 -110
t17.5 -122.5q0 -210 -148.5 -326.5t-416.5 -116.5z" />
    <glyph glyph-name="six" unicode="6" horiz-adv-x="1179" 
d="M684 856q201 0 313.5 -122.5t112.5 -307.5q0 -201 -133 -325t-346 -124q-124 0 -224.5 45t-166 123.5t-101 183t-35.5 224.5q0 147 44 275t120 220.5t177 159.5t217.5 100t238.5 33v-26q-246 0 -394 -166t-183 -447q61 67 158.5 110.5t201.5 43.5zM631 8q137 0 208.5 105
t71.5 297q0 185 -79 290t-220 105q-190 0 -293 -137q-6 -65 -6 -136q0 -108 20 -201.5t58 -166t100 -114.5t140 -42z" />
    <glyph glyph-name="seven" unicode="7" horiz-adv-x="980" 
d="M205 0v29l645 1104h-793v178h875v-27l-475 -1284h-252z" />
    <glyph glyph-name="eight" unicode="8" horiz-adv-x="1179" 
d="M709 725q88 -42 147 -78t113.5 -84t81 -107t26.5 -130q0 -157 -136 -257t-357 -100q-218 0 -350 89t-132 247q0 247 340 352q-66 36 -113 69t-90 76.5t-65 97t-22 116.5q0 142 119 234.5t321 92.5q192 0 311 -85.5t119 -219.5q0 -98 -77.5 -179.5t-235.5 -133.5z
M315 1083q0 -48 18 -89.5t43.5 -71t71.5 -60.5t84.5 -51t100.5 -49q4 -2 21.5 -10t25.5 -13q99 48 151 119t52 176q0 128 -81.5 204.5t-211.5 76.5q-122 0 -198.5 -64.5t-76.5 -167.5zM584 -2q146 0 237.5 76.5t91.5 189.5q0 51 -22.5 96.5t-54.5 77t-83.5 64t-91.5 51.5
t-98.5 45.5t-85.5 40.5l-6 4q-227 -109 -227 -338q0 -144 88.5 -225.5t251.5 -81.5z" />
    <glyph glyph-name="nine" unicode="9" horiz-adv-x="1179" 
d="M573 1341q123 0 219.5 -41.5t157 -116t92 -174.5t31.5 -221q0 -156 -44 -290t-119 -228t-173.5 -161.5t-207 -99.5t-220.5 -32v25q120 0 216 44t162 125.5t107.5 190.5t59.5 246q-60 -63 -160.5 -105t-197.5 -42q-202 0 -314 123.5t-112 314.5q0 132 65.5 233t179.5 155
t258 54zM565 512q86 0 164 37t129 98q8 76 8 178q0 82 -9.5 152.5t-32 132.5t-56 106t-84 69.5t-113.5 25.5q-141 0 -222 -100t-81 -281q0 -193 74.5 -305.5t222.5 -112.5z" />
    <glyph glyph-name="colon" unicode=":" horiz-adv-x="526" 
d="M262 610q-57 0 -96 40t-39 98q0 59 39 99t96 40q58 0 96.5 -40t38.5 -99t-38.5 -98.5t-96.5 -39.5zM262 -31q-58 0 -96.5 38.5t-38.5 98.5q0 57 39 98.5t96 41.5q58 0 96.5 -41t38.5 -99q0 -60 -38 -98.5t-97 -38.5z" />
    <glyph glyph-name="semicolon" unicode=";" horiz-adv-x="573" 
d="M291 612q-57 0 -96 39t-39 99q0 57 39 98t96 41q58 0 96.5 -40.5t38.5 -98.5q0 -60 -38 -99t-97 -39zM172 -319q64 72 105 138t94 175q-33 -23 -82 -23q-57 0 -95 39.5t-38 98.5t39 99t96 40q61 0 101 -40t40 -102q0 -38 -9.5 -66.5t-47.5 -111.5l-113 -247h-90z" />
    <glyph glyph-name="less" unicode="&#x3c;" horiz-adv-x="1105" 
d="M844 201l-594 465v30l594 467v-33l-570 -448l570 -449v-32z" />
    <glyph glyph-name="equal" unicode="=" horiz-adv-x="1105" 
d="M76 844v28h954v-28h-954zM76 498v28h954v-28h-954z" />
    <glyph glyph-name="greater" unicode="&#x3e;" horiz-adv-x="1105" 
d="M262 201v32l569 449l-569 448v33l594 -467v-30z" />
    <glyph glyph-name="question" unicode="?" horiz-adv-x="940" 
d="M410 381v293q41 23 73 45t68 57.5t59.5 75t39.5 96.5t16 123q0 147 -60.5 233.5t-191.5 86.5q-113 0 -198 -46t-161 -124v102q69 35 175.5 65.5t199.5 30.5q205 0 320.5 -87t115.5 -251q0 -84 -35.5 -154.5t-97.5 -119.5t-134 -83t-157 -56v-287h-32zM432 -33
q-57 0 -97 39.5t-40 97.5t40 99t97 41t96 -40.5t39 -99.5q0 -58 -39 -97.5t-96 -39.5z" />
    <glyph glyph-name="at" unicode="@" horiz-adv-x="1562" 
d="M1130 1053h35v-588q0 -84 19 -129t69 -45q73 0 137 117.5t64 328.5q0 272 -176 447.5t-459 175.5q-201 0 -358.5 -92t-245.5 -257t-88 -374q0 -210 89 -372t250.5 -251.5t369.5 -89.5q133 0 228 43t171 121v-111q-176 -81 -406 -81q-216 0 -384 95t-259.5 263.5
t-91.5 382.5q0 213 92 384.5t258 269.5t375 98q192 0 344.5 -83.5t238 -234t85.5 -342.5q0 -232 -86 -364t-217 -132q-94 0 -135 55.5t-48 155.5q-22 -83 -95 -147t-191 -64q-158 0 -251 108.5t-93 285.5q0 182 97.5 299.5t252.5 117.5q94 0 169.5 -53.5t108.5 -150.5z
M774 299q52 0 94 19.5t67.5 52.5t41 67.5t22.5 71.5v270q-31 99 -90 149t-135 50q-112 0 -168.5 -91t-56.5 -249q0 -156 55 -248t170 -92z" />
    <glyph glyph-name="A" unicode="A" horiz-adv-x="1255" 
d="M1016 0l-137 330h-658q-74 -234 -86 -330h-100q78 185 250 625t207 528l114 279h25l606 -1432h-221zM229 358h637l-334 795h-8q-190 -460 -295 -795z" />
    <glyph glyph-name="B" unicode="B" horiz-adv-x="1327" 
d="M188 0v1391h492q222 0 341.5 -83.5t119.5 -242.5q0 -132 -85 -217t-253 -109v-8q434 -25 434 -369q0 -169 -124.5 -265.5t-342.5 -96.5h-582zM410 743h235q124 0 209.5 81.5t85.5 230.5q0 305 -295 305h-235v-617zM410 29h268q159 0 245.5 86.5t86.5 257.5
q0 167 -89.5 254.5t-242.5 87.5h-268v-686z" />
    <glyph glyph-name="C" unicode="C" horiz-adv-x="1286" 
d="M860 -31q-350 0 -555 196t-205 529q0 327 207 527t557 200q102 0 202.5 -19t156.5 -48v-103q-69 70 -150.5 106t-202.5 36q-162 0 -283.5 -90t-185 -248t-63.5 -361q0 -316 145.5 -504t399.5 -188q189 0 340 96v-37q-167 -92 -363 -92z" />
    <glyph glyph-name="D" unicode="D" horiz-adv-x="1527" 
d="M188 0v1391h490q353 0 550 -186t197 -511q0 -323 -197 -508.5t-550 -185.5h-490zM410 29h268q247 0 379.5 175.5t132.5 489.5q0 315 -133.5 491.5t-378.5 176.5h-268v-1333z" />
    <glyph glyph-name="E" unicode="E" horiz-adv-x="1075" 
d="M442 29q239 0 351.5 11.5t222.5 47.5v-88h-828v1391h779v-88q-182 59 -549 59h-8v-651q284 3 456 30v-90q-216 31 -456 31v-653h32z" />
    <glyph glyph-name="F" unicode="F" horiz-adv-x="1013" 
d="M188 1391h779v-88q-182 59 -549 59h-8v-635q277 3 456 31v-90q-209 30 -456 30v-698h-222v1391z" />
    <glyph glyph-name="G" unicode="G" horiz-adv-x="1449" 
d="M838 -31q-168 0 -307.5 54.5t-233.5 151t-145.5 231t-51.5 292.5q0 160 54 293.5t153 228.5t246 148t326 53q102 0 201.5 -18.5t158.5 -48.5v-111q-74 74 -153.5 112t-200.5 38q-169 0 -295 -90.5t-190 -247t-64 -357.5q0 -312 144 -504t380 -192q158 0 273 70v624h210
v-579q-212 -143 -505 -148z" />
    <glyph glyph-name="H" unicode="H" horiz-adv-x="1558" 
d="M188 0v1391h222v-701h741v701h219v-1391h-219v662h-741v-662h-222z" />
    <glyph glyph-name="I" unicode="I" horiz-adv-x="598" 
d="M188 0v1391h222v-1391h-222z" />
    <glyph glyph-name="J" unicode="J" horiz-adv-x="888" 
d="M285 -31q-153 0 -254 45v107q56 -60 112 -91.5t140 -31.5q209 4 209 289v1104h219v-990q0 -94 -21.5 -169t-69 -135.5t-132.5 -94t-203 -33.5z" />
    <glyph glyph-name="K" unicode="K" horiz-adv-x="1339" 
d="M877 717l452 -717h-229l-459 717h-231v-717h-222v1391h222v-646h223q300 311 536 646h111q-112 -133 -242.5 -270t-371.5 -380v-24h211z" />
    <glyph glyph-name="L" unicode="L" horiz-adv-x="989" 
d="M418 29q222 0 331 12t218 47v-88h-779v1391h222v-1362h8z" />
    <glyph glyph-name="M" unicode="M" horiz-adv-x="1687" 
d="M164 0q29 367 31 588v844h24l631 -1078h8l615 1078h24v-1432h-221v1016h-8l-494 -869h-24l-514 910h-11v-469q2 -221 31 -588h-92z" />
    <glyph glyph-name="N" unicode="N" horiz-adv-x="1421" 
d="M1204 -41l-968 1167h-11v-573q2 -181 31 -553h-92q29 372 31 555v877h24l971 -1162h8v568q-2 181 -31 553h93q-1 -14 -7 -82.5t-8.5 -109.5t-7 -108t-6.5 -130t-2 -123v-879h-25z" />
    <glyph glyph-name="O" unicode="O" horiz-adv-x="1632" 
d="M813 -31q-207 0 -369.5 91.5t-253 257t-90.5 376.5q0 210 90 375.5t253 258.5t370 93q155 0 288.5 -54.5t228 -150t148.5 -230.5t54 -292q0 -210 -91 -375.5t-255 -257.5t-373 -92zM813 -2q232 0 354.5 183t122.5 513t-123 514.5t-354 184.5q-233 0 -355 -185.5
t-122 -513.5q0 -330 122 -513t355 -183z" />
    <glyph glyph-name="P" unicode="P" horiz-adv-x="1271" 
d="M188 0v1391h545q217 0 345 -110.5t128 -289.5q0 -209 -140 -316t-409 -110h-247v-565h-222zM410 594h213q354 0 354 395q0 59 -8.5 110t-31 100.5t-58 84.5t-93.5 56.5t-133 21.5h-243v-768z" />
    <glyph glyph-name="Q" unicode="Q" horiz-adv-x="1632" 
d="M838 -31q247 -108 419.5 -159.5t221.5 -49.5v-129q-57 11 -138 45t-145 67t-202 107.5t-222 118.5q-196 10 -348.5 103.5t-238 255.5t-85.5 366q0 210 90 375.5t253 258.5t370 93q155 0 288.5 -54.5t228 -150t148.5 -230.5t54 -292q0 -207 -87.5 -370t-245.5 -256
t-361 -99zM336 694q0 -330 122 -513t355 -183q232 0 354.5 183t122.5 513t-123 514.5t-354 184.5q-233 0 -355 -185.5t-122 -513.5z" />
    <glyph glyph-name="R" unicode="R" horiz-adv-x="1323" 
d="M1253 0h-233l-361 682h-28h-221v-682h-222v1391h512q256 0 369 -83t113 -259q0 -167 -129 -259t-363 -106l15 -27h213zM629 711q178 0 256 86t78 247q0 152 -70.5 235.5t-241.5 82.5h-241v-651h219z" />
    <glyph glyph-name="S" unicode="S" horiz-adv-x="1085" 
d="M500 -31q-112 0 -221 25.5t-177 56.5v111q157 -164 400 -164q165 0 262.5 72t97.5 192q0 34 -5.5 63t-19.5 54.5t-27 45t-39.5 40t-44 33.5t-54 32t-57 28.5t-63.5 29.5q-9 4 -13 6l-111 49q-82 39 -135 73t-99.5 81t-68 108.5t-21.5 141.5q0 123 64 209t167.5 125.5
t237.5 39.5q89 0 179 -20.5t151 -50.5v-111q-72 74 -149.5 114t-182.5 40q-137 0 -227 -61t-90 -185q0 -57 16 -99.5t55 -77.5t82 -60t117 -60l111 -51q68 -32 107.5 -52.5t90 -51t78.5 -59t55 -67t38.5 -85t11.5 -103.5q0 -134 -70 -228.5t-184.5 -139t-261.5 -44.5z" />
    <glyph glyph-name="T" unicode="T" horiz-adv-x="1165" 
d="M20 1391h1123v-88q-160 48 -449 57v-1360h-221v1360q-290 -9 -453 -57v88z" />
    <glyph glyph-name="U" unicode="U" horiz-adv-x="1431" 
d="M731 -31q-288 0 -423.5 154t-135.5 432v836h221v-895q0 -244 91 -363t309 -119q208 0 318 144.5t110 431.5v248q-1 94 -6.5 195.5t-14 217.5t-10.5 140h92q-1 -14 -7 -82.5t-8.5 -109.5t-7 -108t-6.5 -130t-2 -123v-248q0 -310 -125.5 -465.5t-394.5 -155.5z" />
    <glyph glyph-name="V" unicode="V" horiz-adv-x="1249" 
d="M621 -41l-605 1432h220l483 -1153h8q171 410 274 730.5t117 422.5h99q-76 -184 -246 -617.5t-211 -535.5l-113 -279h-26z" />
    <glyph glyph-name="W" unicode="W" horiz-adv-x="2023" 
d="M1892 1391h103q-53 -141 -184.5 -511t-227.5 -626l-106 -295h-25l-436 1182l-424 -1182h-25l-551 1432h222l430 -1117h8l407 1158h25l432 -1180h10q162 455 244 741t98 398z" />
    <glyph glyph-name="X" unicode="X" horiz-adv-x="1179" 
d="M1186 0h-238l-428 653q-261 -385 -375 -653h-108q44 70 223.5 329.5t241.5 350.5l-467 711h237l377 -574q220 332 326 574h106q-40 -65 -193 -283t-220 -317z" />
    <glyph glyph-name="Y" unicode="Y" horiz-adv-x="1204" 
d="M483 0v623l-426 768h234l383 -703h8q309 490 389 703h103q-29 -45 -119 -181t-183 -278t-170 -262v-670h-219z" />
    <glyph glyph-name="Z" unicode="Z" horiz-adv-x="1138" 
d="M489 29q416 0 598 59v-88h-1028v29l770 1333h-167q-416 0 -596 -59v88h1011v-29l-770 -1333h182z" />
    <glyph glyph-name="bracketleft" unicode="[" horiz-adv-x="651" 
d="M174 -248v1723h455v-29h-258v-1665h258v-29h-455z" />
    <glyph glyph-name="backslash" unicode="\" horiz-adv-x="704" 
d="M610 -215l-547 1786h31l549 -1786h-33z" />
    <glyph glyph-name="bracketright" unicode="]" horiz-adv-x="651" 
d="M23 -248v29h258v1665h-258v29h454v-1723h-454z" />
    <glyph glyph-name="asciicircum" unicode="^" horiz-adv-x="1105" 
d="M156 1128l-13 27l346 393h127l347 -393l-13 -27l-397 297z" />
    <glyph glyph-name="underscore" unicode="_" horiz-adv-x="913" 
d="M-10 -119v29h934v-29h-934z" />
    <glyph glyph-name="grave" unicode="`" horiz-adv-x="618" 
d="M442 1188l-411 348v16h245l195 -364h-29z" />
    <glyph glyph-name="a" unicode="a" horiz-adv-x="1116" 
d="M551 1055q231 0 324.5 -106t93.5 -328v-662h-41l-158 301q-40 -119 -151 -205t-259 -86q-136 0 -214 65.5t-78 186.5q0 82 38 146t101.5 104.5t154.5 66.5t187 36.5t209 11.5v123q0 61 -4 103.5t-18 86t-38.5 69t-67 42t-102.5 16.5q-191 0 -374 -170v102q215 97 397 97z
M453 53q101 0 180.5 67.5t124.5 178.5v258q-75 -4 -140.5 -13.5t-132 -31t-113.5 -52.5t-76.5 -80t-29.5 -112q0 -112 52 -163.5t135 -51.5z" />
    <glyph glyph-name="b" unicode="b" horiz-adv-x="1292" 
d="M752 1055q210 0 329 -137t119 -381q0 -163 -52 -290.5t-154.5 -202.5t-241.5 -75q-84 0 -156.5 27.5t-120 72t-77 95t-40.5 102.5l-157 -307h-41v1516h211v-699q40 132 145 205.5t236 73.5zM674 49q103 0 172 62t99 163t30 238q0 213 -76.5 337t-226.5 124
q-103 0 -181.5 -62t-119.5 -194v-393q8 -40 21 -76t37.5 -73.5t56.5 -64.5t80.5 -44t107.5 -17z" />
    <glyph glyph-name="c" unicode="c" horiz-adv-x="1046" 
d="M635 -31q-251 0 -398 149t-147 394q0 247 162 395t438 148q77 0 156.5 -16t134.5 -46v-102q-70 70 -135.5 102.5t-157.5 32.5q-170 0 -271.5 -130t-101.5 -384q0 -244 98 -375t273 -131q82 0 161.5 25.5t133.5 66.5v-28q-58 -45 -149.5 -73t-196.5 -28z" />
    <glyph glyph-name="d" unicode="d" horiz-adv-x="1294" 
d="M922 1475h211v-1516h-39l-164 322q-9 -42 -28.5 -84t-52.5 -84t-75.5 -73.5t-102.5 -51t-128 -19.5q-212 0 -331.5 144.5t-119.5 382.5q0 247 125 403t332 156q125 0 229 -73.5t144 -201.5v695zM618 49q71 0 127 27t90.5 72.5t55 91.5t31.5 98v377q-41 132 -120.5 195
t-180.5 63q-151 0 -227.5 -124t-76.5 -337q0 -137 30 -238t99 -163t172 -62z" />
    <glyph glyph-name="e" unicode="e" horiz-adv-x="1161" 
d="M1071 514h-758q1 -249 102 -378.5t285 -129.5q80 0 149.5 22t105 45t81.5 60v-33q-69 -60 -158.5 -95.5t-226.5 -35.5q-173 0 -302.5 73t-195 196.5t-65.5 279.5q0 132 48 237t127 169t174.5 97.5t197.5 33.5q197 0 321.5 -124t124.5 -317q0 -45 -10 -100zM313 543h580
q0 19 1 55.5t1 52.5q0 181 -66.5 278t-193.5 97q-313 0 -322 -483z" />
    <glyph glyph-name="f" unicode="f" horiz-adv-x="667" 
d="M604 1505q125 0 217 -41v-112q-116 125 -215 125q-45 -1 -78.5 -14.5t-61 -44t-42 -87.5t-14.5 -139v-168h254v-29h-254v-995h-207v995h-160v29h160v49q0 93 21.5 168.5t67 136t125 94t187.5 33.5z" />
    <glyph glyph-name="g" unicode="g" horiz-adv-x="1132" 
d="M774 190q318 0 318 -233q0 -146 -137 -236t-382 -90q-308 0 -473 84v103q144 -155 475 -158q187 0 296.5 62t109.5 153q0 135 -213 135h-606l-51 180l194 207q-94 44 -147.5 122.5t-53.5 182.5q0 156 119.5 254.5t327.5 98.5q120 0 213 -35l268 100v-116l-227 -5
q93 -45 143.5 -124.5t50.5 -178.5q0 -163 -115.5 -255.5t-334.5 -92.5q-115 0 -211 35l-184 -193h620zM551 1026q-125 0 -192.5 -88t-67.5 -240q0 -149 67.5 -235t192.5 -86t192.5 86t67.5 235q0 152 -67.5 240t-192.5 88z" />
    <glyph glyph-name="h" unicode="h" horiz-adv-x="1267" 
d="M741 1055q183 0 281 -102.5t98 -295.5v-657h-211v678q0 146 -61 220.5t-193 74.5q-112 0 -179 -66.5t-105 -191.5v-715h-211v1475h211v-697q39 127 132.5 202t237.5 75z" />
    <glyph glyph-name="i" unicode="i" horiz-adv-x="530" 
d="M266 1192q-57 0 -96 38.5t-39 94.5q0 57 39 96t96 39q56 0 94.5 -39t38.5 -96q0 -55 -38.5 -94t-94.5 -39zM160 0v1024h211v-1024h-211z" />
    <glyph glyph-name="j" unicode="j" horiz-adv-x="524" 
d="M260 1192q-56 0 -95.5 39t-39.5 94q0 57 39.5 96t95.5 39t95.5 -39t39.5 -96q0 -55 -39.5 -94t-95.5 -39zM-20 -369q-113 0 -211 41v113q66 -63 113.5 -94t97.5 -31q184 4 184 289l-6 1075h207v-961q0 -75 -10.5 -136.5t-37 -118t-69 -94.5t-110.5 -60.5t-158 -22.5z" />
    <glyph glyph-name="k" unicode="k" horiz-adv-x="1122" 
d="M160 -2v1477h211v-897h145q81 71 150 141.5t121.5 133.5t76.5 95t56 76h120q-67 -57 -233 -216t-254 -237v-14h184l389 -557h-223l-381 549h-151v-551h-211z" />
    <glyph glyph-name="l" unicode="l" horiz-adv-x="530" 
d="M160 -2v1477h211v-1477h-211z" />
    <glyph glyph-name="m" unicode="m" horiz-adv-x="1974" 
d="M1464 1055q179 0 270 -102.5t91 -295.5v-657h-209v678q0 148 -54.5 221.5t-183.5 73.5q-211 0 -282 -252q2 -14 2 -43v-678h-209v678q0 147 -55.5 221t-184.5 74q-115 0 -178 -65.5t-100 -192.5v-715h-211v1065h41l166 -289q41 132 133.5 205.5t234.5 73.5q148 0 238 -74
t114 -203q90 277 377 277z" />
    <glyph glyph-name="n" unicode="n" horiz-adv-x="1269" 
d="M748 1055q184 0 279 -100.5t95 -297.5v-657h-211v678q0 147 -59.5 221t-189.5 74q-210 0 -289 -258v-715h-213v1065h41l168 -289q38 127 136 203t243 76z" />
    <glyph glyph-name="o" unicode="o" horiz-adv-x="1302" 
d="M649 -31q-167 0 -296 71.5t-197 194.5t-68 277t68 277t197 194.5t296 71.5q255 0 410 -153.5t155 -389.5q0 -149 -68 -272t-198.5 -197t-298.5 -74zM649 -2q164 0 252 130.5t88 383.5q0 255 -87.5 384.5t-252.5 129.5q-163 0 -249.5 -129.5t-86.5 -384.5
q0 -253 86.5 -383.5t249.5 -130.5z" />
    <glyph glyph-name="p" unicode="p" horiz-adv-x="1296" 
d="M756 1055q208 0 327 -137t119 -381q0 -163 -52 -290.5t-154.5 -202.5t-241.5 -75q-82 0 -151.5 26t-115 68t-74 88.5t-40.5 94.5v-586h-213v1405h41l170 -289q40 126 145 202.5t240 76.5zM676 49q103 0 172 62t99 163t30 238q0 214 -75.5 337.5t-225.5 123.5
q-103 0 -182.5 -62t-120.5 -194v-393q65 -275 303 -275z" />
    <glyph glyph-name="q" unicode="q" horiz-adv-x="1296" 
d="M1098 1067h41v-1423h-217v637q-9 -52 -36.5 -104t-72.5 -100t-115.5 -78t-154.5 -30q-212 0 -331.5 144.5t-119.5 382.5q0 247 125 403t332 156q131 0 232.5 -76t140.5 -199zM618 49q69 0 125 27.5t91 73t56 93t32 99.5v375q-41 131 -120 193.5t-181 62.5
q-151 0 -227.5 -124t-76.5 -337q0 -137 30 -238t99 -163t172 -62z" />
    <glyph glyph-name="r" unicode="r" horiz-adv-x="720" 
d="M369 831q26 97 116.5 161.5t196.5 64.5v-101q-37 0 -64.5 -2t-63 -7.5t-61.5 -17.5t-52 -31t-43.5 -49.5t-26.5 -70.5v-778h-211v1065h41z" />
    <glyph glyph-name="s" unicode="s" horiz-adv-x="952" 
d="M473 -31q-208 0 -377 84v113q177 -168 365 -168q112 0 183 49.5t71 136.5q0 42 -16 77.5t-42.5 60t-61.5 44.5t-72 35t-74 29q-5 1 -8 2.5t-7.5 3l-7.5 2.5q-44 16 -68 25.5t-64.5 28t-63 34.5t-51.5 41t-44 52t-26 64t-11 79q0 132 102 212.5t275 80.5q82 0 173.5 -21.5
t154.5 -50.5v-113q-147 154 -324 154q-98 0 -152.5 -46t-54.5 -132q0 -49 18.5 -86t61.5 -65t71.5 -41.5t89.5 -37.5q3 -1 5 -2t5 -2t5 -2q11 -4 48.5 -19.5t51 -21t47.5 -21t48 -24.5t41.5 -26.5t40 -32t30.5 -36t25.5 -43t14 -49.5t6.5 -58q0 -137 -109.5 -223.5
t-298.5 -86.5z" />
    <glyph glyph-name="t" unicode="t" horiz-adv-x="688" 
d="M240 0v995h-217v29h217l168 270h41v-270h217v-29h-217v-995h-209z" />
    <glyph glyph-name="u" unicode="u" horiz-adv-x="1269" 
d="M897 1024h211v-1065h-39l-168 299q-21 -124 -117 -206.5t-243 -82.5q-394 0 -394 426v629h211v-647q0 -174 56.5 -253t203.5 -79q222 0 279 281v698z" />
    <glyph glyph-name="v" unicode="v" horiz-adv-x="1030" 
d="M498 -41l-467 1065h223l348 -819h8q47 106 87.5 205.5t67 167.5t54 146.5t39.5 115t33.5 102.5t26.5 82h81q-36 -80 -154 -357t-204 -462l-117 -246h-26z" />
    <glyph glyph-name="w" unicode="w" horiz-adv-x="1622" 
d="M1511 1024h82q-46 -108 -133.5 -340.5t-189.5 -470.5l-115 -254h-25l-315 838l-330 -838h-24l-430 1065h223l303 -788h8l326 829h24l316 -850h8q180 460 272 809z" />
    <glyph glyph-name="x" unicode="x" horiz-adv-x="997" 
d="M985 0h-250l-315 455q-116 -161 -178.5 -261.5t-104.5 -193.5h-94q57 75 181.5 239.5t178.5 235.5l-378 547h249l297 -428q107 154 162 245.5t96 184.5h95q-53 -74 -169 -227.5t-167 -223.5z" />
    <glyph glyph-name="y" unicode="y" horiz-adv-x="1026" 
d="M915 1024h84l-358 -778l-119 -246l-170 -369l-86 56l232 313l-467 1024h221l350 -778h8q213 485 305 778z" />
    <glyph glyph-name="z" unicode="z" horiz-adv-x="919" 
d="M436 29q257 0 441 59v-88h-830v29l571 968h-126l30 -2q-256 0 -440 -59v88h770v-29l-571 -966h155z" />
    <glyph glyph-name="braceleft" unicode="{" horiz-adv-x="663" 
d="M573 -281q-111 0 -182.5 16t-110 51t-53 80t-14.5 114l2 464q0 152 -168 152h-22v33h22q168 0 168 151v465q0 69 14.5 114t52.5 80t109 50.5t180 15.5h52v-28h-52q-83 0 -122 -41.5t-39 -143.5l2 -454q0 -44 -10.5 -78.5t-33 -57.5t-44.5 -38t-58.5 -24.5t-59.5 -14
t-63 -9.5v-8q34 -5 53.5 -8t52 -10.5t52 -17t43 -26t37 -38t22.5 -52.5t9 -69v-455q0 -102 39 -143t122 -41h52v-29h-52z" />
    <glyph glyph-name="bar" unicode="|" horiz-adv-x="378" 
d="M174 -215v1743h33v-1743h-33z" />
    <glyph glyph-name="braceright" unicode="}" horiz-adv-x="663" 
d="M39 -281v29h51q83 0 122.5 41t39.5 143v455q0 34 6 61.5t19.5 48.5t27 36.5t36.5 27t40.5 19t46 13.5t45.5 8.5t47 6.5v8q-34 4 -54 7.5t-51.5 11.5t-51 17.5t-43.5 26t-37 37.5t-22 52.5t-9 69.5l2 454q0 102 -39.5 143.5t-122.5 41.5h-51v28h51q137 0 216.5 -30
t110 -85t30.5 -145v-465q0 -151 167 -151h23v-33h-23q-167 0 -167 -152v-464q0 -90 -30 -145t-110 -85.5t-219 -30.5h-51z" />
    <glyph glyph-name="asciitilde" unicode="~" horiz-adv-x="1105" 
d="M82 514q0 62 21.5 110t57 75.5t76.5 41t85 13.5q49 0 101 -18t97.5 -44t90.5 -52t97.5 -44t102.5 -18q92 0 137 58.5t45 149.5h33q0 -103 -55 -170t-160 -67q-53 0 -107 18t-100 44t-91 52t-96 44t-100 18q-38 0 -72.5 -11t-64.5 -34t-47.5 -66t-17.5 -100h-33z" />
    <glyph glyph-name="uni00A0" unicode="&#xa0;" horiz-adv-x="489" 
 />
    <glyph glyph-name="exclamdown" unicode="&#xa1;" horiz-adv-x="491" 
d="M246 1135q58 0 97.5 -39.5t39.5 -98.5q0 -57 -40 -98t-97 -41t-96 41t-39 98q0 60 39 99t96 39zM227 725h33l96 -1012h-219z" />
    <glyph glyph-name="cent" unicode="&#xa2;" horiz-adv-x="1105" 
d="M707 1169h-29v-1028h29q91 0 156.5 33.5t135.5 104.5v-105q-113 -61 -290 -61h-31v-193h-33v195q-250 17 -393 162t-143 378q0 234 143 379t393 162v197h33v-195h31q175 0 290 -59v-105q-69 70 -134.5 102.5t-157.5 32.5zM645 145v1020q-143 -23 -227 -152t-84 -358
t84 -358t227 -152z" />
    <glyph glyph-name="sterling" unicode="&#xa3;" horiz-adv-x="1132" 
d="M774 1313q-171 0 -247.5 -120.5t-94.5 -377.5q-2 -20 -5 -63t-5 -64h352v-29h-356q-6 -54 -13 -100.5t-16.5 -86t-16.5 -68.5t-20.5 -60t-20 -47t-23.5 -43t-22 -35.5t-25.5 -37t-24.5 -34.5h806v-147h-966v27q98 51 151.5 146t53.5 216q0 46 -23.5 139t-30.5 131h-133
v29h129q-12 68 -12 156q0 245 142 371t401 126q142 0 288 -71v-101q-74 76 -129 110t-139 34z" />
    <glyph glyph-name="currency" unicode="&#xa4;" horiz-adv-x="1095" 
d="M145 158l-22 20l174 207q-53 50 -83 120.5t-30 149.5q0 163 115 275l-178 213l20 18l181 -215q99 86 227 86t227 -86l180 215l21 -18l-178 -213q114 -111 114 -275q0 -79 -29.5 -149.5t-82.5 -120.5l174 -207l-23 -20l-176 207q-98 -82 -227 -82t-227 82zM549 309
q137 0 236.5 102.5t99.5 243.5t-100 245t-236 104t-236 -104t-100 -245t99.5 -243.5t236.5 -102.5z" />
    <glyph glyph-name="yen" unicode="&#xa5;" horiz-adv-x="1267" 
d="M719 621v-50h385v-26h-385v-228h385v-26h-385v-291h-211v291h-346v26h346v228h-346v26h346v15l-426 723h223l389 -654h13q276 415 380 654h103q-208 -295 -471 -688z" />
    <glyph glyph-name="brokenbar" unicode="&#xa6;" horiz-adv-x="378" 
d="M174 764v764h33v-764h-33zM174 -215v764h33v-764h-33z" />
    <glyph glyph-name="section" unicode="&#xa7;" horiz-adv-x="1159" 
d="M1079 358q0 -195 -182 -292q43 -70 43 -154q0 -137 -112.5 -229.5t-288.5 -92.5q-218 0 -396 82v111q76 -79 168 -121.5t232 -42.5q124 0 196 58t72 147q0 39 -13.5 72t-47 67.5t-64 60t-90.5 70.5l-283 213q-116 87 -169.5 168t-53.5 184q0 105 46.5 169.5t137.5 113.5
q-41 71 -41 170q0 131 99.5 220t267.5 89q89 0 179 -20.5t151 -50.5v-111q-72 74 -149.5 114t-182.5 40q-123 0 -181.5 -56.5t-58.5 -148.5q0 -31 12 -60.5t26.5 -51t49 -52.5t58 -49.5t74.5 -56.5l282 -213q81 -62 123.5 -105.5t69 -103.5t26.5 -138zM883 90q94 54 94 154
q0 63 -40 111.5t-138 125.5l-334 269q-125 97 -176 168q-94 -45 -94 -150q0 -63 41 -112.5t139 -125.5l334 -268q122 -97 174 -172z" />
    <glyph glyph-name="dieresis" unicode="&#xa8;" horiz-adv-x="909" 
d="M250 1174q-56 0 -91.5 36t-35.5 93q0 55 36 93t91 38q54 0 90.5 -38.5t36.5 -92.5q0 -57 -36.5 -93t-90.5 -36zM676 1174q-54 0 -90.5 36t-36.5 93q0 54 36.5 92.5t90.5 38.5t91.5 -38.5t37.5 -92.5q0 -56 -37 -92.5t-92 -36.5z" />
    <glyph glyph-name="copyright" unicode="&#xa9;" horiz-adv-x="1720" 
d="M858 -31q-153 0 -291 59t-237.5 158.5t-158 237.5t-58.5 291t58.5 291t158 237.5t237.5 158t291 58.5t292 -58.5t239.5 -158t159.5 -237.5t59 -291t-59 -291t-159.5 -237.5t-239.5 -158.5t-292 -59zM858 -2q196 0 361 96t260.5 261t95.5 360t-95.5 360t-260.5 261
t-361 96q-146 0 -278.5 -56.5t-227.5 -152.5t-151 -229t-56 -279t56 -279t151 -229t227.5 -152.5t278.5 -56.5zM881 307q-181 0 -298.5 113t-117.5 295t125.5 294.5t322.5 112.5q118 0 207 -47v-86q-46 56 -94 80.5t-111 24.5q-137 0 -217 -102.5t-80 -276.5
q0 -105 29.5 -189.5t92.5 -137t151 -52.5q64 0 127 19t102 51v-31q-40 -31 -107 -49.5t-132 -18.5z" />
    <glyph glyph-name="ordfeminine" unicode="&#xaa;" horiz-adv-x="892" 
d="M731 1567h27v-709h-25l-108 203q-14 -73 -79 -133t-169 -60q-135 0 -212 92t-77 244q0 158 81 256.5t212 98.5q82 0 147.5 -46t92.5 -120zM426 922q44 0 79 17t57 45.5t35 57.5t21 62v231q-25 86 -75.5 129t-116.5 43q-95 0 -141.5 -78.5t-46.5 -214.5q0 -134 45.5 -213
t142.5 -79z" />
    <glyph glyph-name="guillemotleft" unicode="&#xab;" horiz-adv-x="1181" 
d="M623 47l-529 438v31l529 438v-26l-340 -424l340 -430v-27zM1081 47l-528 438v31l528 438v-26l-340 -424l340 -430v-27z" />
    <glyph glyph-name="registered" unicode="&#xae;" horiz-adv-x="1712" 
d="M862 1421q152 0 288 -56.5t234 -153t155.5 -232t57.5 -287.5q0 -200 -100.5 -367t-272 -262.5t-372.5 -95.5q-205 0 -374.5 95t-267 261.5t-97.5 368.5q0 152 58.5 287.5t158.5 232t239 153t293 56.5zM852 -4q146 0 278 55t227 147.5t151.5 221.5t56.5 272
q0 146 -54.5 276t-148.5 223t-224 147.5t-276 54.5q-149 0 -282 -54.5t-228 -148t-151 -223.5t-56 -275q0 -194 93 -353.5t255 -251t359 -91.5zM958 666q46 0 63.5 -12.5t43.5 -65.5l145 -281h-147l-205 383h-12h-127v-383h-141v785h305q148 0 220.5 -47.5t72.5 -145.5
q0 -91 -75 -143.5t-204 -63.5l14 -26h47zM719 719h127q186 0 186 178q0 82 -39 123.5t-135 42.5h-139v-344z" />
    <glyph glyph-name="macron" unicode="&#xaf;" horiz-adv-x="827" 
d="M123 1307v34h582v-34h-582z" />
    <glyph glyph-name="degree" unicode="&#xb0;" horiz-adv-x="745" 
d="M375 819q-121 0 -204 83.5t-83 201.5q0 120 83.5 203.5t203.5 83.5q119 0 201.5 -83t82.5 -204q0 -119 -81 -202t-203 -83zM375 848q106 0 179 74.5t73 181.5q0 109 -73 183.5t-179 74.5t-180 -75.5t-74 -182.5t74 -181.5t180 -74.5z" />
    <glyph glyph-name="plusminus" unicode="&#xb1;" horiz-adv-x="1105" 
d="M530 471v342h-458v29h458v475h29v-475h475v-29h-475v-342h-29zM72 317v31h962v-31h-962z" />
    <glyph glyph-name="acute" unicode="&#xb4;" horiz-adv-x="618" 
d="M150 1188l194 364h246v-16l-410 -348h-30z" />
    <glyph glyph-name="paragraph" unicode="&#xb6;" horiz-adv-x="1267" 
d="M690 -369v811h-149q-210 0 -341.5 133.5t-131.5 344.5q0 208 131.5 339.5t341.5 131.5h612v-29h-88v-1731h-33v1731h-309v-1731h-33z" />
    <glyph glyph-name="periodcentered" unicode="&#xb7;" horiz-adv-x="509" 
d="M254 543q-57 0 -96 38.5t-39 96.5q0 59 39 99t96 40q58 0 97.5 -40t39.5 -99q0 -58 -39 -96.5t-98 -38.5z" />
    <glyph glyph-name="cedilla" unicode="&#xb8;" horiz-adv-x="741" 
d="M324 -342q-112 0 -193 61v78q49 -58 89 -85t95 -27q58 0 87.5 34t29.5 91q0 74 -47 111.5t-127 58.5l78 129h29l-60 -101q60 -9 102 -21t77.5 -32.5t53 -52t17.5 -74.5q0 -74 -61 -122t-170 -48z" />
    <glyph glyph-name="ordmasculine" unicode="&#xba;" horiz-adv-x="876" 
d="M438 872q-160 0 -258 97.5t-98 247.5q0 149 98 246.5t258 97.5t258.5 -97.5t98.5 -246.5q0 -145 -99 -245t-258 -100zM438 901q203 0 203 316q0 315 -203 315q-102 0 -151 -77.5t-49 -237.5q0 -159 49 -237.5t151 -78.5z" />
    <glyph glyph-name="guillemotright" unicode="&#xbb;" horiz-adv-x="1181" 
d="M100 47v27l340 430l-340 424v26l529 -438v-31zM559 47v27l340 430l-340 424v26l528 -438v-31z" />
    <glyph glyph-name="onequarter" unicode="&#xbc;" horiz-adv-x="1413" 
d="M362 559h-145v684l-160 -96v31l281 174h24v-793zM1010 1341h30l-655 -1341h-33zM1341 223v-24h-81v-199h-140v199h-395v14l510 580h25v-570h81zM768 223h352v404z" />
    <glyph glyph-name="onehalf" unicode="&#xbd;" horiz-adv-x="1548" 
d="M215 567v676l-160 -96v31l281 174h24v-785h-145zM332 0l657 1341h31l-655 -1341h-33zM918 0v72q104 76 168.5 130.5t115.5 114.5t72.5 120t21.5 130q0 99 -35 145t-126 46q-115 0 -213 -101v76q39 21 103.5 36t113.5 15q151 0 232 -49.5t81 -173.5q0 -56 -28.5 -109.5
t-97.5 -113.5t-108.5 -89.5t-135.5 -94.5q-28 -20 -42 -29h414v-125h-536z" />
    <glyph glyph-name="threequarters" unicode="&#xbe;" horiz-adv-x="1533" 
d="M608 743q0 -102 -82.5 -158.5t-232.5 -56.5q-118 0 -207 47v76q47 -51 92.5 -73.5t112.5 -22.5q170 0 170 193q0 92 -46 142.5t-151 51.5h-47v27h47q88 3 137.5 50t49.5 134q0 77 -32 119.5t-112 42.5q-62 0 -106.5 -24.5t-96.5 -76.5v76q104 51 209 51q273 0 273 -180
q0 -79 -67.5 -137.5t-188.5 -65.5v-4q133 1 205.5 -54.5t72.5 -156.5zM1149 1341h31l-656 -1341h-32zM1468 223v-24h-79v-199h-140v199h-395v14l510 580h25v-570h79zM897 223h352v404z" />
    <glyph glyph-name="questiondown" unicode="&#xbf;" horiz-adv-x="931" 
d="M504 1083q57 0 96 -39.5t39 -97.5q0 -59 -39 -99t-96 -40t-96 40t-39 99q0 58 39 97.5t96 39.5zM524 670v-293q-40 -21 -72 -43.5t-67.5 -57.5t-59.5 -75t-39.5 -97t-15.5 -122q0 -149 60 -235.5t192 -86.5q113 0 197 46.5t160 125.5v-102q-68 -36 -174.5 -67.5
t-198.5 -31.5q-206 0 -321 87.5t-115 250.5q0 84 35 154.5t97 120t133.5 83.5t156.5 56v287h32z" />
    <glyph glyph-name="Agrave" unicode="&#xc0;" horiz-adv-x="1255" 
d="M772 1559h-31l-411 348v18h248zM1016 0l-137 330h-658q-74 -234 -86 -330h-100q78 185 250 625t207 528l114 279h25l606 -1432h-221zM229 358h637l-334 795h-8q-190 -460 -295 -795z" />
    <glyph glyph-name="Aacute" unicode="&#xc1;" horiz-adv-x="1255" 
d="M977 1919l-410 -348h-30l194 364h246v-16zM1016 0l-137 330h-658q-74 -234 -86 -330h-100q78 185 250 625t207 528l114 279h25l606 -1432h-221zM229 358h637l-334 795h-8q-190 -460 -295 -795z" />
    <glyph glyph-name="Acircumflex" unicode="&#xc2;" horiz-adv-x="1255" 
d="M625 1796l-340 -256h-33l309 377h125l309 -377h-32zM1016 0l-137 330h-658q-74 -234 -86 -330h-100q78 185 250 625t207 528l114 279h25l606 -1432h-221zM229 358h637l-334 795h-8q-190 -460 -295 -795z" />
    <glyph glyph-name="Atilde" unicode="&#xc3;" horiz-adv-x="1255" 
d="M410 1749q-109 0 -109 -145h-29q0 134 44.5 201t140.5 67q47 0 100 -24t93.5 -53t93.5 -53t100 -24q108 0 108 150h29q0 -143 -43 -211t-141 -68q-54 0 -111 25t-96.5 55t-89 55t-90.5 25zM1016 0l-137 330h-658q-74 -234 -86 -330h-100q78 185 250 625t207 528l114 279
h25l606 -1432h-221zM229 358h637l-334 795h-8q-190 -460 -295 -795z" />
    <glyph glyph-name="Adieresis" unicode="&#xc4;" horiz-adv-x="1255" 
d="M416 1608q-54 0 -90.5 36t-36.5 93q0 54 36.5 92.5t90.5 38.5t91.5 -38.5t37.5 -92.5q0 -56 -37 -92.5t-92 -36.5zM842 1608q-54 0 -90.5 36t-36.5 93q0 54 36.5 92.5t90.5 38.5t91.5 -38.5t37.5 -92.5q0 -56 -37 -92.5t-92 -36.5zM1016 0l-137 330h-658
q-74 -234 -86 -330h-100q78 185 250 625t207 528l114 279h25l606 -1432h-221zM229 358h637l-334 795h-8q-190 -460 -295 -795z" />
    <glyph glyph-name="Aring" unicode="&#xc5;" horiz-adv-x="1255" 
d="M629 1550q-87 0 -145 59t-58 144q0 84 58 142.5t145 58.5q85 0 142.5 -58.5t57.5 -142.5q0 -85 -57 -144t-143 -59zM629 1921q-73 0 -119.5 -47.5t-46.5 -120.5t46.5 -121.5t119.5 -48.5q71 0 117.5 48.5t46.5 121.5q0 71 -46.5 119.5t-117.5 48.5zM1016 0l-137 330h-658
q-74 -234 -86 -330h-100q78 185 250 625t207 528l114 279h25l606 -1432h-221zM229 358h637l-334 795h-8q-190 -460 -295 -795z" />
    <glyph glyph-name="AE" unicode="&#xc6;" horiz-adv-x="1671" 
d="M1038 29q239 0 351.5 11.5t222.5 47.5v-88h-826v395h-510q-126 -247 -184 -395h-112q351 578 806 1391h777v-88q-180 59 -549 59h-6v-651q282 3 454 30v-90q-216 31 -454 31v-653h30zM293 424h493v903q-54 -98 -161 -290.5t-187.5 -340.5t-144.5 -272z" />
    <glyph glyph-name="Ccedilla" unicode="&#xc7;" horiz-adv-x="1286" 
d="M870 1393q-162 0 -283.5 -90t-185 -248t-63.5 -361q0 -316 145.5 -504t399.5 -188q189 0 340 96v-37q-167 -92 -363 -92q-43 0 -63 2l-56 -92q123 -19 186.5 -58.5t63.5 -121.5q0 -74 -61 -122t-170 -48q-112 0 -193 61v76q48 -56 89.5 -83t95.5 -27q58 0 87 33.5
t29 88.5q0 75 -47 113t-127 59l74 123q-311 26 -489.5 218.5t-178.5 502.5q0 327 207 527t557 200q102 0 202.5 -19t156.5 -48v-103q-69 70 -150.5 106t-202.5 36z" />
    <glyph glyph-name="Egrave" unicode="&#xc8;" horiz-adv-x="1075" 
d="M735 1548h-28l-412 348v19h248zM442 29q239 0 351.5 11.5t222.5 47.5v-88h-828v1391h779v-88q-182 59 -549 59h-8v-651q284 3 456 30v-90q-216 31 -456 31v-653h32z" />
    <glyph glyph-name="Eacute" unicode="&#xc9;" horiz-adv-x="1075" 
d="M942 1909l-410 -348h-30l194 364h246v-16zM442 29q239 0 351.5 11.5t222.5 47.5v-88h-828v1391h779v-88q-182 59 -549 59h-8v-651q284 3 456 30v-90q-216 31 -456 31v-653h32z" />
    <glyph glyph-name="Ecircumflex" unicode="&#xca;" horiz-adv-x="1075" 
d="M588 1786l-338 -256h-33l309 377h125l310 -377h-33zM442 29q239 0 351.5 11.5t222.5 47.5v-88h-828v1391h779v-88q-182 59 -549 59h-8v-651q284 3 456 30v-90q-216 31 -456 31v-653h32z" />
    <glyph glyph-name="Edieresis" unicode="&#xcb;" horiz-adv-x="1075" 
d="M381 1597q-56 0 -91.5 36t-35.5 93q0 55 36 93.5t91 38.5q54 0 90.5 -39t36.5 -93q0 -56 -36 -92.5t-91 -36.5zM807 1597q-55 0 -91 36.5t-36 92.5q0 54 36.5 93t90.5 39t91.5 -39t37.5 -93q0 -56 -37 -92.5t-92 -36.5zM442 29q239 0 351.5 11.5t222.5 47.5v-88h-828
v1391h779v-88q-182 59 -549 59h-8v-651q284 3 456 30v-90q-216 31 -456 31v-653h32z" />
    <glyph glyph-name="Igrave" unicode="&#xcc;" horiz-adv-x="598" 
d="M422 1550l-412 348v19h248l195 -367h-31zM188 0v1391h222v-1391h-222z" />
    <glyph glyph-name="Iacute" unicode="&#xcd;" horiz-adv-x="598" 
d="M217 1563l195 364h245v-16l-411 -348h-29zM188 0v1391h222v-1391h-222z" />
    <glyph glyph-name="Icircumflex" unicode="&#xce;" horiz-adv-x="598" 
d="M-68 1532l308 377h127l307 -377h-31l-340 258l-340 -258h-31zM188 0v1391h222v-1391h-222z" />
    <glyph glyph-name="Idieresis" unicode="&#xcf;" horiz-adv-x="598" 
d="M96 1599q-56 0 -91.5 35.5t-35.5 91.5t36 94t91 38q54 0 90.5 -38t36.5 -94q0 -55 -36.5 -91t-90.5 -36zM522 1599q-54 0 -90.5 36t-36.5 91q0 56 36.5 94t90.5 38t91.5 -38.5t37.5 -93.5t-37 -91t-92 -36zM188 0v1391h222v-1391h-222z" />
    <glyph glyph-name="Eth" unicode="&#xd0;" horiz-adv-x="1542" 
d="M692 1391q353 0 550.5 -186.5t197.5 -510.5q0 -323 -197.5 -508.5t-550.5 -185.5h-489v674h-150v28h150v689h489zM692 29q247 0 379.5 175.5t132.5 489.5t-134 491t-378 177h-268v-660h276v-28h-276v-645h268z" />
    <glyph glyph-name="Ntilde" unicode="&#xd1;" horiz-adv-x="1421" 
d="M926 1548q-55 0 -112 25t-96.5 55t-88.5 55t-90 25q-111 0 -111 -145h-29q0 134 44.5 201t142.5 67q46 0 99 -24t93 -53t93.5 -53t101.5 -24q56 0 81 41.5t25 108.5h29q0 -143 -42 -211t-140 -68zM1204 -41l-968 1167h-11v-573q2 -181 31 -553h-92q29 372 31 555v877h24
l971 -1162h8v568q-2 181 -31 553h93q-1 -14 -7 -82.5t-8.5 -109.5t-7 -108t-6.5 -130t-2 -123v-879h-25z" />
    <glyph glyph-name="Ograve" unicode="&#xd2;" horiz-adv-x="1632" 
d="M934 1548l-410 348v19h246l195 -367h-31zM813 -31q-207 0 -369.5 91.5t-253 257t-90.5 376.5q0 210 90 375.5t253 258.5t370 93q155 0 288.5 -54.5t228 -150t148.5 -230.5t54 -292q0 -210 -91 -375.5t-255 -257.5t-373 -92zM813 -2q232 0 354.5 183t122.5 513t-123 514.5
t-354 184.5q-233 0 -355 -185.5t-122 -513.5q0 -330 122 -513t355 -183z" />
    <glyph glyph-name="Oacute" unicode="&#xd3;" horiz-adv-x="1632" 
d="M731 1561l193 364h247v-16l-411 -348h-29zM813 -31q-207 0 -369.5 91.5t-253 257t-90.5 376.5q0 210 90 375.5t253 258.5t370 93q155 0 288.5 -54.5t228 -150t148.5 -230.5t54 -292q0 -210 -91 -375.5t-255 -257.5t-373 -92zM813 -2q232 0 354.5 183t122.5 513
t-123 514.5t-354 184.5q-233 0 -355 -185.5t-122 -513.5q0 -330 122 -513t355 -183z" />
    <glyph glyph-name="Ocircumflex" unicode="&#xd4;" horiz-adv-x="1632" 
d="M446 1530l308 377h127l307 -377h-31l-340 256l-340 -256h-31zM813 -31q-207 0 -369.5 91.5t-253 257t-90.5 376.5q0 210 90 375.5t253 258.5t370 93q155 0 288.5 -54.5t228 -150t148.5 -230.5t54 -292q0 -210 -91 -375.5t-255 -257.5t-373 -92zM813 -2q232 0 354.5 183
t122.5 513t-123 514.5t-354 184.5q-233 0 -355 -185.5t-122 -513.5q0 -330 122 -513t355 -183z" />
    <glyph glyph-name="Otilde" unicode="&#xd5;" horiz-adv-x="1632" 
d="M981 1579q-54 0 -111 25t-96.5 55t-89 55t-90.5 25q-109 0 -109 -146h-28q0 134 44 201.5t140 67.5q47 0 100 -24t93.5 -53t93.5 -53t100 -24q57 0 83 41.5t26 108.5h28q0 -143 -43 -211t-141 -68zM813 -31q-207 0 -369.5 91.5t-253 257t-90.5 376.5q0 210 90 375.5
t253 258.5t370 93q155 0 288.5 -54.5t228 -150t148.5 -230.5t54 -292q0 -210 -91 -375.5t-255 -257.5t-373 -92zM813 -2q232 0 354.5 183t122.5 513t-123 514.5t-354 184.5q-233 0 -355 -185.5t-122 -513.5q0 -330 122 -513t355 -183z" />
    <glyph glyph-name="Odieresis" unicode="&#xd6;" horiz-adv-x="1632" 
d="M610 1597q-56 0 -92.5 36t-36.5 93q0 55 37 93.5t92 38.5q54 0 90.5 -39t36.5 -93q0 -56 -36.5 -92.5t-90.5 -36.5zM1036 1597q-55 0 -92 36.5t-37 92.5q0 54 37.5 93t91.5 39t91.5 -39t37.5 -93q0 -56 -37 -92.5t-92 -36.5zM813 -31q-207 0 -369.5 91.5t-253 257
t-90.5 376.5q0 210 90 375.5t253 258.5t370 93q155 0 288.5 -54.5t228 -150t148.5 -230.5t54 -292q0 -210 -91 -375.5t-255 -257.5t-373 -92zM813 -2q232 0 354.5 183t122.5 513t-123 514.5t-354 184.5q-233 0 -355 -185.5t-122 -513.5q0 -330 122 -513t355 -183z" />
    <glyph glyph-name="multiply" unicode="&#xd7;" horiz-adv-x="1105" 
d="M944 1055l-371 -371l371 -371l-20 -20l-371 371l-371 -371l-22 22l370 371l-368 369l20 20l369 -368l371 370z" />
    <glyph glyph-name="Oslash" unicode="&#xd8;" horiz-adv-x="1650" 
d="M1552 1389l-194 -195q182 -201 182 -500q0 -211 -91.5 -376t-256 -257t-373.5 -92q-149 0 -277 49.5t-223 141.5l-161 -162h-45l184 184q-188 201 -188 512q0 210 89.5 375.5t252 258.5t368.5 93q155 0 287 -52.5t229 -149.5l172 170h45zM344 694q0 -239 64 -401l819 815
q-58 138 -161 211.5t-247 73.5q-232 0 -353.5 -185.5t-121.5 -513.5zM1296 694q0 228 -57 383l-817 -817q119 -262 397 -262q233 0 355 183t122 513z" />
    <glyph glyph-name="Ugrave" unicode="&#xd9;" horiz-adv-x="1431" 
d="M856 1520l-412 348v16h248l195 -364h-31zM731 -31q-288 0 -423.5 154t-135.5 432v836h221v-895q0 -244 91 -363t309 -119q208 0 318 144.5t110 431.5v248q-1 94 -6.5 195.5t-14 217.5t-10.5 140h92q-1 -14 -7 -82.5t-8.5 -109.5t-7 -108t-6.5 -130t-2 -123v-248
q0 -310 -125.5 -465.5t-394.5 -155.5z" />
    <glyph glyph-name="Uacute" unicode="&#xda;" horiz-adv-x="1431" 
d="M653 1532l193 364h246v-16l-410 -348h-29zM731 -31q-288 0 -423.5 154t-135.5 432v836h221v-895q0 -244 91 -363t309 -119q208 0 318 144.5t110 431.5v248q-1 94 -6.5 195.5t-14 217.5t-10.5 140h92q-1 -14 -7 -82.5t-8.5 -109.5t-7 -108t-6.5 -130t-2 -123v-248
q0 -310 -125.5 -465.5t-394.5 -155.5z" />
    <glyph glyph-name="Ucircumflex" unicode="&#xdb;" horiz-adv-x="1431" 
d="M369 1499l307 377h127l307 -377h-31l-340 258l-340 -258h-30zM731 -31q-288 0 -423.5 154t-135.5 432v836h221v-895q0 -244 91 -363t309 -119q208 0 318 144.5t110 431.5v248q-1 94 -6.5 195.5t-14 217.5t-10.5 140h92q-1 -14 -7 -82.5t-8.5 -109.5t-7 -108t-6.5 -130
t-2 -123v-248q0 -310 -125.5 -465.5t-394.5 -155.5z" />
    <glyph glyph-name="Udieresis" unicode="&#xdc;" horiz-adv-x="1431" 
d="M532 1567q-56 0 -92.5 36.5t-36.5 92.5t37 93.5t92 37.5q54 0 90.5 -37.5t36.5 -93.5q0 -55 -36.5 -92t-90.5 -37zM958 1567q-54 0 -91.5 37t-37.5 92t37.5 93t91.5 38t91.5 -38t37.5 -93t-37.5 -92t-91.5 -37zM731 -31q-288 0 -423.5 154t-135.5 432v836h221v-895
q0 -244 91 -363t309 -119q208 0 318 144.5t110 431.5v248q-1 94 -6.5 195.5t-14 217.5t-10.5 140h92q-1 -14 -7 -82.5t-8.5 -109.5t-7 -108t-6.5 -130t-2 -123v-248q0 -310 -125.5 -465.5t-394.5 -155.5z" />
    <glyph glyph-name="Yacute" unicode="&#xdd;" horiz-adv-x="1204" 
d="M547 1530l194 364h246v-16l-409 -348h-31zM483 0v623l-426 768h234l383 -703h8q309 490 389 703h103q-29 -45 -119 -181t-183 -278t-170 -262v-670h-219z" />
    <glyph glyph-name="Thorn" unicode="&#xde;" horiz-adv-x="1245" 
d="M682 1110q215 0 344 -109.5t129 -289.5q0 -413 -547 -428h-198v-283h-222v1391h222v-281h272zM573 311q355 0 355 387q0 60 -9 112.5t-32.5 103t-59.5 87t-93 58.5t-130 22h-194v-770h163z" />
    <glyph glyph-name="germandbls" unicode="&#xdf;" horiz-adv-x="1234" 
d="M659 829q0 -44 28.5 -80t74 -62.5t101 -52t110.5 -57t100.5 -69.5t74 -96t28.5 -131q0 -141 -98.5 -226.5t-272.5 -85.5q-150 0 -301 82v103q69 -80 133 -118t168 -38q90 0 146.5 54t56.5 163q0 51 -22.5 96t-58 78t-79 65l-87 64t-79 67t-58 82.5t-22.5 102.5
q0 46 15.5 87t41 72.5t56 61t60.5 59.5t55.5 62.5t41 75.5t15.5 92q0 97 -61.5 147t-161.5 50q-151 0 -216 -103.5t-65 -331.5v-1042h-186v995h-166v29h166v18q0 70 11 130.5t42.5 124t82 107.5t137 72.5t200.5 28.5q157 0 263.5 -61.5t106.5 -171.5q0 -55 -28 -103.5
t-70.5 -81t-92 -66t-92 -60t-70.5 -61t-28 -71.5z" />
    <glyph glyph-name="agrave" unicode="&#xe0;" horiz-adv-x="1116" 
d="M655 1155h-30l-410 348v19h246zM551 1055q231 0 324.5 -106t93.5 -328v-662h-41l-158 301q-40 -119 -151 -205t-259 -86q-136 0 -214 65.5t-78 186.5q0 82 38 146t101.5 104.5t154.5 66.5t187 36.5t209 11.5v123q0 61 -4 103.5t-18 86t-38.5 69t-67 42t-102.5 16.5
q-191 0 -374 -170v102q215 97 397 97zM453 53q101 0 180.5 67.5t124.5 178.5v258q-75 -4 -140.5 -13.5t-132 -31t-113.5 -52.5t-76.5 -80t-29.5 -112q0 -112 52 -163.5t135 -51.5z" />
    <glyph glyph-name="aacute" unicode="&#xe1;" horiz-adv-x="1116" 
d="M897 1513l-410 -348h-30l194 365h246v-17zM551 1055q231 0 324.5 -106t93.5 -328v-662h-41l-158 301q-40 -119 -151 -205t-259 -86q-136 0 -214 65.5t-78 186.5q0 82 38 146t101.5 104.5t154.5 66.5t187 36.5t209 11.5v123q0 61 -4 103.5t-18 86t-38.5 69t-67 42
t-102.5 16.5q-191 0 -374 -170v102q215 97 397 97zM453 53q101 0 180.5 67.5t124.5 178.5v258q-75 -4 -140.5 -13.5t-132 -31t-113.5 -52.5t-76.5 -80t-29.5 -112q0 -112 52 -163.5t135 -51.5z" />
    <glyph glyph-name="acircumflex" unicode="&#xe2;" horiz-adv-x="1116" 
d="M535 1407l-338 -258h-33l309 377h125l309 -377h-33zM551 1055q231 0 324.5 -106t93.5 -328v-662h-41l-158 301q-40 -119 -151 -205t-259 -86q-136 0 -214 65.5t-78 186.5q0 82 38 146t101.5 104.5t154.5 66.5t187 36.5t209 11.5v123q0 61 -4 103.5t-18 86t-38.5 69
t-67 42t-102.5 16.5q-191 0 -374 -170v102q215 97 397 97zM453 53q101 0 180.5 67.5t124.5 178.5v258q-75 -4 -140.5 -13.5t-132 -31t-113.5 -52.5t-76.5 -80t-29.5 -112q0 -112 52 -163.5t135 -51.5z" />
    <glyph glyph-name="atilde" unicode="&#xe3;" horiz-adv-x="1116" 
d="M326 1356q-109 0 -109 -148h-29q0 134 45 202.5t142 68.5q46 0 99 -24t93 -53t93.5 -53t101.5 -24q106 0 106 150h29q0 -143 -42.5 -212t-139.5 -69q-55 0 -112 25.5t-96.5 55.5t-89 55.5t-91.5 25.5zM551 1055q231 0 324.5 -106t93.5 -328v-662h-41l-158 301
q-40 -119 -151 -205t-259 -86q-136 0 -214 65.5t-78 186.5q0 82 38 146t101.5 104.5t154.5 66.5t187 36.5t209 11.5v123q0 61 -4 103.5t-18 86t-38.5 69t-67 42t-102.5 16.5q-191 0 -374 -170v102q215 97 397 97zM453 53q101 0 180.5 67.5t124.5 178.5v258
q-75 -4 -140.5 -13.5t-132 -31t-113.5 -52.5t-76.5 -80t-29.5 -112q0 -112 52 -163.5t135 -51.5z" />
    <glyph glyph-name="adieresis" unicode="&#xe4;" horiz-adv-x="1116" 
d="M322 1212q-56 0 -91.5 36t-35.5 93q0 55 36 93.5t91 38.5q54 0 90.5 -39t36.5 -93q0 -57 -36.5 -93t-90.5 -36zM748 1212q-54 0 -90.5 36t-36.5 93q0 54 36.5 93t90.5 39t91.5 -39t37.5 -93q0 -56 -37 -92.5t-92 -36.5zM551 1055q231 0 324.5 -106t93.5 -328v-662h-41
l-158 301q-40 -119 -151 -205t-259 -86q-136 0 -214 65.5t-78 186.5q0 82 38 146t101.5 104.5t154.5 66.5t187 36.5t209 11.5v123q0 61 -4 103.5t-18 86t-38.5 69t-67 42t-102.5 16.5q-191 0 -374 -170v102q215 97 397 97zM453 53q101 0 180.5 67.5t124.5 178.5v258
q-75 -4 -140.5 -13.5t-132 -31t-113.5 -52.5t-76.5 -80t-29.5 -112q0 -112 52 -163.5t135 -51.5z" />
    <glyph glyph-name="aring" unicode="&#xe5;" horiz-adv-x="1116" 
d="M537 1149q-87 0 -145 59t-58 144q0 84 58 142t145 58q86 0 143 -58t57 -142q0 -85 -57 -144t-143 -59zM537 1520q-73 0 -119.5 -47.5t-46.5 -120.5t46.5 -121.5t119.5 -48.5q71 0 117 48.5t46 121.5q0 71 -46 119.5t-117 48.5zM551 1055q231 0 324.5 -106t93.5 -328v-662
h-41l-158 301q-40 -119 -151 -205t-259 -86q-136 0 -214 65.5t-78 186.5q0 82 38 146t101.5 104.5t154.5 66.5t187 36.5t209 11.5v123q0 61 -4 103.5t-18 86t-38.5 69t-67 42t-102.5 16.5q-191 0 -374 -170v102q215 97 397 97zM453 53q101 0 180.5 67.5t124.5 178.5v258
q-75 -4 -140.5 -13.5t-132 -31t-113.5 -52.5t-76.5 -80t-29.5 -112q0 -112 52 -163.5t135 -51.5z" />
    <glyph glyph-name="ae" unicode="&#xe6;" horiz-adv-x="1830" 
d="M1739 514h-756q1 -250 101.5 -379t285.5 -129q79 0 148 22t104.5 45t81.5 60v-33q-69 -60 -158 -95.5t-227 -35.5q-266 0 -422 166q-86 80 -115 184q-42 -156 -155 -255t-258 -99q-136 0 -218.5 67.5t-82.5 188.5q0 69 26 125t74.5 95t111 67.5t142.5 45t162 24t176 8.5
l-2 147q0 68 -10 118.5t-35 92t-72.5 63t-116.5 21.5q-185 0 -364 -170v103q216 96 397 96q268 0 354 -152q78 73 181.5 111.5t210.5 38.5q197 0 321.5 -124t124.5 -317q0 -45 -10 -100zM983 543h578q0 19 1 55.5t1 52.5q0 181 -66.5 278t-193.5 97q-311 0 -320 -483z
M451 53q103 0 189.5 82t129.5 230q-10 52 -10 98q-2 18 -2 55q0 27 2 41q-76 -5 -139.5 -14t-132.5 -30t-116 -51.5t-77.5 -80.5t-30.5 -115q0 -112 52 -163.5t135 -51.5z" />
    <glyph glyph-name="ccedilla" unicode="&#xe7;" horiz-adv-x="1046" 
d="M688 1026q-170 0 -271.5 -130t-101.5 -384q0 -244 98 -375t273 -131q82 0 161.5 25.5t133.5 66.5v-28q-58 -45 -149.5 -73t-194.5 -28l-57 -96q124 -19 186.5 -58.5t62.5 -121.5q0 -74 -61 -122t-170 -48q-111 0 -192 61v76q49 -57 90 -84t96 -27q56 0 85.5 34t29.5 89
q0 75 -47 113t-128 59l76 125q-240 9 -379 157t-139 386q0 247 162 395t438 148q77 0 156.5 -16t134.5 -46v-102q-70 70 -135.5 102.5t-157.5 32.5z" />
    <glyph glyph-name="egrave" unicode="&#xe8;" horiz-adv-x="1161" 
d="M758 1159h-31l-412 348v17h248zM1071 514h-758q1 -249 102 -378.5t285 -129.5q80 0 149.5 22t105 45t81.5 60v-33q-69 -60 -158.5 -95.5t-226.5 -35.5q-173 0 -302.5 73t-195 196.5t-65.5 279.5q0 132 48 237t127 169t174.5 97.5t197.5 33.5q197 0 321.5 -124t124.5 -317
q0 -45 -10 -100zM313 543h580q0 19 1 55.5t1 52.5q0 181 -66.5 278t-193.5 97q-313 0 -322 -483z" />
    <glyph glyph-name="eacute" unicode="&#xe9;" horiz-adv-x="1161" 
d="M999 1516l-409 -349h-31l195 365h245v-16zM1071 514h-758q1 -249 102 -378.5t285 -129.5q80 0 149.5 22t105 45t81.5 60v-33q-69 -60 -158.5 -95.5t-226.5 -35.5q-173 0 -302.5 73t-195 196.5t-65.5 279.5q0 132 48 237t127 169t174.5 97.5t197.5 33.5q197 0 321.5 -124
t124.5 -317q0 -45 -10 -100zM313 543h580q0 19 1 55.5t1 52.5q0 181 -66.5 278t-193.5 97q-313 0 -322 -483z" />
    <glyph glyph-name="ecircumflex" unicode="&#xea;" horiz-adv-x="1161" 
d="M637 1409l-340 -256h-31l307 375h127l308 -375h-31zM1071 514h-758q1 -249 102 -378.5t285 -129.5q80 0 149.5 22t105 45t81.5 60v-33q-69 -60 -158.5 -95.5t-226.5 -35.5q-173 0 -302.5 73t-195 196.5t-65.5 279.5q0 132 48 237t127 169t174.5 97.5t197.5 33.5
q197 0 321.5 -124t124.5 -317q0 -45 -10 -100zM313 543h580q0 19 1 55.5t1 52.5q0 181 -66.5 278t-193.5 97q-313 0 -322 -483z" />
    <glyph glyph-name="edieresis" unicode="&#xeb;" horiz-adv-x="1161" 
d="M424 1214q-55 0 -91 36.5t-36 92.5t36 94t91 38q54 0 90.5 -38t36.5 -94q0 -55 -36.5 -92t-90.5 -37zM850 1214q-54 0 -90.5 37t-36.5 92q0 56 36.5 94t90.5 38t91.5 -38.5t37.5 -93.5t-37.5 -92t-91.5 -37zM1071 514h-758q1 -249 102 -378.5t285 -129.5q80 0 149.5 22
t105 45t81.5 60v-33q-69 -60 -158.5 -95.5t-226.5 -35.5q-173 0 -302.5 73t-195 196.5t-65.5 279.5q0 132 48 237t127 169t174.5 97.5t197.5 33.5q197 0 321.5 -124t124.5 -317q0 -45 -10 -100zM313 543h580q0 19 1 55.5t1 52.5q0 181 -66.5 278t-193.5 97q-313 0 -322 -483
z" />
    <glyph glyph-name="igrave" unicode="&#xec;" horiz-adv-x="532" 
d="M356 1159l-411 348v19h248l194 -367h-31zM160 0v1024h211v-1024h-211z" />
    <glyph glyph-name="iacute" unicode="&#xed;" horiz-adv-x="532" 
d="M188 1169l195 365h246v-16l-412 -349h-29zM160 0v1024h211v-1024h-211z" />
    <glyph glyph-name="icircumflex" unicode="&#xee;" horiz-adv-x="532" 
d="M-106 1153l309 377h125l309 -377h-33l-338 258l-340 -258h-32zM160 0v1024h211v-1024h-211z" />
    <glyph glyph-name="idieresis" unicode="&#xef;" horiz-adv-x="532" 
d="M53 1217q-56 0 -92.5 36t-36.5 93q0 55 37 93t92 38q54 0 90.5 -38.5t36.5 -92.5q0 -56 -36 -92.5t-91 -36.5zM479 1217q-55 0 -92 36.5t-37 92.5q0 54 37.5 92.5t91.5 38.5t91.5 -38.5t37.5 -92.5q0 -56 -37 -92.5t-92 -36.5zM160 0v1024h211v-1024h-211z" />
    <glyph glyph-name="eth" unicode="&#xf0;" horiz-adv-x="1275" 
d="M817 1296q173 -129 267 -323.5t94 -435.5q0 -247 -151.5 -407.5t-393.5 -160.5q-159 0 -283.5 70.5t-192 194t-67.5 278.5q0 233 151.5 388t391.5 155q135 0 252 -49q-53 153 -150 258l-264 -107v31l244 98q-109 109 -283 168l10 19q197 -53 346 -156l256 102v-30z
M633 -2q151 0 235 131.5t84 382.5q0 253 -83.5 383.5t-235.5 130.5q-150 0 -234 -131t-84 -383q0 -251 84 -382.5t234 -131.5z" />
    <glyph glyph-name="ntilde" unicode="&#xf1;" horiz-adv-x="1269" 
d="M442 1356q-110 0 -110 -148h-29q0 134 44.5 202.5t141.5 68.5q47 0 100.5 -24t93.5 -53t93.5 -53t100.5 -24q56 0 82 41.5t26 108.5h29q0 -143 -43.5 -212t-141.5 -69q-55 0 -112 25.5t-96.5 55.5t-88.5 55.5t-90 25.5zM748 1055q184 0 279 -100.5t95 -297.5v-657h-211
v678q0 147 -59.5 221t-189.5 74q-210 0 -289 -258v-715h-213v1065h41l168 -289q38 127 136 203t243 76z" />
    <glyph glyph-name="ograve" unicode="&#xf2;" horiz-adv-x="1302" 
d="M741 1155l-411 348v19h248l194 -367h-31zM649 -31q-167 0 -296 71.5t-197 194.5t-68 277t68 277t197 194.5t296 71.5q255 0 410 -153.5t155 -389.5q0 -149 -68 -272t-198.5 -197t-298.5 -74zM649 -2q164 0 252 130.5t88 383.5q0 255 -87.5 384.5t-252.5 129.5
q-163 0 -249.5 -129.5t-86.5 -384.5q0 -253 86.5 -383.5t249.5 -130.5z" />
    <glyph glyph-name="oacute" unicode="&#xf3;" horiz-adv-x="1302" 
d="M573 1165l195 365h246v-17l-412 -348h-29zM649 -31q-167 0 -296 71.5t-197 194.5t-68 277t68 277t197 194.5t296 71.5q255 0 410 -153.5t155 -389.5q0 -149 -68 -272t-198.5 -197t-298.5 -74zM649 -2q164 0 252 130.5t88 383.5q0 255 -87.5 384.5t-252.5 129.5
q-163 0 -249.5 -129.5t-86.5 -384.5q0 -253 86.5 -383.5t249.5 -130.5z" />
    <glyph glyph-name="ocircumflex" unicode="&#xf4;" horiz-adv-x="1302" 
d="M281 1149l307 377h127l307 -377h-31l-340 258l-340 -258h-30zM649 -31q-167 0 -296 71.5t-197 194.5t-68 277t68 277t197 194.5t296 71.5q255 0 410 -153.5t155 -389.5q0 -149 -68 -272t-198.5 -197t-298.5 -74zM649 -2q164 0 252 130.5t88 383.5q0 255 -87.5 384.5
t-252.5 129.5q-163 0 -249.5 -129.5t-86.5 -384.5q0 -253 86.5 -383.5t249.5 -130.5z" />
    <glyph glyph-name="otilde" unicode="&#xf5;" horiz-adv-x="1302" 
d="M829 1194q-54 0 -111 25.5t-96.5 55.5t-89 55.5t-90.5 25.5q-108 0 -108 -148h-29q0 134 44 202.5t140 68.5q47 0 100.5 -24t93.5 -53t93.5 -53t100.5 -24q108 0 108 150h29q0 -143 -43.5 -212t-141.5 -69zM649 -31q-167 0 -296 71.5t-197 194.5t-68 277t68 277
t197 194.5t296 71.5q255 0 410 -153.5t155 -389.5q0 -149 -68 -272t-198.5 -197t-298.5 -74zM649 -2q164 0 252 130.5t88 383.5q0 255 -87.5 384.5t-252.5 129.5q-163 0 -249.5 -129.5t-86.5 -384.5q0 -253 86.5 -383.5t249.5 -130.5z" />
    <glyph glyph-name="odieresis" unicode="&#xf6;" horiz-adv-x="1302" 
d="M438 1212q-56 0 -92.5 36t-36.5 93q0 55 37 93.5t92 38.5q54 0 90.5 -39t36.5 -93q0 -57 -36.5 -93t-90.5 -36zM864 1212q-55 0 -92 36.5t-37 92.5q0 54 37.5 93t91.5 39t91.5 -39t37.5 -93q0 -56 -37 -92.5t-92 -36.5zM649 -31q-167 0 -296 71.5t-197 194.5t-68 277
t68 277t197 194.5t296 71.5q255 0 410 -153.5t155 -389.5q0 -149 -68 -272t-198.5 -197t-298.5 -74zM649 -2q164 0 252 130.5t88 383.5q0 255 -87.5 384.5t-252.5 129.5q-163 0 -249.5 -129.5t-86.5 -384.5q0 -253 86.5 -383.5t249.5 -130.5z" />
    <glyph glyph-name="divide" unicode="&#xf7;" horiz-adv-x="1105" 
d="M555 936q-31 0 -52.5 21.5t-21.5 52.5t21.5 52t52.5 21t52.5 -21t21.5 -52t-21.5 -52.5t-52.5 -21.5zM72 670v28h962v-28h-962zM555 279q-31 0 -52.5 21t-21.5 52t21.5 52.5t52.5 21.5t52.5 -21.5t21.5 -52.5t-21.5 -52t-52.5 -21z" />
    <glyph glyph-name="oslash" unicode="&#xf8;" horiz-adv-x="1314" 
d="M1069 899q154 -151 154 -387q0 -111 -40.5 -210t-113 -173t-179.5 -117t-233 -43q-233 0 -385 133l-102 -104h-43l125 125q-156 150 -156 389q0 154 68 277t197 194.5t296 71.5q235 0 390 -133l100 100h43zM322 512q0 -174 38 -281l588 592q-83 203 -291 203
q-163 0 -249 -129.5t-86 -384.5zM657 -2q164 0 252 130.5t88 383.5q0 172 -36 279l-590 -590q83 -203 286 -203z" />
    <glyph glyph-name="ugrave" unicode="&#xf9;" horiz-adv-x="1269" 
d="M754 1157h-31l-410 348v17h246zM897 1024h211v-1065h-39l-168 299q-21 -124 -117 -206.5t-243 -82.5q-394 0 -394 426v629h211v-647q0 -174 56.5 -253t203.5 -79q222 0 279 281v698z" />
    <glyph glyph-name="uacute" unicode="&#xfa;" horiz-adv-x="1269" 
d="M995 1516l-409 -351h-31l195 367h245v-16zM897 1024h211v-1065h-39l-168 299q-21 -124 -117 -206.5t-243 -82.5q-394 0 -394 426v629h211v-647q0 -174 56.5 -253t203.5 -79q222 0 279 281v698z" />
    <glyph glyph-name="ucircumflex" unicode="&#xfb;" horiz-adv-x="1269" 
d="M633 1407l-340 -256h-31l307 375h127l308 -375h-31zM897 1024h211v-1065h-39l-168 299q-21 -124 -117 -206.5t-243 -82.5q-394 0 -394 426v629h211v-647q0 -174 56.5 -253t203.5 -79q222 0 279 281v698z" />
    <glyph glyph-name="udieresis" unicode="&#xfc;" horiz-adv-x="1269" 
d="M420 1212q-55 0 -91 36.5t-36 92.5t36 94t91 38q54 0 90.5 -38t36.5 -94q0 -55 -36.5 -92t-90.5 -37zM846 1212q-54 0 -90.5 37t-36.5 92q0 56 36.5 94t90.5 38t91.5 -38.5t37.5 -93.5t-37.5 -92t-91.5 -37zM897 1024h211v-1065h-39l-168 299q-21 -124 -117 -206.5
t-243 -82.5q-394 0 -394 426v629h211v-647q0 -174 56.5 -253t203.5 -79q222 0 279 281v698z" />
    <glyph glyph-name="yacute" unicode="&#xfd;" horiz-adv-x="1026" 
d="M922 1516l-410 -351h-31l195 367h246v-16zM915 1024h84l-358 -778l-119 -246l-170 -369l-86 56l232 313l-467 1024h221l350 -778h8q213 485 305 778z" />
    <glyph glyph-name="thorn" unicode="&#xfe;" horiz-adv-x="1294" 
d="M754 1055q208 0 327 -137t119 -381q0 -163 -52 -290.5t-154.5 -202.5t-241.5 -75q-76 0 -142 23t-110.5 61.5t-74.5 80t-46 85.5h-8v-559h-209l-4 1813h213v-670h8q57 120 159 186t216 66zM670 51q148 0 226.5 127t78.5 334q0 209 -81 330t-228 121q-94 0 -173 -52.5
t-122 -160.5v-469q74 -230 299 -230z" />
    <glyph glyph-name="ydieresis" unicode="&#xff;" horiz-adv-x="1026" 
d="M346 1212q-55 0 -91 36.5t-36 92.5t36 94t91 38q54 0 90.5 -38t36.5 -94q0 -55 -36.5 -92t-90.5 -37zM772 1212q-54 0 -90.5 37t-36.5 92q0 56 36.5 94t90.5 38t91.5 -38.5t37.5 -93.5t-37.5 -92t-91.5 -37zM915 1024h84l-358 -778l-119 -246l-170 -369l-86 56l232 313
l-467 1024h221l350 -778h8q213 485 305 778z" />
    <glyph glyph-name="Amacron" unicode="&#x100;" horiz-adv-x="1255" 
d="M909 1720v-34h-581v34h581zM1016 0l-137 330h-658q-74 -234 -86 -330h-100q78 185 250 625t207 528l114 279h25l606 -1432h-221zM229 358h637l-334 795h-8q-190 -460 -295 -795z" />
    <glyph glyph-name="amacron" unicode="&#x101;" horiz-adv-x="1116" 
d="M825 1311v-35h-581v35h581zM551 1055q231 0 324.5 -106t93.5 -328v-662h-41l-158 301q-40 -119 -151 -205t-259 -86q-136 0 -214 65.5t-78 186.5q0 82 38 146t101.5 104.5t154.5 66.5t187 36.5t209 11.5v123q0 61 -4 103.5t-18 86t-38.5 69t-67 42t-102.5 16.5
q-191 0 -374 -170v102q215 97 397 97zM453 53q101 0 180.5 67.5t124.5 178.5v258q-75 -4 -140.5 -13.5t-132 -31t-113.5 -52.5t-76.5 -80t-29.5 -112q0 -112 52 -163.5t135 -51.5z" />
    <glyph glyph-name="Abreve" unicode="&#x102;" horiz-adv-x="1255" 
d="M627 1593q-125 0 -198 90t-73 236h29q0 -44 14 -78.5t37 -57t54.5 -37.5t65.5 -21.5t71 -6.5q101 0 171 48.5t70 152.5h29q0 -146 -74 -236t-196 -90zM1016 0l-137 330h-658q-74 -234 -86 -330h-100q78 185 250 625t207 528l114 279h25l606 -1432h-221zM229 358h637
l-334 795h-8q-190 -460 -295 -795z" />
    <glyph glyph-name="abreve" unicode="&#x103;" horiz-adv-x="1116" 
d="M535 1186q-124 0 -197.5 89.5t-73.5 235.5h29q0 -55 21 -95t56.5 -62t76.5 -32.5t88 -10.5t88 10.5t76.5 32.5t56 62t20.5 95h29q0 -146 -74 -235.5t-196 -89.5zM551 1055q231 0 324.5 -106t93.5 -328v-662h-41l-158 301q-40 -119 -151 -205t-259 -86q-136 0 -214 65.5
t-78 186.5q0 82 38 146t101.5 104.5t154.5 66.5t187 36.5t209 11.5v123q0 61 -4 103.5t-18 86t-38.5 69t-67 42t-102.5 16.5q-191 0 -374 -170v102q215 97 397 97zM453 53q101 0 180.5 67.5t124.5 178.5v258q-75 -4 -140.5 -13.5t-132 -31t-113.5 -52.5t-76.5 -80
t-29.5 -112q0 -112 52 -163.5t135 -51.5z" />
    <glyph glyph-name="Aogonek" unicode="&#x104;" horiz-adv-x="1255" 
d="M35 0q78 185 250 625t207 528l114 279h25l606 -1432h-16q-71 -45 -124 -130.5t-53 -170.5q0 -90 64 -90q30 0 57 24t45 64l21 -12q-47 -119 -164 -119q-68 0 -108.5 38.5t-40.5 102.5q0 179 270 293h-172l-137 330h-658q-74 -234 -86 -330h-100zM229 358h637l-334 795h-8
q-166 -401 -295 -795z" />
    <glyph glyph-name="aogonek" unicode="&#x105;" horiz-adv-x="1116" 
d="M952 -344l21 -10q-24 -62 -66.5 -91.5t-95.5 -29.5q-69 0 -109 39t-40 104q0 177 268 291h-2l-158 301q-40 -119 -151 -205t-259 -86q-136 0 -214 65.5t-78 186.5q0 82 38 146t101.5 104.5t154.5 66.5t187 36.5t209 11.5v123q0 61 -4 103.5t-18 86t-38.5 69t-67 42
t-102.5 16.5q-191 0 -374 -170v102q215 97 397 97q231 0 324.5 -106t93.5 -328v-662h-4q-71 -44 -125 -129.5t-54 -169.5q0 -90 66 -90q63 0 100 86zM453 53q101 0 180.5 67.5t124.5 178.5v258q-75 -4 -140.5 -13.5t-132 -31t-113.5 -52.5t-76.5 -80t-29.5 -112
q0 -112 52 -163.5t135 -51.5z" />
    <glyph glyph-name="Cacute" unicode="&#x106;" horiz-adv-x="1286" 
d="M782 1561l195 364h246v-16l-410 -348h-31zM860 -31q-350 0 -555 196t-205 529q0 327 207 527t557 200q102 0 202.5 -19t156.5 -48v-103q-69 70 -150.5 106t-202.5 36q-162 0 -283.5 -90t-185 -248t-63.5 -361q0 -316 145.5 -504t399.5 -188q189 0 340 96v-37
q-167 -92 -363 -92z" />
    <glyph glyph-name="cacute" unicode="&#x107;" horiz-adv-x="1046" 
d="M588 1165l194 367h246v-16l-410 -351h-30zM635 -31q-251 0 -398 149t-147 394q0 247 162 395t438 148q77 0 156.5 -16t134.5 -46v-102q-70 70 -135.5 102.5t-157.5 32.5q-170 0 -271.5 -130t-101.5 -384q0 -244 98 -375t273 -131q82 0 161.5 25.5t133.5 66.5v-28
q-58 -45 -149.5 -73t-196.5 -28z" />
    <glyph glyph-name="Cdotaccent" unicode="&#x10a;" horiz-adv-x="1286" 
d="M870 1593q-56 0 -95.5 40.5t-39.5 97.5q0 54 40 93.5t95 39.5t94.5 -39.5t39.5 -93.5q0 -57 -39.5 -97.5t-94.5 -40.5zM860 -31q-350 0 -555 196t-205 529q0 327 207 527t557 200q102 0 202.5 -19t156.5 -48v-103q-69 70 -150.5 106t-202.5 36q-162 0 -283.5 -90
t-185 -248t-63.5 -361q0 -316 145.5 -504t399.5 -188q189 0 340 96v-37q-167 -92 -363 -92z" />
    <glyph glyph-name="cdotaccent" unicode="&#x10b;" horiz-adv-x="1046" 
d="M653 1186q-57 0 -96 39.5t-39 95.5t39 95.5t96 39.5q55 0 94 -39.5t39 -95.5t-39 -95.5t-94 -39.5zM635 -31q-251 0 -398 149t-147 394q0 247 162 395t438 148q77 0 156.5 -16t134.5 -46v-102q-70 70 -135.5 102.5t-157.5 32.5q-170 0 -271.5 -130t-101.5 -384
q0 -244 98 -375t273 -131q82 0 161.5 25.5t133.5 66.5v-28q-58 -45 -149.5 -73t-196.5 -28z" />
    <glyph glyph-name="Ccaron" unicode="&#x10c;" horiz-adv-x="1286" 
d="M784 1561l-309 376h33l340 -256l338 256h33l-310 -376h-125zM860 -31q-350 0 -555 196t-205 529q0 327 207 527t557 200q102 0 202.5 -19t156.5 -48v-103q-69 70 -150.5 106t-202.5 36q-162 0 -283.5 -90t-185 -248t-63.5 -361q0 -316 145.5 -504t399.5 -188
q189 0 340 96v-37q-167 -92 -363 -92z" />
    <glyph glyph-name="ccaron" unicode="&#x10d;" horiz-adv-x="1046" 
d="M557 1176l-307 376h31l340 -258l340 258h32l-309 -376h-127zM635 -31q-251 0 -398 149t-147 394q0 247 162 395t438 148q77 0 156.5 -16t134.5 -46v-102q-70 70 -135.5 102.5t-157.5 32.5q-170 0 -271.5 -130t-101.5 -384q0 -244 98 -375t273 -131q82 0 161.5 25.5
t133.5 66.5v-28q-58 -45 -149.5 -73t-196.5 -28z" />
    <glyph glyph-name="Dcaron" unicode="&#x10e;" horiz-adv-x="1527" 
d="M635 1530l-309 377h32l340 -256l338 256h33l-309 -377h-125zM188 0v1391h490q353 0 550 -186t197 -511q0 -323 -197 -508.5t-550 -185.5h-490zM410 29h268q247 0 379.5 175.5t132.5 489.5q0 315 -133.5 491.5t-378.5 176.5h-268v-1333z" />
    <glyph glyph-name="dcaron" unicode="&#x10f;" horiz-adv-x="1392" 
d="M1356 1505q56 0 92.5 -36.5t36.5 -94.5q0 -40 -9 -68t-46 -110l-68 -145h-70q85 114 135 219q-30 -21 -73 -21q-54 0 -89.5 36.5t-35.5 90.5t36.5 91.5t90.5 37.5zM922 780v695h211v-1516h-39l-164 322q-9 -42 -28.5 -84t-52.5 -84t-75.5 -73.5t-102.5 -51t-128 -19.5
q-212 0 -331.5 144.5t-119.5 382.5q0 247 125 403t332 156q125 0 229 -73.5t144 -201.5zM618 49q71 0 127 27t90.5 72.5t55 91.5t31.5 98v377q-41 132 -120.5 195t-180.5 63q-151 0 -227.5 -124t-76.5 -337q0 -137 30 -238t99 -163t172 -62z" />
    <glyph glyph-name="Dcroat" unicode="&#x110;" horiz-adv-x="1542" 
d="M692 1391q353 0 550.5 -186.5t197.5 -510.5q0 -323 -197.5 -508.5t-550.5 -185.5h-489v674h-150v28h150v689h489zM692 29q247 0 379.5 175.5t132.5 489.5t-134 491t-378 177h-268v-660h276v-28h-276v-645h268z" />
    <glyph glyph-name="dcroat" unicode="&#x111;" horiz-adv-x="1294" 
d="M1348 1231v-29h-215v-1243h-39l-164 322q-9 -42 -28.5 -84t-52.5 -84t-75.5 -73.5t-102.5 -51t-128 -19.5q-212 0 -331.5 144.5t-119.5 382.5q0 247 125 403t332 156q125 0 229 -73.5t144 -201.5v422h-222v29h222v244h211v-244h215zM618 49q71 0 127 27t90.5 72.5
t55 91.5t31.5 98v377q-41 132 -120.5 195t-180.5 63q-151 0 -227.5 -124t-76.5 -337q0 -137 30 -238t99 -163t172 -62z" />
    <glyph glyph-name="Emacron" unicode="&#x112;" horiz-adv-x="1075" 
d="M872 1710v-35h-581v35h581zM442 29q239 0 351.5 11.5t222.5 47.5v-88h-828v1391h779v-88q-182 59 -549 59h-8v-651q284 3 456 30v-90q-216 31 -456 31v-653h32z" />
    <glyph glyph-name="emacron" unicode="&#x113;" horiz-adv-x="1161" 
d="M928 1313v-35h-582v35h582zM1071 514h-758q1 -249 102 -378.5t285 -129.5q80 0 149.5 22t105 45t81.5 60v-33q-69 -60 -158.5 -95.5t-226.5 -35.5q-173 0 -302.5 73t-195 196.5t-65.5 279.5q0 132 48 237t127 169t174.5 97.5t197.5 33.5q197 0 321.5 -124t124.5 -317
q0 -45 -10 -100zM313 543h580q0 19 1 55.5t1 52.5q0 181 -66.5 278t-193.5 97q-313 0 -322 -483z" />
    <glyph glyph-name="Edotaccent" unicode="&#x116;" horiz-adv-x="1075" 
d="M588 1593q-55 0 -94 40.5t-39 97.5q0 54 39 93.5t94 39.5q56 0 95.5 -39t39.5 -94q0 -57 -39 -97.5t-96 -40.5zM442 29q239 0 351.5 11.5t222.5 47.5v-88h-828v1391h779v-88q-182 59 -549 59h-8v-651q284 3 456 30v-90q-216 31 -456 31v-653h32z" />
    <glyph glyph-name="edotaccent" unicode="&#x117;" horiz-adv-x="1161" 
d="M631 1212q-55 0 -94 40t-39 96t39 95.5t94 39.5q57 0 96 -39.5t39 -95.5t-39 -96t-96 -40zM1071 514h-758q1 -249 102 -378.5t285 -129.5q80 0 149.5 22t105 45t81.5 60v-33q-69 -60 -158.5 -95.5t-226.5 -35.5q-173 0 -302.5 73t-195 196.5t-65.5 279.5q0 132 48 237
t127 169t174.5 97.5t197.5 33.5q197 0 321.5 -124t124.5 -317q0 -45 -10 -100zM313 543h580q0 19 1 55.5t1 52.5q0 181 -66.5 278t-193.5 97q-313 0 -322 -483z" />
    <glyph glyph-name="Eogonek" unicode="&#x118;" horiz-adv-x="1075" 
d="M1004 -303l22 -12q-24 -60 -67.5 -89.5t-96.5 -29.5q-68 0 -108.5 38.5t-40.5 102.5q0 178 270 293h-795v1391h779v-88q-182 59 -549 59h-8v-651q284 3 456 30v-90q-216 31 -456 31v-653h32q239 0 351.5 11.5t222.5 47.5v-88q-71 -45 -123.5 -130t-52.5 -171
q0 -90 63 -90q31 0 58.5 24t42.5 64z" />
    <glyph glyph-name="eogonek" unicode="&#x119;" horiz-adv-x="1161" 
d="M1071 514h-758q1 -249 102 -378.5t285 -129.5q80 0 149.5 22t105 45t81.5 60v-33q-80 -69 -174 -100q-70 -47 -121 -130t-51 -165q0 -90 66 -90q63 0 100 86l21 -10q-24 -62 -66.5 -91.5t-95.5 -29.5q-69 0 -109.5 38t-40.5 103q0 163 217 269q-72 -11 -131 -11
q-173 0 -302.5 73t-195 196.5t-65.5 279.5q0 132 48 237t127 169t174.5 97.5t197.5 33.5q197 0 321.5 -124t124.5 -317q0 -45 -10 -100zM313 543h580q0 19 1 55.5t1 52.5q0 181 -66.5 278t-193.5 97q-313 0 -322 -483z" />
    <glyph glyph-name="Ecaron" unicode="&#x11a;" horiz-adv-x="1075" 
d="M645 1561h-127l-307 376h31l340 -256l340 256h32zM442 29q239 0 351.5 11.5t222.5 47.5v-88h-828v1391h779v-88q-182 59 -549 59h-8v-651q284 3 456 30v-90q-216 31 -456 31v-653h32z" />
    <glyph glyph-name="ecaron" unicode="&#x11b;" horiz-adv-x="1161" 
d="M698 1178h-125l-309 374h33l340 -256l338 256h33zM1071 514h-758q1 -249 102 -378.5t285 -129.5q80 0 149.5 22t105 45t81.5 60v-33q-69 -60 -158.5 -95.5t-226.5 -35.5q-173 0 -302.5 73t-195 196.5t-65.5 279.5q0 132 48 237t127 169t174.5 97.5t197.5 33.5
q197 0 321.5 -124t124.5 -317q0 -45 -10 -100zM313 543h580q0 19 1 55.5t1 52.5q0 181 -66.5 278t-193.5 97q-313 0 -322 -483z" />
    <glyph glyph-name="Gbreve" unicode="&#x11e;" horiz-adv-x="1449" 
d="M864 1583q-125 0 -197.5 89.5t-72.5 236.5h29q0 -104 70 -152.5t171 -48.5q37 0 71 6.5t65.5 21.5t54.5 37.5t37 57t14 78.5h29q0 -146 -74.5 -236t-196.5 -90zM838 -31q-168 0 -307.5 54.5t-233.5 151t-145.5 231t-51.5 292.5q0 160 54 293.5t153 228.5t246 148t326 53
q102 0 201.5 -18.5t158.5 -48.5v-111q-74 74 -153.5 112t-200.5 38q-169 0 -295 -90.5t-190 -247t-64 -357.5q0 -312 144 -504t380 -192q158 0 273 70v624h210v-579q-212 -143 -505 -148z" />
    <glyph glyph-name="gbreve" unicode="&#x11f;" horiz-adv-x="1132" 
d="M549 1186q-123 0 -196.5 89.5t-73.5 235.5h28q0 -55 21 -95t56.5 -62t76.5 -32.5t88 -10.5q64 0 116 17.5t89 64.5t37 118h28q0 -146 -74 -235.5t-196 -89.5zM774 190q318 0 318 -233q0 -146 -137 -236t-382 -90q-308 0 -473 84v103q144 -155 475 -158q187 0 296.5 62
t109.5 153q0 135 -213 135h-606l-51 180l194 207q-94 44 -147.5 122.5t-53.5 182.5q0 156 119.5 254.5t327.5 98.5q120 0 213 -35l268 100v-116l-227 -5q93 -45 143.5 -124.5t50.5 -178.5q0 -163 -115.5 -255.5t-334.5 -92.5q-115 0 -211 35l-184 -193h620zM551 1026
q-125 0 -192.5 -88t-67.5 -240q0 -149 67.5 -235t192.5 -86t192.5 86t67.5 235q0 152 -67.5 240t-192.5 88z" />
    <glyph glyph-name="Gdotaccent" unicode="&#x120;" horiz-adv-x="1449" 
d="M860 1593q-55 0 -94 40.5t-39 97.5q0 54 39 93.5t94 39.5q56 0 95.5 -39t39.5 -94q0 -57 -39 -97.5t-96 -40.5zM838 -31q-168 0 -307.5 54.5t-233.5 151t-145.5 231t-51.5 292.5q0 160 54 293.5t153 228.5t246 148t326 53q102 0 201.5 -18.5t158.5 -48.5v-111
q-74 74 -153.5 112t-200.5 38q-169 0 -295 -90.5t-190 -247t-64 -357.5q0 -312 144 -504t380 -192q158 0 273 70v624h210v-579q-212 -143 -505 -148z" />
    <glyph glyph-name="gdotaccent" unicode="&#x121;" horiz-adv-x="1132" 
d="M545 1210q-57 0 -96 40.5t-39 97.5q0 54 39 93.5t96 39.5q55 0 94 -39.5t39 -93.5q0 -57 -39 -97.5t-94 -40.5zM774 190q318 0 318 -233q0 -146 -137 -236t-382 -90q-308 0 -473 84v103q144 -155 475 -158q187 0 296.5 62t109.5 153q0 135 -213 135h-606l-51 180l194 207
q-94 44 -147.5 122.5t-53.5 182.5q0 156 119.5 254.5t327.5 98.5q120 0 213 -35l268 100v-116l-227 -5q93 -45 143.5 -124.5t50.5 -178.5q0 -163 -115.5 -255.5t-334.5 -92.5q-115 0 -211 35l-184 -193h620zM551 1026q-125 0 -192.5 -88t-67.5 -240q0 -149 67.5 -235
t192.5 -86t192.5 86t67.5 235q0 152 -67.5 240t-192.5 88z" />
    <glyph glyph-name="uni0122" unicode="&#x122;" horiz-adv-x="1449" 
d="M838 -31q-168 0 -307.5 54.5t-233.5 151t-145.5 231t-51.5 292.5q0 160 54 293.5t153 228.5t246 148t326 53q102 0 201.5 -18.5t158.5 -48.5v-111q-74 74 -153.5 112t-200.5 38q-169 0 -295 -90.5t-190 -247t-64 -357.5q0 -312 144 -504t380 -192q158 0 273 70v624h210
v-579q-212 -143 -505 -148zM762 -635q94 121 143 219q-29 -20 -74 -20q-54 0 -89 36.5t-35 90.5t36 91.5t88 37.5q57 0 94.5 -36t37.5 -93q0 -39 -9.5 -67t-48.5 -111l-67 -148h-76z" />
    <glyph glyph-name="uni0123" unicode="&#x123;" horiz-adv-x="1132" 
d="M557 1190q-57 0 -94 36t-37 93q0 40 9.5 68.5t47.5 109.5l68 145h76q-94 -117 -144 -217q30 21 76 21q52 0 87.5 -36.5t35.5 -90.5t-36.5 -91.5t-88.5 -37.5zM774 190q318 0 318 -233q0 -146 -137 -236t-382 -90q-308 0 -473 84v103q144 -155 475 -158q187 0 296.5 62
t109.5 153q0 135 -213 135h-606l-51 180l194 207q-94 44 -147.5 122.5t-53.5 182.5q0 156 119.5 254.5t327.5 98.5q120 0 213 -35l268 100v-116l-227 -5q93 -45 143.5 -124.5t50.5 -178.5q0 -163 -115.5 -255.5t-334.5 -92.5q-115 0 -211 35l-184 -193h620zM551 1026
q-125 0 -192.5 -88t-67.5 -240q0 -149 67.5 -235t192.5 -86t192.5 86t67.5 235q0 152 -67.5 240t-192.5 88z" />
    <glyph glyph-name="Hbar" unicode="&#x126;" horiz-adv-x="1560" 
d="M1499 1042v-28h-129v-1014h-219v662h-739v-662h-222v1014h-127v28h127v349h222v-349h739v349h219v-349h129zM1151 690v324h-739v-324h739z" />
    <glyph glyph-name="hbar" unicode="&#x127;" horiz-adv-x="1267" 
d="M741 1055q183 0 281 -102.5t98 -295.5v-657h-211v678q0 146 -61 220.5t-193 74.5q-112 0 -179 -66.5t-105 -191.5v-715h-211v1202h-148v29h148v244h211v-244h288v-29h-288v-424q39 127 132.5 202t237.5 75z" />
    <glyph glyph-name="Itilde" unicode="&#x128;" horiz-adv-x="598" 
d="M469 1581q-55 0 -112 25.5t-96.5 55.5t-88.5 55.5t-90 25.5q-111 0 -111 -148h-28q0 134 44.5 201.5t141.5 67.5q46 0 99 -24t93.5 -52t94 -52t100.5 -24q56 0 81.5 41t25.5 107h28q0 -142 -42.5 -210.5t-139.5 -68.5zM188 0v1391h222v-1391h-222z" />
    <glyph glyph-name="itilde" unicode="&#x129;" horiz-adv-x="532" 
d="M432 1198q-51 0 -104.5 25.5t-91 55.5t-83.5 55.5t-83 25.5q-111 0 -111 -148h-29q0 134 45 202.5t142 68.5q42 0 92 -24.5t88.5 -53.5t88.5 -53.5t93 -24.5q109 0 109 150h28q0 -143 -43 -211t-141 -68zM160 0v1024h211v-1024h-211z" />
    <glyph glyph-name="Imacron" unicode="&#x12a;" horiz-adv-x="598" 
d="M8 1679v33h582v-33h-582zM188 0v1391h222v-1391h-222z" />
    <glyph glyph-name="imacron" unicode="&#x12b;" horiz-adv-x="532" 
d="M-27 1280v35h584v-35h-584zM160 0v1024h211v-1024h-211z" />
    <glyph glyph-name="Iogonek" unicode="&#x12e;" horiz-adv-x="598" 
d="M397 -303l23 -12q-50 -119 -164 -119q-69 0 -109.5 38t-40.5 103q0 179 271 293h-189v1391h222v-1391q-71 -45 -124 -130.5t-53 -170.5q0 -43 16.5 -66.5t47.5 -23.5t58 24t42 64z" />
    <glyph glyph-name="iogonek" unicode="&#x12f;" horiz-adv-x="532" 
d="M260 1214q-56 0 -94.5 39.5t-38.5 96.5q0 56 38.5 94.5t94.5 38.5q57 0 96 -38.5t39 -94.5q0 -57 -39 -96.5t-96 -39.5zM258 -391q31 0 58 24t42 64l23 -12q-47 -119 -164 -119q-68 0 -108.5 38.5t-40.5 102.5q0 179 272 293h-180v1024h211v-1024q-71 -45 -123.5 -130
t-52.5 -171q0 -90 63 -90z" />
    <glyph glyph-name="Idotaccent" unicode="&#x130;" horiz-adv-x="598" 
d="M305 1597q-57 0 -96 39.5t-39 96.5q0 56 39 94.5t96 38.5q55 0 94 -39t39 -94q0 -57 -38.5 -96.5t-94.5 -39.5zM188 0v1391h222v-1391h-222z" />
    <glyph glyph-name="dotlessi" unicode="&#x131;" horiz-adv-x="532" 
d="M160 0v1024h211v-1024h-211z" />
    <glyph glyph-name="IJ" unicode="&#x132;" horiz-adv-x="1495" 
d="M188 0v1391h222v-1391h-222zM891 -31q-153 0 -254 45v107q53 -60 110 -91.5t142 -31.5q209 4 209 289v1104h219v-990q0 -94 -21.5 -169t-69 -135.5t-132.5 -94t-203 -33.5z" />
    <glyph glyph-name="ij" unicode="&#x133;" horiz-adv-x="1124" 
d="M266 1192q-57 0 -96 38.5t-39 94.5q0 57 39 96t96 39q56 0 94.5 -39t38.5 -96q0 -55 -38.5 -94t-94.5 -39zM860 1192q-56 0 -95.5 39t-39.5 94q0 57 39.5 96t95.5 39t95.5 -39t39.5 -96q0 -55 -39.5 -94t-95.5 -39zM160 0v1024h211v-1024h-211zM580 -369q-114 0 -209 41
v113q64 -62 111.5 -93.5t99.5 -31.5q182 4 182 289l-6 1075h207v-961q0 -75 -10.5 -136.5t-37 -118t-69 -94.5t-110.5 -60.5t-158 -22.5z" />
    <glyph glyph-name="uni0136" unicode="&#x136;" horiz-adv-x="1339" 
d="M877 717l452 -717h-229l-459 717h-231v-717h-222v1391h222v-646h223q300 311 536 646h111q-112 -133 -242.5 -270t-371.5 -380v-24h211zM715 -150q56 0 92.5 -36t36.5 -93q0 -39 -9 -66.5t-47 -111.5l-67 -145h-78q102 131 143 217q-26 -18 -73 -18q-54 0 -89.5 35
t-35.5 89q0 55 36.5 92t90.5 37z" />
    <glyph glyph-name="uni0137" unicode="&#x137;" horiz-adv-x="1122" 
d="M160 -2v1477h211v-897h145q81 71 150 141.5t121.5 133.5t76.5 95t56 76h120q-67 -57 -233 -216t-254 -237v-14h184l389 -557h-223l-381 549h-151v-551h-211zM506 -602q104 139 141 217q-23 -18 -74 -18q-54 0 -88 35t-34 89q0 56 35 92.5t89 36.5q56 0 93 -36t37 -93
q0 -39 -9 -66.5t-47 -111.5l-67 -145h-76z" />
    <glyph glyph-name="kgreenlandic" unicode="&#x138;" horiz-adv-x="1122" 
d="M160 -2v1026h211v-446h145q81 71 150 141.5t121.5 133.5t76.5 95t56 76h120q-67 -57 -233 -216t-254 -237v-14h184l389 -557h-223l-381 549h-151v-551h-211z" />
    <glyph glyph-name="Lacute" unicode="&#x139;" horiz-adv-x="989" 
d="M655 1909l-409 -348h-31l195 364h245v-16zM418 29q222 0 331 12t218 47v-88h-779v1391h222v-1362h8z" />
    <glyph glyph-name="lacute" unicode="&#x13a;" horiz-adv-x="530" 
d="M186 1614l193 364h248v-16l-412 -348h-29zM160 -2v1477h211v-1477h-211z" />
    <glyph glyph-name="uni013B" unicode="&#x13b;" horiz-adv-x="989" 
d="M418 29q222 0 331 12t218 47v-88h-779v1391h222v-1362h8zM584 -150q57 0 94 -36t37 -93q0 -39 -9.5 -67t-48.5 -111l-67 -145h-76q97 124 143 217q-26 -18 -73 -18q-54 0 -89.5 35t-35.5 89q0 55 36 92t89 37z" />
    <glyph glyph-name="uni013C" unicode="&#x13c;" horiz-adv-x="530" 
d="M160 -2v1477h211v-1477h-211zM188 -602q105 135 144 217q-26 -18 -74 -18q-54 0 -89.5 35t-35.5 89q0 55 36.5 92t90.5 37q56 0 92.5 -36t36.5 -93q0 -40 -9 -68t-46 -110l-68 -145h-78z" />
    <glyph glyph-name="Lcaron" unicode="&#x13d;" horiz-adv-x="1042" 
d="M803 1178q-49 0 -81 32t-32 82t33 84.5t82 34.5q53 0 86 -33.5t33 -85.5q0 -36 -8 -60.5t-44 -103.5l-65 -139h-64q79 104 127 207q-23 -18 -67 -18zM418 29q222 0 331 12t218 47v-88h-779v1391h222v-1362h8z" />
    <glyph glyph-name="lcaron" unicode="&#x13e;" horiz-adv-x="628" 
d="M532 1051q82 110 134 219q-27 -21 -74 -21q-52 0 -87.5 36.5t-35.5 90.5t36.5 91.5t88.5 37.5q56 0 93.5 -36.5t37.5 -94.5q0 -40 -9.5 -68.5t-47.5 -109.5l-68 -145h-68zM160 -2v1477h211v-1477h-211z" />
    <glyph glyph-name="Ldot" unicode="&#x13f;" horiz-adv-x="1038" 
d="M418 29q222 0 331 12t218 47v-88h-779v1391h222v-1362h8zM838 606q-50 0 -83.5 34t-33.5 85q0 50 34 84.5t83 34.5t81.5 -34.5t32.5 -84.5q0 -51 -32.5 -85t-81.5 -34z" />
    <glyph glyph-name="ldot" unicode="&#x140;" horiz-adv-x="739" 
d="M160 -2v1477h211v-1477h-211zM586 627q-48 0 -81.5 33t-33.5 83q0 49 34 84t81 35q49 0 82.5 -34.5t33.5 -84.5q0 -51 -33 -83.5t-83 -32.5z" />
    <glyph glyph-name="Lslash" unicode="&#x141;" horiz-adv-x="1034" 
d="M463 29q222 0 331 12t218 47v-88h-779v498l-167 -131v43l167 131v850h222v-676l235 184v-43l-235 -184v-643h8z" />
    <glyph glyph-name="lslash" unicode="&#x142;" horiz-adv-x="729" 
d="M694 1010v-37l-215 -154v-821h-211v670l-211 -152v35l211 151v773h211v-621z" />
    <glyph glyph-name="Nacute" unicode="&#x143;" horiz-adv-x="1421" 
d="M674 1530l194 364h246v-16l-409 -348h-31zM1204 -41l-968 1167h-11v-573q2 -181 31 -553h-92q29 372 31 555v877h24l971 -1162h8v568q-2 181 -31 553h93q-1 -14 -7 -82.5t-8.5 -109.5t-7 -108t-6.5 -130t-2 -123v-879h-25z" />
    <glyph glyph-name="nacute" unicode="&#x144;" horiz-adv-x="1269" 
d="M1014 1513l-410 -348h-31l195 365h246v-17zM748 1055q184 0 279 -100.5t95 -297.5v-657h-211v678q0 147 -59.5 221t-189.5 74q-210 0 -289 -258v-715h-213v1065h41l168 -289q38 127 136 203t243 76z" />
    <glyph glyph-name="uni0145" unicode="&#x145;" horiz-adv-x="1421" 
d="M1204 -41l-968 1167h-11v-573q2 -181 31 -553h-92q29 372 31 555v877h24l971 -1162h8v568q-2 181 -31 553h93q-1 -14 -7 -82.5t-8.5 -109.5t-7 -108t-6.5 -130t-2 -123v-879h-25zM618 -602q4 5 20 26.5t22 29.5t20 28t22 32t19.5 30.5t20.5 35.5t18 35q-23 -18 -74 -18
q-53 0 -88 35t-35 89q0 56 35.5 92.5t89.5 36.5q56 0 92.5 -36t36.5 -93q0 -40 -9 -68t-46 -110l-68 -145h-76z" />
    <glyph glyph-name="uni0146" unicode="&#x146;" horiz-adv-x="1269" 
d="M748 1055q184 0 279 -100.5t95 -297.5v-657h-211v678q0 147 -59.5 221t-189.5 74q-210 0 -289 -258v-715h-213v1065h41l168 -289q38 127 136 203t243 76zM627 -150q56 0 92.5 -36t36.5 -93q0 -39 -9 -66.5t-47 -111.5l-67 -145h-78q102 131 143 217q-26 -18 -73 -18
q-54 0 -89.5 35t-35.5 89q0 55 36.5 92t90.5 37z" />
    <glyph glyph-name="Ncaron" unicode="&#x147;" horiz-adv-x="1421" 
d="M676 1530l-307 377h30l340 -256l340 256h33l-309 -377h-127zM1204 -41l-968 1167h-11v-573q2 -181 31 -553h-92q29 372 31 555v877h24l971 -1162h8v568q-2 181 -31 553h93q-1 -14 -7 -82.5t-8.5 -109.5t-7 -108t-6.5 -130t-2 -123v-879h-25z" />
    <glyph glyph-name="ncaron" unicode="&#x148;" horiz-adv-x="1269" 
d="M715 1174h-127l-307 376h30l340 -256l340 256h33zM748 1055q184 0 279 -100.5t95 -297.5v-657h-211v678q0 147 -59.5 221t-189.5 74q-210 0 -289 -258v-715h-213v1065h41l168 -289q38 127 136 203t243 76z" />
    <glyph glyph-name="napostrophe" unicode="&#x149;" horiz-adv-x="1337" 
d="M14 1546q56 0 93.5 -36.5t37.5 -94.5q0 -27 -6 -50.5t-13.5 -42t-37.5 -85.5l-68 -145h-67q85 119 135 219q-35 -21 -76 -21q-52 0 -87.5 36.5t-35.5 90.5t36.5 91.5t88.5 37.5zM813 1055q184 0 279.5 -100.5t95.5 -297.5v-657h-211v678q0 147 -59.5 221t-190.5 74
q-207 0 -289 -258v-715h-211v1065h39l168 -291q38 128 136 204.5t243 76.5z" />
    <glyph glyph-name="Eng" unicode="&#x14a;" horiz-adv-x="1421" 
d="M1167 1391h93q-1 -14 -7 -82.5t-8.5 -109.5t-7 -108t-6.5 -130t-2 -123v-879q0 -158 -54 -243t-190 -85q-125 0 -248 58v104q60 -65 117.5 -99t130.5 -34q108 0 160.5 72t52.5 227v8l-962 1159h-11v-573q2 -181 31 -553h-92q29 372 31 555v877h24l971 -1162h8v568
q-2 181 -31 553z" />
    <glyph glyph-name="eng" unicode="&#x14b;" horiz-adv-x="1269" 
d="M748 1055q184 0 279 -100.5t95 -297.5v-657q0 -170 -100.5 -269.5t-292.5 -99.5q-66 0 -109.5 9t-95.5 32v33q75 -41 160 -41q53 0 92 15.5t70.5 52t48 104t16.5 164.5v678q0 147 -59.5 221t-189.5 74q-210 0 -289 -258v-715h-213v1065h41l168 -289q38 127 136 203
t243 76z" />
    <glyph glyph-name="Omacron" unicode="&#x14c;" horiz-adv-x="1632" 
d="M524 1675v35h582v-35h-582zM813 -31q-207 0 -369.5 91.5t-253 257t-90.5 376.5q0 210 90 375.5t253 258.5t370 93q155 0 288.5 -54.5t228 -150t148.5 -230.5t54 -292q0 -210 -91 -375.5t-255 -257.5t-373 -92zM813 -2q232 0 354.5 183t122.5 513t-123 514.5t-354 184.5
q-233 0 -355 -185.5t-122 -513.5q0 -330 122 -513t355 -183z" />
    <glyph glyph-name="omacron" unicode="&#x14d;" horiz-adv-x="1302" 
d="M358 1276v35h582v-35h-582zM649 -31q-167 0 -296 71.5t-197 194.5t-68 277t68 277t197 194.5t296 71.5q255 0 410 -153.5t155 -389.5q0 -149 -68 -272t-198.5 -197t-298.5 -74zM649 -2q164 0 252 130.5t88 383.5q0 255 -87.5 384.5t-252.5 129.5q-163 0 -249.5 -129.5
t-86.5 -384.5q0 -253 86.5 -383.5t249.5 -130.5z" />
    <glyph glyph-name="Ohungarumlaut" unicode="&#x150;" horiz-adv-x="1632" 
d="M575 1530l142 381h221v-17l-332 -364h-31zM952 1530l142 381h221v-17l-332 -364h-31zM813 -31q-207 0 -369.5 91.5t-253 257t-90.5 376.5q0 210 90 375.5t253 258.5t370 93q155 0 288.5 -54.5t228 -150t148.5 -230.5t54 -292q0 -210 -91 -375.5t-255 -257.5t-373 -92z
M813 -2q232 0 354.5 183t122.5 513t-123 514.5t-354 184.5q-233 0 -355 -185.5t-122 -513.5q0 -330 122 -513t355 -183z" />
    <glyph glyph-name="ohungarumlaut" unicode="&#x151;" horiz-adv-x="1302" 
d="M393 1161l139 381h224v-16l-334 -365h-29zM768 1161l141 381h221v-16l-331 -365h-31zM649 -31q-167 0 -296 71.5t-197 194.5t-68 277t68 277t197 194.5t296 71.5q255 0 410 -153.5t155 -389.5q0 -149 -68 -272t-198.5 -197t-298.5 -74zM649 -2q164 0 252 130.5t88 383.5
q0 255 -87.5 384.5t-252.5 129.5q-163 0 -249.5 -129.5t-86.5 -384.5q0 -253 86.5 -383.5t249.5 -130.5z" />
    <glyph glyph-name="OE" unicode="&#x152;" horiz-adv-x="2201" 
d="M1569 29q238 0 351 12t222 47v-88h-827v156q-200 -187 -502 -187q-207 0 -369.5 91.5t-253 257t-90.5 376.5q0 210 90 375.5t253 258.5t370 93q303 0 502 -190v160h778v-88q-182 59 -549 59h-8v-651q282 3 457 30v-90q-218 31 -457 31v-653h33zM813 -2q232 0 354.5 183
t122.5 513t-123 514.5t-354 184.5q-233 0 -355 -185.5t-122 -513.5q0 -330 122 -513t355 -183z" />
    <glyph glyph-name="oe" unicode="&#x153;" horiz-adv-x="2062" 
d="M1972 514h-758q1 -249 102.5 -378.5t285.5 -129.5q80 0 149.5 22t104.5 45t81 60v-33q-69 -60 -158.5 -95.5t-226.5 -35.5q-150 0 -264.5 53.5t-187.5 149.5q-76 -95 -191.5 -149t-259.5 -54q-167 0 -296 71.5t-197 194.5t-68 277t68 277t197 194.5t296 71.5
q145 0 260.5 -52t190.5 -145q77 96 193.5 146.5t242.5 50.5q197 0 321.5 -124t124.5 -317q0 -45 -10 -100zM649 -2q164 0 252 130.5t88 383.5q0 255 -87.5 384.5t-252.5 129.5q-163 0 -249.5 -129.5t-86.5 -384.5q0 -253 86.5 -383.5t249.5 -130.5zM1214 543h578
q0 19 1 55.5t1 52.5q0 181 -65.5 278t-192.5 97q-313 0 -322 -483z" />
    <glyph glyph-name="Racute" unicode="&#x154;" horiz-adv-x="1323" 
d="M1022 1880l-410 -348h-30l194 364h246v-16zM1253 0h-233l-361 682h-28h-221v-682h-222v1391h512q256 0 369 -83t113 -259q0 -167 -129 -259t-363 -106l15 -27h213zM629 711q178 0 256 86t78 247q0 152 -70.5 235.5t-241.5 82.5h-241v-651h219z" />
    <glyph glyph-name="racute" unicode="&#x155;" horiz-adv-x="720" 
d="M500 1501h245v-16l-409 -350h-29zM369 831q26 97 116.5 161.5t196.5 64.5v-101q-37 0 -64.5 -2t-63 -7.5t-61.5 -17.5t-52 -31t-43.5 -49.5t-26.5 -70.5v-778h-211v1065h41z" />
    <glyph glyph-name="uni0156" unicode="&#x156;" horiz-adv-x="1323" 
d="M918 657l335 -657h-233l-361 682h-28h-221v-682h-222v1391h512q256 0 369 -83t113 -259q0 -167 -129 -259t-363 -106l15 -27h213zM629 711q178 0 256 86t78 247q0 152 -70.5 235.5t-241.5 82.5h-241v-651h219zM678 -150q56 0 92.5 -36t36.5 -93q0 -40 -9 -68t-46 -110
l-68 -145h-78q105 135 144 217q-26 -18 -74 -18q-54 0 -89.5 35t-35.5 89q0 55 36.5 92t90.5 37z" />
    <glyph glyph-name="uni0157" unicode="&#x157;" horiz-adv-x="720" 
d="M369 831q26 97 116.5 161.5t196.5 64.5v-101q-37 0 -64.5 -2t-63 -7.5t-61.5 -17.5t-52 -31t-43.5 -49.5t-26.5 -70.5v-778h-211v1065h41zM262 -150q56 0 92.5 -36t36.5 -93q0 -40 -9 -68t-46 -110l-68 -145h-75q104 139 141 217q-23 -18 -74 -18q-54 0 -88.5 35
t-34.5 89q0 56 35.5 92.5t89.5 36.5z" />
    <glyph glyph-name="Rcaron" unicode="&#x158;" horiz-adv-x="1323" 
d="M711 1534h-127l-308 377h31l340 -258l340 258h33zM1253 0h-233l-361 682h-28h-221v-682h-222v1391h512q256 0 369 -83t113 -259q0 -167 -129 -259t-363 -106l15 -27h213zM629 711q178 0 256 86t78 247q0 152 -70.5 235.5t-241.5 82.5h-241v-651h219z" />
    <glyph glyph-name="rcaron" unicode="&#x159;" horiz-adv-x="720" 
d="M465 1145h-127l-307 377h30l340 -258l340 258h33zM369 831q26 97 116.5 161.5t196.5 64.5v-101q-37 0 -64.5 -2t-63 -7.5t-61.5 -17.5t-52 -31t-43.5 -49.5t-26.5 -70.5v-778h-211v1065h41z" />
    <glyph glyph-name="Sacute" unicode="&#x15a;" horiz-adv-x="1085" 
d="M492 1561l194 364h246v-16l-410 -348h-30zM500 -31q-112 0 -221 25.5t-177 56.5v111q157 -164 400 -164q165 0 262.5 72t97.5 192q0 34 -5.5 63t-19.5 54.5t-27 45t-39.5 40t-44 33.5t-54 32t-57 28.5t-63.5 29.5q-9 4 -13 6l-111 49q-82 39 -135 73t-99.5 81t-68 108.5
t-21.5 141.5q0 123 64 209t167.5 125.5t237.5 39.5q89 0 179 -20.5t151 -50.5v-111q-72 74 -149.5 114t-182.5 40q-137 0 -227 -61t-90 -185q0 -57 16 -99.5t55 -77.5t82 -60t117 -60l111 -51q68 -32 107.5 -52.5t90 -51t78.5 -59t55 -67t38.5 -85t11.5 -103.5
q0 -134 -70 -228.5t-184.5 -139t-261.5 -44.5z" />
    <glyph glyph-name="sacute" unicode="&#x15b;" horiz-adv-x="952" 
d="M397 1165l195 365h246v-17l-410 -348h-31zM473 -31q-208 0 -377 84v113q177 -168 365 -168q112 0 183 49.5t71 136.5q0 42 -16 77.5t-42.5 60t-61.5 44.5t-72 35t-74 29q-5 1 -8 2.5t-7.5 3l-7.5 2.5q-44 16 -68 25.5t-64.5 28t-63 34.5t-51.5 41t-44 52t-26 64t-11 79
q0 132 102 212.5t275 80.5q82 0 173.5 -21.5t154.5 -50.5v-113q-147 154 -324 154q-98 0 -152.5 -46t-54.5 -132q0 -49 18.5 -86t61.5 -65t71.5 -41.5t89.5 -37.5q3 -1 5 -2t5 -2t5 -2q11 -4 48.5 -19.5t51 -21t47.5 -21t48 -24.5t41.5 -26.5t40 -32t30.5 -36t25.5 -43
t14 -49.5t6.5 -58q0 -137 -109.5 -223.5t-298.5 -86.5z" />
    <glyph glyph-name="Scedilla" unicode="&#x15e;" horiz-adv-x="1085" 
d="M1016 381q0 -94 -34.5 -169.5t-96.5 -125.5t-144 -79t-180 -36l-57 -96q125 -19 187.5 -58.5t62.5 -121.5q0 -73 -61.5 -121.5t-170.5 -48.5q-111 0 -192 61v76q49 -57 90 -84t96 -27q56 0 85.5 34t29.5 89q0 75 -47 113t-127 59l73 123h-30q-112 0 -221 25.5t-177 56.5
v111q157 -164 400 -164q165 0 262.5 72t97.5 192q0 34 -5.5 63t-19.5 54.5t-27 45t-39.5 40t-44 33.5t-54 32t-57 28.5t-63.5 29.5q-9 4 -13 6l-111 49q-82 39 -135 73t-99.5 81t-68 108.5t-21.5 141.5q0 123 64 209t167.5 125.5t237.5 39.5q89 0 179 -20.5t151 -50.5v-111
q-72 74 -149.5 114t-182.5 40q-137 0 -227 -61t-90 -185q0 -57 16 -99.5t55 -77.5t82 -60t117 -60l111 -51q68 -32 107.5 -52.5t90 -51t78.5 -59t55 -67t38.5 -85t11.5 -103.5z" />
    <glyph glyph-name="scedilla" unicode="&#x15f;" horiz-adv-x="952" 
d="M881 279q0 -132 -102 -218t-281 -92l-56 -94q125 -19 188.5 -58.5t63.5 -121.5q0 -74 -61.5 -122t-171.5 -48q-109 0 -193 61v76q51 -58 91.5 -84.5t95.5 -26.5q57 0 85.5 33.5t28.5 89.5q0 75 -47 113t-127 59l76 123q-206 0 -375 84v113q177 -168 365 -168
q112 0 183 49.5t71 136.5q0 42 -16 77.5t-42.5 60t-61.5 44.5t-72 35t-74 29q-5 1 -8 2.5t-7.5 3l-7.5 2.5q-44 16 -68 25.5t-64.5 28t-63 34.5t-51.5 41t-44 52t-26 64t-11 79q0 132 102 212.5t275 80.5q82 0 173.5 -21.5t154.5 -50.5v-113q-147 154 -324 154
q-98 0 -152.5 -46t-54.5 -132q0 -49 18.5 -86t61.5 -65t71.5 -41.5t89.5 -37.5q3 -1 5 -2t5 -2t5 -2q11 -4 48.5 -19.5t51 -21t47.5 -21t48 -24.5t41.5 -26.5t40 -32t30.5 -36t25.5 -43t14 -49.5t6.5 -58z" />
    <glyph glyph-name="Scaron" unicode="&#x160;" horiz-adv-x="1085" 
d="M494 1561l-310 376h33l340 -256l338 256h33l-310 -376h-124zM500 -31q-112 0 -221 25.5t-177 56.5v111q157 -164 400 -164q165 0 262.5 72t97.5 192q0 34 -5.5 63t-19.5 54.5t-27 45t-39.5 40t-44 33.5t-54 32t-57 28.5t-63.5 29.5q-9 4 -13 6l-111 49q-82 39 -135 73
t-99.5 81t-68 108.5t-21.5 141.5q0 123 64 209t167.5 125.5t237.5 39.5q89 0 179 -20.5t151 -50.5v-111q-72 74 -149.5 114t-182.5 40q-137 0 -227 -61t-90 -185q0 -57 16 -99.5t55 -77.5t82 -60t117 -60l111 -51q68 -32 107.5 -52.5t90 -51t78.5 -59t55 -67t38.5 -85
t11.5 -103.5q0 -134 -70 -228.5t-184.5 -139t-261.5 -44.5z" />
    <glyph glyph-name="scaron" unicode="&#x161;" horiz-adv-x="952" 
d="M436 1174l-307 376h31l340 -256l340 256h32l-309 -376h-127zM473 -31q-208 0 -377 84v113q177 -168 365 -168q112 0 183 49.5t71 136.5q0 42 -16 77.5t-42.5 60t-61.5 44.5t-72 35t-74 29q-5 1 -8 2.5t-7.5 3l-7.5 2.5q-44 16 -68 25.5t-64.5 28t-63 34.5t-51.5 41
t-44 52t-26 64t-11 79q0 132 102 212.5t275 80.5q82 0 173.5 -21.5t154.5 -50.5v-113q-147 154 -324 154q-98 0 -152.5 -46t-54.5 -132q0 -49 18.5 -86t61.5 -65t71.5 -41.5t89.5 -37.5q3 -1 5 -2t5 -2t5 -2q11 -4 48.5 -19.5t51 -21t47.5 -21t48 -24.5t41.5 -26.5t40 -32
t30.5 -36t25.5 -43t14 -49.5t6.5 -58q0 -137 -109.5 -223.5t-298.5 -86.5z" />
    <glyph glyph-name="uni0162" unicode="&#x162;" horiz-adv-x="1165" 
d="M20 1391h1123v-88q-160 48 -449 57v-1360h-94l-55 -94q125 -19 187.5 -58.5t62.5 -121.5q0 -74 -61 -122t-171 -48q-111 0 -192 61v76q52 -58 91.5 -84.5t94.5 -26.5q57 0 86 34t29 89q0 75 -47 113t-127 59l73 123h-98v1360q-290 -9 -453 -57v88z" />
    <glyph glyph-name="uni0163" unicode="&#x163;" horiz-adv-x="688" 
d="M449 0h-93l-53 -90q61 -10 103.5 -22.5t78 -32.5t53 -51t17.5 -74q0 -74 -61 -122t-170 -48q-110 0 -193 59v78q50 -57 89.5 -84t94.5 -27q57 0 86 34t29 89q0 40 -14 70t-40 49.5t-53.5 31t-64.5 21.5l72 119h-90v995h-217v29h217l168 270h41v-270h217v-29h-217v-995z
" />
    <glyph glyph-name="Tcaron" unicode="&#x164;" horiz-adv-x="1165" 
d="M631 1561h-127l-307 376h30l340 -256l340 256h33zM20 1391h1123v-88q-160 48 -449 57v-1360h-221v1360q-290 -9 -453 -57v88z" />
    <glyph glyph-name="tcaron" unicode="&#x165;" horiz-adv-x="688" 
d="M606 1141q82 110 133 217q-24 -19 -73 -19q-53 0 -88 35.5t-35 89.5q0 55 36 92t89 37q56 0 93.5 -36.5t37.5 -92.5q0 -36 -7.5 -59.5t-39.5 -93.5q-7 -16 -11 -25l-67 -145h-68zM240 0v995h-217v29h217l168 270h41v-270h217v-29h-217v-995h-209z" />
    <glyph glyph-name="Tbar" unicode="&#x166;" horiz-adv-x="1193" 
d="M35 1391h1122v-88q-163 48 -450 57v-608h272v-29h-272v-723h-220v723h-262v29h262v608q-289 -9 -452 -57v88z" />
    <glyph glyph-name="tbar" unicode="&#x167;" horiz-adv-x="753" 
d="M700 995h-217v-389h217v-28h-217v-578h-209v578h-221v28h221v389h-217v29h217l168 270h41v-270h217v-29z" />
    <glyph glyph-name="Utilde" unicode="&#x168;" horiz-adv-x="1431" 
d="M903 1548q-55 0 -112 25.5t-96.5 55.5t-88.5 55.5t-90 25.5q-108 0 -108 -147h-29q0 134 44 201t140 67q47 0 100 -23.5t93.5 -52.5t93.5 -52.5t100 -23.5q56 0 82.5 41t26.5 107h28q0 -141 -43 -210t-141 -69zM731 -31q-288 0 -423.5 154t-135.5 432v836h221v-895
q0 -244 91 -363t309 -119q208 0 318 144.5t110 431.5v248q-1 94 -6.5 195.5t-14 217.5t-10.5 140h92q-1 -14 -7 -82.5t-8.5 -109.5t-7 -108t-6.5 -130t-2 -123v-248q0 -310 -125.5 -465.5t-394.5 -155.5z" />
    <glyph glyph-name="utilde" unicode="&#x169;" horiz-adv-x="1269" 
d="M424 1356q-111 0 -111 -146h-28q0 134 44.5 201.5t141.5 67.5q38 0 79 -15.5t77.5 -38t72.5 -45t77.5 -38t80.5 -15.5q56 0 82.5 41t26.5 107h28q0 -143 -43 -211t-141 -68q-55 0 -112 25t-96.5 55t-88.5 55t-90 25zM897 1024h211v-1065h-39l-168 299
q-21 -124 -117 -206.5t-243 -82.5q-394 0 -394 426v629h211v-647q0 -174 56.5 -253t203.5 -79q222 0 279 281v698z" />
    <glyph glyph-name="Umacron" unicode="&#x16a;" horiz-adv-x="1431" 
d="M442 1647v32h582v-32h-582zM731 -31q-288 0 -423.5 154t-135.5 432v836h221v-895q0 -244 91 -363t309 -119q208 0 318 144.5t110 431.5v248q-1 94 -6.5 195.5t-14 217.5t-10.5 140h92q-1 -14 -7 -82.5t-8.5 -109.5t-7 -108t-6.5 -130t-2 -123v-248q0 -310 -125.5 -465.5
t-394.5 -155.5z" />
    <glyph glyph-name="umacron" unicode="&#x16b;" horiz-adv-x="1269" 
d="M922 1311v-35h-582v35h582zM897 1024h211v-1065h-39l-168 299q-21 -124 -117 -206.5t-243 -82.5q-394 0 -394 426v629h211v-647q0 -174 56.5 -253t203.5 -79q222 0 279 281v698z" />
    <glyph glyph-name="Uring" unicode="&#x16e;" horiz-adv-x="1431" 
d="M743 1511q-87 0 -144.5 58.5t-57.5 144.5q0 84 57.5 142.5t144.5 58.5q86 0 143.5 -58.5t57.5 -142.5q0 -85 -57.5 -144t-143.5 -59zM743 1544q71 0 117.5 48.5t46.5 121.5q0 71 -46.5 119.5t-117.5 48.5q-73 0 -119 -47.5t-46 -120.5t46 -121.5t119 -48.5zM731 -31
q-288 0 -423.5 154t-135.5 432v836h221v-895q0 -244 91 -363t309 -119q208 0 318 144.5t110 431.5v248q-1 94 -6.5 195.5t-14 217.5t-10.5 140h92q-1 -14 -7 -82.5t-8.5 -109.5t-7 -108t-6.5 -130t-2 -123v-248q0 -310 -125.5 -465.5t-394.5 -155.5z" />
    <glyph glyph-name="uring" unicode="&#x16f;" horiz-adv-x="1269" 
d="M633 1149q-87 0 -145 59t-58 144q0 84 58 142t145 58q86 0 143.5 -58t57.5 -142q0 -85 -57.5 -144t-143.5 -59zM633 1520q-73 0 -119.5 -47.5t-46.5 -120.5t46.5 -121.5t119.5 -48.5q71 0 117.5 48.5t46.5 121.5q0 71 -46.5 119.5t-117.5 48.5zM897 1024h211v-1065h-39
l-168 299q-21 -124 -117 -206.5t-243 -82.5q-394 0 -394 426v629h211v-647q0 -174 56.5 -253t203.5 -79q222 0 279 281v698z" />
    <glyph glyph-name="Uhungarumlaut" unicode="&#x170;" horiz-adv-x="1431" 
d="M498 1499l141 381h221v-16l-332 -365h-30zM874 1499l142 381h221v-16l-334 -365h-29zM731 -31q-288 0 -423.5 154t-135.5 432v836h221v-895q0 -244 91 -363t309 -119q208 0 318 144.5t110 431.5v248q-1 94 -6.5 195.5t-14 217.5t-10.5 140h92q-1 -14 -7 -82.5
t-8.5 -109.5t-7 -108t-6.5 -130t-2 -123v-248q0 -310 -125.5 -465.5t-394.5 -155.5z" />
    <glyph glyph-name="uhungarumlaut" unicode="&#x171;" horiz-adv-x="1269" 
d="M737 1526l-334 -365h-28l141 381h221v-16zM891 1542h223v-16l-334 -365h-28zM897 326v698h211v-1065h-39l-168 299q-21 -124 -117 -206.5t-243 -82.5q-394 0 -394 426v629h211v-647q0 -174 56.5 -253t203.5 -79q222 0 279 281z" />
    <glyph glyph-name="Uogonek" unicode="&#x172;" horiz-adv-x="1431" 
d="M1190 1391h92q-1 -14 -7 -82.5t-8.5 -109.5t-7 -108t-6.5 -130t-2 -123v-248q0 -255 -84.5 -405t-261.5 -195q-68 -50 -116 -131t-48 -162q0 -90 64 -90q63 0 100 88l21 -12q-22 -60 -66 -90.5t-96 -30.5q-69 0 -109.5 38t-40.5 103q0 163 224 272q-50 -6 -107 -6
q-288 0 -423.5 154t-135.5 432v836h221v-895q0 -244 91 -363t309 -119q208 0 318 144.5t110 431.5v248q-1 94 -6.5 195.5t-14 217.5t-10.5 140z" />
    <glyph glyph-name="uogonek" unicode="&#x173;" horiz-adv-x="1269" 
d="M1094 -344l22 -12q-50 -119 -164 -119q-69 0 -109 38t-40 103q0 179 270 293h-4l-168 299q-21 -124 -117 -206.5t-243 -82.5q-394 0 -394 426v629h211v-647q0 -174 56.5 -253t203.5 -79q222 0 279 281v-2l2 700h209v-1065h-2q-72 -45 -125 -130.5t-53 -170.5
q0 -43 17 -66.5t48 -23.5t58.5 24t42.5 64z" />
    <glyph glyph-name="Wcircumflex" unicode="&#x174;" horiz-adv-x="2023" 
d="M1071 1755l-340 -256h-31l308 377h127l307 -377h-31zM1892 1391h103q-53 -141 -184.5 -511t-227.5 -626l-106 -295h-25l-436 1182l-424 -1182h-25l-551 1432h222l430 -1117h8l407 1158h25l432 -1180h10q162 455 244 741t98 398z" />
    <glyph glyph-name="wcircumflex" unicode="&#x175;" horiz-adv-x="1622" 
d="M874 1407l-339 -256h-31l307 375h127l307 -375h-31zM1511 1024h82q-46 -108 -133.5 -340.5t-189.5 -470.5l-115 -254h-25l-315 838l-330 -838h-24l-430 1065h223l303 -788h8l326 829h24l316 -850h8q180 460 272 809z" />
    <glyph glyph-name="Ycircumflex" unicode="&#x176;" horiz-adv-x="1204" 
d="M262 1499l309 377h125l310 -377h-33l-338 256l-340 -256h-33zM483 0v623l-426 768h234l383 -703h8q309 490 389 703h103q-29 -45 -119 -181t-183 -278t-170 -262v-670h-219z" />
    <glyph glyph-name="ycircumflex" unicode="&#x177;" horiz-adv-x="1026" 
d="M559 1407l-338 -256h-33l310 375h125l309 -375h-33zM915 1024h84l-358 -778l-119 -246l-170 -369l-86 56l232 313l-467 1024h221l350 -778h8q213 485 305 778z" />
    <glyph glyph-name="Ydieresis" unicode="&#x178;" horiz-adv-x="1204" 
d="M426 1567q-54 0 -90.5 36.5t-36.5 92.5q0 54 36.5 92.5t90.5 38.5t91.5 -38.5t37.5 -92.5q0 -56 -37 -92.5t-92 -36.5zM852 1567q-54 0 -90.5 36.5t-36.5 92.5q0 54 36.5 92.5t90.5 38.5t91.5 -38.5t37.5 -92.5q0 -56 -37 -92.5t-92 -36.5zM483 0v623l-426 768h234
l383 -703h8q309 490 389 703h103q-29 -45 -119 -181t-183 -278t-170 -262v-670h-219z" />
    <glyph glyph-name="Zacute" unicode="&#x179;" horiz-adv-x="1138" 
d="M940 1911l-410 -348h-28l192 364h246v-16zM489 29q416 0 598 59v-88h-1028v29l770 1333h-167q-416 0 -596 -59v88h1011v-29l-770 -1333h182z" />
    <glyph glyph-name="zacute" unicode="&#x17a;" horiz-adv-x="919" 
d="M817 1516l-409 -349h-31l194 365h246v-16zM436 29q257 0 441 59v-88h-830v29l571 968h-126l30 -2q-256 0 -440 -59v88h770v-29l-571 -966h155z" />
    <glyph glyph-name="Zdotaccent" unicode="&#x17b;" horiz-adv-x="1138" 
d="M588 1595q-56 0 -95.5 40.5t-39.5 97.5q0 54 40 93.5t95 39.5t94 -39.5t39 -93.5q0 -57 -39 -97.5t-94 -40.5zM489 29q416 0 598 59v-88h-1028v29l770 1333h-167q-416 0 -596 -59v88h1011v-29l-770 -1333h182z" />
    <glyph glyph-name="zdotaccent" unicode="&#x17c;" horiz-adv-x="919" 
d="M483 1212q-57 0 -96 39.5t-39 96.5q0 56 39 94.5t96 38.5q55 0 94 -38.5t39 -94.5q0 -57 -38.5 -96.5t-94.5 -39.5zM436 29q257 0 441 59v-88h-830v29l571 968h-126l30 -2q-256 0 -440 -59v88h770v-29l-571 -966h155z" />
    <glyph glyph-name="Zcaron" unicode="&#x17d;" horiz-adv-x="1138" 
d="M641 1563h-127l-307 376h31l340 -256l340 256h32zM489 29q416 0 598 59v-88h-1028v29l770 1333h-167q-416 0 -596 -59v88h1011v-29l-770 -1333h182z" />
    <glyph glyph-name="zcaron" unicode="&#x17e;" horiz-adv-x="919" 
d="M537 1176h-125l-310 376h33l340 -256l338 256h33zM436 29q257 0 441 59v-88h-830v29l571 968h-126l30 -2q-256 0 -440 -59v88h770v-29l-571 -966h155z" />
    <glyph glyph-name="uni01EA" unicode="&#x1ea;" horiz-adv-x="1632" 
d="M930 -23q-70 -47 -120 -129t-50 -165q0 -91 63 -91q66 0 103 86l20 -10q-24 -62 -67 -91.5t-97 -29.5q-68 0 -108.5 39t-40.5 103q0 173 250 282q-23 -2 -70 -2q-207 0 -369.5 91.5t-253 257t-90.5 376.5q0 210 90 375.5t253 258.5t370 93q155 0 288.5 -54.5t228 -150
t148.5 -230.5t54 -292q0 -287 -166 -483.5t-436 -233.5zM336 694q0 -330 122 -513t355 -183q232 0 354.5 183t122.5 513t-123 514.5t-354 184.5q-233 0 -355 -185.5t-122 -513.5z" />
    <glyph glyph-name="uni01EB" unicode="&#x1eb;" horiz-adv-x="1302" 
d="M788 -16q-68 -50 -115.5 -130t-47.5 -161q0 -90 65 -90q64 0 101 88l20 -13q-24 -60 -67 -90t-95 -30q-68 0 -108.5 38.5t-40.5 102.5q0 164 225 274q-50 -4 -76 -4q-167 0 -296 71.5t-197 194.5t-68 277t68 277t197 194.5t296 71.5q255 0 410 -153.5t155 -389.5
q0 -195 -115.5 -341t-310.5 -187zM313 512q0 -253 86.5 -383.5t249.5 -130.5q164 0 252 130.5t88 383.5q0 255 -87.5 384.5t-252.5 129.5q-163 0 -249.5 -129.5t-86.5 -384.5z" />
    <glyph glyph-name="AEacute" unicode="&#x1fc;" horiz-adv-x="1671" 
d="M1413 1878l-409 -348h-31l194 364h246v-16zM1038 29q239 0 351.5 11.5t222.5 47.5v-88h-826v395h-510q-126 -247 -184 -395h-112q351 578 806 1391h777v-88q-180 59 -549 59h-6v-651q282 3 454 30v-90q-216 31 -454 31v-653h30zM293 424h493v903q-54 -98 -161 -290.5
t-187.5 -340.5t-144.5 -272z" />
    <glyph glyph-name="aeacute" unicode="&#x1fd;" horiz-adv-x="1830" 
d="M1311 1516l-412 -351h-29l195 367h246v-16zM1739 514h-756q1 -250 101.5 -379t285.5 -129q79 0 148 22t104.5 45t81.5 60v-33q-69 -60 -158 -95.5t-227 -35.5q-266 0 -422 166q-86 80 -115 184q-42 -156 -155 -255t-258 -99q-136 0 -218.5 67.5t-82.5 188.5q0 69 26 125
t74.5 95t111 67.5t142.5 45t162 24t176 8.5l-2 147q0 68 -10 118.5t-35 92t-72.5 63t-116.5 21.5q-185 0 -364 -170v103q216 96 397 96q268 0 354 -152q78 73 181.5 111.5t210.5 38.5q197 0 321.5 -124t124.5 -317q0 -45 -10 -100zM983 543h578q0 19 1 55.5t1 52.5
q0 181 -66.5 278t-193.5 97q-311 0 -320 -483zM451 53q103 0 189.5 82t129.5 230q-10 52 -10 98q-2 18 -2 55q0 27 2 41q-76 -5 -139.5 -14t-132.5 -30t-116 -51.5t-77.5 -80.5t-30.5 -115q0 -112 52 -163.5t135 -51.5z" />
    <glyph glyph-name="Oslashacute" unicode="&#x1fe;" horiz-adv-x="1650" 
d="M1178 1909l-410 -348h-31l195 364h246v-16zM1552 1389l-194 -195q182 -201 182 -500q0 -211 -91.5 -376t-256 -257t-373.5 -92q-149 0 -277 49.5t-223 141.5l-161 -162h-45l184 184q-188 201 -188 512q0 210 89.5 375.5t252 258.5t368.5 93q155 0 287 -52.5t229 -149.5
l172 170h45zM344 694q0 -239 64 -401l819 815q-58 138 -161 211.5t-247 73.5q-232 0 -353.5 -185.5t-121.5 -513.5zM1296 694q0 228 -57 383l-817 -817q119 -262 397 -262q233 0 355 183t122 513z" />
    <glyph glyph-name="oslashacute" unicode="&#x1ff;" horiz-adv-x="1314" 
d="M1020 1513l-410 -348h-28l192 365h246v-17zM1069 899q154 -151 154 -387q0 -111 -40.5 -210t-113 -173t-179.5 -117t-233 -43q-233 0 -385 133l-102 -104h-43l125 125q-156 150 -156 389q0 154 68 277t197 194.5t296 71.5q235 0 390 -133l100 100h43zM322 512
q0 -174 38 -281l588 592q-83 203 -291 203q-163 0 -249 -129.5t-86 -384.5zM657 -2q164 0 252 130.5t88 383.5q0 172 -36 279l-590 -590q83 -203 286 -203z" />
    <glyph glyph-name="uni0218" unicode="&#x218;" horiz-adv-x="1085" 
d="M500 -31q-112 0 -221 25.5t-177 56.5v111q157 -164 400 -164q165 0 262.5 72t97.5 192q0 34 -5.5 63t-19.5 54.5t-27 45t-39.5 40t-44 33.5t-54 32t-57 28.5t-63.5 29.5q-9 4 -13 6l-111 49q-82 39 -135 73t-99.5 81t-68 108.5t-21.5 141.5q0 123 64 209t167.5 125.5
t237.5 39.5q89 0 179 -20.5t151 -50.5v-111q-72 74 -149.5 114t-182.5 40q-137 0 -227 -61t-90 -185q0 -57 16 -99.5t55 -77.5t82 -60t117 -60l111 -51q68 -32 107.5 -52.5t90 -51t78.5 -59t55 -67t38.5 -85t11.5 -103.5q0 -134 -70 -228.5t-184.5 -139t-261.5 -44.5z
M463 -633q94 121 143 219q-29 -20 -76 -20q-52 0 -87 36.5t-35 90.5t36 91.5t88 37.5q57 0 94.5 -36t37.5 -93q0 -39 -9.5 -67t-48.5 -111l-67 -148h-76z" />
    <glyph glyph-name="uni0219" unicode="&#x219;" horiz-adv-x="952" 
d="M473 -31q-208 0 -377 84v113q177 -168 365 -168q112 0 183 49.5t71 136.5q0 42 -16 77.5t-42.5 60t-61.5 44.5t-72 35t-74 29q-5 1 -8 2.5t-7.5 3l-7.5 2.5q-44 16 -68 25.5t-64.5 28t-63 34.5t-51.5 41t-44 52t-26 64t-11 79q0 132 102 212.5t275 80.5q82 0 173.5 -21.5
t154.5 -50.5v-113q-147 154 -324 154q-98 0 -152.5 -46t-54.5 -132q0 -49 18.5 -86t61.5 -65t71.5 -41.5t89.5 -37.5q3 -1 5 -2t5 -2t5 -2q11 -4 48.5 -19.5t51 -21t47.5 -21t48 -24.5t41.5 -26.5t40 -32t30.5 -36t25.5 -43t14 -49.5t6.5 -58q0 -137 -109.5 -223.5
t-298.5 -86.5zM403 -633q99 128 144 217q-26 -18 -76 -18q-53 0 -88 35.5t-35 89.5q0 55 36 92t89 37q56 0 93.5 -36.5t37.5 -92.5q0 -40 -9.5 -68.5t-47.5 -109.5l-68 -146h-76z" />
    <glyph glyph-name="uni021A" unicode="&#x21a;" horiz-adv-x="1165" 
d="M20 1391h1123v-88q-160 48 -449 57v-1360h-221v1360q-290 -9 -453 -57v88zM575 -150q56 0 93 -36t37 -93q0 -39 -9 -66.5t-47 -111.5l-67 -145h-76q104 139 141 217q-23 -18 -74 -18q-53 0 -87.5 35t-34.5 89q0 56 35 92.5t89 36.5z" />
    <glyph glyph-name="uni021B" unicode="&#x21b;" horiz-adv-x="688" 
d="M240 0v995h-217v29h217l168 270h41v-270h217v-29h-217v-995h-209zM264 -598q101 131 142 217q-26 -20 -74 -20q-54 0 -88.5 36.5t-34.5 90.5t35.5 91.5t89.5 37.5q56 0 92.5 -36t36.5 -93q0 -40 -9 -69t-46 -110l-68 -145h-76z" />
    <glyph glyph-name="uni0237" unicode="&#x237;" horiz-adv-x="524" 
d="M-20 -369q-113 0 -211 41v113q66 -63 113.5 -94t97.5 -31q184 4 184 289l-6 1075h207v-961q0 -75 -10.5 -136.5t-37 -118t-69 -94.5t-110.5 -60.5t-158 -22.5z" />
    <glyph glyph-name="circumflex" unicode="&#x2c6;" horiz-adv-x="940" 
d="M88 1178l309 376h125l309 -376h-32l-338 256l-340 -256h-33z" />
    <glyph glyph-name="caron" unicode="&#x2c7;" horiz-adv-x="940" 
d="M408 1178l-310 376h33l338 -258l340 258h33l-310 -376h-124z" />
    <glyph glyph-name="breve" unicode="&#x2d8;" horiz-adv-x="884" 
d="M444 1124q-125 0 -197.5 89.5t-72.5 236.5h29q0 -104 70 -152.5t171 -48.5t170.5 48.5t69.5 152.5h29q0 -146 -73.5 -236t-195.5 -90z" />
    <glyph glyph-name="dotaccent" unicode="&#x2d9;" horiz-adv-x="534" 
d="M264 1163q-55 0 -94 40t-39 97q0 54 39 94t94 40q56 0 95.5 -39.5t39.5 -94.5q0 -57 -39 -97t-96 -40z" />
    <glyph glyph-name="ring" unicode="&#x2da;" horiz-adv-x="638" 
d="M322 1110q-87 0 -145 59t-58 144q0 84 58 142t145 58q86 0 143 -58t57 -142q0 -85 -57 -144t-143 -59zM322 1143q71 0 117 48.5t46 121.5q0 71 -46 119.5t-117 48.5q-73 0 -119.5 -47.5t-46.5 -120.5t46.5 -121.5t119.5 -48.5z" />
    <glyph glyph-name="ogonek" unicode="&#x2db;" horiz-adv-x="565" 
d="M203 -391q-67 0 -107.5 39t-40.5 102q0 99 73.5 170t197.5 125h32q-72 -47 -125 -131.5t-53 -169.5q0 -90 66 -90q63 0 100 88l21 -12q-24 -61 -67.5 -91t-96.5 -30z" />
    <glyph glyph-name="tilde" unicode="&#x2dc;" horiz-adv-x="1013" 
d="M651 1202q-55 0 -112 25t-96.5 55t-88.5 55t-90 25q-110 0 -110 -145h-29q0 134 44.5 201t141.5 67q46 0 99 -24t93 -53t93.5 -53t101.5 -24q56 0 81.5 42t25.5 108h29q0 -143 -42.5 -211t-140.5 -68z" />
    <glyph glyph-name="hungarumlaut" unicode="&#x2dd;" horiz-adv-x="931" 
d="M137 1182l142 381h221v-17l-332 -364h-31zM514 1182l141 381h222v-17l-332 -364h-31z" />
    <glyph glyph-name="gravecomb" unicode="&#x300;" 
d="M-176 1188l-412 348v16h246l195 -364h-29z" />
    <glyph glyph-name="acutecomb" unicode="&#x301;" 
d="M-494 1188l195 364h246v-16l-410 -348h-31z" />
    <glyph glyph-name="uni0302" unicode="&#x302;" 
d="M-844 1178l309 376h125l310 -376h-33l-340 256l-338 -256h-33z" />
    <glyph glyph-name="tildecomb" unicode="&#x303;" 
d="M-326 1202q-54 0 -111 25t-96.5 55t-89 55t-90.5 25q-108 0 -108 -145h-29q0 134 44 201t140 67q47 0 100 -24t93.5 -53t93.5 -53t100 -24q57 0 83 41.5t26 108.5h29q0 -142 -43.5 -210.5t-141.5 -68.5z" />
    <glyph glyph-name="uni0304" unicode="&#x304;" 
d="M-705 1307v34h582v-34h-582z" />
    <glyph glyph-name="uni0306" unicode="&#x306;" 
d="M-440 1124q-125 0 -198 90t-73 236h29q0 -44 14 -78.5t37 -57t54.5 -37.5t65.5 -21.5t71 -6.5q46 0 87 10.5t76 33t55.5 63t20.5 94.5h29q0 -145 -73.5 -235.5t-194.5 -90.5z" />
    <glyph glyph-name="uni0307" unicode="&#x307;" 
d="M-270 1163q-55 0 -94 40t-39 97q0 54 39 94t94 40q56 0 95.5 -39.5t39.5 -94.5q0 -57 -39 -97t-96 -40z" />
    <glyph glyph-name="uni0308" unicode="&#x308;" 
d="M-680 1174q-56 0 -92.5 36t-36.5 93q0 55 37 93t92 38q54 0 90.5 -38.5t36.5 -92.5q0 -57 -36.5 -93t-90.5 -36zM-254 1174q-56 0 -92.5 36t-36.5 93q0 55 37 93t92 38q54 0 90.5 -38.5t36.5 -92.5q0 -57 -36.5 -93t-90.5 -36z" />
    <glyph glyph-name="uni030A" unicode="&#x30a;" 
d="M-315 1110q-87 0 -145 59t-58 144q0 84 58 142t145 58q86 0 143 -58t57 -142q0 -85 -57 -144t-143 -59zM-315 1143q71 0 117 48.5t46 121.5q0 71 -46 119.5t-117 48.5q-73 0 -119.5 -47.5t-46.5 -120.5t46.5 -121.5t119.5 -48.5z" />
    <glyph glyph-name="uni030B" unicode="&#x30b;" 
d="M-795 1182l142 381h221v-17l-332 -364h-31zM-418 1182l142 381h221v-17l-334 -364h-29z" />
    <glyph glyph-name="uni030C" unicode="&#x30c;" 
d="M-535 1178l-307 376h31l340 -258l340 258h33l-310 -376h-127z" />
    <glyph glyph-name="uni0326" unicode="&#x326;" 
d="M-332 -272q97 125 142 219q-27 -21 -74 -21q-52 0 -87.5 36.5t-35.5 90.5t36.5 91.5t88.5 37.5q56 0 93.5 -36.5t37.5 -94.5q0 -39 -9 -65.5t-48 -112.5l-68 -145h-76z" />
    <glyph glyph-name="uni0327" unicode="&#x327;" 
d="M-330 -342q-111 0 -192 61v78q51 -58 91 -85t95 -27q58 0 86.5 34t28.5 91q0 74 -47 111.5t-127 58.5l78 129h28l-59 -101q125 -19 187.5 -58t62.5 -122q0 -74 -61 -122t-171 -48z" />
    <glyph glyph-name="uni0328" unicode="&#x328;" 
d="M-356 -391q-69 0 -109.5 39t-40.5 102q0 178 270 295h33q-72 -47 -124 -131.5t-52 -169.5q0 -90 64 -90q65 0 102 88l20 -12q-48 -121 -163 -121z" />
    <glyph glyph-name="uni0335" unicode="&#x335;" 
d="M-754 545v28h648v-28h-648z" />
    <glyph glyph-name="uni0336" unicode="&#x336;" 
d="M-1507 545v28h1435v-28h-1435z" />
    <glyph glyph-name="uni0337" unicode="&#x337;" 
d="M-899 289l795 553h45l-795 -553h-45z" />
    <glyph glyph-name="uni0338" unicode="&#x338;" 
d="M-1161 0l1020 1024h43l-1020 -1024h-43z" />
    <glyph glyph-name="Wgrave" unicode="&#x1e80;" horiz-adv-x="2023" 
d="M1219 1518h-31l-412 348v18h248zM1892 1391h103q-53 -141 -184.5 -511t-227.5 -626l-106 -295h-25l-436 1182l-424 -1182h-25l-551 1432h222l430 -1117h8l407 1158h25l432 -1180h10q162 455 244 741t98 398z" />
    <glyph glyph-name="wgrave" unicode="&#x1e81;" horiz-adv-x="1622" 
d="M979 1157h-29l-411 348v17h245zM1511 1024h82q-46 -108 -133.5 -340.5t-189.5 -470.5l-115 -254h-25l-315 838l-330 -838h-24l-430 1065h223l303 -788h8l326 829h24l316 -850h8q180 460 272 809z" />
    <glyph glyph-name="Wacute" unicode="&#x1e82;" horiz-adv-x="2023" 
d="M1423 1878l-409 -348h-31l195 364h245v-16zM1892 1391h103q-53 -141 -184.5 -511t-227.5 -626l-106 -295h-25l-436 1182l-424 -1182h-25l-551 1432h222l430 -1117h8l407 1158h25l432 -1180h10q162 455 244 741t98 398z" />
    <glyph glyph-name="wacute" unicode="&#x1e83;" horiz-adv-x="1622" 
d="M1221 1516l-410 -351h-31l195 367h246v-16zM1511 1024h82q-46 -108 -133.5 -340.5t-189.5 -470.5l-115 -254h-25l-315 838l-330 -838h-24l-430 1065h223l303 -788h8l326 829h24l316 -850h8q180 460 272 809z" />
    <glyph glyph-name="Wdieresis" unicode="&#x1e84;" horiz-adv-x="2023" 
d="M864 1567q-56 0 -92.5 36t-36.5 93q0 55 37 93t92 38q54 0 90.5 -38.5t36.5 -92.5q0 -56 -36.5 -92.5t-90.5 -36.5zM1290 1567q-56 0 -92.5 36t-36.5 93q0 55 37 93t92 38q54 0 90.5 -38.5t36.5 -92.5q0 -56 -36.5 -92.5t-90.5 -36.5zM1892 1391h103
q-53 -141 -184.5 -511t-227.5 -626l-106 -295h-25l-436 1182l-424 -1182h-25l-551 1432h222l430 -1117h8l407 1158h25l432 -1180h10q162 455 244 741t98 398z" />
    <glyph glyph-name="wdieresis" unicode="&#x1e85;" horiz-adv-x="1622" 
d="M645 1212q-54 0 -90.5 37t-36.5 92q0 56 36.5 94t90.5 38q55 0 92 -38t37 -94q0 -55 -37 -92t-92 -37zM1071 1212q-54 0 -90.5 37t-36.5 92q0 56 36.5 94t90.5 38t91.5 -38.5t37.5 -93.5t-37.5 -92t-91.5 -37zM1511 1024h82q-46 -108 -133.5 -340.5t-189.5 -470.5
l-115 -254h-25l-315 838l-330 -838h-24l-430 1065h223l303 -788h8l326 829h24l316 -850h8q180 460 272 809z" />
    <glyph glyph-name="uni1E9E" unicode="&#x1e9e;" horiz-adv-x="1380" 
d="M825 961q0 -55 27 -104t70 -88t95.5 -77.5t105 -80t95.5 -87t70 -108t27 -133.5q0 -79 -33.5 -141t-90 -98.5t-126 -55.5t-147.5 -19q-77 0 -165.5 15.5t-138.5 44.5v88q81 -69 152 -94t152 -25q99 0 159 50t60 149q0 60 -24 109.5t-62.5 85.5t-85 70.5t-93.5 71.5
t-85.5 79.5t-62.5 104t-24 136.5q0 301 484 451q-167 75 -375 75q-203 -1 -309.5 -111.5t-106.5 -303.5v-965h-221v872q0 267 154 403t485 136q218 0 412 -90v-33q-61 -23 -98.5 -38t-84.5 -36.5t-75 -39t-58 -41.5t-46 -49t-26 -56t-10 -67z" />
    <glyph glyph-name="Ygrave" unicode="&#x1ef2;" horiz-adv-x="1204" 
d="M752 1518l-412 348v18h248l194 -366h-30zM483 0v623l-426 768h234l383 -703h8q309 490 389 703h103q-29 -45 -119 -181t-183 -278t-170 -262v-670h-219z" />
    <glyph glyph-name="ygrave" unicode="&#x1ef3;" horiz-adv-x="1026" 
d="M680 1157h-31l-409 348v17h245zM915 1024h84l-358 -778l-119 -246l-170 -369l-86 56l232 313l-467 1024h221l350 -778h8q213 485 305 778z" />
    <glyph glyph-name="uni1EF8" unicode="&#x1ef8;" horiz-adv-x="1204" 
d="M799 1548q-55 0 -112 25t-96.5 55t-88.5 55t-90 25q-111 0 -111 -145h-29q0 134 44.5 201t142.5 67q46 0 99 -24t93 -53t93.5 -53t101.5 -24q56 0 81 41.5t25 108.5h29q0 -143 -42 -211t-140 -68zM483 0v623l-426 768h234l383 -703h8q309 490 389 703h103
q-29 -45 -119 -181t-183 -278t-170 -262v-670h-219z" />
    <glyph glyph-name="uni1EF9" unicode="&#x1ef9;" horiz-adv-x="1026" 
d="M350 1356q-108 0 -108 -146h-29q0 134 44.5 201.5t141.5 67.5q38 0 79 -15.5t77 -38l72 -45t78 -38t81 -15.5q56 0 81.5 41t25.5 107h29q0 -143 -42.5 -211t-140.5 -68q-55 0 -112 25t-96.5 55t-89 55t-91.5 25zM915 1024h84l-358 -778l-119 -246l-170 -369l-86 56
l232 313l-467 1024h221l350 -778h8q213 485 305 778z" />
    <glyph glyph-name="endash" unicode="&#x2013;" horiz-adv-x="1185" 
d="M63 514v29h1057v-29h-1057z" />
    <glyph glyph-name="emdash" unicode="&#x2014;" horiz-adv-x="1513" 
d="M63 514v29h1385v-29h-1385z" />
    <glyph glyph-name="quoteleft" unicode="&#x2018;" horiz-adv-x="464" 
d="M346 1475q-64 -72 -104.5 -138t-94.5 -176q30 21 82 21q57 0 95 -38.5t38 -96.5t-39.5 -99t-95.5 -41q-61 0 -101 40t-40 102q0 38 9.5 66.5t47.5 111.5l113 248h90z" />
    <glyph glyph-name="quoteright" unicode="&#x2019;" horiz-adv-x="460" 
d="M129 938q64 72 105 138t94 175q-29 -20 -80 -20q-58 0 -96.5 38.5t-38.5 96.5t39.5 98.5t95.5 40.5q61 0 101 -39t40 -100q0 -40 -9 -68t-46 -110l-115 -250h-90z" />
    <glyph glyph-name="quotesinglbase" unicode="&#x201a;" horiz-adv-x="460" 
d="M109 -319q63 72 103.5 137t94.5 176q-33 -23 -82 -23q-57 0 -95 39.5t-38 98.5t39 99t96 40q61 0 101.5 -40t40.5 -102q0 -8 -0.5 -15.5t-1 -13t-2.5 -13.5t-3 -12.5t-4.5 -15t-5.5 -15t-8 -18.5t-9 -20.5t-11 -25.5t-13 -29l-112 -247h-90z" />
    <glyph glyph-name="quotedblleft" unicode="&#x201c;" horiz-adv-x="882" 
d="M346 1475q-64 -72 -104.5 -138t-94.5 -176q30 21 82 21q57 0 95 -38.5t38 -96.5t-39.5 -99t-95.5 -41q-61 0 -101 40t-40 102q0 38 9.5 66.5t47.5 111.5l113 248h90zM762 1475q-64 -72 -104.5 -138t-94.5 -176q30 21 82 21q57 0 95 -38.5t38 -96.5q0 -59 -39 -99.5
t-96 -40.5q-60 0 -99.5 39.5t-39.5 102.5q0 38 9 66.5t46 111.5l115 248h88z" />
    <glyph glyph-name="quotedblright" unicode="&#x201d;" horiz-adv-x="878" 
d="M129 938q64 72 105 138t94 175q-29 -20 -80 -20q-58 0 -96.5 38.5t-38.5 96.5t39.5 98.5t95.5 40.5q61 0 101 -39t40 -100q0 -40 -9 -68t-46 -110l-115 -250h-90zM547 938q63 72 103.5 137t94.5 176q-29 -20 -79 -20q-59 0 -97.5 38.5t-38.5 96.5t40 98.5t96 40.5
q61 0 101 -39t40 -100q0 -40 -9 -68t-46 -110l-115 -250h-90z" />
    <glyph glyph-name="quotedblbase" unicode="&#x201e;" horiz-adv-x="878" 
d="M109 -319q63 72 103.5 137t94.5 176q-33 -23 -82 -23q-57 0 -95 39.5t-38 98.5t39 99t96 40q61 0 101.5 -40t40.5 -102q0 -8 -0.5 -15.5t-1 -13t-2.5 -13.5t-3 -12.5t-4.5 -15t-5.5 -15t-8 -18.5t-9 -20.5t-11 -25.5t-13 -29l-112 -247h-90zM526 -319q64 72 105 138
t94 175q-33 -23 -82 -23q-57 0 -95 39.5t-38 98.5t39 99t96 40q61 0 101 -40t40 -102q0 -27 -6 -50.5t-13.5 -42t-37.5 -85.5l-113 -247h-90z" />
    <glyph glyph-name="dagger" unicode="&#x2020;" horiz-adv-x="1032" 
d="M985 1059v-29h-477v-1245h-33v1245h-426v29h426v512h33v-512h477z" />
    <glyph glyph-name="daggerdbl" unicode="&#x2021;" horiz-adv-x="1087" 
d="M1012 1030h-477v-704h477v-29h-477v-512h-33v512h-426v29h426v704h-426v29h426v512h33v-512h477v-29z" />
    <glyph glyph-name="bullet" unicode="&#x2022;" horiz-adv-x="753" 
d="M377 518q-88 0 -147.5 60t-59.5 149t59.5 150t147.5 61t147.5 -61t59.5 -150t-59.5 -149t-147.5 -60z" />
    <glyph glyph-name="ellipsis" unicode="&#x2026;" horiz-adv-x="1419" 
d="M240 -31q-58 0 -97 39t-39 98q0 57 39.5 98.5t96.5 41.5q58 0 96.5 -41t38.5 -99q0 -60 -38 -98.5t-97 -38.5zM711 -31q-59 0 -98.5 38.5t-39.5 98.5q0 58 40 99t98 41q57 0 96 -41.5t39 -98.5q0 -60 -39 -98.5t-96 -38.5zM1178 -31q-58 0 -97 39t-39 98q0 57 39.5 98.5
t96.5 41.5q58 0 97.5 -41t39.5 -99q0 -60 -39 -98.5t-98 -38.5z" />
    <glyph glyph-name="perthousand" unicode="&#x2030;" horiz-adv-x="2498" 
d="M408 666q-146 0 -245.5 96t-99.5 242q-1 145 98.5 241t246.5 96t246.5 -96t99.5 -241q0 -146 -100 -242t-246 -96zM518 0l658 1341h30l-655 -1341h-33zM408 694q83 0 130.5 85.5t47.5 224.5q0 142 -47 225.5t-131 83.5q-83 0 -131 -83.5t-48 -225.5q0 -139 48 -224.5
t131 -85.5zM1300 -31q-146 0 -246 96t-100 242q0 145 99.5 241.5t246.5 96.5t247 -96.5t100 -241.5q0 -146 -101 -242t-246 -96zM2093 -31q-146 0 -245.5 95.5t-100.5 242.5q0 145 99.5 241.5t246.5 96.5t246.5 -96.5t99.5 -241.5q0 -146 -100 -242t-246 -96zM1300 -2
q83 0 130 85t47 224q0 142 -47 225.5t-130 83.5t-130.5 -83.5t-47.5 -225.5q0 -139 47.5 -224t130.5 -85zM2093 -2q83 0 130.5 85t47.5 224q0 142 -47 225.5t-131 83.5q-83 0 -130.5 -83.5t-47.5 -225.5q0 -139 47.5 -224t130.5 -85z" />
    <glyph glyph-name="guilsinglleft" unicode="&#x2039;" horiz-adv-x="724" 
d="M623 47l-529 438v31l529 438v-26l-340 -424l340 -430v-27z" />
    <glyph glyph-name="guilsinglright" unicode="&#x203a;" horiz-adv-x="724" 
d="M100 47v27l340 430l-340 424v26l529 -438v-31z" />
    <glyph glyph-name="fraction" unicode="&#x2044;" horiz-adv-x="669" 
d="M-14 0l657 1341h31l-656 -1341h-32z" />
    <glyph glyph-name="Euro" unicode="&#x20ac;" horiz-adv-x="1351" 
d="M940 1315q-178 0 -294.5 -137.5t-147.5 -372.5h417v-27h-419q-7 -72 -7 -125q0 -19 5 -102h421v-27h-419q24 -251 136.5 -389.5t303.5 -138.5q101 0 172.5 35t138.5 104v-98q-56 -29 -143.5 -48.5t-173.5 -19.5q-283 0 -458 143.5t-210 411.5h-170v27h166q-4 66 -4 102
q0 73 8 125h-170v27h174q40 255 215 395.5t453 140.5q89 0 174.5 -19.5t140.5 -47.5v-103q-69 72 -138.5 108t-170.5 36z" />
    <glyph glyph-name="trademark" unicode="&#x2122;" horiz-adv-x="1812" 
d="M1630 1421h17v-792h-156v520h-4l-273 -438h-14l-285 442h-6v-201q2 -120 19 -323h-64q19 228 19 323v469h16l375 -557h6zM55 1391h711v-72q-172 43 -277 43v-733h-155v733q-103 0 -279 -43v72z" />
    <glyph glyph-name="minus" unicode="&#x2212;" horiz-adv-x="1105" 
d="M72 670v28h962v-28h-962z" />
    <glyph glyph-name="approxequal" unicode="&#x2248;" horiz-adv-x="1105" 
d="M84 739q0 62 21.5 110t57 75.5t76.5 41t85 13.5q49 0 101 -18t97.5 -44t90.5 -52t97.5 -44t102.5 -18q92 0 137 59t45 150h33q0 -103 -55 -170.5t-160 -67.5q-53 0 -107 18t-100 44t-91 52t-96 44t-100 18q-38 0 -72.5 -11t-64.5 -34t-47.5 -66t-17.5 -100h-33zM84 350
q0 62 21.5 110t57 75.5t76.5 41t85 13.5q49 0 101 -18t97.5 -44t90.5 -52t97.5 -44t102.5 -18q92 0 137 59t45 150h33q0 -103 -55 -170.5t-160 -67.5q-53 0 -107 18t-100 44t-91 52t-96 44t-100 18q-38 0 -72.5 -11t-64.5 -34t-47.5 -66t-17.5 -100h-33z" />
    <glyph glyph-name="notequal" unicode="&#x2260;" horiz-adv-x="1105" 
d="M1028 844h-438l-92 -318h530v-28h-539l-83 -295h-31l84 295h-385v28h393l92 318h-485v28h493l84 293h31l-84 -293h430v-28z" />
    <glyph glyph-name="uniF8FF" unicode="&#xf8ff;" horiz-adv-x="4724" 
d="M1149 408q-95 0 -136.5 40t-41.5 130v466h203q0 -62 -40 -122t-98 -86l2 -9q58 35 119 35h105v-162h-86v-98q0 -35 36 -35q28 0 50 15v-154q-36 -20 -113 -20zM1303 418v626h200q0 -67 -47 -122t-115 -70l5 -6q84 16 143 16h16v-444h-202zM2808 408q-95 0 -137.5 40.5
t-42.5 129.5v466h202q0 -62 -39 -122t-98 -86l4 -9q58 35 119 35h102v-162h-86v-98q0 -35 37 -35q27 0 49 15v-154q-36 -20 -110 -20zM205 418v624h203v-624h-203zM584 408q-66 0 -105 34t-39 90q0 60 41 98t111 38q92 0 135 -43h4v71q0 24 -12 38t-35 14q-47 0 -47 -60
l-184 29q37 160 249 160q110 0 172 -50t62 -135v-274h-201v45h-6q-14 -20 -51.5 -37.5t-93.5 -17.5zM1548 418v444h199v-133h6q17 143 145 143q70 0 110 -46t40 -134v-274h-205v264q0 55 -39 55q-22 0 -32 -13t-21 -52v-254h-203zM2337 408q-123 0 -190.5 63.5t-67.5 167.5
t69 168.5t189 64.5q122 0 190 -64.5t68 -168.5q0 -103 -67.5 -167t-190.5 -64zM3463 270v592h203v-133h6q21 143 150 143q170 0 170 -233q0 -115 -51.5 -173t-125.5 -58q-105 0 -141 88h-6v-226h-205zM4274 408q-120 0 -187 63.5t-67 167.5q0 103 70 168t190 65
q107 0 173.5 -64.5t66.5 -158.5v-18h-307q0 -39 18.5 -66.5t50.5 -27.5q55 0 62 69l168 -16q-18 -95 -83 -138.5t-155 -43.5zM3015 262v135h133q115 0 137 25l-2 6h-139q-83 0 -107 80l-110 354h204q6 -37 20 -110t24 -134t14 -110h4q13 125 61 354h203l-145 -424
q-63 -176 -217 -176h-80zM4213 655h12q62 0 87.5 12t25.5 38q0 45 -49 45q-34 0 -55 -26t-21 -69zM3738 506q31 0 46 27.5t15 89.5q0 66 -12 95.5t-43 29.5q-46 0 -62 -68v-148q21 -26 56 -26zM2337 535q59 0 59 104q0 106 -59 106q-58 0 -58 -106q0 -104 58 -104zM686 469
q30 0 45 23v104q-10 16 -39 16q-25 0 -40 -19t-15 -52q0 -72 49 -72z" />
    <glyph glyph-name="uni00A40301" horiz-adv-x="888" 
d="M518 1563l195 364h245v-16l-409 -348h-31zM285 -31q-153 0 -254 45v107q56 -60 112 -91.5t140 -31.5q209 4 209 289v1104h219v-990q0 -94 -21.5 -169t-69 -135.5t-132.5 -94t-203 -33.5z" />
    <glyph glyph-name="i.loclTRK" horiz-adv-x="532" 
d="M260 1214q-56 0 -95.5 39.5t-39.5 96.5q0 55 39.5 94t95.5 39t95.5 -39t39.5 -94q0 -57 -39.5 -96.5t-95.5 -39.5zM160 0v1024h211v-1024h-211z" />
    <glyph glyph-name="uni006A0301" horiz-adv-x="524" 
d="M184 1165l195 367h246v-16l-412 -351h-29zM-20 -369q-113 0 -211 41v113q66 -63 113.5 -94t97.5 -31q184 4 184 289l-6 1075h207v-961q0 -75 -10.5 -136.5t-37 -118t-69 -94.5t-110.5 -60.5t-158 -22.5z" />
    <glyph glyph-name="a.ss01" horiz-adv-x="1298" 
d="M1098 1067h41l-2 -1108h-35l-174 320v2q-10 -52 -38.5 -104.5t-74 -100t-117 -77.5t-155.5 -30q-212 0 -331.5 144.5t-119.5 382.5q0 247 125 403t332 156q131 0 232.5 -76t140.5 -199zM618 49q68 0 123 26t90 70.5t57 90.5t34 98v383q-41 131 -120 193.5t-181 62.5
q-151 0 -227.5 -124t-76.5 -337q0 -137 30 -238t99 -163t172 -62z" />
    <glyph glyph-name="aacute.ss01" horiz-adv-x="1298" 
d="M991 1513l-409 -348h-31l194 365h246v-17zM1098 1067h41l-2 -1108h-35l-174 320v2q-10 -52 -38.5 -104.5t-74 -100t-117 -77.5t-155.5 -30q-212 0 -331.5 144.5t-119.5 382.5q0 247 125 403t332 156q131 0 232.5 -76t140.5 -199zM618 49q68 0 123 26t90 70.5t57 90.5
t34 98v383q-41 131 -120 193.5t-181 62.5q-151 0 -227.5 -124t-76.5 -337q0 -137 30 -238t99 -163t172 -62z" />
    <glyph glyph-name="abreve.ss01" horiz-adv-x="1298" 
d="M629 1186q-124 0 -197.5 89.5t-73.5 235.5h29q0 -55 21 -95t56.5 -62t76.5 -32.5t88 -10.5t88 10.5t76.5 32.5t56 62t20.5 95h29q0 -146 -74 -235.5t-196 -89.5zM1098 1067h41l-2 -1108h-35l-174 320v2q-10 -52 -38.5 -104.5t-74 -100t-117 -77.5t-155.5 -30
q-212 0 -331.5 144.5t-119.5 382.5q0 247 125 403t332 156q131 0 232.5 -76t140.5 -199zM618 49q68 0 123 26t90 70.5t57 90.5t34 98v383q-41 131 -120 193.5t-181 62.5q-151 0 -227.5 -124t-76.5 -337q0 -137 30 -238t99 -163t172 -62z" />
    <glyph glyph-name="acircumflex.ss01" horiz-adv-x="1298" 
d="M629 1407l-338 -258h-33l309 377h125l309 -377h-32zM1098 1067h41l-2 -1108h-35l-174 320v2q-10 -52 -38.5 -104.5t-74 -100t-117 -77.5t-155.5 -30q-212 0 -331.5 144.5t-119.5 382.5q0 247 125 403t332 156q131 0 232.5 -76t140.5 -199zM618 49q68 0 123 26t90 70.5
t57 90.5t34 98v383q-41 131 -120 193.5t-181 62.5q-151 0 -227.5 -124t-76.5 -337q0 -137 30 -238t99 -163t172 -62z" />
    <glyph glyph-name="adieresis.ss01" horiz-adv-x="1298" 
d="M416 1212q-56 0 -91.5 36t-35.5 93q0 55 36 93.5t91 38.5q54 0 90.5 -39t36.5 -93q0 -57 -36.5 -93t-90.5 -36zM842 1212q-54 0 -90.5 36t-36.5 93q0 54 36.5 93t90.5 39t91.5 -39t37.5 -93q0 -56 -37 -92.5t-92 -36.5zM1098 1067h41l-2 -1108h-35l-174 320v2
q-10 -52 -38.5 -104.5t-74 -100t-117 -77.5t-155.5 -30q-212 0 -331.5 144.5t-119.5 382.5q0 247 125 403t332 156q131 0 232.5 -76t140.5 -199zM618 49q68 0 123 26t90 70.5t57 90.5t34 98v383q-41 131 -120 193.5t-181 62.5q-151 0 -227.5 -124t-76.5 -337q0 -137 30 -238
t99 -163t172 -62z" />
    <glyph glyph-name="agrave.ss01" horiz-adv-x="1298" 
d="M750 1155h-31l-410 348v19h246zM1098 1067h41l-2 -1108h-35l-174 320v2q-10 -52 -38.5 -104.5t-74 -100t-117 -77.5t-155.5 -30q-212 0 -331.5 144.5t-119.5 382.5q0 247 125 403t332 156q131 0 232.5 -76t140.5 -199zM618 49q68 0 123 26t90 70.5t57 90.5t34 98v383
q-41 131 -120 193.5t-181 62.5q-151 0 -227.5 -124t-76.5 -337q0 -137 30 -238t99 -163t172 -62z" />
    <glyph glyph-name="amacron.ss01" horiz-adv-x="1298" 
d="M920 1311v-35h-582v35h582zM1098 1067h41l-2 -1108h-35l-174 320v2q-10 -52 -38.5 -104.5t-74 -100t-117 -77.5t-155.5 -30q-212 0 -331.5 144.5t-119.5 382.5q0 247 125 403t332 156q131 0 232.5 -76t140.5 -199zM618 49q68 0 123 26t90 70.5t57 90.5t34 98v383
q-41 131 -120 193.5t-181 62.5q-151 0 -227.5 -124t-76.5 -337q0 -137 30 -238t99 -163t172 -62z" />
    <glyph glyph-name="aogonek.ss01" horiz-adv-x="1298" 
d="M1124 -344l21 -12q-22 -60 -65.5 -89.5t-96.5 -29.5q-69 0 -109 38t-40 103q0 179 270 293h-2l-174 320v2q-10 -52 -38.5 -104.5t-74 -100t-117 -77.5t-155.5 -30q-212 0 -331.5 144.5t-119.5 382.5q0 247 125 403t332 156q131 0 232.5 -76t140.5 -199l176 287h41
l-2 -1108q-71 -45 -123.5 -130t-52.5 -171q0 -90 63 -90q62 0 100 88zM618 49q68 0 123 26t90 70.5t57 90.5t34 98v383q-41 131 -120 193.5t-181 62.5q-151 0 -227.5 -124t-76.5 -337q0 -137 30 -238t99 -163t172 -62z" />
    <glyph glyph-name="aring.ss01" horiz-adv-x="1298" 
d="M631 1149q-87 0 -145 59t-58 144q0 84 58 142t145 58q86 0 143 -58t57 -142q0 -85 -57 -144t-143 -59zM631 1520q-73 0 -119.5 -47.5t-46.5 -120.5t46.5 -121.5t119.5 -48.5q71 0 117.5 48.5t46.5 121.5q0 71 -46.5 119.5t-117.5 48.5zM1098 1067h41l-2 -1108h-35
l-174 320v2q-10 -52 -38.5 -104.5t-74 -100t-117 -77.5t-155.5 -30q-212 0 -331.5 144.5t-119.5 382.5q0 247 125 403t332 156q131 0 232.5 -76t140.5 -199zM618 49q68 0 123 26t90 70.5t57 90.5t34 98v383q-41 131 -120 193.5t-181 62.5q-151 0 -227.5 -124t-76.5 -337
q0 -137 30 -238t99 -163t172 -62z" />
    <glyph glyph-name="atilde.ss01" horiz-adv-x="1298" 
d="M420 1356q-109 0 -109 -148h-28q0 134 44.5 202.5t141.5 68.5q46 0 99 -24t93 -53t93.5 -53t101.5 -24q107 0 107 150h28q0 -143 -42.5 -212t-139.5 -69q-55 0 -112 25.5t-96.5 55.5t-89 55.5t-91.5 25.5zM1098 1067h41l-2 -1108h-35l-174 320v2q-10 -52 -38.5 -104.5
t-74 -100t-117 -77.5t-155.5 -30q-212 0 -331.5 144.5t-119.5 382.5q0 247 125 403t332 156q131 0 232.5 -76t140.5 -199zM618 49q68 0 123 26t90 70.5t57 90.5t34 98v383q-41 131 -120 193.5t-181 62.5q-151 0 -227.5 -124t-76.5 -337q0 -137 30 -238t99 -163t172 -62z" />
    <glyph glyph-name="g.ss01" horiz-adv-x="1296" 
d="M1102 1067h41v-848q0 -299 -126 -443.5t-413 -144.5q-122 0 -209.5 23t-173.5 65v103q68 -71 161 -116.5t206 -45.5q189 0 263.5 98.5t74.5 309.5v202q-11 -51 -39.5 -102t-73.5 -96.5t-114.5 -74t-151.5 -28.5q-212 0 -331.5 144.5t-119.5 382.5q0 247 125 403t332 156
q131 0 232.5 -76t140.5 -199zM623 49q55 0 101.5 18t79 46t58 67t40.5 76t24 78v383q-39 131 -119 193.5t-182 62.5q-150 0 -226.5 -124t-76.5 -337q0 -137 30 -238t99 -163t172 -62z" />
    <glyph glyph-name="gbreve.ss01" horiz-adv-x="1296" 
d="M641 1186q-125 0 -197.5 89.5t-72.5 235.5h28q0 -55 20.5 -95t56 -62t77 -32.5t88.5 -10.5t88.5 10.5t77 32.5t56 62t20.5 95h28q0 -146 -74 -235.5t-196 -89.5zM1102 1067h41v-848q0 -299 -126 -443.5t-413 -144.5q-122 0 -209.5 23t-173.5 65v103q68 -71 161 -116.5
t206 -45.5q189 0 263.5 98.5t74.5 309.5v202q-11 -51 -39.5 -102t-73.5 -96.5t-114.5 -74t-151.5 -28.5q-212 0 -331.5 144.5t-119.5 382.5q0 247 125 403t332 156q131 0 232.5 -76t140.5 -199zM623 49q55 0 101.5 18t79 46t58 67t40.5 76t24 78v383q-39 131 -119 193.5
t-182 62.5q-150 0 -226.5 -124t-76.5 -337q0 -137 30 -238t99 -163t172 -62z" />
    <glyph glyph-name="uni0123.ss01" horiz-adv-x="1296" 
d="M668 1190q-57 0 -94 36t-37 93q0 40 9 68t46 110l67 145h78q-97 -121 -143 -217q30 21 74 21q54 0 89.5 -36.5t35.5 -90.5t-36.5 -91.5t-88.5 -37.5zM1102 1067h41v-848q0 -299 -126 -443.5t-413 -144.5q-122 0 -209.5 23t-173.5 65v103q68 -71 161 -116.5t206 -45.5
q189 0 263.5 98.5t74.5 309.5v202q-11 -51 -39.5 -102t-73.5 -96.5t-114.5 -74t-151.5 -28.5q-212 0 -331.5 144.5t-119.5 382.5q0 247 125 403t332 156q131 0 232.5 -76t140.5 -199zM623 49q55 0 101.5 18t79 46t58 67t40.5 76t24 78v383q-39 131 -119 193.5t-182 62.5
q-150 0 -226.5 -124t-76.5 -337q0 -137 30 -238t99 -163t172 -62z" />
    <glyph glyph-name="gdotaccent.ss01" horiz-adv-x="1296" 
d="M637 1210q-57 0 -96 39.5t-39 96.5q0 56 39 94.5t96 38.5q55 0 94 -38.5t39 -94.5q0 -57 -38.5 -96.5t-94.5 -39.5zM1102 1067h41v-848q0 -299 -126 -443.5t-413 -144.5q-122 0 -209.5 23t-173.5 65v103q68 -71 161 -116.5t206 -45.5q189 0 263.5 98.5t74.5 309.5v202
q-11 -51 -39.5 -102t-73.5 -96.5t-114.5 -74t-151.5 -28.5q-212 0 -331.5 144.5t-119.5 382.5q0 247 125 403t332 156q131 0 232.5 -76t140.5 -199zM623 49q55 0 101.5 18t79 46t58 67t40.5 76t24 78v383q-39 131 -119 193.5t-182 62.5q-150 0 -226.5 -124t-76.5 -337
q0 -137 30 -238t99 -163t172 -62z" />
    <glyph glyph-name="uni030C.alt" 
d="M-309 1182q79 102 135 219q-24 -21 -74 -21q-54 0 -88.5 35.5t-34.5 91.5q0 54 35.5 90.5t89.5 36.5q56 0 92.5 -35.5t36.5 -93.5q0 -40 -9 -68t-46 -110l-68 -145h-69z" />
    <glyph glyph-name="caron.alt" horiz-adv-x="512" 
d="M205 1182q79 106 133 219q-24 -21 -74 -21q-53 0 -88 36t-35 91q0 54 35.5 90.5t89.5 36.5q56 0 92.5 -35.5t36.5 -93.5q0 -40 -9 -68t-46 -110l-68 -145h-67z" />
    <glyph glyph-name="uni0308.case" 
d="M-596 1174q-56 0 -91.5 36t-35.5 93q0 55 36 93t91 38q54 0 90.5 -38.5t36.5 -92.5q0 -57 -36.5 -93t-90.5 -36zM-170 1174q-54 0 -90.5 36t-36.5 93q0 54 36.5 92.5t90.5 38.5t91.5 -38.5t37.5 -92.5q0 -56 -37 -92.5t-92 -36.5z" />
    <glyph glyph-name="uni0307.case" 
d="M-270 1163q-55 0 -94 40t-39 97q0 54 39 94t94 40q56 0 95.5 -39.5t39.5 -94.5q0 -57 -39 -97t-96 -40z" />
    <glyph glyph-name="gravecomb.case" 
d="M-176 1188l-412 348v16h246l195 -364h-29z" />
    <glyph glyph-name="acutecomb.case" 
d="M-494 1188l195 364h246v-16l-410 -348h-31z" />
    <glyph glyph-name="uni030B.case" 
d="M-795 1182l142 381h221v-17l-332 -364h-31zM-418 1182l142 381h221v-17l-334 -364h-29z" />
    <glyph glyph-name="uni0302.case" 
d="M-836 1178l308 376h127l307 -376h-31l-340 256l-340 -256h-31z" />
    <glyph glyph-name="uni030C.case" 
d="M-535 1178l-307 376h31l340 -258l340 258h33l-310 -376h-127z" />
    <glyph glyph-name="uni0306.case" 
d="M-440 1124q-125 0 -198 90t-73 236h29q0 -44 14 -78.5t37 -57t54.5 -37.5t65.5 -21.5t71 -6.5q46 0 87 10.5t76 33t55.5 63t20.5 94.5h29q0 -145 -73.5 -235.5t-194.5 -90.5z" />
    <glyph glyph-name="uni030A.case" 
d="M-315 1110q-87 0 -145 59t-58 144q0 84 58 142t145 58q86 0 143 -58t57 -142q0 -85 -57 -144t-143 -59zM-315 1143q71 0 117 48.5t46 121.5q0 71 -46 119.5t-117 48.5q-73 0 -119.5 -47.5t-46.5 -120.5t46.5 -121.5t119.5 -48.5z" />
    <glyph glyph-name="tildecomb.case" 
d="M-332 1202q-55 0 -112 25t-96.5 55t-88.5 55t-90 25q-110 0 -110 -145h-29q0 134 44.5 201t141.5 67q46 0 99 -24t93 -53t93.5 -53t101.5 -24q56 0 81.5 42t25.5 108h28q0 -143 -42 -211t-140 -68z" />
    <glyph glyph-name="uni0304.case" 
d="M-713 1307v34h582v-34h-582z" />
    <glyph glyph-name="uni0337.case" 
d="M-920 223l809 580h35l-809 -580h-35z" />
    <glyph glyph-name="uni0338.case" 
d="M-1536 0l1395 1391h45l-1395 -1391h-45z" />
    <glyph glyph-name="dieresis.case" horiz-adv-x="909" 
d="M281 1174q-56 0 -91.5 36t-35.5 93q0 55 36 93t91 38q54 0 90.5 -38.5t36.5 -92.5q0 -57 -36 -93t-91 -36zM707 1174q-55 0 -91 36t-36 93q0 54 36.5 92.5t90.5 38.5t91.5 -38.5t37.5 -92.5q0 -56 -37 -92.5t-92 -36.5z" />
    <glyph glyph-name="dotaccent.case" horiz-adv-x="534" 
d="M264 1163q-55 0 -94 40t-39 97q0 54 39 94t94 40q56 0 95.5 -39.5t39.5 -94.5q0 -57 -39 -97t-96 -40z" />
    <glyph glyph-name="grave.case" horiz-adv-x="618" 
d="M442 1188l-411 348v16h245l195 -364h-29z" />
    <glyph glyph-name="acute.case" horiz-adv-x="618" 
d="M150 1188l194 364h246v-16l-410 -348h-30z" />
    <glyph glyph-name="hungarumlaut.case" horiz-adv-x="931" 
d="M137 1182l142 381h221v-17l-332 -364h-31zM514 1182l141 381h222v-17l-332 -364h-31z" />
    <glyph glyph-name="circumflex.case" horiz-adv-x="940" 
d="M104 1178l308 376h127l307 -376h-31l-340 256l-340 -256h-31z" />
    <glyph glyph-name="caron.case" horiz-adv-x="940" 
d="M408 1178l-310 376h33l338 -258l340 258h33l-310 -376h-124z" />
    <glyph glyph-name="breve.case" horiz-adv-x="884" 
d="M444 1124q-125 0 -197.5 89.5t-72.5 236.5h29q0 -104 70 -152.5t171 -48.5t170.5 48.5t69.5 152.5h29q0 -146 -73.5 -236t-195.5 -90z" />
    <glyph glyph-name="ring.case" horiz-adv-x="638" 
d="M313 1110q-87 0 -144.5 58.5t-57.5 144.5q0 84 57.5 142t144.5 58q86 0 143.5 -58t57.5 -142q0 -85 -57.5 -144t-143.5 -59zM313 1143q71 0 117.5 48.5t46.5 121.5q0 71 -46.5 119.5t-117.5 48.5q-73 0 -119.5 -47.5t-46.5 -120.5t46.5 -121.5t119.5 -48.5z" />
    <glyph glyph-name="tilde.case" horiz-adv-x="1013" 
d="M668 1202q-55 0 -112 25t-96.5 55t-88.5 55t-90 25q-109 0 -109 -145h-29q0 134 44.5 201t140.5 67q47 0 100 -24t93.5 -53t93.5 -53t100 -24q56 0 82 42t26 108h29q0 -143 -43 -211t-141 -68z" />
    <glyph glyph-name="macron.case" horiz-adv-x="827" 
d="M115 1307v34h581v-34h-581z" />
    <glyph glyph-name="IJacute" horiz-adv-x="1495" 
d="M217 1563l195 364h245v-16l-411 -348h-29zM1096 1563l194 364h246v-16l-412 -348h-28zM188 0v1391h222v-1391h-222zM891 -31q-153 0 -254 45v107q53 -60 110 -91.5t142 -31.5q209 4 209 289v1104h219v-990q0 -94 -21.5 -169t-69 -135.5t-132.5 -94t-203 -33.5z" />
    <glyph glyph-name="ijacute" horiz-adv-x="1153" 
d="M188 1169l195 365h246v-16l-412 -349h-29zM813 1165l195 367h245v-16l-411 -351h-29zM160 0v1024h211v-1024h-211zM608 -369q-113 0 -211 41v113q66 -63 114 -94t99 -31q183 4 183 289l-7 1075h207v-961q0 -75 -10.5 -136.5t-37 -118t-69 -94.5t-110.5 -60.5t-158 -22.5z
" />
    </font>
</defs>
</svg>
