<?xml version="1.0" standalone="no"?>
<!DOCTYPE svg PUBLIC "-//W3C//DTD SVG 1.1//EN" "http://www.w3.org/Graphics/SVG/1.1/DTD/svg11.dtd" >
<svg xmlns="http://www.w3.org/2000/svg" xmlns:xlink="http://www.w3.org/1999/xlink" version="1.1">
<metadata>
Created by FontForge 20190801 at Mon Apr  2 17:53:12 2018
 By www-data
Pangram Pangram Foundry
</metadata>
<defs>
<font id="NeueMontrealRegular" horiz-adv-x="0" >
  <font-face 
    font-family="NeueMontrealRegular"
    font-weight="400"
    font-stretch="normal"
    units-per-em="1000"
    panose-1="0 0 5 0 0 0 0 0 0 0"
    ascent="775"
    descent="-225"
    x-height="510"
    cap-height="715"
    bbox="-560 -263 1149 963"
    underline-thickness="50"
    underline-position="-100"
    unicode-range="U+0020-25CA"
  />
<missing-glyph horiz-adv-x="500" 
d="M410 -225h-317v1000h317v-1000zM168 708v-33h65v-37h-66v-33h166v33h-66v37h66v33h-165zM167 579v-104h166v34h-66v70h-100zM233 509h-33v36h33v-36zM167 448v-33h66v-37h-66v-33h100v70h66v33h-166zM300 388v-66h-133v-34h166v100h-33zM233 266v-56h34v23h33v-47h-100
v80h-33v-113h166v113h-100zM167 93v-113h166v113h-166zM300 13h-100v47h100v-47zM167 -43v-33h70l-70 -47v-33h166v33h-102l70 47h32v33h-166z" />
    <glyph glyph-name=".notdef" horiz-adv-x="500" 
d="M410 -225h-317v1000h317v-1000zM168 708v-33h65v-37h-66v-33h166v33h-66v37h66v33h-165zM167 579v-104h166v34h-66v70h-100zM233 509h-33v36h33v-36zM167 448v-33h66v-37h-66v-33h100v70h66v33h-166zM300 388v-66h-133v-34h166v100h-33zM233 266v-56h34v23h33v-47h-100
v80h-33v-113h166v113h-100zM167 93v-113h166v113h-166zM300 13h-100v47h100v-47zM167 -43v-33h70l-70 -47v-33h166v33h-102l70 47h32v33h-166z" />
    <glyph glyph-name=".null" 
 />
    <glyph glyph-name="nonmarkingreturn" horiz-adv-x="333" 
 />
    <glyph glyph-name="space" unicode=" " horiz-adv-x="200" 
 />
    <glyph glyph-name="exclam" unicode="!" horiz-adv-x="238" 
d="M169 715v-205l-20 -326h-50l-20 326v205h90zM84.5 8q-15.5 15 -15.5 40q0 24 15.5 39.5t39.5 15.5t39.5 -15.5t15.5 -39.5q0 -25 -15.5 -40t-39.5 -15t-39.5 15z" />
    <glyph glyph-name="quotedbl" unicode="&#x22;" horiz-adv-x="309" 
d="M122 715l-10 -214h-60l-10 214h80zM267 715l-10 -214h-60l-10 214h80z" />
    <glyph glyph-name="numbersign" unicode="#" horiz-adv-x="579" 
d="M430 431l-30 -154h117l-11 -70h-120l-41 -207h-70l40 207h-118l-41 -207h-70l41 207h-96l12 70h98l30 154h-109l12 70h111l37 190h70l-37 -190h118l37 190h71l-37 -190h104l-13 -70h-105zM359 431h-118l-30 -154h118z" />
    <glyph glyph-name="dollar" unicode="$" horiz-adv-x="579" 
d="M492 43.5q-57 -53.5 -166 -57.5v-71h-60v73q-106 12 -175 74t-75 168h90q14 -143 160 -161v251q-62 17 -108 38t-79 58.5t-33 94.5q0 83 59 134t161 54v58h60v-62q86 -13 141 -70t62 -152h-90q-13 118 -113 141v-224q80 -25 124 -46.5t71.5 -61t27.5 -105.5
q0 -80 -57 -133.5zM168.5 453.5q32.5 -23.5 97.5 -44.5v210q-60 -2 -95 -28.5t-35 -69.5q0 -44 32.5 -67.5zM426 99.5q33 29.5 33 77.5q0 49 -29.5 75.5t-103.5 49.5v-236q67 4 100 33.5z" />
    <glyph glyph-name="percent" unicode="%" horiz-adv-x="813" 
d="M65.5 365.5q-41.5 56.5 -41.5 141.5t41.5 141.5t119.5 56.5q79 0 120 -56t41 -142t-41 -142t-120 -56q-78 0 -119.5 56.5zM260 0h-70l363 691h70zM253 413.5q23 34.5 23 93.5t-23 93.5t-68 34.5t-68 -34.5t-23 -93.5t23 -93.5t68 -34.5t68 34.5zM508.5 42.5
q-41.5 56.5 -41.5 141.5t41.5 141.5t119.5 56.5q79 0 120 -56t41 -142t-41 -142t-120 -56q-78 0 -119.5 56.5zM696 90.5q23 34.5 23 93.5t-23 93.5t-68 34.5t-68 -34.5t-23 -93.5t23 -93.5t68 -34.5t68 34.5z" />
    <glyph glyph-name="ampersand" unicode="&#x26;" horiz-adv-x="587" 
d="M500 0l-57 70q-77 -84 -190 -84q-67 0 -115.5 24.5t-73.5 67.5t-25 98q0 71 39.5 120t105.5 91q-42 52 -62.5 92t-20.5 85q0 43 19 80.5t57.5 61t93.5 23.5q51 0 89 -23.5t57.5 -61.5t19.5 -80q0 -57 -36 -100t-111 -88l146 -180q30 65 41 142h80q-16 -119 -68 -207
l106 -131h-95zM204.5 622.5q-23.5 -26.5 -23.5 -64.5q0 -29 17 -59.5t51 -72.5q56 33 82 61.5t26 70.5q0 38 -23.5 64.5t-64.5 26.5t-64.5 -26.5zM393 131l-169 206q-51 -34 -78 -73t-27 -88q0 -46 35.5 -78t98.5 -32q83 0 140 65z" />
    <glyph glyph-name="quotesingle" unicode="'" horiz-adv-x="164" 
d="M122 715l-10 -214h-60l-10 214h80z" />
    <glyph glyph-name="parenleft" unicode="(" horiz-adv-x="304" 
d="M283 755q-58 -104 -90 -207t-32 -231q0 -125 32 -227.5t90 -206.5h-70q-63 82 -102.5 194t-39.5 240q0 132 39 243.5t103 194.5h70z" />
    <glyph glyph-name="parenright" unicode=")" horiz-adv-x="304" 
d="M22 755q58 -104 90 -207t32 -231q0 -125 -32 -227.5t-90 -206.5h70q63 82 102.5 194t39.5 240q0 132 -39 243.5t-103 194.5h-70z" />
    <glyph glyph-name="asterisk" unicode="*" horiz-adv-x="368" 
d="M229 558l60 -87l-43 -30l-62 92l-62 -92l-43 30l60 87l-95 33l18 46l95 -31v109h54v-109l95 31l18 -46z" />
    <glyph glyph-name="plus" unicode="+" horiz-adv-x="560" 
d="M53 286v79h187v193h80v-193h187v-79h-187v-193h-80v193h-187z" />
    <glyph glyph-name="comma" unicode="," horiz-adv-x="198" 
d="M87 -9q-19 0 -31 14t-12 40q0 28 15.5 43t38.5 15q27 0 41.5 -21t14.5 -57q0 -50 -23.5 -96.5t-76.5 -55.5v50q23 5 36.5 24t13.5 47q-9 -3 -17 -3z" />
    <glyph glyph-name="hyphen" unicode="-" horiz-adv-x="344" 
d="M306 295v-80h-268v80h268z" />
    <glyph glyph-name="period" unicode="." horiz-adv-x="198" 
d="M59.5 8q-15.5 15 -15.5 40q0 24 15.5 39.5t39.5 15.5t39.5 -15.5t15.5 -39.5q0 -25 -15.5 -40t-39.5 -15t-39.5 15z" />
    <glyph glyph-name="slash" unicode="/" horiz-adv-x="405" 
d="M293 715l-277 -715h80l277 715h-80z" />
    <glyph glyph-name="zero" unicode="0" horiz-adv-x="620" 
d="M110 86.5q-66 100.5 -66 258.5q0 159 66 259.5t200 100.5t200 -100.5t66 -259.5q0 -158 -66 -258.5t-200 -100.5t-200 100.5zM444 144q42 78 42 201t-42 201.5t-134 78.5t-134 -78.5t-42 -201.5t42 -201t134 -78t134 78z" />
    <glyph glyph-name="one" unicode="1" horiz-adv-x="346" 
d="M268 691v-691h-90v517q-29 -27 -58.5 -33.5t-85.5 -6.5v65q85 0 120.5 37.5t43.5 111.5h70z" />
    <glyph glyph-name="two" unicode="2" horiz-adv-x="556" 
d="M51 449q0 113 63 184.5t186 71.5q60 0 110 -24.5t80 -71.5t30 -111q0 -62 -29 -108.5t-70.5 -77t-109.5 -70.5q-77 -44 -117.5 -78t-53.5 -82v-2h370v-80h-479q0 177 206 297l40 23q62 35 91.5 56t45.5 49.5t16 71.5q0 53 -30 90.5t-102 37.5q-85 0 -121 -48t-36 -128
h-90z" />
    <glyph glyph-name="three" unicode="3" horiz-adv-x="569" 
d="M36 484q0 99 65 160t189 61q60 0 110.5 -22.5t81 -66t30.5 -102.5q0 -54 -26.5 -90t-79.5 -57v-2q70 -19 100.5 -62.5t30.5 -108.5q0 -100 -66 -154t-179 -54q-131 0 -202.5 65t-71.5 183h90q0 -168 177 -168q87 0 124.5 32t37.5 96q0 127 -146 127h-74v80h70q57 0 91 28
t34 85q0 46 -33 78.5t-99 32.5q-164 0 -164 -141h-90z" />
    <glyph glyph-name="four" unicode="4" horiz-adv-x="566" 
d="M359 0v162h-333v80l333 449h90v-449h95v-80h-95v-162h-90zM118 242h241v324z" />
    <glyph glyph-name="five" unicode="5" horiz-adv-x="553" 
d="M414.5 434q50.5 -30 78.5 -82t28 -116q0 -73 -32.5 -130t-89.5 -88.5t-126 -31.5q-76 0 -132 29.5t-86 78t-32 105.5h90q7 -57 44 -95t112 -38q73 0 117.5 44.5t44.5 125.5q0 75 -41 111.5t-111 36.5q-100 0 -151 -65h-96l72 372h380v-80h-307l-41 -209v-2q56 64 164 64
q64 0 114.5 -30z" />
    <glyph glyph-name="six" unicode="6" horiz-adv-x="582" 
d="M208.5 424q49.5 27 110.5 27q65 0 116 -28.5t79.5 -80t28.5 -119.5q0 -65 -29 -119t-83.5 -86t-127.5 -32q-136 0 -197.5 93.5t-61.5 266.5q0 174 67 266.5t195 92.5q62 0 110 -25.5t76 -69t33 -94.5h-90q-7 52 -39.5 80.5t-89.5 28.5q-98 0 -134 -75t-38 -200v-2
q25 49 74.5 76zM413.5 106.5q39.5 40.5 39.5 110.5q0 72 -39.5 113t-102.5 41q-75 0 -121 -43t-46 -113q0 -68 42.5 -108.5t116.5 -40.5q71 0 110.5 40.5z" />
    <glyph glyph-name="seven" unicode="7" horiz-adv-x="513" 
d="M502 691v-70q-78 -66 -143 -169.5t-103 -223t-38 -228.5h-95q0 109 42.5 229t107.5 221.5t129 158.5v2h-379v80h479z" />
    <glyph glyph-name="eight" unicode="8" horiz-adv-x="584" 
d="M68 300q35 40 93 66v2q-93 49 -93 148q0 88 61.5 138.5t162.5 50.5t162.5 -50.5t61.5 -138.5q0 -98 -93 -148v-2q58 -26 93 -66t35 -106q0 -101 -71.5 -154.5t-187.5 -53.5t-187.5 53.5t-71.5 154.5q0 66 35 106zM390.5 433.5q35.5 26.5 35.5 82.5q0 54 -36 81.5
t-98 27.5t-98 -27.5t-36 -81.5q0 -56 35.5 -82.5t98.5 -26.5t98.5 26.5zM416 100q45 34 45 97q0 62 -45.5 96t-123.5 34t-123.5 -34t-45.5 -96q0 -63 45 -97t124 -34t124 34z" />
    <glyph glyph-name="nine" unicode="9" horiz-adv-x="579" 
d="M374.5 267q-49.5 -27 -110.5 -27q-65 0 -116 28.5t-79.5 80t-28.5 119.5q0 65 29 119t83.5 86t127.5 32q136 0 197.5 -93.5t61.5 -266.5q0 -174 -67 -266.5t-195 -92.5q-62 0 -110 25.5t-76 69t-33 94.5h90q7 -52 39.5 -80.5t89.5 -28.5q98 0 134 75t38 200v2
q-25 -49 -74.5 -76zM169.5 584.5q-39.5 -40.5 -39.5 -110.5q0 -72 39.5 -113t102.5 -41q75 0 121 43t46 113q0 68 -42.5 108.5t-116.5 40.5q-71 0 -110.5 -40.5z" />
    <glyph glyph-name="colon" unicode=":" horiz-adv-x="204" 
d="M62.5 313q-15.5 15 -15.5 40q0 24 15.5 39.5t39.5 15.5t39.5 -15.5t15.5 -39.5q0 -25 -15.5 -40t-39.5 -15t-39.5 15zM62.5 8q-15.5 15 -15.5 40q0 24 15.5 39.5t39.5 15.5t39.5 -15.5t15.5 -39.5q0 -25 -15.5 -40t-39.5 -15t-39.5 15z" />
    <glyph glyph-name="semicolon" unicode=";" horiz-adv-x="204" 
d="M62.5 313q-15.5 15 -15.5 40q0 24 15.5 39.5t39.5 15.5t39.5 -15.5t15.5 -39.5q0 -25 -15.5 -40t-39.5 -15t-39.5 15zM90 -9q-19 0 -31 14t-12 40q0 28 15.5 43t38.5 15q27 0 41.5 -21t14.5 -57q0 -50 -23.5 -96.5t-76.5 -55.5v50q23 5 36.5 24t13.5 47q-9 -3 -17 -3z
" />
    <glyph glyph-name="less" unicode="&#x3c;" horiz-adv-x="535" 
d="M457 177l-342 133v2l342 134v80l-407 -170v-90l407 -169v80z" />
    <glyph glyph-name="equal" unicode="=" horiz-adv-x="560" 
d="M507 433v-80h-454v80h454zM507 274v-80h-454v80h454z" />
    <glyph glyph-name="greater" unicode="&#x3e;" horiz-adv-x="511" 
d="M54 177l342 133v2l-342 134v80l407 -170v-90l-407 -169v80z" />
    <glyph glyph-name="question" unicode="?" horiz-adv-x="504" 
d="M17 483q0 111 61.5 178.5t180.5 67.5q60 0 109.5 -23.5t77.5 -65t28 -94.5q0 -42 -13.5 -70.5t-32 -46t-59.5 -51.5q-38 -31 -57.5 -52t-33.5 -55.5t-14 -87.5h-90q0 54 16 95t40.5 70.5t61.5 61.5q16 14 25 21q35 28 51 51.5t16 63.5q0 45 -34 74t-91 29
q-152 0 -152 -166h-90zM179.5 8q-15.5 15 -15.5 40q0 24 15.5 39.5t39.5 15.5t39.5 -15.5t15.5 -39.5q0 -25 -15.5 -40t-39.5 -15t-39.5 15z" />
    <glyph glyph-name="at" unicode="@" horiz-adv-x="880" 
d="M596.5 99.5q-29.5 20.5 -50.5 60.5h-2q-23 -37 -57.5 -57t-86.5 -20q-47 0 -85 25t-60 71.5t-22 108.5q0 67 25 119.5t68 81t94 28.5q49 0 88.5 -25.5t53.5 -61.5h2l11 80h70l-32 -251q-2 -20 -2 -29q0 -39 16.5 -60t49.5 -21q46 0 73 44t27 127q0 94 -40.5 167.5
t-114.5 114.5t-172 41q-102 0 -181 -49t-122.5 -129.5t-43.5 -169.5q0 -97 44.5 -172t121 -117t171.5 -42q105 0 179 30l25 -57q-46 -24 -96 -33.5t-108 -9.5q-117 0 -209.5 49t-145 140t-52.5 212q0 113 53.5 209t149 152.5t214.5 56.5t209 -51.5t139 -140.5t49 -198
q0 -89 -27 -143.5t-67 -77.5t-82 -23q-45 0 -74.5 20.5zM509 199q35 46 35 116q0 64 -31.5 98t-79.5 34q-62 0 -96 -45.5t-34 -116.5q0 -60 28 -96t83 -36q60 0 95 46z" />
    <glyph glyph-name="A" unicode="A" horiz-adv-x="647" 
d="M166 179l-63 -179h-93l264 715h100l263 -715h-93l-63 179h-315zM452 259l-127 373h-2l-127 -373h256z" />
    <glyph glyph-name="B" unicode="B" horiz-adv-x="644" 
d="M478 387v-2q61 -10 100 -55.5t39 -121.5q0 -98 -65 -153t-177 -55h-308v715h288q109 0 171.5 -48.5t62.5 -131.5q0 -110 -111 -148zM369 416q72 0 101 28t29 81q0 51 -30 80.5t-90 29.5h-222v-219h212zM157 80h227q143 0 143 128q0 58 -33.5 93t-89.5 35h-247v-256z" />
    <glyph glyph-name="C" unicode="C" horiz-adv-x="709" 
d="M521.5 597q-50.5 52 -150.5 52q-81 0 -135 -41t-80 -107.5t-26 -142.5q0 -77 26 -143.5t80 -107.5t135 -41q71 0 118 28t70 71.5t26 92.5h90q-8 -79 -47 -141t-105 -96.5t-152 -34.5q-97 0 -172 48t-117 132.5t-42 191.5t42 191.5t117 132t172 47.5q85 0 151 -33.5
t105 -90.5t48 -126h-90q-13 66 -63.5 118z" />
    <glyph glyph-name="D" unicode="D" horiz-adv-x="684" 
d="M67 715h259q99 0 170.5 -41.5t109.5 -122t38 -194.5q0 -171 -84.5 -264t-233.5 -93h-259v715zM157 80h169q125 0 176.5 77.5t51.5 199.5t-51.5 200t-176.5 78h-169v-555z" />
    <glyph glyph-name="E" unicode="E" horiz-adv-x="622" 
d="M524 410v-80h-367v-250h427v-80h-517v715h505v-80h-415v-225h367z" />
    <glyph glyph-name="F" unicode="F" horiz-adv-x="578" 
d="M476 403v-80h-319v-323h-90v715h485v-80h-395v-232h319z" />
    <glyph glyph-name="G" unicode="G" horiz-adv-x="742" 
d="M512 611q-56 38 -140 38q-80 0 -134.5 -43t-81 -109.5t-26.5 -138.5q0 -120 54.5 -206t177.5 -86q64 0 117 28.5t84.5 80.5t31.5 117h-233v80h323v-372h-60l-30 101h-2q-42 -58 -96.5 -86.5t-134.5 -28.5q-102 0 -174.5 47.5t-110 131.5t-37.5 193q0 107 42 191.5
t117.5 132t172.5 47.5q131 0 206 -61.5t95 -168.5h-90q-15 74 -71 112z" />
    <glyph glyph-name="H" unicode="H" horiz-adv-x="696" 
d="M157 715v-304h382v304h90v-715h-90v331h-382v-331h-90v715h90z" />
    <glyph glyph-name="I" unicode="I" horiz-adv-x="228" 
d="M159 715v-715h-90v715h90z" />
    <glyph glyph-name="J" unicode="J" horiz-adv-x="497" 
d="M390 52q-49 -66 -160 -66t-159.5 66t-48.5 166v20h90v-20q0 -49 8.5 -81.5t34.5 -51.5t75 -19q72 0 95.5 38.5t23.5 113.5v497h90v-497q0 -100 -49 -166z" />
    <glyph glyph-name="K" unicode="K" horiz-adv-x="644" 
d="M157 715v-383l359 383h110l-281 -297l301 -418h-105l-256 356l-128 -135v-221h-90v715h90z" />
    <glyph glyph-name="L" unicode="L" horiz-adv-x="554" 
d="M157 715v-635h375v-80h-465v715h90z" />
    <glyph glyph-name="M" unicode="M" horiz-adv-x="830" 
d="M67 715h123l224 -594h2l224 594h123v-715h-90v588h-2l-216 -588h-80l-216 588h-2v-588h-90v715z" />
    <glyph glyph-name="N" unicode="N" horiz-adv-x="693" 
d="M67 715h110l357 -589h2v589h90v-715h-110l-357 587h-2v-587h-90v715z" />
    <glyph glyph-name="O" unicode="O" horiz-adv-x="780" 
d="M207.5 34q-79.5 48 -123.5 132.5t-44 191.5t44 191.5t123.5 132t182.5 47.5t182.5 -47.5t123.5 -132t44 -191.5t-44 -191.5t-123.5 -132.5t-182.5 -48t-182.5 48zM534.5 105.5q58.5 39.5 87 106t28.5 146.5t-28.5 146t-87 105.5t-144.5 39.5t-144.5 -39.5t-87 -105.5
t-28.5 -146t28.5 -146.5t87 -106t144.5 -39.5t144.5 39.5z" />
    <glyph glyph-name="P" unicode="P" horiz-adv-x="603" 
d="M67 715h284q105 0 168.5 -50.5t63.5 -157.5t-63.5 -157.5t-168.5 -50.5h-194v-299h-90v715zM157 379h204q67 0 99.5 31.5t32.5 96.5t-32.5 96.5t-99.5 31.5h-204v-256z" />
    <glyph glyph-name="Q" unicode="Q" horiz-adv-x="780" 
d="M718 218.5q-22 -64.5 -63 -113.5l84 -84l-57 -57l-85 85q-88 -63 -207 -63q-103 0 -182.5 48t-123.5 132.5t-44 191.5t44 191.5t123.5 132t182.5 47.5t182.5 -47.5t123.5 -132t44 -191.5q0 -75 -22 -139.5zM538 108l-99 99l57 57l99 -99q27 38 41 88t14 105
q0 80 -28.5 146t-87 105.5t-144.5 39.5t-144.5 -39.5t-87 -105.5t-28.5 -146t28.5 -146.5t87 -106t144.5 -39.5q85 0 148 42z" />
    <glyph glyph-name="R" unicode="R" horiz-adv-x="633" 
d="M67 715h290q107 0 171.5 -54.5t64.5 -148.5q0 -75 -33.5 -119.5t-94.5 -60.5v-2q49 -10 75 -49t34 -86t12 -110q3 -41 6 -58.5t11 -20.5v-6h-97q-6 6 -8 23.5t-2 48.5q-2 64 -9.5 107.5t-36.5 76.5t-88 33h-205v-289h-90v715zM157 369h179q47 0 82.5 8.5t60 37.5t24.5 87
t-24.5 87t-60 37.5t-82.5 8.5h-179v-266z" />
    <glyph glyph-name="S" unicode="S" horiz-adv-x="626" 
d="M476 371q52 -21 83 -64t31 -120q0 -54 -27.5 -100t-85.5 -73.5t-145 -27.5q-85 0 -153.5 29.5t-110 87t-46.5 137.5h90q8 -80 61 -127t159 -47q87 0 127.5 34t40.5 87q0 49 -19.5 75t-61.5 41.5t-132 36.5q-69 16 -118 36t-83 60t-34 105q0 86 64 137t181 51
q116 0 188.5 -58.5t81.5 -167.5h-90q-10 73 -53.5 109.5t-126.5 36.5q-74 0 -114.5 -26.5t-40.5 -71.5t22 -69.5t54 -35.5t106 -29q100 -25 152 -46z" />
    <glyph glyph-name="T" unicode="T" horiz-adv-x="610" 
d="M260 635h-238v80h566v-80h-238v-635h-90v635z" />
    <glyph glyph-name="U" unicode="U" horiz-adv-x="658" 
d="M535 54.5q-68 -68.5 -206 -68.5t-206 68.5t-68 183.5v477h90v-477q0 -87 45.5 -129.5t138.5 -42.5t138.5 42.5t45.5 129.5v477h90v-477q0 -115 -68 -183.5z" />
    <glyph glyph-name="V" unicode="V" horiz-adv-x="619" 
d="M105 715l204 -625h1l204 625h95l-250 -715h-99l-250 715h95z" />
    <glyph glyph-name="W" unicode="W" horiz-adv-x="914" 
d="M109 715l136 -586h2l160 586h100l160 -586h2l136 586h95l-177 -715h-100l-165 613h-2l-165 -613h-100l-177 715h95z" />
    <glyph glyph-name="X" unicode="X" horiz-adv-x="616" 
d="M31 715h100l176 -286h1l177 286h100l-227 -348l244 -367h-110l-184 301h-1l-183 -301h-110l244 365z" />
    <glyph glyph-name="Y" unicode="Y" horiz-adv-x="631" 
d="M107 715l207 -350h2l208 350h97l-261 -422v-293h-90v293l-260 422h97z" />
    <glyph glyph-name="Z" unicode="Z" horiz-adv-x="622" 
d="M576 715v-80l-436 -553v-2h446v-80h-556v80l436 553v2h-416v80h526z" />
    <glyph glyph-name="bracketleft" unicode="[" horiz-adv-x="296" 
d="M266 755v-80h-99v-712h99v-80h-189v872h189z" />
    <glyph glyph-name="backslash" unicode="\" horiz-adv-x="389" 
d="M96 715l277 -715h-80l-277 715h80z" />
    <glyph glyph-name="bracketright" unicode="]" horiz-adv-x="296" 
d="M30 755v-80h99v-712h-99v-80h189v872h-189z" />
    <glyph glyph-name="asciicircum" unicode="^" horiz-adv-x="453" 
d="M267 715l175 -275h-89l-126 202h-1l-125 -202h-90l176 275h80z" />
    <glyph glyph-name="underscore" unicode="_" horiz-adv-x="408" 
d="M410 -86v-80h-412v80h412z" />
    <glyph glyph-name="grave" unicode="`" horiz-adv-x="667" 
d="M277 598h-65l-73 127h95z" />
    <glyph glyph-name="a" unicode="a" horiz-adv-x="510" 
d="M263 454q-72 0 -101 -23t-33 -79h-80q4 79 56 125.5t158 46.5q82 0 133 -37.5t51 -123.5v-248q0 -30 8.5 -43.5t34.5 -13.5q9 0 15 1v-56q-24 -8 -47 -8q-38 0 -59.5 14.5t-31.5 54.5h-2q-25 -37 -68.5 -57.5t-104.5 -20.5q-77 0 -122.5 40t-45.5 105q0 56 26 89
t71.5 50.5t120.5 31.5q49 9 74 17t38 22t13 39q0 74 -104 74zM321 91.5q46 35.5 46 105.5v85q-20 -20 -118 -40q-78 -17 -111.5 -40t-33.5 -67q0 -79 96 -79q75 0 121 35.5z" />
    <glyph glyph-name="b" unicode="b" horiz-adv-x="553" 
d="M55 715v-715h80v63h2q59 -77 160 -77q64 0 116.5 32.5t83 93.5t30.5 143t-30.5 143t-83 93.5t-116.5 32.5q-105 0 -160 -80h-2v271h-80zM176.5 110.5q-41.5 54.5 -41.5 144.5t41.5 144.5t112.5 54.5q50 0 86 -28t54 -73.5t18 -97.5t-18 -97.5t-54 -73.5t-86 -28
q-71 0 -112.5 54.5z" />
    <glyph glyph-name="c" unicode="c" horiz-adv-x="519" 
d="M378 415q-35 39 -105 39q-84 0 -125.5 -59t-41.5 -140t41.5 -140t125.5 -59q71 0 105.5 39t38.5 93h80q-3 -58 -33 -104t-79.5 -72t-111.5 -26q-74 0 -130 34t-86.5 95t-30.5 140t30.5 140t86.5 95t130 34q62 0 110.5 -25.5t78 -70.5t35.5 -102h-80q-4 50 -39 89z" />
    <glyph glyph-name="d" unicode="d" horiz-adv-x="553" 
d="M498 715v-715h-80v63h-2q-59 -77 -160 -77q-64 0 -116.5 32.5t-83 93.5t-30.5 143t30.5 143t83 93.5t116.5 32.5q105 0 160 -80h2v271h80zM376.5 110.5q41.5 54.5 41.5 144.5t-41.5 144.5t-112.5 54.5q-50 0 -86 -28t-54 -73.5t-18 -97.5t18 -97.5t54 -73.5t86 -28
q71 0 112.5 54.5z" />
    <glyph glyph-name="e" unicode="e" horiz-adv-x="533" 
d="M376 88q36 32 45 69h80q-21 -76 -78.5 -123.5t-147.5 -47.5q-76 0 -132.5 33.5t-86.5 94.5t-30 141q0 126 66 197.5t179 71.5q118 0 178 -76t60 -214h-403q0 -48 19 -88.5t56.5 -65t90.5 -24.5q68 0 104 32zM186.5 434q-37.5 -20 -59 -54.5t-21.5 -75.5h323
q0 41 -19.5 75.5t-55.5 54.5t-83 20t-84.5 -20z" />
    <glyph glyph-name="f" unicode="f" horiz-adv-x="293" 
d="M243 646q-38 0 -54 -13.5t-16 -50.5v-72h97v-70h-97v-440h-80v440h-71v70h71v80q0 73 31.5 102t88.5 29q30 0 57 -6v-70q-10 1 -27 1z" />
    <glyph glyph-name="g" unicode="g" horiz-adv-x="553" 
d="M498 510v-482q0 -100 -59.5 -152.5t-166.5 -52.5q-68 0 -119 21.5t-79.5 58.5t-32.5 81h80q8 -42 43.5 -66.5t103.5 -24.5q150 0 150 136v77h-2q-55 -80 -162 -80q-65 0 -116.5 28t-81.5 84t-30 137t30 137t81.5 84t116.5 28q103 0 162 -77h2v63h80zM377.5 141.5
q40.5 45.5 40.5 133.5t-40.5 133.5t-113.5 45.5q-76 0 -117 -50t-41 -129t41 -129t117 -50q73 0 113.5 45.5z" />
    <glyph glyph-name="h" unicode="h" horiz-adv-x="528" 
d="M428 481.5q48 -42.5 48 -125.5v-356h-80v336q0 53 -27 85.5t-84 32.5q-67 0 -108.5 -38t-41.5 -98v-318h-80v715h80v-266h2q24 32 66 53.5t102 21.5q75 0 123 -42.5z" />
    <glyph glyph-name="i" unicode="i" horiz-adv-x="210" 
d="M71 622q-16 13 -16 35t16 35t34 13q19 0 34.5 -13t15.5 -35t-15.5 -35t-34.5 -13q-18 0 -34 13zM145 510v-510h-80v510h80z" />
    <glyph glyph-name="j" unicode="j" horiz-adv-x="201" 
d="M62 622q-16 13 -16 35t16 35t34 13q19 0 34.5 -13t15.5 -35t-15.5 -35t-34.5 -13q-18 0 -34 13zM136 510v-545q0 -67 -20.5 -102t-69.5 -35q-34 0 -74 11v60q12 -1 32 -1q31 0 41.5 11.5t10.5 47.5v553h80z" />
    <glyph glyph-name="k" unicode="k" horiz-adv-x="489" 
d="M135 715v-424l234 219h100l-199 -189l220 -321h-95l-181 274l-79 -73v-201h-80v715h80z" />
    <glyph glyph-name="l" unicode="l" horiz-adv-x="196" 
d="M138 715v-715h-80v715h80z" />
    <glyph glyph-name="m" unicode="m" horiz-adv-x="793" 
d="M702.5 480.5q38.5 -43.5 38.5 -124.5v-356h-80v336q0 57 -19 87.5t-74 30.5q-59 0 -94.5 -38t-35.5 -98v-318h-80v336q0 57 -19 87.5t-74 30.5q-59 0 -94.5 -38t-35.5 -98v-318h-80v510h80v-61h2q56 75 148 75q54 0 87 -22t49 -66h2q64 88 165 88q76 0 114.5 -43.5z" />
    <glyph glyph-name="n" unicode="n" horiz-adv-x="528" 
d="M428 481.5q48 -42.5 48 -125.5v-356h-80v336q0 53 -27 85.5t-84 32.5q-67 0 -108.5 -38t-41.5 -98v-318h-80v510h80v-61h2q24 32 66 53.5t102 21.5q75 0 123 -42.5z" />
    <glyph glyph-name="o" unicode="o" horiz-adv-x="551" 
d="M408.5 20q56.5 34 86.5 95t30 140t-30 140t-86.5 95t-132.5 34q-77 0 -133.5 -34t-86.5 -95t-30 -140t30 -140t86.5 -95t133.5 -34q76 0 132.5 34zM150 112q-44 56 -44 143t44 143t126 56t125.5 -56t43.5 -143t-43.5 -143t-125.5 -56t-126 56z" />
    <glyph glyph-name="p" unicode="p" horiz-adv-x="556" 
d="M55 510v-682h80v238h2q55 -80 162 -80q63 0 115 32.5t82.5 93.5t30.5 143t-30.5 143t-82.5 93.5t-115 32.5q-103 0 -162 -77h-2v63h-80zM176.5 110.5q-41.5 54.5 -41.5 144.5t41.5 144.5t112.5 54.5q50 0 86 -28t54 -73.5t18 -97.5t-18 -97.5t-54 -73.5t-86 -28
q-71 0 -112.5 54.5z" />
    <glyph glyph-name="q" unicode="q" horiz-adv-x="556" 
d="M501 510v-682h-80v238h-2q-55 -80 -162 -80q-63 0 -115 32.5t-82.5 93.5t-30.5 143t30.5 143t82.5 93.5t115 32.5q103 0 162 -77h2v63h80zM379.5 110.5q41.5 54.5 41.5 144.5t-41.5 144.5t-112.5 54.5q-50 0 -86 -28t-54 -73.5t-18 -97.5t18 -97.5t54 -73.5t86 -28
q71 0 112.5 54.5z" />
    <glyph glyph-name="r" unicode="r" horiz-adv-x="343" 
d="M325 521v-80h-2q-16 3 -31 3q-70 0 -113.5 -49t-43.5 -123v-272h-80v510h80v-101h2q22 55 55.5 85t85.5 30q26 0 47 -3z" />
    <glyph glyph-name="s" unicode="s" horiz-adv-x="479" 
d="M331.5 286.5q60.5 -14.5 92.5 -51.5t32 -95q0 -46 -26 -81t-71.5 -54t-103.5 -19q-113 0 -171 49t-62 135h80q5 -53 35.5 -83.5t117.5 -30.5q60 0 90.5 24.5t30.5 54.5t-14.5 47t-36.5 25.5t-61 17.5l-28 6q-22 5 -29 7q-52 11 -85 23.5t-56.5 40.5t-23.5 77q0 40 23 73
t66.5 52.5t101.5 19.5q91 0 144 -45t59 -115h-80q-8 39 -33.5 64.5t-89.5 25.5q-53 0 -82 -19t-29 -50q0 -24 14 -38t35.5 -21t60.5 -16l30 -7q9 -2 69.5 -16.5z" />
    <glyph glyph-name="t" unicode="t" horiz-adv-x="306" 
d="M177 440v-307q0 -36 17 -50t56 -14q17 0 27 1v-70q-27 -6 -60 -6q-57 0 -88.5 29t-31.5 102v315h-75v70h75v170h80v-170h100v-70h-100z" />
    <glyph glyph-name="u" unicode="u" horiz-adv-x="528" 
d="M473 510v-510h-80v61h-2q-24 -32 -66 -53.5t-102 -21.5q-75 0 -123 42.5t-48 125.5v356h80v-336q0 -53 27 -85.5t84 -32.5q67 0 108.5 38t41.5 98v318h80z" />
    <glyph glyph-name="v" unicode="v" horiz-adv-x="461" 
d="M89 510l141 -430h1l141 430h87l-183 -510h-91l-183 510h87z" />
    <glyph glyph-name="w" unicode="w" horiz-adv-x="734" 
d="M92 510l116 -423h2l114 423h85l115 -423h2l116 423h88l-163 -510h-85l-115 421h-2l-113 -421h-85l-163 510h88z" />
    <glyph glyph-name="x" unicode="x" horiz-adv-x="503" 
d="M118 510l132 -195h2l132 195h95l-180 -249l198 -261h-95l-150 208h-2l-149 -208h-95l197 261l-180 249h95z" />
    <glyph glyph-name="y" unicode="y" horiz-adv-x="489" 
d="M269 -42q-17 -42 -30.5 -66.5t-41 -44t-70.5 -19.5q-35 0 -68 10v60h12q10 -1 27 -1q24 0 42 6.5t33 22.5q13 14 21.5 33.5t8.5 41.5t-8 41l-193 468h90l156 -416h2l147 416h90z" />
    <glyph glyph-name="z" unicode="z" horiz-adv-x="471" 
d="M322 438v2h-271v70h384v-48l-297 -390v-2h308v-70h-412v60z" />
    <glyph glyph-name="braceleft" unicode="{" horiz-adv-x="296" 
d="M70 383q12 25 12 70v108q0 82 17 124t51.5 56t96.5 14h19v-80h-19q-38 0 -56.5 -20.5t-18.5 -72.5v-155q0 -40 -15.5 -65t-43.5 -42v-2q28 -17 43.5 -42t15.5 -66v-150q0 -55 18.5 -76t56.5 -21h19v-80h-19q-61 0 -95.5 15t-52 58t-17.5 125v103q0 45 -12 70t-46 25v80
q34 -1 46 24z" />
    <glyph glyph-name="bar" unicode="|" horiz-adv-x="224" 
d="M147 744v-872h-70v872h70z" />
    <glyph glyph-name="braceright" unicode="}" horiz-adv-x="296" 
d="M226 383q-12 25 -12 70v108q0 82 -17 124t-51.5 56t-96.5 14h-19v-80h19q38 0 56.5 -20.5t18.5 -72.5v-155q0 -40 15.5 -65t43.5 -42v-2q-28 -17 -43.5 -42t-15.5 -66v-150q0 -55 -18.5 -76t-56.5 -21h-19v-80h19q61 0 95.5 15t52 58t17.5 125v103q0 45 12 70t46 25v80
q-34 -1 -46 24z" />
    <glyph glyph-name="asciitilde" unicode="~" horiz-adv-x="393" 
d="M60 355q24 33 65 33q22 0 40 -6.5t41 -19.5q11 -7 22.5 -12t20.5 -5q20 0 29 13.5t9 29.5h70q0 -52 -24 -85t-65 -33q-22 0 -40.5 7t-39.5 19q-12 7 -23.5 12t-20.5 5q-20 0 -29 -13.5t-9 -29.5h-70q0 52 24 85z" />
    <glyph glyph-name="exclamdown" unicode="&#xa1;" horiz-adv-x="248" 
d="M169 -130v205l-20 326h-50l-20 -326v-205h90zM84.5 577q-15.5 -15 -15.5 -40q0 -24 15.5 -39.5t39.5 -15.5t39.5 15.5t15.5 39.5q0 25 -15.5 40t-39.5 15t-39.5 -15z" />
    <glyph glyph-name="cent" unicode="&#xa2;" horiz-adv-x="519" 
d="M384.5 101.5q29.5 37.5 32.5 86.5h80q-5 -82 -60.5 -138t-140.5 -63v-72h-60v73q-96 13 -153 85.5t-57 181.5t57 181.5t153 85.5v69h60v-68q84 -7 138.5 -61.5t62.5 -135.5h-80q-4 46 -33.5 83t-87.5 44v-396q59 7 88.5 44.5zM138.5 128.5q32.5 -55.5 97.5 -68.5v390
q-65 -13 -97.5 -68.5t-32.5 -126.5t32.5 -126.5z" />
    <glyph glyph-name="sterling" unicode="&#xa3;" horiz-adv-x="551" 
d="M538 46q-39 -30 -68.5 -45t-71.5 -15q-31 0 -55 8.5t-57 24.5q-26 14 -45 21t-40 7q-30 0 -55 -10t-67 -37l-48 66q42 27 67.5 80.5t25.5 119.5q0 10 -1 15h-82v80h55q-18 41 -26.5 69.5t-8.5 67.5q0 46 23.5 92t75 77.5t129.5 31.5q116 0 172.5 -64.5t56.5 -170.5h-90
q0 76 -33 115.5t-106 39.5q-65 0 -101.5 -35t-36.5 -93q0 -29 7.5 -53.5t17 -46t13.5 -30.5h155v-80h-131q1 -6 1 -20q0 -55 -22 -99.5t-59 -71.5l1 -2q6 3 22.5 11.5t35.5 14t40 5.5q25 0 43.5 -6t42.5 -18q22 -11 36.5 -16t33.5 -5q32 0 56.5 11t55.5 34z" />
    <glyph glyph-name="currency" unicode="&#xa4;" horiz-adv-x="486" 
d="M403 228l65 -65l-43 -43l-64 64q-25 -19 -56 -29t-62 -10q-67 0 -118 39l-64 -64l-43 42l65 65q-35 49 -35 117q0 69 35 118l-65 65l43 42l64 -64q53 38 118 38q66 0 117 -39l64 64l44 -42l-66 -65q35 -49 35 -117q0 -66 -34 -116zM160 247.5q32 -32.5 83 -32.5
t82.5 32.5t31.5 96.5t-31.5 96.5t-82.5 32.5t-83 -32.5t-32 -96.5t32 -96.5z" />
    <glyph glyph-name="yen" unicode="&#xa5;" horiz-adv-x="562" 
d="M338 305h163v-60h-175v-57h175v-60h-175v-128h-90v128h-175v60h175v57h-175v60h163l-214 381h97l173 -330h2l173 330h97z" />
    <glyph glyph-name="brokenbar" unicode="&#xa6;" horiz-adv-x="224" 
d="M147 744v-360h-70v360h70zM147 245v-373h-70v373h70z" />
    <glyph glyph-name="section" unicode="&#xa7;" horiz-adv-x="582" 
d="M523 131.5q-31 -33.5 -88 -44.5q43 -53 43 -115q0 -64 -48 -105.5t-141 -41.5q-96 0 -144 47t-51 120h80q3 -29 10 -48t31.5 -34t73.5 -15q109 0 109 71q0 40 -38 73t-102 71q-7 4 -27 16l-43 26q-58 34 -89 56.5t-51 53t-20 72.5q0 107 120 132q-44 52 -44 116t48 105.5
t141 41.5q96 0 144 -47t51 -120h-80q-3 29 -10 48t-31.5 34t-73.5 15q-109 0 -109 -71q0 -42 40 -76t107 -72l20 -12q78 -47 115 -72.5t62.5 -59t25.5 -76.5q0 -55 -31 -88.5zM453.5 162q20.5 18 20.5 48q0 24 -20.5 46.5t-53 43t-95.5 54.5q-7 4 -41.5 23t-64.5 42
q-50 -9 -70.5 -27t-20.5 -48q0 -25 16 -45t41.5 -36t74.5 -43l37 -20q7 -4 41.5 -23t64.5 -42q50 9 70.5 27z" />
    <glyph glyph-name="dieresis" unicode="&#xa8;" horiz-adv-x="508" 
d="M142.5 709.5q13.5 14.5 36.5 14.5t36.5 -14.5t13.5 -35.5q0 -20 -13.5 -34.5t-36.5 -14.5t-36.5 14.5t-13.5 34.5q0 21 13.5 35.5zM292.5 709.5q13.5 14.5 36.5 14.5t36.5 -14.5t13.5 -35.5q0 -20 -13.5 -34.5t-36.5 -14.5t-36.5 14.5t-13.5 34.5q0 21 13.5 35.5z" />
    <glyph glyph-name="copyright" unicode="&#xa9;" horiz-adv-x="817" 
d="M214.5 32q-83.5 48 -129 133t-45.5 192t45.5 192t129 133.5t194.5 48.5t194.5 -48.5t128.5 -133.5t45 -192t-45 -192t-128.5 -133t-194.5 -48t-194.5 48zM576.5 68.5q72.5 44.5 111.5 120.5t39 168t-39 168.5t-111.5 121t-167.5 44.5t-167.5 -44.5t-112 -121
t-39.5 -168.5t39.5 -168t112 -120.5t167.5 -44.5t167.5 44.5zM497.5 482q-27.5 30 -87.5 30q-73 0 -103 -43t-30 -112q0 -68 30 -111t103 -43q61 0 88 29.5t32 62.5h70q-3 -45 -26 -82t-64 -58.5t-95 -21.5q-98 0 -153 61.5t-55 162.5t52.5 163t147.5 62q82 0 133.5 -46
t59.5 -115h-70q-5 31 -32.5 61z" />
    <glyph glyph-name="guillemotleft" unicode="&#xab;" horiz-adv-x="384" 
d="M30 297l137 114v-80l-95 -78v-2l95 -78v-80l-137 114v90zM217 297l137 114v-80l-95 -78v-2l95 -78v-80l-137 114v90z" />
    <glyph glyph-name="logicalnot" unicode="&#xac;" horiz-adv-x="560" 
d="M63 318v80h414v-254h-90v174h-324z" />
    <glyph glyph-name="registered" unicode="&#xae;" horiz-adv-x="528" 
d="M143.5 278.5q-54.5 31.5 -86 87t-31.5 123.5t31.5 123.5t86 87t120.5 31.5t120.5 -31.5t86 -87t31.5 -123.5t-31.5 -123.5t-86 -87t-120.5 -31.5t-120.5 31.5zM364 313q45 26 71.5 72.5t26.5 103.5t-26.5 103t-72 72.5t-99.5 26.5t-99.5 -26.5t-72 -72.5t-26.5 -103
t26.5 -103.5t71.5 -72.5t100 -26t100 26zM176 620h104q39 0 62 -19.5t23 -53.5q0 -53 -46 -65v-1q26 -5 33.5 -28t9.5 -60q2 -27 6 -28v-2h-45q-2 2 -3 11.5t-1 12.5q-1 35 -11.5 57.5t-45.5 22.5h-44v-104h-42v257zM218 505h44q29 0 44.5 6t15.5 32t-15 32t-45 6h-44v-76z
" />
    <glyph glyph-name="macron" unicode="&#xaf;" horiz-adv-x="500" 
d="M379 700v-70h-258v70h258z" />
    <glyph glyph-name="degree" unicode="&#xb0;" horiz-adv-x="368" 
d="M101.5 451.5q-33.5 22.5 -50.5 57t-17 70.5t17 70.5t50.5 57t82.5 22.5q48 0 82 -22.5t51 -57t17 -70.5t-17 -70.5t-51 -57t-82 -22.5q-49 0 -82.5 22.5zM249.5 514.5q24.5 25.5 24.5 64.5t-24.5 64.5t-65.5 25.5t-65.5 -25.5t-24.5 -64.5t24.5 -64.5t65.5 -25.5
t65.5 25.5z" />
    <glyph glyph-name="plusminus" unicode="&#xb1;" horiz-adv-x="560" 
d="M53 386h187v172h80v-172h187v-79h-187v-173h-80v173h-187v79zM507 70v-70h-454v70h454z" />
    <glyph glyph-name="acute" unicode="&#xb4;" horiz-adv-x="487" 
d="M348 725l-73 -127h-65l43 127h95z" />
    <glyph glyph-name="paragraph" unicode="&#xb6;" horiz-adv-x="549" 
d="M220 335q-94 0 -142.5 48t-48.5 139q0 92 48.5 142.5t142.5 50.5h262v-715h-70v635h-76v-635h-70v335h-46z" />
    <glyph glyph-name="periodcentered" unicode="&#xb7;" horiz-adv-x="198" 
d="M62.5 270q-15.5 15 -15.5 40q0 24 15.5 39.5t39.5 15.5t39.5 -15.5t15.5 -39.5q0 -25 -15.5 -40t-39.5 -15t-39.5 15z" />
    <glyph glyph-name="cedilla" unicode="&#xb8;" horiz-adv-x="500" 
d="M235 -59v-2q6 1 17 1q32 0 56 -15t24 -46q0 -34 -31 -54.5t-73 -20.5q-30 0 -59.5 8t-47.5 21l21 25q21 -8 37.5 -11.5t37.5 -3.5q24 0 39.5 10.5t15.5 26.5q0 14 -12 20.5t-38 6.5q-10 0 -22 -2t-18 -5l-12 19l57 74h50z" />
    <glyph glyph-name="guillemotright" unicode="&#xbb;" horiz-adv-x="384" 
d="M354 297l-137 114v-80l95 -78v-2l-95 -78v-80l137 114v90zM167 297l-137 114v-80l95 -78v-2l-95 -78v-80l137 114v90z" />
    <glyph glyph-name="questiondown" unicode="&#xbf;" horiz-adv-x="504" 
d="M487 101q0 -111 -61.5 -178.5t-180.5 -67.5q-60 0 -109.5 23.5t-77.5 65t-28 94.5q0 42 13.5 70.5t32 46t59.5 51.5q38 31 57.5 52t33.5 55.5t14 87.5h90q0 -54 -16 -95t-40.5 -70.5t-61.5 -61.5q-16 -14 -25 -21q-35 -28 -51 -51.5t-16 -63.5q0 -45 34 -74t91 -29
q152 0 152 166h90zM324.5 576q15.5 -15 15.5 -40q0 -24 -15.5 -39.5t-39.5 -15.5t-39.5 15.5t-15.5 39.5q0 25 15.5 40t39.5 15t39.5 -15z" />
    <glyph glyph-name="Agrave" unicode="&#xc0;" horiz-adv-x="647" 
d="M166 179l-63 -179h-93l264 715h100l263 -715h-93l-63 179h-315zM452 259l-127 373h-2l-127 -373h256zM358 803h-65l-73 127h95z" />
    <glyph glyph-name="Aacute" unicode="&#xc1;" horiz-adv-x="647" 
d="M166 179l-63 -179h-93l264 715h100l263 -715h-93l-63 179h-315zM452 259l-127 373h-2l-127 -373h256zM428 930l-73 -127h-65l43 127h95z" />
    <glyph glyph-name="Acircumflex" unicode="&#xc2;" horiz-adv-x="647" 
d="M166 179l-63 -179h-93l264 715h100l263 -715h-93l-63 179h-315zM452 259l-127 373h-2l-127 -373h256zM279 930h90l92 -127h-80l-56 84h-2l-56 -84h-80z" />
    <glyph glyph-name="Atilde" unicode="&#xc3;" horiz-adv-x="647" 
d="M166 179l-63 -179h-93l264 715h100l263 -715h-93l-63 179h-315zM452 259l-127 373h-2l-127 -373h256zM205.5 898.5q21.5 23.5 52.5 23.5q18 0 35.5 -5.5t42.5 -16.5q6 -2 20.5 -8t23.5 -6q23 0 23 34h60q0 -48 -21.5 -71t-52.5 -23q-18 0 -35.5 5.5t-42.5 16.5
q-6 2 -20.5 8t-23.5 6q-23 0 -23 -34h-60q0 47 21.5 70.5z" />
    <glyph glyph-name="Adieresis" unicode="&#xc4;" horiz-adv-x="647" 
d="M166 179l-63 -179h-93l264 715h100l263 -715h-93l-63 179h-315zM452 259l-127 373h-2l-127 -373h256zM212.5 914.5q13.5 14.5 36.5 14.5t36.5 -14.5t13.5 -35.5q0 -20 -13.5 -34.5t-36.5 -14.5t-36.5 14.5t-13.5 34.5q0 21 13.5 35.5zM362.5 914.5q13.5 14.5 36.5 14.5
t36.5 -14.5t13.5 -35.5q0 -20 -13.5 -34.5t-36.5 -14.5t-36.5 14.5t-13.5 34.5q0 21 13.5 35.5z" />
    <glyph glyph-name="Aring" unicode="&#xc5;" horiz-adv-x="647" 
d="M166 179l-63 -179h-93l264 715h100l263 -715h-93l-63 179h-315zM452 259l-127 373h-2l-127 -373h256zM261.5 812.5q-25.5 24.5 -25.5 62.5t25.5 63t61.5 25q37 0 62.5 -25t25.5 -63t-25.5 -62.5t-62.5 -24.5q-36 0 -61.5 24.5zM356 841q14 13 14 34t-14 34.5t-33 13.5
t-32.5 -13.5t-13.5 -34.5t13.5 -34t32.5 -13t33 13z" />
    <glyph glyph-name="AE" unicode="&#xc6;" horiz-adv-x="987" 
d="M949 80v-80h-517v179h-262l-63 -179h-93l264 715h659v-80h-415v-225h367v-80h-367v-250h427zM432 259v373h-105l-127 -373h232z" />
    <glyph glyph-name="Ccedilla" unicode="&#xc7;" horiz-adv-x="709" 
d="M521.5 597q-50.5 52 -150.5 52q-81 0 -135 -41t-80 -107.5t-26 -142.5q0 -77 26 -143.5t80 -107.5t135 -41q71 0 118 28t70 71.5t26 92.5h90q-8 -79 -47 -141t-105 -96.5t-152 -34.5q-97 0 -172 48t-117 132.5t-42 191.5t42 191.5t117 132t172 47.5q85 0 151 -33.5
t105 -90.5t48 -126h-90q-13 66 -63.5 118zM355 -59v-2q6 1 17 1q32 0 56 -15t24 -46q0 -34 -31 -54.5t-73 -20.5q-30 0 -59.5 8t-47.5 21l21 25q21 -8 37.5 -11.5t37.5 -3.5q24 0 39.5 10.5t15.5 26.5q0 14 -12 20.5t-38 6.5q-10 0 -22 -2t-18 -5l-12 19l57 74h50z" />
    <glyph glyph-name="Egrave" unicode="&#xc8;" horiz-adv-x="622" 
d="M524 410v-80h-367v-250h427v-80h-517v715h505v-80h-415v-225h367zM360 803h-65l-73 127h95z" />
    <glyph glyph-name="Eacute" unicode="&#xc9;" horiz-adv-x="622" 
d="M524 410v-80h-367v-250h427v-80h-517v715h505v-80h-415v-225h367zM430 930l-73 -127h-65l43 127h95z" />
    <glyph glyph-name="Ecircumflex" unicode="&#xca;" horiz-adv-x="622" 
d="M524 410v-80h-367v-250h427v-80h-517v715h505v-80h-415v-225h367zM281 930h90l92 -127h-80l-56 84h-2l-56 -84h-80z" />
    <glyph glyph-name="Edieresis" unicode="&#xcb;" horiz-adv-x="622" 
d="M524 410v-80h-367v-250h427v-80h-517v715h505v-80h-415v-225h367zM214.5 914.5q13.5 14.5 36.5 14.5t36.5 -14.5t13.5 -35.5q0 -20 -13.5 -34.5t-36.5 -14.5t-36.5 14.5t-13.5 34.5q0 21 13.5 35.5zM364.5 914.5q13.5 14.5 36.5 14.5t36.5 -14.5t13.5 -35.5
q0 -20 -13.5 -34.5t-36.5 -14.5t-36.5 14.5t-13.5 34.5q0 21 13.5 35.5z" />
    <glyph glyph-name="Igrave" unicode="&#xcc;" horiz-adv-x="228" 
d="M159 715v-715h-90v715h90zM148 803h-65l-73 127h95z" />
    <glyph glyph-name="Iacute" unicode="&#xcd;" horiz-adv-x="228" 
d="M159 715v-715h-90v715h90zM218 930l-73 -127h-65l43 127h95z" />
    <glyph glyph-name="Icircumflex" unicode="&#xce;" horiz-adv-x="228" 
d="M159 715v-715h-90v715h90zM69 930h90l92 -127h-80l-56 84h-2l-56 -84h-80z" />
    <glyph glyph-name="Idieresis" unicode="&#xcf;" horiz-adv-x="228" 
d="M159 715v-715h-90v715h90zM2.5 914.5q13.5 14.5 36.5 14.5t36.5 -14.5t13.5 -35.5q0 -20 -13.5 -34.5t-36.5 -14.5t-36.5 14.5t-13.5 34.5q0 21 13.5 35.5zM152.5 914.5q13.5 14.5 36.5 14.5t36.5 -14.5t13.5 -35.5q0 -20 -13.5 -34.5t-36.5 -14.5t-36.5 14.5t-13.5 34.5
q0 21 13.5 35.5z" />
    <glyph glyph-name="Eth" unicode="&#xd0;" horiz-adv-x="692" 
d="M504.5 673.5q71.5 -41.5 109.5 -122t38 -194.5q0 -171 -84.5 -264t-233.5 -93h-259v335h-70v70h70v310h259q99 0 170.5 -41.5zM510.5 157.5q51.5 77.5 51.5 199.5t-51.5 200t-176.5 78h-169v-230h228v-70h-228v-255h169q125 0 176.5 77.5z" />
    <glyph glyph-name="Ntilde" unicode="&#xd1;" horiz-adv-x="693" 
d="M67 715h110l357 -589h2v589h90v-715h-110l-357 587h-2v-587h-90v715zM228.5 898.5q21.5 23.5 52.5 23.5q18 0 35.5 -5.5t42.5 -16.5q6 -2 20.5 -8t23.5 -6q23 0 23 34h60q0 -48 -21.5 -71t-52.5 -23q-18 0 -35.5 5.5t-42.5 16.5q-6 2 -20.5 8t-23.5 6q-23 0 -23 -34h-60
q0 47 21.5 70.5z" />
    <glyph glyph-name="Ograve" unicode="&#xd2;" horiz-adv-x="780" 
d="M207.5 34q-79.5 48 -123.5 132.5t-44 191.5t44 191.5t123.5 132t182.5 47.5t182.5 -47.5t123.5 -132t44 -191.5t-44 -191.5t-123.5 -132.5t-182.5 -48t-182.5 48zM534.5 105.5q58.5 39.5 87 106t28.5 146.5t-28.5 146t-87 105.5t-144.5 39.5t-144.5 -39.5t-87 -105.5
t-28.5 -146t28.5 -146.5t87 -106t144.5 -39.5t144.5 39.5zM424 803h-65l-73 127h95z" />
    <glyph glyph-name="Oacute" unicode="&#xd3;" horiz-adv-x="780" 
d="M207.5 34q-79.5 48 -123.5 132.5t-44 191.5t44 191.5t123.5 132t182.5 47.5t182.5 -47.5t123.5 -132t44 -191.5t-44 -191.5t-123.5 -132.5t-182.5 -48t-182.5 48zM534.5 105.5q58.5 39.5 87 106t28.5 146.5t-28.5 146t-87 105.5t-144.5 39.5t-144.5 -39.5t-87 -105.5
t-28.5 -146t28.5 -146.5t87 -106t144.5 -39.5t144.5 39.5zM494 930l-73 -127h-65l43 127h95z" />
    <glyph glyph-name="Ocircumflex" unicode="&#xd4;" horiz-adv-x="780" 
d="M207.5 34q-79.5 48 -123.5 132.5t-44 191.5t44 191.5t123.5 132t182.5 47.5t182.5 -47.5t123.5 -132t44 -191.5t-44 -191.5t-123.5 -132.5t-182.5 -48t-182.5 48zM534.5 105.5q58.5 39.5 87 106t28.5 146.5t-28.5 146t-87 105.5t-144.5 39.5t-144.5 -39.5t-87 -105.5
t-28.5 -146t28.5 -146.5t87 -106t144.5 -39.5t144.5 39.5zM345 930h90l92 -127h-80l-56 84h-2l-56 -84h-80z" />
    <glyph glyph-name="Otilde" unicode="&#xd5;" horiz-adv-x="780" 
d="M207.5 34q-79.5 48 -123.5 132.5t-44 191.5t44 191.5t123.5 132t182.5 47.5t182.5 -47.5t123.5 -132t44 -191.5t-44 -191.5t-123.5 -132.5t-182.5 -48t-182.5 48zM534.5 105.5q58.5 39.5 87 106t28.5 146.5t-28.5 146t-87 105.5t-144.5 39.5t-144.5 -39.5t-87 -105.5
t-28.5 -146t28.5 -146.5t87 -106t144.5 -39.5t144.5 39.5zM271.5 898.5q21.5 23.5 52.5 23.5q18 0 35.5 -5.5t42.5 -16.5q6 -2 20.5 -8t23.5 -6q23 0 23 34h60q0 -48 -21.5 -71t-52.5 -23q-18 0 -35.5 5.5t-42.5 16.5q-6 2 -20.5 8t-23.5 6q-23 0 -23 -34h-60
q0 47 21.5 70.5z" />
    <glyph glyph-name="Odieresis" unicode="&#xd6;" horiz-adv-x="780" 
d="M207.5 34q-79.5 48 -123.5 132.5t-44 191.5t44 191.5t123.5 132t182.5 47.5t182.5 -47.5t123.5 -132t44 -191.5t-44 -191.5t-123.5 -132.5t-182.5 -48t-182.5 48zM534.5 105.5q58.5 39.5 87 106t28.5 146.5t-28.5 146t-87 105.5t-144.5 39.5t-144.5 -39.5t-87 -105.5
t-28.5 -146t28.5 -146.5t87 -106t144.5 -39.5t144.5 39.5zM278.5 914.5q13.5 14.5 36.5 14.5t36.5 -14.5t13.5 -35.5q0 -20 -13.5 -34.5t-36.5 -14.5t-36.5 14.5t-13.5 34.5q0 21 13.5 35.5zM428.5 914.5q13.5 14.5 36.5 14.5t36.5 -14.5t13.5 -35.5q0 -20 -13.5 -34.5
t-36.5 -14.5t-36.5 14.5t-13.5 34.5q0 21 13.5 35.5z" />
    <glyph glyph-name="multiply" unicode="&#xd7;" horiz-adv-x="560" 
d="M337 325l151 -151l-57 -57l-151 151l-151 -151l-57 57l151 151l-151 151l57 57l151 -151l151 151l57 -57z" />
    <glyph glyph-name="Oslash" unicode="&#xd8;" horiz-adv-x="781" 
d="M665 599q36 -49 55.5 -110t19.5 -131q0 -107 -44 -191.5t-123.5 -132.5t-182.5 -48q-73 0 -134.5 24.5t-108.5 69.5l-75 -75l-34 35l77 77q-36 49 -55.5 110t-19.5 131q0 107 44 191.5t123.5 132t182.5 47.5q73 0 134.5 -24t107.5 -69l75 75l36 -34zM176 178l398 399
q-70 72 -184 72q-86 0 -144.5 -39.5t-87 -105.5t-28.5 -146q0 -104 46 -180zM604 538l-398 -399q68 -73 184 -73q86 0 144.5 39.5t87 106t28.5 146.5q0 104 -46 180z" />
    <glyph glyph-name="Ugrave" unicode="&#xd9;" horiz-adv-x="658" 
d="M535 54.5q-68 -68.5 -206 -68.5t-206 68.5t-68 183.5v477h90v-477q0 -87 45.5 -129.5t138.5 -42.5t138.5 42.5t45.5 129.5v477h90v-477q0 -115 -68 -183.5zM363 803h-65l-73 127h95z" />
    <glyph glyph-name="Uacute" unicode="&#xda;" horiz-adv-x="658" 
d="M535 54.5q-68 -68.5 -206 -68.5t-206 68.5t-68 183.5v477h90v-477q0 -87 45.5 -129.5t138.5 -42.5t138.5 42.5t45.5 129.5v477h90v-477q0 -115 -68 -183.5zM433 930l-73 -127h-65l43 127h95z" />
    <glyph glyph-name="Ucircumflex" unicode="&#xdb;" horiz-adv-x="658" 
d="M535 54.5q-68 -68.5 -206 -68.5t-206 68.5t-68 183.5v477h90v-477q0 -87 45.5 -129.5t138.5 -42.5t138.5 42.5t45.5 129.5v477h90v-477q0 -115 -68 -183.5zM284 930h90l92 -127h-80l-56 84h-2l-56 -84h-80z" />
    <glyph glyph-name="Udieresis" unicode="&#xdc;" horiz-adv-x="658" 
d="M535 54.5q-68 -68.5 -206 -68.5t-206 68.5t-68 183.5v477h90v-477q0 -87 45.5 -129.5t138.5 -42.5t138.5 42.5t45.5 129.5v477h90v-477q0 -115 -68 -183.5zM217.5 914.5q13.5 14.5 36.5 14.5t36.5 -14.5t13.5 -35.5q0 -20 -13.5 -34.5t-36.5 -14.5t-36.5 14.5t-13.5 34.5
q0 21 13.5 35.5zM367.5 914.5q13.5 14.5 36.5 14.5t36.5 -14.5t13.5 -35.5q0 -20 -13.5 -34.5t-36.5 -14.5t-36.5 14.5t-13.5 34.5q0 21 13.5 35.5z" />
    <glyph glyph-name="Yacute" unicode="&#xdd;" horiz-adv-x="631" 
d="M107 715l207 -350h2l208 350h97l-261 -422v-293h-90v293l-260 422h97zM420 930l-73 -127h-65l43 127h95z" />
    <glyph glyph-name="Thorn" unicode="&#xde;" horiz-adv-x="600" 
d="M67 715h90v-120h194q105 0 168.5 -50.5t63.5 -157.5t-63.5 -157.5t-168.5 -50.5h-194v-179h-90v715zM157 259h204q67 0 99.5 31.5t32.5 96.5t-32.5 96.5t-99.5 31.5h-204v-256z" />
    <glyph glyph-name="germandbls" unicode="&#xdf;" horiz-adv-x="510" 
d="M135 0h-80v524q0 97 54.5 151t156.5 54q49 0 92 -21t69.5 -60.5t26.5 -93.5q0 -60 -31.5 -96.5t-86.5 -60.5v-2q148 -46 148 -201q0 -58 -24 -105.5t-66 -75t-95 -27.5q-31 0 -53 3t-51 11v70q41 -16 78 -16q60 0 95.5 40t35.5 100q0 92 -52.5 129.5t-116.5 37.5h-30v70
h27q57 0 99.5 28.5t42.5 84.5q0 46 -28 80.5t-80 34.5q-75 0 -103 -40.5t-28 -114.5v-504z" />
    <glyph glyph-name="agrave" unicode="&#xe0;" horiz-adv-x="510" 
d="M263 454q-72 0 -101 -23t-33 -79h-80q4 79 56 125.5t158 46.5q82 0 133 -37.5t51 -123.5v-248q0 -30 8.5 -43.5t34.5 -13.5q9 0 15 1v-56q-24 -8 -47 -8q-38 0 -59.5 14.5t-31.5 54.5h-2q-25 -37 -68.5 -57.5t-104.5 -20.5q-77 0 -122.5 40t-45.5 105q0 56 26 89
t71.5 50.5t120.5 31.5q49 9 74 17t38 22t13 39q0 74 -104 74zM321 91.5q46 35.5 46 105.5v85q-20 -20 -118 -40q-78 -17 -111.5 -40t-33.5 -67q0 -79 96 -79q75 0 121 35.5zM297 598h-65l-73 127h95z" />
    <glyph glyph-name="aacute" unicode="&#xe1;" horiz-adv-x="510" 
d="M263 454q-72 0 -101 -23t-33 -79h-80q4 79 56 125.5t158 46.5q82 0 133 -37.5t51 -123.5v-248q0 -30 8.5 -43.5t34.5 -13.5q9 0 15 1v-56q-24 -8 -47 -8q-38 0 -59.5 14.5t-31.5 54.5h-2q-25 -37 -68.5 -57.5t-104.5 -20.5q-77 0 -122.5 40t-45.5 105q0 56 26 89
t71.5 50.5t120.5 31.5q49 9 74 17t38 22t13 39q0 74 -104 74zM321 91.5q46 35.5 46 105.5v85q-20 -20 -118 -40q-78 -17 -111.5 -40t-33.5 -67q0 -79 96 -79q75 0 121 35.5zM367 725l-73 -127h-65l43 127h95z" />
    <glyph glyph-name="acircumflex" unicode="&#xe2;" horiz-adv-x="510" 
d="M263 454q-72 0 -101 -23t-33 -79h-80q4 79 56 125.5t158 46.5q82 0 133 -37.5t51 -123.5v-248q0 -30 8.5 -43.5t34.5 -13.5q9 0 15 1v-56q-24 -8 -47 -8q-38 0 -59.5 14.5t-31.5 54.5h-2q-25 -37 -68.5 -57.5t-104.5 -20.5q-77 0 -122.5 40t-45.5 105q0 56 26 89
t71.5 50.5t120.5 31.5q49 9 74 17t38 22t13 39q0 74 -104 74zM321 91.5q46 35.5 46 105.5v85q-20 -20 -118 -40q-78 -17 -111.5 -40t-33.5 -67q0 -79 96 -79q75 0 121 35.5zM218 725h90l92 -127h-80l-56 84h-2l-56 -84h-80z" />
    <glyph glyph-name="atilde" unicode="&#xe3;" horiz-adv-x="510" 
d="M263 454q-72 0 -101 -23t-33 -79h-80q4 79 56 125.5t158 46.5q82 0 133 -37.5t51 -123.5v-248q0 -30 8.5 -43.5t34.5 -13.5q9 0 15 1v-56q-24 -8 -47 -8q-38 0 -59.5 14.5t-31.5 54.5h-2q-25 -37 -68.5 -57.5t-104.5 -20.5q-77 0 -122.5 40t-45.5 105q0 56 26 89
t71.5 50.5t120.5 31.5q49 9 74 17t38 22t13 39q0 74 -104 74zM321 91.5q46 35.5 46 105.5v85q-20 -20 -118 -40q-78 -17 -111.5 -40t-33.5 -67q0 -79 96 -79q75 0 121 35.5zM144.5 693.5q21.5 23.5 52.5 23.5q18 0 35.5 -5.5t42.5 -16.5q6 -2 20.5 -8t23.5 -6q23 0 23 34h60
q0 -48 -21.5 -71t-52.5 -23q-18 0 -35.5 5.5t-42.5 16.5q-6 2 -20.5 8t-23.5 6q-23 0 -23 -34h-60q0 47 21.5 70.5z" />
    <glyph glyph-name="adieresis" unicode="&#xe4;" horiz-adv-x="510" 
d="M263 454q-72 0 -101 -23t-33 -79h-80q4 79 56 125.5t158 46.5q82 0 133 -37.5t51 -123.5v-248q0 -30 8.5 -43.5t34.5 -13.5q9 0 15 1v-56q-24 -8 -47 -8q-38 0 -59.5 14.5t-31.5 54.5h-2q-25 -37 -68.5 -57.5t-104.5 -20.5q-77 0 -122.5 40t-45.5 105q0 56 26 89
t71.5 50.5t120.5 31.5q49 9 74 17t38 22t13 39q0 74 -104 74zM321 91.5q46 35.5 46 105.5v85q-20 -20 -118 -40q-78 -17 -111.5 -40t-33.5 -67q0 -79 96 -79q75 0 121 35.5zM151.5 709.5q13.5 14.5 36.5 14.5t36.5 -14.5t13.5 -35.5q0 -20 -13.5 -34.5t-36.5 -14.5
t-36.5 14.5t-13.5 34.5q0 21 13.5 35.5zM301.5 709.5q13.5 14.5 36.5 14.5t36.5 -14.5t13.5 -35.5q0 -20 -13.5 -34.5t-36.5 -14.5t-36.5 14.5t-13.5 34.5q0 21 13.5 35.5z" />
    <glyph glyph-name="aring" unicode="&#xe5;" horiz-adv-x="510" 
d="M263 454q-72 0 -101 -23t-33 -79h-80q4 79 56 125.5t158 46.5q82 0 133 -37.5t51 -123.5v-248q0 -30 8.5 -43.5t34.5 -13.5q9 0 15 1v-56q-24 -8 -47 -8q-38 0 -59.5 14.5t-31.5 54.5h-2q-25 -37 -68.5 -57.5t-104.5 -20.5q-77 0 -122.5 40t-45.5 105q0 56 26 89
t71.5 50.5t120.5 31.5q49 9 74 17t38 22t13 39q0 74 -104 74zM321 91.5q46 35.5 46 105.5v85q-20 -20 -118 -40q-78 -17 -111.5 -40t-33.5 -67q0 -79 96 -79q75 0 121 35.5zM200.5 607.5q-25.5 24.5 -25.5 62.5t25.5 63t61.5 25q37 0 62.5 -25t25.5 -63t-25.5 -62.5
t-62.5 -24.5q-36 0 -61.5 24.5zM295 636q14 13 14 34t-14 34.5t-33 13.5t-32.5 -13.5t-13.5 -34.5t13.5 -34t32.5 -13t33 13z" />
    <glyph glyph-name="ae" unicode="&#xe6;" horiz-adv-x="874" 
d="M717 88q36 32 45 69h80q-21 -76 -78 -123.5t-148 -47.5q-67 0 -119 26.5t-85 74.5q-33 -51 -92.5 -76t-127.5 -25q-77 0 -122.5 40t-45.5 105q0 56 26 89t71.5 50.5t120.5 31.5q49 9 74 17t38 22t13 39q0 74 -104 74q-72 0 -101 -23t-33 -79h-80q4 79 56 125.5t158 46.5
q57 0 100.5 -18.5t64.5 -58.5q32 38 79 57.5t105 19.5q118 0 178 -76t60 -214h-403q0 -48 19 -88.5t56.5 -65t90.5 -24.5q68 0 104 32zM527.5 434q-37.5 -20 -59 -54.5t-21.5 -75.5h323q0 41 -19.5 75.5t-55.5 54.5t-83 20t-84.5 -20zM367 282q-20 -20 -118 -40
q-78 -17 -111.5 -40t-33.5 -67q0 -79 96 -79q81 0 124 41t43 100v85z" />
    <glyph glyph-name="ccedilla" unicode="&#xe7;" horiz-adv-x="519" 
d="M378 415q-35 39 -105 39q-84 0 -125.5 -59t-41.5 -140t41.5 -140t125.5 -59q71 0 105.5 39t38.5 93h80q-3 -58 -33 -104t-79.5 -72t-111.5 -26q-74 0 -130 34t-86.5 95t-30.5 140t30.5 140t86.5 95t130 34q62 0 110.5 -25.5t78 -70.5t35.5 -102h-80q-4 50 -39 89z
M247 -59v-2q6 1 17 1q32 0 56 -15t24 -46q0 -34 -31 -54.5t-73 -20.5q-30 0 -59.5 8t-47.5 21l21 25q21 -8 37.5 -11.5t37.5 -3.5q24 0 39.5 10.5t15.5 26.5q0 14 -12 20.5t-38 6.5q-10 0 -22 -2t-18 -5l-12 19l57 74h50z" />
    <glyph glyph-name="egrave" unicode="&#xe8;" horiz-adv-x="533" 
d="M376 88q36 32 45 69h80q-21 -76 -78.5 -123.5t-147.5 -47.5q-76 0 -132.5 33.5t-86.5 94.5t-30 141q0 126 66 197.5t179 71.5q118 0 178 -76t60 -214h-403q0 -48 19 -88.5t56.5 -65t90.5 -24.5q68 0 104 32zM186.5 434q-37.5 -20 -59 -54.5t-21.5 -75.5h323
q0 41 -19.5 75.5t-55.5 54.5t-83 20t-84.5 -20zM302 598h-65l-73 127h95z" />
    <glyph glyph-name="eacute" unicode="&#xe9;" horiz-adv-x="533" 
d="M376 88q36 32 45 69h80q-21 -76 -78.5 -123.5t-147.5 -47.5q-76 0 -132.5 33.5t-86.5 94.5t-30 141q0 126 66 197.5t179 71.5q118 0 178 -76t60 -214h-403q0 -48 19 -88.5t56.5 -65t90.5 -24.5q68 0 104 32zM186.5 434q-37.5 -20 -59 -54.5t-21.5 -75.5h323
q0 41 -19.5 75.5t-55.5 54.5t-83 20t-84.5 -20zM372 725l-73 -127h-65l43 127h95z" />
    <glyph glyph-name="ecircumflex" unicode="&#xea;" horiz-adv-x="533" 
d="M376 88q36 32 45 69h80q-21 -76 -78.5 -123.5t-147.5 -47.5q-76 0 -132.5 33.5t-86.5 94.5t-30 141q0 126 66 197.5t179 71.5q118 0 178 -76t60 -214h-403q0 -48 19 -88.5t56.5 -65t90.5 -24.5q68 0 104 32zM186.5 434q-37.5 -20 -59 -54.5t-21.5 -75.5h323
q0 41 -19.5 75.5t-55.5 54.5t-83 20t-84.5 -20zM223 725h90l92 -127h-80l-56 84h-2l-56 -84h-80z" />
    <glyph glyph-name="edieresis" unicode="&#xeb;" horiz-adv-x="533" 
d="M376 88q36 32 45 69h80q-21 -76 -78.5 -123.5t-147.5 -47.5q-76 0 -132.5 33.5t-86.5 94.5t-30 141q0 126 66 197.5t179 71.5q118 0 178 -76t60 -214h-403q0 -48 19 -88.5t56.5 -65t90.5 -24.5q68 0 104 32zM186.5 434q-37.5 -20 -59 -54.5t-21.5 -75.5h323
q0 41 -19.5 75.5t-55.5 54.5t-83 20t-84.5 -20zM156.5 709.5q13.5 14.5 36.5 14.5t36.5 -14.5t13.5 -35.5q0 -20 -13.5 -34.5t-36.5 -14.5t-36.5 14.5t-13.5 34.5q0 21 13.5 35.5zM306.5 709.5q13.5 14.5 36.5 14.5t36.5 -14.5t13.5 -35.5q0 -20 -13.5 -34.5t-36.5 -14.5
t-36.5 14.5t-13.5 34.5q0 21 13.5 35.5z" />
    <glyph glyph-name="igrave" unicode="&#xec;" horiz-adv-x="140" 
d="M110 510v-510h-80v510h80zM104 598h-65l-73 127h95z" />
    <glyph glyph-name="iacute" unicode="&#xed;" horiz-adv-x="140" 
d="M110 510v-510h-80v510h80zM174 725l-73 -127h-65l43 127h95z" />
    <glyph glyph-name="icircumflex" unicode="&#xee;" horiz-adv-x="140" 
d="M110 510v-510h-80v510h80zM25 725h90l92 -127h-80l-56 84h-2l-56 -84h-80z" />
    <glyph glyph-name="idieresis" unicode="&#xef;" horiz-adv-x="140" 
d="M110 510v-510h-80v510h80zM-41.5 709.5q13.5 14.5 36.5 14.5t36.5 -14.5t13.5 -35.5q0 -20 -13.5 -34.5t-36.5 -14.5t-36.5 14.5t-13.5 34.5q0 21 13.5 35.5zM108.5 709.5q13.5 14.5 36.5 14.5t36.5 -14.5t13.5 -35.5q0 -20 -13.5 -34.5t-36.5 -14.5t-36.5 14.5
t-13.5 34.5q0 21 13.5 35.5z" />
    <glyph glyph-name="eth" unicode="&#xf0;" horiz-adv-x="551" 
d="M489 478q36 -81 36 -182q0 -81 -26 -151.5t-83 -115.5t-145 -45q-116 0 -180.5 74t-64.5 199q0 83 33 144.5t89 94t123 32.5q47 0 90 -25.5t69 -67.5v2q-27 82 -110 163l-159 -42l-13 48l127 34q-45 39 -105 75h109q38 -21 75 -54l131 35l14 -48l-103 -27q57 -62 93 -143
zM363.5 82q39.5 28 60.5 74.5t21 100.5t-21 100t-60.5 73.5t-92.5 27.5t-90 -27.5t-56 -73t-19 -100.5t19 -101t56 -74t90 -28t92.5 28z" />
    <glyph glyph-name="ntilde" unicode="&#xf1;" horiz-adv-x="528" 
d="M428 481.5q48 -42.5 48 -125.5v-356h-80v336q0 53 -27 85.5t-84 32.5q-67 0 -108.5 -38t-41.5 -98v-318h-80v510h80v-61h2q24 32 66 53.5t102 21.5q75 0 123 -42.5zM147.5 693.5q21.5 23.5 52.5 23.5q18 0 35.5 -5.5t42.5 -16.5q6 -2 20.5 -8t23.5 -6q23 0 23 34h60
q0 -48 -21.5 -71t-52.5 -23q-18 0 -35.5 5.5t-42.5 16.5q-6 2 -20.5 8t-23.5 6q-23 0 -23 -34h-60q0 47 21.5 70.5z" />
    <glyph glyph-name="ograve" unicode="&#xf2;" horiz-adv-x="551" 
d="M408.5 20q56.5 34 86.5 95t30 140t-30 140t-86.5 95t-132.5 34q-77 0 -133.5 -34t-86.5 -95t-30 -140t30 -140t86.5 -95t133.5 -34q76 0 132.5 34zM150 112q-44 56 -44 143t44 143t126 56t125.5 -56t43.5 -143t-43.5 -143t-125.5 -56t-126 56zM310 598h-65l-73 127h95z
" />
    <glyph glyph-name="oacute" unicode="&#xf3;" horiz-adv-x="551" 
d="M408.5 20q56.5 34 86.5 95t30 140t-30 140t-86.5 95t-132.5 34q-77 0 -133.5 -34t-86.5 -95t-30 -140t30 -140t86.5 -95t133.5 -34q76 0 132.5 34zM150 112q-44 56 -44 143t44 143t126 56t125.5 -56t43.5 -143t-43.5 -143t-125.5 -56t-126 56zM380 725l-73 -127h-65
l43 127h95z" />
    <glyph glyph-name="ocircumflex" unicode="&#xf4;" horiz-adv-x="551" 
d="M408.5 20q56.5 34 86.5 95t30 140t-30 140t-86.5 95t-132.5 34q-77 0 -133.5 -34t-86.5 -95t-30 -140t30 -140t86.5 -95t133.5 -34q76 0 132.5 34zM150 112q-44 56 -44 143t44 143t126 56t125.5 -56t43.5 -143t-43.5 -143t-125.5 -56t-126 56zM231 725h90l92 -127h-80
l-56 84h-2l-56 -84h-80z" />
    <glyph glyph-name="otilde" unicode="&#xf5;" horiz-adv-x="551" 
d="M408.5 20q56.5 34 86.5 95t30 140t-30 140t-86.5 95t-132.5 34q-77 0 -133.5 -34t-86.5 -95t-30 -140t30 -140t86.5 -95t133.5 -34q76 0 132.5 34zM150 112q-44 56 -44 143t44 143t126 56t125.5 -56t43.5 -143t-43.5 -143t-125.5 -56t-126 56zM157.5 693.5
q21.5 23.5 52.5 23.5q18 0 35.5 -5.5t42.5 -16.5q6 -2 20.5 -8t23.5 -6q23 0 23 34h60q0 -48 -21.5 -71t-52.5 -23q-18 0 -35.5 5.5t-42.5 16.5q-6 2 -20.5 8t-23.5 6q-23 0 -23 -34h-60q0 47 21.5 70.5z" />
    <glyph glyph-name="odieresis" unicode="&#xf6;" horiz-adv-x="551" 
d="M408.5 20q56.5 34 86.5 95t30 140t-30 140t-86.5 95t-132.5 34q-77 0 -133.5 -34t-86.5 -95t-30 -140t30 -140t86.5 -95t133.5 -34q76 0 132.5 34zM150 112q-44 56 -44 143t44 143t126 56t125.5 -56t43.5 -143t-43.5 -143t-125.5 -56t-126 56zM164.5 709.5
q13.5 14.5 36.5 14.5t36.5 -14.5t13.5 -35.5q0 -20 -13.5 -34.5t-36.5 -14.5t-36.5 14.5t-13.5 34.5q0 21 13.5 35.5zM314.5 709.5q13.5 14.5 36.5 14.5t36.5 -14.5t13.5 -35.5q0 -20 -13.5 -34.5t-36.5 -14.5t-36.5 14.5t-13.5 34.5q0 21 13.5 35.5z" />
    <glyph glyph-name="divide" unicode="&#xf7;" horiz-adv-x="560" 
d="M235.5 451.5q-15.5 14.5 -15.5 40.5t15.5 40.5t44.5 14.5t44.5 -14.5t15.5 -40.5t-15.5 -40.5t-44.5 -14.5t-44.5 14.5zM53 367h454v-80h-454v80zM235.5 119.5q-15.5 14.5 -15.5 40.5t15.5 40.5t44.5 14.5t44.5 -14.5t15.5 -40.5t-15.5 -40.5t-44.5 -14.5t-44.5 14.5z
" />
    <glyph glyph-name="oslash" unicode="&#xf8;" horiz-adv-x="578" 
d="M408.5 20q56.5 34 86.5 95t30 140t-30 140t-86.5 95t-132.5 34q-77 0 -133.5 -34t-86.5 -95t-30 -140t30 -140t86.5 -95t133.5 -34q76 0 132.5 34zM150 112q-44 56 -44 143t44 143t126 56t125.5 -56t43.5 -143t-43.5 -143t-125.5 -56t-126 56zM60 -10l494 495l-35 35
l-493 -495z" />
    <glyph glyph-name="ugrave" unicode="&#xf9;" horiz-adv-x="528" 
d="M473 510v-510h-80v61h-2q-24 -32 -66 -53.5t-102 -21.5q-75 0 -123 42.5t-48 125.5v356h80v-336q0 -53 27 -85.5t84 -32.5q67 0 108.5 38t41.5 98v318h80zM297 598h-65l-73 127h95z" />
    <glyph glyph-name="uacute" unicode="&#xfa;" horiz-adv-x="528" 
d="M473 510v-510h-80v61h-2q-24 -32 -66 -53.5t-102 -21.5q-75 0 -123 42.5t-48 125.5v356h80v-336q0 -53 27 -85.5t84 -32.5q67 0 108.5 38t41.5 98v318h80zM367 725l-73 -127h-65l43 127h95z" />
    <glyph glyph-name="ucircumflex" unicode="&#xfb;" horiz-adv-x="528" 
d="M473 510v-510h-80v61h-2q-24 -32 -66 -53.5t-102 -21.5q-75 0 -123 42.5t-48 125.5v356h80v-336q0 -53 27 -85.5t84 -32.5q67 0 108.5 38t41.5 98v318h80zM218 725h90l92 -127h-80l-56 84h-2l-56 -84h-80z" />
    <glyph glyph-name="udieresis" unicode="&#xfc;" horiz-adv-x="528" 
d="M473 510v-510h-80v61h-2q-24 -32 -66 -53.5t-102 -21.5q-75 0 -123 42.5t-48 125.5v356h80v-336q0 -53 27 -85.5t84 -32.5q67 0 108.5 38t41.5 98v318h80zM151.5 709.5q13.5 14.5 36.5 14.5t36.5 -14.5t13.5 -35.5q0 -20 -13.5 -34.5t-36.5 -14.5t-36.5 14.5t-13.5 34.5
q0 21 13.5 35.5zM301.5 709.5q13.5 14.5 36.5 14.5t36.5 -14.5t13.5 -35.5q0 -20 -13.5 -34.5t-36.5 -14.5t-36.5 14.5t-13.5 34.5q0 21 13.5 35.5z" />
    <glyph glyph-name="yacute" unicode="&#xfd;" horiz-adv-x="489" 
d="M269 -42q-17 -42 -30.5 -66.5t-41 -44t-70.5 -19.5q-35 0 -68 10v60h12q10 -1 27 -1q24 0 42 6.5t33 22.5q13 14 21.5 33.5t8.5 41.5t-8 41l-193 468h90l156 -416h2l147 416h90zM349 725l-73 -127h-65l43 127h95z" />
    <glyph glyph-name="thorn" unicode="&#xfe;" horiz-adv-x="553" 
d="M414 491.5q52 -32.5 82.5 -93.5t30.5 -143t-30.5 -143t-82.5 -93.5t-115 -32.5q-107 0 -162 80h-2v-238h-80v887h80v-268h2q59 77 162 77q63 0 115 -32.5zM375 84q36 28 54 73.5t18 97.5t-18 97.5t-54 73.5t-86 28q-71 0 -112.5 -54.5t-41.5 -144.5t41.5 -144.5
t112.5 -54.5q50 0 86 28z" />
    <glyph glyph-name="ydieresis" unicode="&#xff;" horiz-adv-x="489" 
d="M269 -42q-17 -42 -30.5 -66.5t-41 -44t-70.5 -19.5q-35 0 -68 10v60h12q10 -1 27 -1q24 0 42 6.5t33 22.5q13 14 21.5 33.5t8.5 41.5t-8 41l-193 468h90l156 -416h2l147 416h90zM133.5 709.5q13.5 14.5 36.5 14.5t36.5 -14.5t13.5 -35.5q0 -20 -13.5 -34.5t-36.5 -14.5
t-36.5 14.5t-13.5 34.5q0 21 13.5 35.5zM283.5 709.5q13.5 14.5 36.5 14.5t36.5 -14.5t13.5 -35.5q0 -20 -13.5 -34.5t-36.5 -14.5t-36.5 14.5t-13.5 34.5q0 21 13.5 35.5z" />
    <glyph glyph-name="Amacron" unicode="&#x100;" horiz-adv-x="647" 
d="M166 179l-63 -179h-93l264 715h100l263 -715h-93l-63 179h-315zM452 259l-127 373h-2l-127 -373h256zM453 905v-70h-258v70h258z" />
    <glyph glyph-name="amacron" unicode="&#x101;" horiz-adv-x="510" 
d="M263 454q-72 0 -101 -23t-33 -79h-80q4 79 56 125.5t158 46.5q82 0 133 -37.5t51 -123.5v-248q0 -30 8.5 -43.5t34.5 -13.5q9 0 15 1v-56q-24 -8 -47 -8q-38 0 -59.5 14.5t-31.5 54.5h-2q-25 -37 -68.5 -57.5t-104.5 -20.5q-77 0 -122.5 40t-45.5 105q0 56 26 89
t71.5 50.5t120.5 31.5q49 9 74 17t38 22t13 39q0 74 -104 74zM321 91.5q46 35.5 46 105.5v85q-20 -20 -118 -40q-78 -17 -111.5 -40t-33.5 -67q0 -79 96 -79q75 0 121 35.5zM392 700v-70h-258v70h258z" />
    <glyph glyph-name="Abreve" unicode="&#x102;" horiz-adv-x="647" 
d="M166 179l-63 -179h-93l264 715h100l263 -715h-93l-63 179h-315zM452 259l-127 373h-2l-127 -373h256zM233.5 832.5q-34.5 33.5 -36.5 97.5h60q2 -37 18.5 -54t48.5 -17t48.5 17t18.5 54h60q-3 -63 -37 -97t-90 -34t-90.5 33.5z" />
    <glyph glyph-name="abreve" unicode="&#x103;" horiz-adv-x="510" 
d="M263 454q-72 0 -101 -23t-33 -79h-80q4 79 56 125.5t158 46.5q82 0 133 -37.5t51 -123.5v-248q0 -30 8.5 -43.5t34.5 -13.5q9 0 15 1v-56q-24 -8 -47 -8q-38 0 -59.5 14.5t-31.5 54.5h-2q-25 -37 -68.5 -57.5t-104.5 -20.5q-77 0 -122.5 40t-45.5 105q0 56 26 89
t71.5 50.5t120.5 31.5q49 9 74 17t38 22t13 39q0 74 -104 74zM321 91.5q46 35.5 46 105.5v85q-20 -20 -118 -40q-78 -17 -111.5 -40t-33.5 -67q0 -79 96 -79q75 0 121 35.5zM172.5 627.5q-34.5 33.5 -36.5 97.5h60q2 -37 18.5 -54t48.5 -17t48.5 17t18.5 54h60
q-3 -63 -37 -97t-90 -34t-90.5 33.5z" />
    <glyph glyph-name="Aogonek" unicode="&#x104;" horiz-adv-x="647" 
d="M166 179l-63 -179h-93l264 715h100l263 -715h-93l-63 179h-315zM452 259l-127 373h-2l-127 -373h256zM503.5 -157q-23.5 20 -23.5 54q0 33 23 62t53 41h60q-66 -52 -66 -86q0 -14 10.5 -22.5t26.5 -8.5q26 0 49 10v-60q-32 -10 -65 -10q-44 0 -67.5 20z" />
    <glyph glyph-name="aogonek" unicode="&#x105;" horiz-adv-x="510" 
d="M263 454q-72 0 -101 -23t-33 -79h-80q4 79 56 125.5t158 46.5q82 0 133 -37.5t51 -123.5v-248q0 -30 8.5 -43.5t34.5 -13.5q9 0 15 1v-56q-24 -8 -47 -8q-38 0 -59.5 14.5t-31.5 54.5h-2q-25 -37 -68.5 -57.5t-104.5 -20.5q-77 0 -122.5 40t-45.5 105q0 56 26 89
t71.5 50.5t120.5 31.5q49 9 74 17t38 22t13 39q0 74 -104 74zM321 91.5q46 35.5 46 105.5v85q-20 -20 -118 -40q-78 -17 -111.5 -40t-33.5 -67q0 -79 96 -79q75 0 121 35.5zM382.5 -157q-23.5 20 -23.5 54q0 33 23 62t53 41h60q-66 -52 -66 -86q0 -14 10.5 -22.5t26.5 -8.5
q26 0 49 10v-60q-32 -10 -65 -10q-44 0 -67.5 20z" />
    <glyph glyph-name="Cacute" unicode="&#x106;" horiz-adv-x="709" 
d="M521.5 597q-50.5 52 -150.5 52q-81 0 -135 -41t-80 -107.5t-26 -142.5q0 -77 26 -143.5t80 -107.5t135 -41q71 0 118 28t70 71.5t26 92.5h90q-8 -79 -47 -141t-105 -96.5t-152 -34.5q-97 0 -172 48t-117 132.5t-42 191.5t42 191.5t117 132t172 47.5q85 0 151 -33.5
t105 -90.5t48 -126h-90q-13 66 -63.5 118zM474 930l-73 -127h-65l43 127h95z" />
    <glyph glyph-name="cacute" unicode="&#x107;" horiz-adv-x="519" 
d="M378 415q-35 39 -105 39q-84 0 -125.5 -59t-41.5 -140t41.5 -140t125.5 -59q71 0 105.5 39t38.5 93h80q-3 -58 -33 -104t-79.5 -72t-111.5 -26q-74 0 -130 34t-86.5 95t-30.5 140t30.5 140t86.5 95t130 34q62 0 110.5 -25.5t78 -70.5t35.5 -102h-80q-4 50 -39 89z
M366 725l-73 -127h-65l43 127h95z" />
    <glyph glyph-name="Cdotaccent" unicode="&#x10a;" horiz-adv-x="709" 
d="M521.5 597q-50.5 52 -150.5 52q-81 0 -135 -41t-80 -107.5t-26 -142.5q0 -77 26 -143.5t80 -107.5t135 -41q71 0 118 28t70 71.5t26 92.5h90q-8 -79 -47 -141t-105 -96.5t-152 -34.5q-97 0 -172 48t-117 132.5t-42 191.5t42 191.5t117 132t172 47.5q85 0 151 -33.5
t105 -90.5t48 -126h-90q-13 66 -63.5 118zM333.5 914.5q13.5 14.5 36.5 14.5t36.5 -14.5t13.5 -35.5q0 -20 -13.5 -34.5t-36.5 -14.5t-36.5 14.5t-13.5 34.5q0 21 13.5 35.5z" />
    <glyph glyph-name="cdotaccent" unicode="&#x10b;" horiz-adv-x="519" 
d="M378 415q-35 39 -105 39q-84 0 -125.5 -59t-41.5 -140t41.5 -140t125.5 -59q71 0 105.5 39t38.5 93h80q-3 -58 -33 -104t-79.5 -72t-111.5 -26q-74 0 -130 34t-86.5 95t-30.5 140t30.5 140t86.5 95t130 34q62 0 110.5 -25.5t78 -70.5t35.5 -102h-80q-4 50 -39 89z
M225.5 709.5q13.5 14.5 36.5 14.5t36.5 -14.5t13.5 -35.5q0 -20 -13.5 -34.5t-36.5 -14.5t-36.5 14.5t-13.5 34.5q0 21 13.5 35.5z" />
    <glyph glyph-name="Ccaron" unicode="&#x10c;" horiz-adv-x="709" 
d="M521.5 597q-50.5 52 -150.5 52q-81 0 -135 -41t-80 -107.5t-26 -142.5q0 -77 26 -143.5t80 -107.5t135 -41q71 0 118 28t70 71.5t26 92.5h90q-8 -79 -47 -141t-105 -96.5t-152 -34.5q-97 0 -172 48t-117 132.5t-42 191.5t42 191.5t117 132t172 47.5q85 0 151 -33.5
t105 -90.5t48 -126h-90q-13 66 -63.5 118zM313 930l56 -84h2l56 84h80l-92 -127h-90l-92 127h80z" />
    <glyph glyph-name="ccaron" unicode="&#x10d;" horiz-adv-x="519" 
d="M378 415q-35 39 -105 39q-84 0 -125.5 -59t-41.5 -140t41.5 -140t125.5 -59q71 0 105.5 39t38.5 93h80q-3 -58 -33 -104t-79.5 -72t-111.5 -26q-74 0 -130 34t-86.5 95t-30.5 140t30.5 140t86.5 95t130 34q62 0 110.5 -25.5t78 -70.5t35.5 -102h-80q-4 50 -39 89z
M205 725l56 -84h2l56 84h80l-92 -127h-90l-92 127h80z" />
    <glyph glyph-name="Dcaron" unicode="&#x10e;" horiz-adv-x="684" 
d="M67 715h259q99 0 170.5 -41.5t109.5 -122t38 -194.5q0 -171 -84.5 -264t-233.5 -93h-259v715zM157 80h169q125 0 176.5 77.5t51.5 199.5t-51.5 200t-176.5 78h-169v-555zM209 930l56 -84h2l56 84h80l-92 -127h-90l-92 127h80z" />
    <glyph glyph-name="dcaron" unicode="&#x10f;" horiz-adv-x="587" 
d="M654 697q16 -23 16 -61q0 -41 -28 -78.5t-84 -43.5v36q23 4 44.5 21.5t21.5 36.5q-12 -2 -18 -2q-25 0 -40.5 16t-15.5 41q0 26 15 41.5t43 15.5q30 0 46 -23zM418 715h80v-715h-80v63h-2q-59 -77 -160 -77q-64 0 -116.5 32.5t-83 93.5t-30.5 143t30.5 143t83 93.5
t116.5 32.5q105 0 160 -80h2v271zM376.5 110.5q41.5 54.5 41.5 144.5t-41.5 144.5t-112.5 54.5q-50 0 -86 -28t-54 -73.5t-18 -97.5t18 -97.5t54 -73.5t86 -28q71 0 112.5 54.5z" />
    <glyph glyph-name="Dcroat" unicode="&#x110;" horiz-adv-x="692" 
d="M504.5 673.5q71.5 -41.5 109.5 -122t38 -194.5q0 -171 -84.5 -264t-233.5 -93h-259v335h-70v70h70v310h259q99 0 170.5 -41.5zM510.5 157.5q51.5 77.5 51.5 199.5t-51.5 200t-176.5 78h-169v-230h228v-70h-228v-255h169q125 0 176.5 77.5z" />
    <glyph glyph-name="dcroat" unicode="&#x111;" horiz-adv-x="559" 
d="M567 585h-69v-585h-80v63h-2q-59 -77 -160 -77q-64 0 -116.5 32.5t-83 93.5t-30.5 143t30.5 143t83 93.5t116.5 32.5q105 0 160 -80h2v141h-149v70h149v60h80v-60h69v-70zM376.5 110.5q41.5 54.5 41.5 144.5t-41.5 144.5t-112.5 54.5q-50 0 -86 -28t-54 -73.5t-18 -97.5
t18 -97.5t54 -73.5t86 -28q71 0 112.5 54.5z" />
    <glyph glyph-name="Emacron" unicode="&#x112;" horiz-adv-x="622" 
d="M524 410v-80h-367v-250h427v-80h-517v715h505v-80h-415v-225h367zM455 905v-70h-258v70h258z" />
    <glyph glyph-name="emacron" unicode="&#x113;" horiz-adv-x="533" 
d="M376 88q36 32 45 69h80q-21 -76 -78.5 -123.5t-147.5 -47.5q-76 0 -132.5 33.5t-86.5 94.5t-30 141q0 126 66 197.5t179 71.5q118 0 178 -76t60 -214h-403q0 -48 19 -88.5t56.5 -65t90.5 -24.5q68 0 104 32zM186.5 434q-37.5 -20 -59 -54.5t-21.5 -75.5h323
q0 41 -19.5 75.5t-55.5 54.5t-83 20t-84.5 -20zM397 700v-70h-258v70h258z" />
    <glyph glyph-name="Edotaccent" unicode="&#x116;" horiz-adv-x="622" 
d="M524 410v-80h-367v-250h427v-80h-517v715h505v-80h-415v-225h367zM289.5 914.5q13.5 14.5 36.5 14.5t36.5 -14.5t13.5 -35.5q0 -20 -13.5 -34.5t-36.5 -14.5t-36.5 14.5t-13.5 34.5q0 21 13.5 35.5z" />
    <glyph glyph-name="edotaccent" unicode="&#x117;" horiz-adv-x="533" 
d="M376 88q36 32 45 69h80q-21 -76 -78.5 -123.5t-147.5 -47.5q-76 0 -132.5 33.5t-86.5 94.5t-30 141q0 126 66 197.5t179 71.5q118 0 178 -76t60 -214h-403q0 -48 19 -88.5t56.5 -65t90.5 -24.5q68 0 104 32zM186.5 434q-37.5 -20 -59 -54.5t-21.5 -75.5h323
q0 41 -19.5 75.5t-55.5 54.5t-83 20t-84.5 -20zM231.5 709.5q13.5 14.5 36.5 14.5t36.5 -14.5t13.5 -35.5q0 -20 -13.5 -34.5t-36.5 -14.5t-36.5 14.5t-13.5 34.5q0 21 13.5 35.5z" />
    <glyph glyph-name="Eogonek" unicode="&#x118;" horiz-adv-x="622" 
d="M524 410v-80h-367v-250h427v-80h-517v715h505v-80h-415v-225h367zM461.5 -157q-23.5 20 -23.5 54q0 33 23 62t53 41h60q-66 -52 -66 -86q0 -14 10.5 -22.5t26.5 -8.5q26 0 49 10v-60q-32 -10 -65 -10q-44 0 -67.5 20z" />
    <glyph glyph-name="eogonek" unicode="&#x119;" horiz-adv-x="533" 
d="M376 88q36 32 45 69h80q-21 -76 -78.5 -123.5t-147.5 -47.5q-76 0 -132.5 33.5t-86.5 94.5t-30 141q0 126 66 197.5t179 71.5q118 0 178 -76t60 -214h-403q0 -48 19 -88.5t56.5 -65t90.5 -24.5q68 0 104 32zM186.5 434q-37.5 -20 -59 -54.5t-21.5 -75.5h323
q0 41 -19.5 75.5t-55.5 54.5t-83 20t-84.5 -20zM248.5 -157q-23.5 20 -23.5 54q0 33 23 62t53 41h60q-66 -52 -66 -86q0 -14 10.5 -22.5t26.5 -8.5q26 0 49 10v-60q-32 -10 -65 -10q-44 0 -67.5 20z" />
    <glyph glyph-name="Ecaron" unicode="&#x11a;" horiz-adv-x="622" 
d="M524 410v-80h-367v-250h427v-80h-517v715h505v-80h-415v-225h367zM269 930l56 -84h2l56 84h80l-92 -127h-90l-92 127h80z" />
    <glyph glyph-name="ecaron" unicode="&#x11b;" horiz-adv-x="533" 
d="M376 88q36 32 45 69h80q-21 -76 -78.5 -123.5t-147.5 -47.5q-76 0 -132.5 33.5t-86.5 94.5t-30 141q0 126 66 197.5t179 71.5q118 0 178 -76t60 -214h-403q0 -48 19 -88.5t56.5 -65t90.5 -24.5q68 0 104 32zM186.5 434q-37.5 -20 -59 -54.5t-21.5 -75.5h323
q0 41 -19.5 75.5t-55.5 54.5t-83 20t-84.5 -20zM211 725l56 -84h2l56 84h80l-92 -127h-90l-92 127h80z" />
    <glyph glyph-name="Gbreve" unicode="&#x11e;" horiz-adv-x="742" 
d="M512 611q-56 38 -140 38q-80 0 -134.5 -43t-81 -109.5t-26.5 -138.5q0 -120 54.5 -206t177.5 -86q64 0 117 28.5t84.5 80.5t31.5 117h-233v80h323v-372h-60l-30 101h-2q-42 -58 -96.5 -86.5t-134.5 -28.5q-102 0 -174.5 47.5t-110 131.5t-37.5 193q0 107 42 191.5
t117.5 132t172.5 47.5q131 0 206 -61.5t95 -168.5h-90q-15 74 -71 112zM276.5 832.5q-34.5 33.5 -36.5 97.5h60q2 -37 18.5 -54t48.5 -17t48.5 17t18.5 54h60q-3 -63 -37 -97t-90 -34t-90.5 33.5z" />
    <glyph glyph-name="gbreve" unicode="&#x11f;" horiz-adv-x="553" 
d="M498 510v-482q0 -100 -59.5 -152.5t-166.5 -52.5q-68 0 -119 21.5t-79.5 58.5t-32.5 81h80q8 -42 43.5 -66.5t103.5 -24.5q150 0 150 136v77h-2q-55 -80 -162 -80q-65 0 -116.5 28t-81.5 84t-30 137t30 137t81.5 84t116.5 28q103 0 162 -77h2v63h80zM377.5 141.5
q40.5 45.5 40.5 133.5t-40.5 133.5t-113.5 45.5q-76 0 -117 -50t-41 -129t41 -129t117 -50q73 0 113.5 45.5zM171.5 627.5q-34.5 33.5 -36.5 97.5h60q2 -37 18.5 -54t48.5 -17t48.5 17t18.5 54h60q-3 -63 -37 -97t-90 -34t-90.5 33.5z" />
    <glyph glyph-name="Gdotaccent" unicode="&#x120;" horiz-adv-x="742" 
d="M512 611q-56 38 -140 38q-80 0 -134.5 -43t-81 -109.5t-26.5 -138.5q0 -120 54.5 -206t177.5 -86q64 0 117 28.5t84.5 80.5t31.5 117h-233v80h323v-372h-60l-30 101h-2q-42 -58 -96.5 -86.5t-134.5 -28.5q-102 0 -174.5 47.5t-110 131.5t-37.5 193q0 107 42 191.5
t117.5 132t172.5 47.5q131 0 206 -61.5t95 -168.5h-90q-15 74 -71 112zM330.5 914.5q13.5 14.5 36.5 14.5t36.5 -14.5t13.5 -35.5q0 -20 -13.5 -34.5t-36.5 -14.5t-36.5 14.5t-13.5 34.5q0 21 13.5 35.5z" />
    <glyph glyph-name="gdotaccent" unicode="&#x121;" horiz-adv-x="553" 
d="M498 510v-482q0 -100 -59.5 -152.5t-166.5 -52.5q-68 0 -119 21.5t-79.5 58.5t-32.5 81h80q8 -42 43.5 -66.5t103.5 -24.5q150 0 150 136v77h-2q-55 -80 -162 -80q-65 0 -116.5 28t-81.5 84t-30 137t30 137t81.5 84t116.5 28q103 0 162 -77h2v63h80zM377.5 141.5
q40.5 45.5 40.5 133.5t-40.5 133.5t-113.5 45.5q-76 0 -117 -50t-41 -129t41 -129t117 -50q73 0 113.5 45.5zM225.5 709.5q13.5 14.5 36.5 14.5t36.5 -14.5t13.5 -35.5q0 -20 -13.5 -34.5t-36.5 -14.5t-36.5 14.5t-13.5 34.5q0 21 13.5 35.5z" />
    <glyph glyph-name="Gcommaaccent" unicode="&#x122;" horiz-adv-x="742" 
d="M512 611q-56 38 -140 38q-80 0 -134.5 -43t-81 -109.5t-26.5 -138.5q0 -120 54.5 -206t177.5 -86q64 0 117 28.5t84.5 80.5t31.5 117h-233v80h323v-372h-60l-30 101h-2q-42 -58 -96.5 -86.5t-134.5 -28.5q-102 0 -174.5 47.5t-110 131.5t-37.5 193q0 107 42 191.5
t117.5 132t172.5 47.5q131 0 206 -61.5t95 -168.5h-90q-15 74 -71 112zM366 -165q-19 0 -30.5 13t-11.5 38q0 24 15 39.5t37 15.5q28 0 43 -23t15 -62q0 -40 -23.5 -75t-76.5 -44v40q24 6 37 20t13 41q-9 -3 -18 -3z" />
    <glyph glyph-name="gcommaaccent" unicode="&#x123;" horiz-adv-x="553" 
d="M498 510v-482q0 -100 -59.5 -152.5t-166.5 -52.5q-68 0 -119 21.5t-79.5 58.5t-32.5 81h80q8 -42 43.5 -66.5t103.5 -24.5q150 0 150 136v77h-2q-55 -80 -162 -80q-65 0 -116.5 28t-81.5 84t-30 137t30 137t81.5 84t116.5 28q103 0 162 -77h2v63h80zM377.5 141.5
q40.5 45.5 40.5 133.5t-40.5 133.5t-113.5 45.5q-76 0 -117 -50t-41 -129t41 -129t117 -50q73 0 113.5 45.5zM275 677q19 0 30.5 -13t11.5 -38q0 -24 -15 -39.5t-37 -15.5q-28 0 -43 23t-15 62q0 41 24 80.5t76 48.5v-40q-23 -5 -36.5 -24t-13.5 -47q9 3 18 3z" />
    <glyph glyph-name="Hbar" unicode="&#x126;" horiz-adv-x="696" 
d="M699 535h-70v-535h-90v331h-382v-331h-90v535h-70v70h70v110h90v-110h382v110h90v-110h70v-70zM539 535h-382v-124h382v124z" />
    <glyph glyph-name="hbar" unicode="&#x127;" horiz-adv-x="535" 
d="M435 481.5q48 -42.5 48 -125.5v-356h-80v336q0 53 -27 85.5t-84 32.5q-67 0 -108.5 -38t-41.5 -98v-318h-80v585h-70v70h70v60h80v-60h148v-70h-148v-136h2q24 32 66 53.5t102 21.5q75 0 123 -42.5z" />
    <glyph glyph-name="Imacron" unicode="&#x12a;" horiz-adv-x="228" 
d="M159 715v-715h-90v715h90zM243 905v-70h-258v70h258z" />
    <glyph glyph-name="imacron" unicode="&#x12b;" horiz-adv-x="140" 
d="M110 510v-510h-80v510h80zM199 700v-70h-258v70h258z" />
    <glyph glyph-name="Iogonek" unicode="&#x12e;" horiz-adv-x="228" 
d="M159 715v-715h-90v715h90zM46.5 -157q-23.5 20 -23.5 54q0 33 23 62t53 41h60q-66 -52 -66 -86q0 -14 10.5 -22.5t26.5 -8.5q26 0 49 10v-60q-32 -10 -65 -10q-44 0 -67.5 20z" />
    <glyph glyph-name="iogonek" unicode="&#x12f;" horiz-adv-x="140" 
d="M110 510v-510h-80v510h80zM33.5 709.5q13.5 14.5 36.5 14.5t36.5 -14.5t13.5 -35.5q0 -20 -13.5 -34.5t-36.5 -14.5t-36.5 14.5t-13.5 34.5q0 21 13.5 35.5zM-2.5 -157q-23.5 20 -23.5 54q0 33 23 62t53 41h60q-66 -52 -66 -86q0 -14 10.5 -22.5t26.5 -8.5q26 0 49 10
v-60q-32 -10 -65 -10q-44 0 -67.5 20z" />
    <glyph glyph-name="Idotaccent" unicode="&#x130;" horiz-adv-x="228" 
d="M159 715v-715h-90v715h90zM77.5 914.5q13.5 14.5 36.5 14.5t36.5 -14.5t13.5 -35.5q0 -20 -13.5 -34.5t-36.5 -14.5t-36.5 14.5t-13.5 34.5q0 21 13.5 35.5z" />
    <glyph glyph-name="dotlessi" unicode="&#x131;" horiz-adv-x="140" 
d="M110 510v-510h-80v510h80z" />
    <glyph glyph-name="Kcommaaccent" unicode="&#x136;" horiz-adv-x="644" 
d="M157 715v-383l359 383h110l-281 -297l301 -418h-105l-256 356l-128 -135v-221h-90v715h90zM344 -165q-19 0 -30.5 13t-11.5 38q0 24 15 39.5t37 15.5q28 0 43 -23t15 -62q0 -40 -23.5 -75t-76.5 -44v40q24 6 37 20t13 41q-9 -3 -18 -3z" />
    <glyph glyph-name="kcommaaccent" unicode="&#x137;" horiz-adv-x="489" 
d="M135 715v-424l234 219h100l-199 -189l220 -321h-95l-181 274l-79 -73v-201h-80v715h80zM260 -165q-19 0 -30.5 13t-11.5 38q0 24 15 39.5t37 15.5q28 0 43 -23t15 -62q0 -40 -23.5 -75t-76.5 -44v40q24 6 37 20t13 41q-9 -3 -18 -3z" />
    <glyph glyph-name="Lacute" unicode="&#x139;" horiz-adv-x="554" 
d="M157 715v-635h375v-80h-465v715h90zM216 930l-73 -127h-65l43 127h95z" />
    <glyph glyph-name="lacute" unicode="&#x13a;" horiz-adv-x="187" 
d="M138 715v-715h-80v715h80zM207 897l-73 -127h-65l43 127h95z" />
    <glyph glyph-name="Lcommaaccent" unicode="&#x13b;" horiz-adv-x="554" 
d="M157 715v-635h375v-80h-465v715h90zM287 -165q-19 0 -30.5 13t-11.5 38q0 24 15 39.5t37 15.5q28 0 43 -23t15 -62q0 -40 -23.5 -75t-76.5 -44v40q24 6 37 20t13 41q-9 -3 -18 -3z" />
    <glyph glyph-name="lcommaaccent" unicode="&#x13c;" horiz-adv-x="196" 
d="M138 715v-715h-80v715h80zM85 -165q-19 0 -30.5 13t-11.5 38q0 24 15 39.5t37 15.5q28 0 43 -23t15 -62q0 -40 -23.5 -75t-76.5 -44v40q24 6 37 20t13 41q-9 -3 -18 -3z" />
    <glyph glyph-name="Lcaron" unicode="&#x13d;" horiz-adv-x="554" 
d="M329 606q-25 0 -40.5 16t-15.5 41q0 26 15 41.5t43 15.5q30 0 46 -23t16 -61q0 -41 -28 -78.5t-84 -43.5v36q23 4 44.5 21.5t21.5 36.5q-12 -2 -18 -2zM157 715v-635h375v-80h-465v715h90z" />
    <glyph glyph-name="lcaron" unicode="&#x13e;" horiz-adv-x="230" 
d="M246 606q-25 0 -40.5 16t-15.5 41q0 26 15 41.5t43 15.5q30 0 46 -23t16 -61q0 -41 -28 -78.5t-84 -43.5v36q23 4 44.5 21.5t21.5 36.5q-12 -2 -18 -2zM138 715v-715h-80v715h80z" />
    <glyph glyph-name="Lslash" unicode="&#x141;" horiz-adv-x="552" 
d="M530 80v-80h-465v242l-70 -51v77l70 51v396h90v-330l170 125v-77l-170 -125v-228h375z" />
    <glyph glyph-name="lslash" unicode="&#x142;" horiz-adv-x="227" 
d="M233 425l-74 -53v-372h-80v314l-74 -53v77l74 53v324h80v-266l74 53v-77z" />
    <glyph glyph-name="Nacute" unicode="&#x143;" horiz-adv-x="693" 
d="M67 715h110l357 -589h2v589h90v-715h-110l-357 587h-2v-587h-90v715zM451 930l-73 -127h-65l43 127h95z" />
    <glyph glyph-name="nacute" unicode="&#x144;" horiz-adv-x="528" 
d="M428 481.5q48 -42.5 48 -125.5v-356h-80v336q0 53 -27 85.5t-84 32.5q-67 0 -108.5 -38t-41.5 -98v-318h-80v510h80v-61h2q24 32 66 53.5t102 21.5q75 0 123 -42.5zM370 725l-73 -127h-65l43 127h95z" />
    <glyph glyph-name="Ncommaaccent" unicode="&#x145;" horiz-adv-x="693" 
d="M67 715h110l357 -589h2v589h90v-715h-110l-357 587h-2v-587h-90v715zM334 -165q-19 0 -30.5 13t-11.5 38q0 24 15 39.5t37 15.5q28 0 43 -23t15 -62q0 -40 -23.5 -75t-76.5 -44v40q24 6 37 20t13 41q-9 -3 -18 -3z" />
    <glyph glyph-name="ncommaaccent" unicode="&#x146;" horiz-adv-x="528" 
d="M428 481.5q48 -42.5 48 -125.5v-356h-80v336q0 53 -27 85.5t-84 32.5q-67 0 -108.5 -38t-41.5 -98v-318h-80v510h80v-61h2q24 32 66 53.5t102 21.5q75 0 123 -42.5zM253 -165q-19 0 -30.5 13t-11.5 38q0 24 15 39.5t37 15.5q28 0 43 -23t15 -62q0 -40 -23.5 -75
t-76.5 -44v40q24 6 37 20t13 41q-9 -3 -18 -3z" />
    <glyph glyph-name="Ncaron" unicode="&#x147;" horiz-adv-x="693" 
d="M67 715h110l357 -589h2v589h90v-715h-110l-357 587h-2v-587h-90v715zM290 930l56 -84h2l56 84h80l-92 -127h-90l-92 127h80z" />
    <glyph glyph-name="ncaron" unicode="&#x148;" horiz-adv-x="528" 
d="M428 481.5q48 -42.5 48 -125.5v-356h-80v336q0 53 -27 85.5t-84 32.5q-67 0 -108.5 -38t-41.5 -98v-318h-80v510h80v-61h2q24 32 66 53.5t102 21.5q75 0 123 -42.5zM209 725l56 -84h2l56 84h80l-92 -127h-90l-92 127h80z" />
    <glyph glyph-name="Eng" unicode="&#x14a;" horiz-adv-x="693" 
d="M67 715h110l357 -589h2v589h90v-715q0 -92 -48 -135t-129 -43q-35 0 -56 6v70q24 -2 34 -2q100 0 101 85l-369 606h-2v-587h-90v715z" />
    <glyph glyph-name="eng" unicode="&#x14b;" horiz-adv-x="528" 
d="M428 481.5q48 -42.5 48 -125.5v-391q0 -73 -31.5 -102t-88.5 -29q-33 0 -60 6v70q10 -1 27 -1q39 0 56 14t17 50v363q0 53 -27 85.5t-84 32.5q-67 0 -108.5 -38t-41.5 -98v-318h-80v510h80v-61h2q24 32 66 53.5t102 21.5q75 0 123 -42.5z" />
    <glyph glyph-name="Omacron" unicode="&#x14c;" horiz-adv-x="780" 
d="M207.5 34q-79.5 48 -123.5 132.5t-44 191.5t44 191.5t123.5 132t182.5 47.5t182.5 -47.5t123.5 -132t44 -191.5t-44 -191.5t-123.5 -132.5t-182.5 -48t-182.5 48zM534.5 105.5q58.5 39.5 87 106t28.5 146.5t-28.5 146t-87 105.5t-144.5 39.5t-144.5 -39.5t-87 -105.5
t-28.5 -146t28.5 -146.5t87 -106t144.5 -39.5t144.5 39.5zM519 905v-70h-258v70h258z" />
    <glyph glyph-name="omacron" unicode="&#x14d;" horiz-adv-x="551" 
d="M408.5 20q56.5 34 86.5 95t30 140t-30 140t-86.5 95t-132.5 34q-77 0 -133.5 -34t-86.5 -95t-30 -140t30 -140t86.5 -95t133.5 -34q76 0 132.5 34zM150 112q-44 56 -44 143t44 143t126 56t125.5 -56t43.5 -143t-43.5 -143t-125.5 -56t-126 56zM405 700v-70h-258v70h258z
" />
    <glyph glyph-name="Ohungarumlaut" unicode="&#x150;" horiz-adv-x="780" 
d="M207.5 34q-79.5 48 -123.5 132.5t-44 191.5t44 191.5t123.5 132t182.5 47.5t182.5 -47.5t123.5 -132t44 -191.5t-44 -191.5t-123.5 -132.5t-182.5 -48t-182.5 48zM534.5 105.5q58.5 39.5 87 106t28.5 146.5t-28.5 146t-87 105.5t-144.5 39.5t-144.5 -39.5t-87 -105.5
t-28.5 -146t28.5 -146.5t87 -106t144.5 -39.5t144.5 39.5zM418 930l-73 -127h-65l43 127h95zM560 930l-73 -127h-65l43 127h95z" />
    <glyph glyph-name="ohungarumlaut" unicode="&#x151;" horiz-adv-x="551" 
d="M408.5 20q56.5 34 86.5 95t30 140t-30 140t-86.5 95t-132.5 34q-77 0 -133.5 -34t-86.5 -95t-30 -140t30 -140t86.5 -95t133.5 -34q76 0 132.5 34zM150 112q-44 56 -44 143t44 143t126 56t125.5 -56t43.5 -143t-43.5 -143t-125.5 -56t-126 56zM304 725l-73 -127h-65
l43 127h95zM446 725l-73 -127h-65l43 127h95z" />
    <glyph glyph-name="OE" unicode="&#x152;" horiz-adv-x="1072" 
d="M1034 80v-80h-517v66q-67 -80 -187 -80q-84 0 -150 48t-103 133t-37 191t37 190.5t103 132.5t150 48q119 0 187 -79v65h505v-80h-415v-225h367v-80h-367v-250h427zM445.5 91.5q43.5 25.5 71.5 77.5v377q-28 52 -71.5 77.5t-95.5 25.5q-113 0 -166.5 -82t-53.5 -209
t53.5 -209.5t166.5 -82.5q52 0 95.5 25.5z" />
    <glyph glyph-name="oe" unicode="&#x153;" horiz-adv-x="967" 
d="M810 88q36 32 45 69h80q-21 -76 -78 -123.5t-148 -47.5q-75 0 -131 32.5t-86 91.5q-31 -59 -86 -91.5t-130 -32.5q-77 0 -133.5 34t-86.5 95t-30 140t30 140t86.5 95t133.5 34q74 0 129.5 -32t85.5 -90q30 59 85 90.5t129 31.5q118 0 178 -76t60 -214h-403
q0 -48 19 -88.5t56.5 -65t90.5 -24.5q68 0 104 32zM401.5 112q43.5 56 43.5 143t-43.5 143t-125.5 56t-126 -56t-44 -143t44 -143t126 -56t125.5 56zM620.5 434q-37.5 -20 -59 -54.5t-21.5 -75.5h323q0 41 -19.5 75.5t-55.5 54.5t-83 20t-84.5 -20z" />
    <glyph glyph-name="Racute" unicode="&#x154;" horiz-adv-x="633" 
d="M67 715h290q107 0 171.5 -54.5t64.5 -148.5q0 -75 -33.5 -119.5t-94.5 -60.5v-2q49 -10 75 -49t34 -86t12 -110q3 -41 6 -58.5t11 -20.5v-6h-97q-6 6 -8 23.5t-2 48.5q-2 64 -9.5 107.5t-36.5 76.5t-88 33h-205v-289h-90v715zM157 369h179q47 0 82.5 8.5t60 37.5t24.5 87
t-24.5 87t-60 37.5t-82.5 8.5h-179v-266zM409 930l-73 -127h-65l43 127h95z" />
    <glyph glyph-name="racute" unicode="&#x155;" horiz-adv-x="343" 
d="M325 521v-80h-2q-16 3 -31 3q-70 0 -113.5 -49t-43.5 -123v-272h-80v510h80v-101h2q22 55 55.5 85t85.5 30q26 0 47 -3zM294 725l-73 -127h-65l43 127h95z" />
    <glyph glyph-name="Rcommaaccent" unicode="&#x156;" horiz-adv-x="633" 
d="M67 715h290q107 0 171.5 -54.5t64.5 -148.5q0 -75 -33.5 -119.5t-94.5 -60.5v-2q49 -10 75 -49t34 -86t12 -110q3 -41 6 -58.5t11 -20.5v-6h-97q-6 6 -8 23.5t-2 48.5q-2 64 -9.5 107.5t-36.5 76.5t-88 33h-205v-289h-90v715zM157 369h179q47 0 82.5 8.5t60 37.5t24.5 87
t-24.5 87t-60 37.5t-82.5 8.5h-179v-266zM312 -165q-19 0 -30.5 13t-11.5 38q0 24 15 39.5t37 15.5q28 0 43 -23t15 -62q0 -40 -23.5 -75t-76.5 -44v40q24 6 37 20t13 41q-9 -3 -18 -3z" />
    <glyph glyph-name="rcommaaccent" unicode="&#x157;" horiz-adv-x="343" 
d="M325 521v-80h-2q-16 3 -31 3q-70 0 -113.5 -49t-43.5 -123v-272h-80v510h80v-101h2q22 55 55.5 85t85.5 30q26 0 47 -3zM84 -165q-19 0 -30.5 13t-11.5 38q0 24 15 39.5t37 15.5q28 0 43 -23t15 -62q0 -40 -23.5 -75t-76.5 -44v40q24 6 37 20t13 41q-9 -3 -18 -3z" />
    <glyph glyph-name="Rcaron" unicode="&#x158;" horiz-adv-x="633" 
d="M67 715h290q107 0 171.5 -54.5t64.5 -148.5q0 -75 -33.5 -119.5t-94.5 -60.5v-2q49 -10 75 -49t34 -86t12 -110q3 -41 6 -58.5t11 -20.5v-6h-97q-6 6 -8 23.5t-2 48.5q-2 64 -9.5 107.5t-36.5 76.5t-88 33h-205v-289h-90v715zM157 369h179q47 0 82.5 8.5t60 37.5t24.5 87
t-24.5 87t-60 37.5t-82.5 8.5h-179v-266zM248 930l56 -84h2l56 84h80l-92 -127h-90l-92 127h80z" />
    <glyph glyph-name="rcaron" unicode="&#x159;" horiz-adv-x="343" 
d="M325 521v-80h-2q-16 3 -31 3q-70 0 -113.5 -49t-43.5 -123v-272h-80v510h80v-101h2q22 55 55.5 85t85.5 30q26 0 47 -3zM133 725l56 -84h2l56 84h80l-92 -127h-90l-92 127h80z" />
    <glyph glyph-name="Sacute" unicode="&#x15a;" horiz-adv-x="626" 
d="M476 371q52 -21 83 -64t31 -120q0 -54 -27.5 -100t-85.5 -73.5t-145 -27.5q-85 0 -153.5 29.5t-110 87t-46.5 137.5h90q8 -80 61 -127t159 -47q87 0 127.5 34t40.5 87q0 49 -19.5 75t-61.5 41.5t-132 36.5q-69 16 -118 36t-83 60t-34 105q0 86 64 137t181 51
q116 0 188.5 -58.5t81.5 -167.5h-90q-10 73 -53.5 109.5t-126.5 36.5q-74 0 -114.5 -26.5t-40.5 -71.5t22 -69.5t54 -35.5t106 -29q100 -25 152 -46zM405 930l-73 -127h-65l43 127h95z" />
    <glyph glyph-name="sacute" unicode="&#x15b;" horiz-adv-x="479" 
d="M331.5 286.5q60.5 -14.5 92.5 -51.5t32 -95q0 -46 -26 -81t-71.5 -54t-103.5 -19q-113 0 -171 49t-62 135h80q5 -53 35.5 -83.5t117.5 -30.5q60 0 90.5 24.5t30.5 54.5t-14.5 47t-36.5 25.5t-61 17.5l-28 6q-22 5 -29 7q-52 11 -85 23.5t-56.5 40.5t-23.5 77q0 40 23 73
t66.5 52.5t101.5 19.5q91 0 144 -45t59 -115h-80q-8 39 -33.5 64.5t-89.5 25.5q-53 0 -82 -19t-29 -50q0 -24 14 -38t35.5 -21t60.5 -16l30 -7q9 -2 69.5 -16.5zM343 725l-73 -127h-65l43 127h95z" />
    <glyph glyph-name="Scedilla" unicode="&#x15e;" horiz-adv-x="626" 
d="M476 371q52 -21 83 -64t31 -120q0 -54 -27.5 -100t-85.5 -73.5t-145 -27.5q-85 0 -153.5 29.5t-110 87t-46.5 137.5h90q8 -80 61 -127t159 -47q87 0 127.5 34t40.5 87q0 49 -19.5 75t-61.5 41.5t-132 36.5q-69 16 -118 36t-83 60t-34 105q0 86 64 137t181 51
q116 0 188.5 -58.5t81.5 -167.5h-90q-10 73 -53.5 109.5t-126.5 36.5q-74 0 -114.5 -26.5t-40.5 -71.5t22 -69.5t54 -35.5t106 -29q100 -25 152 -46zM331 -59v-2q6 1 17 1q32 0 56 -15t24 -46q0 -34 -31 -54.5t-73 -20.5q-30 0 -59.5 8t-47.5 21l21 25q21 -8 37.5 -11.5
t37.5 -3.5q24 0 39.5 10.5t15.5 26.5q0 14 -12 20.5t-38 6.5q-10 0 -22 -2t-18 -5l-12 19l57 74h50z" />
    <glyph glyph-name="scedilla" unicode="&#x15f;" horiz-adv-x="479" 
d="M331.5 286.5q60.5 -14.5 92.5 -51.5t32 -95q0 -46 -26 -81t-71.5 -54t-103.5 -19q-113 0 -171 49t-62 135h80q5 -53 35.5 -83.5t117.5 -30.5q60 0 90.5 24.5t30.5 54.5t-14.5 47t-36.5 25.5t-61 17.5l-28 6q-22 5 -29 7q-52 11 -85 23.5t-56.5 40.5t-23.5 77q0 40 23 73
t66.5 52.5t101.5 19.5q91 0 144 -45t59 -115h-80q-8 39 -33.5 64.5t-89.5 25.5q-53 0 -82 -19t-29 -50q0 -24 14 -38t35.5 -21t60.5 -16l30 -7q9 -2 69.5 -16.5zM224 -59v-2q6 1 17 1q32 0 56 -15t24 -46q0 -34 -31 -54.5t-73 -20.5q-30 0 -59.5 8t-47.5 21l21 25
q21 -8 37.5 -11.5t37.5 -3.5q24 0 39.5 10.5t15.5 26.5q0 14 -12 20.5t-38 6.5q-10 0 -22 -2t-18 -5l-12 19l57 74h50z" />
    <glyph glyph-name="Scaron" unicode="&#x160;" horiz-adv-x="626" 
d="M476 371q52 -21 83 -64t31 -120q0 -54 -27.5 -100t-85.5 -73.5t-145 -27.5q-85 0 -153.5 29.5t-110 87t-46.5 137.5h90q8 -80 61 -127t159 -47q87 0 127.5 34t40.5 87q0 49 -19.5 75t-61.5 41.5t-132 36.5q-69 16 -118 36t-83 60t-34 105q0 86 64 137t181 51
q116 0 188.5 -58.5t81.5 -167.5h-90q-10 73 -53.5 109.5t-126.5 36.5q-74 0 -114.5 -26.5t-40.5 -71.5t22 -69.5t54 -35.5t106 -29q100 -25 152 -46zM244 930l56 -84h2l56 84h80l-92 -127h-90l-92 127h80z" />
    <glyph glyph-name="scaron" unicode="&#x161;" horiz-adv-x="479" 
d="M331.5 286.5q60.5 -14.5 92.5 -51.5t32 -95q0 -46 -26 -81t-71.5 -54t-103.5 -19q-113 0 -171 49t-62 135h80q5 -53 35.5 -83.5t117.5 -30.5q60 0 90.5 24.5t30.5 54.5t-14.5 47t-36.5 25.5t-61 17.5l-28 6q-22 5 -29 7q-52 11 -85 23.5t-56.5 40.5t-23.5 77q0 40 23 73
t66.5 52.5t101.5 19.5q91 0 144 -45t59 -115h-80q-8 39 -33.5 64.5t-89.5 25.5q-53 0 -82 -19t-29 -50q0 -24 14 -38t35.5 -21t60.5 -16l30 -7q9 -2 69.5 -16.5zM182 725l56 -84h2l56 84h80l-92 -127h-90l-92 127h80z" />
    <glyph glyph-name="uni0162" unicode="&#x162;" horiz-adv-x="610" 
d="M260 635h-238v80h566v-80h-238v-635h-90v635zM290 -52v-2q6 1 17 1q32 0 56 -15t24 -46q0 -34 -31 -54.5t-73 -20.5q-30 0 -59.5 8t-47.5 21l21 25q21 -8 37.5 -11.5t37.5 -3.5q24 0 39.5 10.5t15.5 26.5q0 14 -12 20.5t-38 6.5q-10 0 -22 -2t-18 -5l-12 19l57 74h50z
" />
    <glyph glyph-name="uni0163" unicode="&#x163;" horiz-adv-x="306" 
d="M177 440v-307q0 -36 17 -50t56 -14q17 0 27 1v-70q-27 -6 -60 -6q-57 0 -88.5 29t-31.5 102v315h-75v70h75v170h80v-170h100v-70h-100zM190 -55v-2q6 1 17 1q32 0 56 -15t24 -46q0 -34 -31 -54.5t-73 -20.5q-30 0 -59.5 8t-47.5 21l21 25q21 -8 37.5 -11.5t37.5 -3.5
q24 0 39.5 10.5t15.5 26.5q0 14 -12 20.5t-38 6.5q-10 0 -22 -2t-18 -5l-12 19l57 74h50z" />
    <glyph glyph-name="Tcaron" unicode="&#x164;" horiz-adv-x="610" 
d="M260 635h-238v80h566v-80h-238v-635h-90v635zM248 930l56 -84h2l56 84h80l-92 -127h-90l-92 127h80z" />
    <glyph glyph-name="tcaron" unicode="&#x165;" horiz-adv-x="330" 
d="M332 747q16 -23 16 -61q0 -41 -28 -78.5t-84 -43.5v36q23 4 44.5 21.5t21.5 36.5q-12 -2 -18 -2q-25 0 -40.5 16t-15.5 41q0 26 15 41.5t43 15.5q30 0 46 -23zM177 510h100v-70h-100v-307q0 -36 17 -50t56 -14q17 0 27 1v-70q-27 -6 -60 -6q-57 0 -88.5 29t-31.5 102v315
h-75v70h75v170h80v-170z" />
    <glyph glyph-name="Tbar" unicode="&#x166;" horiz-adv-x="610" 
d="M260 635h-238v80h566v-80h-238v-635h-90v635zM509 335h-408v70h408v-70z" />
    <glyph glyph-name="tbar" unicode="&#x167;" horiz-adv-x="306" 
d="M177 440v-93h100v-70h-100v-144q0 -36 17 -50t56 -14q17 0 27 1v-70q-27 -6 -60 -6q-57 0 -88.5 29t-31.5 102v152h-75v70h75v93h-75v70h75v170h80v-170h100v-70h-100z" />
    <glyph glyph-name="Umacron" unicode="&#x16a;" horiz-adv-x="658" 
d="M535 54.5q-68 -68.5 -206 -68.5t-206 68.5t-68 183.5v477h90v-477q0 -87 45.5 -129.5t138.5 -42.5t138.5 42.5t45.5 129.5v477h90v-477q0 -115 -68 -183.5zM458 905v-70h-258v70h258z" />
    <glyph glyph-name="umacron" unicode="&#x16b;" horiz-adv-x="528" 
d="M473 510v-510h-80v61h-2q-24 -32 -66 -53.5t-102 -21.5q-75 0 -123 42.5t-48 125.5v356h80v-336q0 -53 27 -85.5t84 -32.5q67 0 108.5 38t41.5 98v318h80zM392 700v-70h-258v70h258z" />
    <glyph glyph-name="Uring" unicode="&#x16e;" horiz-adv-x="658" 
d="M535 54.5q-68 -68.5 -206 -68.5t-206 68.5t-68 183.5v477h90v-477q0 -87 45.5 -129.5t138.5 -42.5t138.5 42.5t45.5 129.5v477h90v-477q0 -115 -68 -183.5zM266.5 812.5q-25.5 24.5 -25.5 62.5t25.5 63t61.5 25q37 0 62.5 -25t25.5 -63t-25.5 -62.5t-62.5 -24.5
q-36 0 -61.5 24.5zM361 841q14 13 14 34t-14 34.5t-33 13.5t-32.5 -13.5t-13.5 -34.5t13.5 -34t32.5 -13t33 13z" />
    <glyph glyph-name="uring" unicode="&#x16f;" horiz-adv-x="528" 
d="M473 510v-510h-80v61h-2q-24 -32 -66 -53.5t-102 -21.5q-75 0 -123 42.5t-48 125.5v356h80v-336q0 -53 27 -85.5t84 -32.5q67 0 108.5 38t41.5 98v318h80zM200.5 607.5q-25.5 24.5 -25.5 62.5t25.5 63t61.5 25q37 0 62.5 -25t25.5 -63t-25.5 -62.5t-62.5 -24.5
q-36 0 -61.5 24.5zM295 636q14 13 14 34t-14 34.5t-33 13.5t-32.5 -13.5t-13.5 -34.5t13.5 -34t32.5 -13t33 13z" />
    <glyph glyph-name="Uhungarumlaut" unicode="&#x170;" horiz-adv-x="658" 
d="M535 54.5q-68 -68.5 -206 -68.5t-206 68.5t-68 183.5v477h90v-477q0 -87 45.5 -129.5t138.5 -42.5t138.5 42.5t45.5 129.5v477h90v-477q0 -115 -68 -183.5zM357 930l-73 -127h-65l43 127h95zM499 930l-73 -127h-65l43 127h95z" />
    <glyph glyph-name="uhungarumlaut" unicode="&#x171;" horiz-adv-x="528" 
d="M473 510v-510h-80v61h-2q-24 -32 -66 -53.5t-102 -21.5q-75 0 -123 42.5t-48 125.5v356h80v-336q0 -53 27 -85.5t84 -32.5q67 0 108.5 38t41.5 98v318h80zM291 725l-73 -127h-65l43 127h95zM433 725l-73 -127h-65l43 127h95z" />
    <glyph glyph-name="Uogonek" unicode="&#x172;" horiz-adv-x="658" 
d="M535 54.5q-68 -68.5 -206 -68.5t-206 68.5t-68 183.5v477h90v-477q0 -87 45.5 -129.5t138.5 -42.5t138.5 42.5t45.5 129.5v477h90v-477q0 -115 -68 -183.5zM325.5 -157q-23.5 20 -23.5 54q0 33 23 62t53 41h60q-66 -52 -66 -86q0 -14 10.5 -22.5t26.5 -8.5q26 0 49 10
v-60q-32 -10 -65 -10q-44 0 -67.5 20z" />
    <glyph glyph-name="uogonek" unicode="&#x173;" horiz-adv-x="528" 
d="M473 510v-510h-80v61h-2q-24 -32 -66 -53.5t-102 -21.5q-75 0 -123 42.5t-48 125.5v356h80v-336q0 -53 27 -85.5t84 -32.5q67 0 108.5 38t41.5 98v318h80zM360.5 -157q-23.5 20 -23.5 54q0 33 23 62t53 41h60q-66 -52 -66 -86q0 -14 10.5 -22.5t26.5 -8.5q26 0 49 10v-60
q-32 -10 -65 -10q-44 0 -67.5 20z" />
    <glyph glyph-name="Wcircumflex" unicode="&#x174;" horiz-adv-x="914" 
d="M109 715l136 -586h2l160 586h100l160 -586h2l136 586h95l-177 -715h-100l-165 613h-2l-165 -613h-100l-177 715h95zM412 930h90l92 -127h-80l-56 84h-2l-56 -84h-80z" />
    <glyph glyph-name="wcircumflex" unicode="&#x175;" horiz-adv-x="734" 
d="M92 510l116 -423h2l114 423h85l115 -423h2l116 423h88l-163 -510h-85l-115 421h-2l-113 -421h-85l-163 510h88zM322 725h90l92 -127h-80l-56 84h-2l-56 -84h-80z" />
    <glyph glyph-name="Ycircumflex" unicode="&#x176;" horiz-adv-x="631" 
d="M107 715l207 -350h2l208 350h97l-261 -422v-293h-90v293l-260 422h97zM271 930h90l92 -127h-80l-56 84h-2l-56 -84h-80z" />
    <glyph glyph-name="ycircumflex" unicode="&#x177;" horiz-adv-x="489" 
d="M269 -42q-17 -42 -30.5 -66.5t-41 -44t-70.5 -19.5q-35 0 -68 10v60h12q10 -1 27 -1q24 0 42 6.5t33 22.5q13 14 21.5 33.5t8.5 41.5t-8 41l-193 468h90l156 -416h2l147 416h90zM200 725h90l92 -127h-80l-56 84h-2l-56 -84h-80z" />
    <glyph glyph-name="Ydieresis" unicode="&#x178;" horiz-adv-x="631" 
d="M107 715l207 -350h2l208 350h97l-261 -422v-293h-90v293l-260 422h97zM204.5 914.5q13.5 14.5 36.5 14.5t36.5 -14.5t13.5 -35.5q0 -20 -13.5 -34.5t-36.5 -14.5t-36.5 14.5t-13.5 34.5q0 21 13.5 35.5zM354.5 914.5q13.5 14.5 36.5 14.5t36.5 -14.5t13.5 -35.5
q0 -20 -13.5 -34.5t-36.5 -14.5t-36.5 14.5t-13.5 34.5q0 21 13.5 35.5z" />
    <glyph glyph-name="Zacute" unicode="&#x179;" horiz-adv-x="622" 
d="M576 715v-80l-436 -553v-2h446v-80h-556v80l436 553v2h-416v80h526zM412 930l-73 -127h-65l43 127h95z" />
    <glyph glyph-name="zacute" unicode="&#x17a;" horiz-adv-x="471" 
d="M322 438v2h-271v70h384v-48l-297 -390v-2h308v-70h-412v60zM348 725l-73 -127h-65l43 127h95z" />
    <glyph glyph-name="Zdotaccent" unicode="&#x17b;" horiz-adv-x="622" 
d="M576 715v-80l-436 -553v-2h446v-80h-556v80l436 553v2h-416v80h526zM271.5 914.5q13.5 14.5 36.5 14.5t36.5 -14.5t13.5 -35.5q0 -20 -13.5 -34.5t-36.5 -14.5t-36.5 14.5t-13.5 34.5q0 21 13.5 35.5z" />
    <glyph glyph-name="zdotaccent" unicode="&#x17c;" horiz-adv-x="471" 
d="M322 438v2h-271v70h384v-48l-297 -390v-2h308v-70h-412v60zM207.5 709.5q13.5 14.5 36.5 14.5t36.5 -14.5t13.5 -35.5q0 -20 -13.5 -34.5t-36.5 -14.5t-36.5 14.5t-13.5 34.5q0 21 13.5 35.5z" />
    <glyph glyph-name="Zcaron" unicode="&#x17d;" horiz-adv-x="622" 
d="M576 715v-80l-436 -553v-2h446v-80h-556v80l436 553v2h-416v80h526zM251 930l56 -84h2l56 84h80l-92 -127h-90l-92 127h80z" />
    <glyph glyph-name="zcaron" unicode="&#x17e;" horiz-adv-x="471" 
d="M322 438v2h-271v70h384v-48l-297 -390v-2h308v-70h-412v60zM187 725l56 -84h2l56 84h80l-92 -127h-90l-92 127h80z" />
    <glyph glyph-name="Scommaaccent" unicode="&#x218;" horiz-adv-x="626" 
d="M476 371q52 -21 83 -64t31 -120q0 -54 -27.5 -100t-85.5 -73.5t-145 -27.5q-85 0 -153.5 29.5t-110 87t-46.5 137.5h90q8 -80 61 -127t159 -47q87 0 127.5 34t40.5 87q0 49 -19.5 75t-61.5 41.5t-132 36.5q-69 16 -118 36t-83 60t-34 105q0 86 64 137t181 51
q116 0 188.5 -58.5t81.5 -167.5h-90q-10 73 -53.5 109.5t-126.5 36.5q-74 0 -114.5 -26.5t-40.5 -71.5t22 -69.5t54 -35.5t106 -29q100 -25 152 -46zM333 -165q-19 0 -30.5 13t-11.5 38q0 24 15 39.5t37 15.5q28 0 43 -23t15 -62q0 -40 -23.5 -75t-76.5 -44v40q24 6 37 20
t13 41q-9 -3 -18 -3z" />
    <glyph glyph-name="scommaaccent" unicode="&#x219;" horiz-adv-x="479" 
d="M331.5 286.5q60.5 -14.5 92.5 -51.5t32 -95q0 -46 -26 -81t-71.5 -54t-103.5 -19q-113 0 -171 49t-62 135h80q5 -53 35.5 -83.5t117.5 -30.5q60 0 90.5 24.5t30.5 54.5t-14.5 47t-36.5 25.5t-61 17.5l-28 6q-22 5 -29 7q-52 11 -85 23.5t-56.5 40.5t-23.5 77q0 40 23 73
t66.5 52.5t101.5 19.5q91 0 144 -45t59 -115h-80q-8 39 -33.5 64.5t-89.5 25.5q-53 0 -82 -19t-29 -50q0 -24 14 -38t35.5 -21t60.5 -16l30 -7q9 -2 69.5 -16.5zM226 -165q-19 0 -30.5 13t-11.5 38q0 24 15 39.5t37 15.5q28 0 43 -23t15 -62q0 -40 -23.5 -75t-76.5 -44v40
q24 6 37 20t13 41q-9 -3 -18 -3z" />
    <glyph glyph-name="uni021A" unicode="&#x21a;" horiz-adv-x="610" 
d="M260 635h-238v80h566v-80h-238v-635h-90v635zM292 -158q-19 0 -30.5 13t-11.5 38q0 24 15 39.5t37 15.5q28 0 43 -23t15 -62q0 -40 -23.5 -75t-76.5 -44v40q24 6 37 20t13 41q-9 -3 -18 -3z" />
    <glyph glyph-name="uni021B" unicode="&#x21b;" horiz-adv-x="306" 
d="M177 440v-307q0 -36 17 -50t56 -14q17 0 27 1v-70q-27 -6 -60 -6q-57 0 -88.5 29t-31.5 102v315h-75v70h75v170h80v-170h100v-70h-100zM192 -161q-19 0 -30.5 13t-11.5 38q0 24 15 39.5t37 15.5q28 0 43 -23t15 -62q0 -40 -23.5 -75t-76.5 -44v40q24 6 37 20t13 41
q-9 -3 -18 -3z" />
    <glyph glyph-name="circumflex" unicode="&#x2c6;" horiz-adv-x="417" 
d="M205 725h90l92 -127h-80l-56 84h-2l-56 -84h-80z" />
    <glyph glyph-name="caron" unicode="&#x2c7;" horiz-adv-x="500" 
d="M193 725l56 -84h2l56 84h80l-92 -127h-90l-92 127h80z" />
    <glyph glyph-name="breve" unicode="&#x2d8;" horiz-adv-x="500" 
d="M159.5 627.5q-34.5 33.5 -36.5 97.5h60q2 -37 18.5 -54t48.5 -17t48.5 17t18.5 54h60q-3 -63 -37 -97t-90 -34t-90.5 33.5z" />
    <glyph glyph-name="dotaccent" unicode="&#x2d9;" horiz-adv-x="519" 
d="M222.5 709.5q13.5 14.5 36.5 14.5t36.5 -14.5t13.5 -35.5q0 -20 -13.5 -34.5t-36.5 -14.5t-36.5 14.5t-13.5 34.5q0 21 13.5 35.5z" />
    <glyph glyph-name="ring" unicode="&#x2da;" horiz-adv-x="510" 
d="M192.5 607.5q-25.5 24.5 -25.5 62.5t25.5 63t61.5 25q37 0 62.5 -25t25.5 -63t-25.5 -62.5t-62.5 -24.5q-36 0 -61.5 24.5zM287 636q14 13 14 34t-14 34.5t-33 13.5t-32.5 -13.5t-13.5 -34.5t13.5 -34t32.5 -13t33 13z" />
    <glyph glyph-name="ogonek" unicode="&#x2db;" horiz-adv-x="500" 
d="M151.5 -157q-23.5 20 -23.5 54q0 33 23 62t53 41h60q-66 -52 -66 -86q0 -14 10.5 -22.5t26.5 -8.5q26 0 49 10v-60q-32 -10 -65 -10q-44 0 -67.5 20z" />
    <glyph glyph-name="tilde" unicode="&#x2dc;" horiz-adv-x="500" 
d="M131.5 693.5q21.5 23.5 52.5 23.5q18 0 35.5 -5.5t42.5 -16.5q6 -2 20.5 -8t23.5 -6q23 0 23 34h60q0 -48 -21.5 -71t-52.5 -23q-18 0 -35.5 5.5t-42.5 16.5q-6 2 -20.5 8t-23.5 6q-23 0 -23 -34h-60q0 47 21.5 70.5z" />
    <glyph glyph-name="hungarumlaut" unicode="&#x2dd;" horiz-adv-x="537" 
d="M275 725l-73 -127h-65l43 127h95zM417 725l-73 -127h-65l43 127h95z" />
    <glyph glyph-name="gravecomb" unicode="&#x300;" 
d="M-30 598h-65l-73 127h95z" />
    <glyph glyph-name="acutecomb" unicode="&#x301;" 
d="M-30 725l-73 -127h-65l43 127h95z" />
    <glyph glyph-name="uni0302" unicode="&#x302;" 
d="M-212 725h90l92 -127h-80l-56 84h-2l-56 -84h-80z" />
    <glyph glyph-name="tildecomb" unicode="&#x303;" 
d="M-287.5 693.5q21.5 23.5 52.5 23.5q18 0 35.5 -5.5t42.5 -16.5q6 -2 20.5 -8t23.5 -6q23 0 23 34h60q0 -48 -21.5 -71t-52.5 -23q-18 0 -35.5 5.5t-42.5 16.5q-6 2 -20.5 8t-23.5 6q-23 0 -23 -34h-60q0 47 21.5 70.5z" />
    <glyph glyph-name="uni0304" unicode="&#x304;" 
d="M-30 700v-70h-258v70h258z" />
    <glyph glyph-name="uni0306" unicode="&#x306;" 
d="M-247.5 627.5q-34.5 33.5 -36.5 97.5h60q2 -37 18.5 -54t48.5 -17t48.5 17t18.5 54h60q-3 -63 -37 -97t-90 -34t-90.5 33.5z" />
    <glyph glyph-name="uni0307" unicode="&#x307;" 
d="M-116.5 709.5q13.5 14.5 36.5 14.5t36.5 -14.5t13.5 -35.5q0 -20 -13.5 -34.5t-36.5 -14.5t-36.5 14.5t-13.5 34.5q0 21 13.5 35.5z" />
    <glyph glyph-name="uni0308" unicode="&#x308;" 
d="M-266.5 709.5q13.5 14.5 36.5 14.5t36.5 -14.5t13.5 -35.5q0 -20 -13.5 -34.5t-36.5 -14.5t-36.5 14.5t-13.5 34.5q0 21 13.5 35.5zM-116.5 709.5q13.5 14.5 36.5 14.5t36.5 -14.5t13.5 -35.5q0 -20 -13.5 -34.5t-36.5 -14.5t-36.5 14.5t-13.5 34.5q0 21 13.5 35.5z" />
    <glyph glyph-name="uni030A" unicode="&#x30a;" 
d="M-179.5 607.5q-25.5 24.5 -25.5 62.5t25.5 63t61.5 25q37 0 62.5 -25t25.5 -63t-25.5 -62.5t-62.5 -24.5q-36 0 -61.5 24.5zM-85 636q14 13 14 34t-14 34.5t-33 13.5t-32.5 -13.5t-13.5 -34.5t13.5 -34t32.5 -13t33 13z" />
    <glyph glyph-name="uni030B" unicode="&#x30b;" 
d="M-172 725l-73 -127h-65l43 127h95zM-30 725l-73 -127h-65l43 127h95z" />
    <glyph glyph-name="uni030C" unicode="&#x30c;" 
d="M-224 725l56 -84h2l56 84h80l-92 -127h-90l-92 127h80z" />
    <glyph glyph-name="uni0312" unicode="&#x312;" 
d="M-50 677q19 0 30.5 -13t11.5 -38q0 -24 -15 -39.5t-37 -15.5q-28 0 -43 23t-15 62q0 41 24 80.5t76 48.5v-40q-23 -5 -36.5 -24t-13.5 -47q9 3 18 3z" />
    <glyph glyph-name="uni0326" unicode="&#x326;" 
d="M-98 -165q-19 0 -30.5 13t-11.5 38q0 24 15 39.5t37 15.5q28 0 43 -23t15 -62q0 -40 -23.5 -75t-76.5 -44v40q24 6 37 20t13 41q-9 -3 -18 -3z" />
    <glyph glyph-name="uni0327" unicode="&#x327;" 
d="M-127 -59v-2q6 1 17 1q32 0 56 -15t24 -46q0 -34 -31 -54.5t-73 -20.5q-30 0 -59.5 8t-47.5 21l21 25q21 -8 37.5 -11.5t37.5 -3.5q24 0 39.5 10.5t15.5 26.5q0 14 -12 20.5t-38 6.5q-10 0 -22 -2t-18 -5l-12 19l57 74h50z" />
    <glyph glyph-name="uni0328" unicode="&#x328;" 
d="M-162.5 -157q-23.5 20 -23.5 54q0 33 23 62t53 41h60q-66 -52 -66 -86q0 -14 10.5 -22.5t26.5 -8.5q26 0 49 10v-60q-32 -10 -65 -10q-44 0 -67.5 20z" />
    <glyph glyph-name="uni0335" unicode="&#x335;" 
d="M-30 335h-408v70h408v-70z" />
    <glyph glyph-name="uni0336" unicode="&#x336;" 
d="M-30 315h-500v90h500v-90z" />
    <glyph glyph-name="uni0337" unicode="&#x337;" 
d="M-526 -9l494 495l-35 35l-493 -495z" />
    <glyph glyph-name="uni0338" unicode="&#x338;" 
d="M-526 -9l494 495l-35 35l-493 -495z" />
    <glyph glyph-name="Wgrave" unicode="&#x1e80;" horiz-adv-x="914" 
d="M109 715l136 -586h2l160 586h100l160 -586h2l136 586h95l-177 -715h-100l-165 613h-2l-165 -613h-100l-177 715h95zM491 803h-65l-73 127h95z" />
    <glyph glyph-name="wgrave" unicode="&#x1e81;" horiz-adv-x="734" 
d="M92 510l116 -423h2l114 423h85l115 -423h2l116 423h88l-163 -510h-85l-115 421h-2l-113 -421h-85l-163 510h88zM401 598h-65l-73 127h95z" />
    <glyph glyph-name="Wacute" unicode="&#x1e82;" horiz-adv-x="914" 
d="M109 715l136 -586h2l160 586h100l160 -586h2l136 586h95l-177 -715h-100l-165 613h-2l-165 -613h-100l-177 715h95zM561 930l-73 -127h-65l43 127h95z" />
    <glyph glyph-name="wacute" unicode="&#x1e83;" horiz-adv-x="734" 
d="M92 510l116 -423h2l114 423h85l115 -423h2l116 423h88l-163 -510h-85l-115 421h-2l-113 -421h-85l-163 510h88zM471 725l-73 -127h-65l43 127h95z" />
    <glyph glyph-name="Wdieresis" unicode="&#x1e84;" horiz-adv-x="914" 
d="M109 715l136 -586h2l160 586h100l160 -586h2l136 586h95l-177 -715h-100l-165 613h-2l-165 -613h-100l-177 715h95zM345.5 914.5q13.5 14.5 36.5 14.5t36.5 -14.5t13.5 -35.5q0 -20 -13.5 -34.5t-36.5 -14.5t-36.5 14.5t-13.5 34.5q0 21 13.5 35.5zM495.5 914.5
q13.5 14.5 36.5 14.5t36.5 -14.5t13.5 -35.5q0 -20 -13.5 -34.5t-36.5 -14.5t-36.5 14.5t-13.5 34.5q0 21 13.5 35.5z" />
    <glyph glyph-name="wdieresis" unicode="&#x1e85;" horiz-adv-x="734" 
d="M92 510l116 -423h2l114 423h85l115 -423h2l116 423h88l-163 -510h-85l-115 421h-2l-113 -421h-85l-163 510h88zM255.5 709.5q13.5 14.5 36.5 14.5t36.5 -14.5t13.5 -35.5q0 -20 -13.5 -34.5t-36.5 -14.5t-36.5 14.5t-13.5 34.5q0 21 13.5 35.5zM405.5 709.5
q13.5 14.5 36.5 14.5t36.5 -14.5t13.5 -35.5q0 -20 -13.5 -34.5t-36.5 -14.5t-36.5 14.5t-13.5 34.5q0 21 13.5 35.5z" />
    <glyph glyph-name="Ygrave" unicode="&#x1ef2;" horiz-adv-x="631" 
d="M107 715l207 -350h2l208 350h97l-261 -422v-293h-90v293l-260 422h97zM350 803h-65l-73 127h95z" />
    <glyph glyph-name="ygrave" unicode="&#x1ef3;" horiz-adv-x="489" 
d="M269 -42q-17 -42 -30.5 -66.5t-41 -44t-70.5 -19.5q-35 0 -68 10v60h12q10 -1 27 -1q24 0 42 6.5t33 22.5q13 14 21.5 33.5t8.5 41.5t-8 41l-193 468h90l156 -416h2l147 416h90zM279 598h-65l-73 127h95z" />
    <glyph glyph-name="endash" unicode="&#x2013;" horiz-adv-x="500" 
d="M500 295v-80h-500v80h500z" />
    <glyph glyph-name="emdash" unicode="&#x2014;" horiz-adv-x="1000" 
d="M900 294v-80h-800v80h800z" />
    <glyph glyph-name="quoteleft" unicode="&#x2018;" horiz-adv-x="192" 
d="M109 599q19 0 31 -14t12 -40q0 -28 -15.5 -43t-38.5 -15q-27 0 -41.5 21t-14.5 57q0 50 23.5 96.5t76.5 55.5v-50q-23 -5 -36.5 -24t-13.5 -47q9 3 17 3z" />
    <glyph glyph-name="quoteright" unicode="&#x2019;" horiz-adv-x="194" 
d="M85 610q-19 0 -31 14t-12 40q0 28 15.5 43t38.5 15q27 0 41.5 -21t14.5 -57q0 -50 -23.5 -96.5t-76.5 -55.5v50q23 5 36.5 24t13.5 47q-9 -3 -17 -3z" />
    <glyph glyph-name="quotesinglbase" unicode="&#x201a;" horiz-adv-x="194" 
d="M85 -9q-19 0 -31 14t-12 40q0 28 15.5 43t38.5 15q27 0 41.5 -21t14.5 -57q0 -50 -23.5 -96.5t-76.5 -55.5v50q23 5 36.5 24t13.5 47q-9 -3 -17 -3z" />
    <glyph glyph-name="quotedblleft" unicode="&#x201c;" horiz-adv-x="341" 
d="M256 599q19 0 31 -14t12 -40q0 -28 -15.5 -43t-38.5 -15q-27 0 -41.5 21t-14.5 57q0 50 23.5 96.5t76.5 55.5v-50q-23 -5 -36.5 -24t-13.5 -47q9 3 17 3zM109 599q19 0 31 -14t12 -40q0 -28 -15.5 -43t-38.5 -15q-27 0 -41.5 21t-14.5 57q0 50 23.5 96.5t76.5 55.5v-50
q-23 -5 -36.5 -24t-13.5 -47q9 3 17 3z" />
    <glyph glyph-name="quotedblright" unicode="&#x201d;" horiz-adv-x="341" 
d="M85 610q-19 0 -31 14t-12 40q0 28 15.5 43t38.5 15q27 0 41.5 -21t14.5 -57q0 -50 -23.5 -96.5t-76.5 -55.5v50q23 5 36.5 24t13.5 47q-9 -3 -17 -3zM232 610q-19 0 -31 14t-12 40q0 28 15.5 43t38.5 15q27 0 41.5 -21t14.5 -57q0 -50 -23.5 -96.5t-76.5 -55.5v50
q23 5 36.5 24t13.5 47q-9 -3 -17 -3z" />
    <glyph glyph-name="quotedblbase" unicode="&#x201e;" horiz-adv-x="342" 
d="M233 -9q-19 0 -31 14t-12 40q0 28 15.5 43t38.5 15q27 0 41.5 -21t14.5 -57q0 -50 -23.5 -96.5t-76.5 -55.5v50q23 5 36.5 24t13.5 47q-9 -3 -17 -3zM85 -9q-19 0 -31 14t-12 40q0 28 15.5 43t38.5 15q27 0 41.5 -21t14.5 -57q0 -50 -23.5 -96.5t-76.5 -55.5v50
q23 5 36.5 24t13.5 47q-9 -3 -17 -3z" />
    <glyph glyph-name="dagger" unicode="&#x2020;" horiz-adv-x="509" 
d="M34 432v80h176v203h90v-203h175v-80h-175v-609h-90v609h-176z" />
    <glyph glyph-name="daggerdbl" unicode="&#x2021;" horiz-adv-x="509" 
d="M34 112v80h176v240h-176v80h176v203h90v-203h175v-80h-175v-240h175v-80h-175v-289h-90v289h-176z" />
    <glyph glyph-name="bullet" unicode="&#x2022;" horiz-adv-x="308" 
d="M67 234.5q-33 34.5 -33 85.5t33 85.5t87 34.5t87 -34.5t33 -85.5t-33 -85.5t-87 -34.5t-87 34.5z" />
    <glyph glyph-name="ellipsis" unicode="&#x2026;" horiz-adv-x="518" 
d="M59.5 8q-15.5 15 -15.5 40q0 24 15.5 39.5t39.5 15.5t39.5 -15.5t15.5 -39.5q0 -25 -15.5 -40t-39.5 -15t-39.5 15zM219.5 8q-15.5 15 -15.5 40q0 24 15.5 39.5t39.5 15.5t39.5 -15.5t15.5 -39.5q0 -25 -15.5 -40t-39.5 -15t-39.5 15zM379.5 8q-15.5 15 -15.5 40
q0 24 15.5 39.5t39.5 15.5t39.5 -15.5t15.5 -39.5q0 -25 -15.5 -40t-39.5 -15t-39.5 15z" />
    <glyph glyph-name="perthousand" unicode="&#x2030;" horiz-adv-x="1173" 
d="M65.5 365.5q-41.5 56.5 -41.5 141.5t41.5 141.5t119.5 56.5q79 0 120 -56t41 -142t-41 -142t-120 -56q-78 0 -119.5 56.5zM260 0h-70l363 691h70zM253 413.5q23 34.5 23 93.5t-23 93.5t-68 34.5t-68 -34.5t-23 -93.5t23 -93.5t68 -34.5t68 34.5zM508.5 42.5
q-41.5 56.5 -41.5 141.5t41.5 141.5t119.5 56.5q79 0 120 -56t41 -142t-41 -142t-120 -56q-78 0 -119.5 56.5zM868.5 42.5q-41.5 56.5 -41.5 141.5t41.5 141.5t119.5 56.5q79 0 120 -56t41 -142t-41 -142t-120 -56q-78 0 -119.5 56.5zM696 90.5q23 34.5 23 93.5t-23 93.5
t-68 34.5t-68 -34.5t-23 -93.5t23 -93.5t68 -34.5t68 34.5zM1056 90.5q23 34.5 23 93.5t-23 93.5t-68 34.5t-68 -34.5t-23 -93.5t23 -93.5t68 -34.5t68 34.5z" />
    <glyph glyph-name="guilsinglleft" unicode="&#x2039;" horiz-adv-x="246" 
d="M50 297l146 114v-80l-104 -78v-2l104 -78v-80l-146 114v90z" />
    <glyph glyph-name="guilsinglright" unicode="&#x203a;" horiz-adv-x="246" 
d="M196 297l-146 114v-80l104 -78v-2l-104 -78v-80l146 114v90z" />
    <glyph glyph-name="fraction" unicode="&#x2044;" horiz-adv-x="247" 
d="M425 715l-533 -715h-70l533 715h70z" />
    <glyph glyph-name="Euro" unicode="&#x20ac;" horiz-adv-x="625" 
d="M465 117.5q35 51.5 40 130.5h90q-12 -122 -73 -192t-168 -70q-105 0 -173.5 71.5t-87.5 195.5h-63v60h58q-1 10 -1 30q0 18 1 27h-58v60h63q18 125 87 197t174 72q104 0 166 -66t75 -174h-90q-13 69 -45.5 114.5t-105.5 45.5t-115 -51.5t-56 -137.5h199v-60h-204
q-1 -9 -1 -27q0 -20 1 -30h204v-60h-198q14 -85 56 -136t114 -51q76 0 111 51.5z" />
    <glyph glyph-name="trademark" unicode="&#x2122;" horiz-adv-x="629" 
d="M32 668v47h236v-47h-90v-229h-56v229h-90zM385 715l62 -208h1l63 208h81v-276h-52v209h-2l-64 -209h-53l-63 209h-2v-209h-51v276h80z" />
    <glyph glyph-name="arrowleft" unicode="&#x2190;" horiz-adv-x="751" 
d="M334 98l-175 186h562v70h-562l175 186l-54 49l-250 -270l250 -270z" />
    <glyph glyph-name="arrowup" unicode="&#x2191;" horiz-adv-x="600" 
d="M521 387l-186 175v-562h-70v562l-186 -175l-49 54l270 250l270 -250z" />
    <glyph glyph-name="arrowright" unicode="&#x2192;" horiz-adv-x="751" 
d="M417 98l175 186h-562v70h562l-175 186l54 49l250 -270l-250 -270z" />
    <glyph glyph-name="arrowdown" unicode="&#x2193;" horiz-adv-x="600" 
d="M521 264l-186 -175v562h-70v-562l-186 175l-49 -54l270 -250l270 250z" />
    <glyph glyph-name="arrowboth" unicode="&#x2194;" horiz-adv-x="1140" 
d="M1110 319l-250 -270l-54 49l175 186h-822l175 -186l-54 -49l-250 270l250 270l54 -49l-175 -186h822l-175 186l54 49z" />
    <glyph glyph-name="arrowupdn" unicode="&#x2195;" horiz-adv-x="600" 
d="M521 127l49 -54l-270 -250l-270 250l49 54l186 -175v705l-186 -175l-49 54l270 250l270 -250l-49 -54l-186 175v-705z" />
    <glyph glyph-name="uni2196" unicode="&#x2196;" horiz-adv-x="587" 
d="M100 229l7 255l398 -397l49 49l-397 397l255 8l-3 73l-368 -14l-14 -368z" />
    <glyph glyph-name="uni2197" unicode="&#x2197;" horiz-adv-x="587" 
d="M484 229l-7 255l-398 -397l-49 49l397 397l-255 8l3 73l368 -14l14 -368z" />
    <glyph glyph-name="uni2198" unicode="&#x2198;" horiz-adv-x="587" 
d="M543 44l-368 -14l-3 73l255 8l-397 397l49 49l398 -397l7 255l73 -3z" />
    <glyph glyph-name="uni2199" unicode="&#x2199;" horiz-adv-x="587" 
d="M100 415l7 -255l398 397l49 -49l-397 -397l255 -8l-3 -73l-368 14l-14 368z" />
    <glyph glyph-name="partialdiff" unicode="&#x2202;" horiz-adv-x="549" 
d="M415 410q-18 110 -86.5 163.5t-164.5 61.5v80q116 -5 192.5 -60t112.5 -143.5t36 -195.5q0 -90 -27 -164.5t-85 -120t-145 -45.5q-61 0 -107 28t-71.5 80t-25.5 123q0 66 29.5 124.5t82 94t118.5 35.5q93 0 141 -63v2zM341.5 91q35.5 25 54.5 66.5t19 90.5q0 38 -16 71
t-45 52.5t-66 19.5q-45 0 -80 -25.5t-54.5 -67.5t-19.5 -90q0 -42 17 -74.5t46 -50t63 -17.5q46 0 81.5 25z" />
    <glyph glyph-name="emptyset" unicode="&#x2205;" horiz-adv-x="797" 
d="M743.5 478.5q23.5 -61.5 23.5 -133.5q0 -105 -48.5 -186.5t-132.5 -127t-187 -45.5q-69 0 -131.5 21.5t-111.5 60.5l-64 -64l-35 35l63 63q-43 48 -66.5 109.5t-23.5 133.5q0 105 49 187t133 127.5t187 45.5q69 0 131 -21t111 -61l65 65l35 -36l-64 -64
q43 -48 66.5 -109.5zM100 232.5q20 -52.5 57 -93.5l447 447q-42 33 -94.5 51t-110.5 18q-88 0 -161 -39.5t-115.5 -110t-42.5 -160.5q0 -60 20 -112.5zM559 75.5q73 39.5 115.5 110t42.5 159.5q0 61 -20 113.5t-56 93.5l-448 -447q42 -33 95 -51t111 -18q87 0 160 39.5z" />
    <glyph glyph-name="product" unicode="&#x220f;" horiz-adv-x="703" 
d="M632 715v-815h-90v735h-381v-735h-90v815h561z" />
    <glyph glyph-name="summation" unicode="&#x2211;" horiz-adv-x="616" 
d="M317 315v2l-277 316v82h528v-80h-423v-2l248 -289v-50l-255 -312v-2h440v-80h-538v83z" />
    <glyph glyph-name="minus" unicode="&#x2212;" horiz-adv-x="560" 
d="M507 374v-80h-454v80h454z" />
    <glyph glyph-name="radical" unicode="&#x221a;" horiz-adv-x="579" 
d="M149 314l97 -302h2l231 703h90l-282 -815h-80l-119 334h-74v80h135z" />
    <glyph glyph-name="infinity" unicode="&#x221e;" horiz-adv-x="715" 
d="M55 400q20 39 52 58.5t70 19.5q41 0 74.5 -16.5t55 -37t50.5 -54.5h2q30 34 51 54.5t54 37t74 16.5q38 0 70 -19.5t52 -58.5t20 -96q0 -56 -20 -95t-52 -58.5t-70 -19.5q-53 0 -90 27.5t-60 55.5t-29 35h-2q-6 -7 -35 -41.5t-66.5 -55.5t-78.5 -21q-38 0 -70 19.5
t-52 58.5t-20 95q0 57 20 96zM241.5 226.5q22.5 14.5 35 29t40.5 49.5q-4 5 -25.5 32.5t-47 44.5t-50.5 17q-36 0 -57.5 -23.5t-21.5 -70.5t21.5 -70t57.5 -23q25 0 47.5 14.5zM578.5 235q21.5 23 21.5 70t-21.5 70.5t-57.5 23.5q-25 0 -47 -14.5t-34 -28.5t-42 -51
q4 -5 25.5 -32.5t47 -44t50.5 -16.5q36 0 57.5 23z" />
    <glyph glyph-name="integral" unicode="&#x222b;" horiz-adv-x="338" 
d="M167 -129q-36 -46 -106 -46q-41 0 -71 10v80q17 -4 35 -4q88 0 88 114v547q0 75 36 121t106 46q41 0 71 -10v-80q-17 4 -35 4q-88 0 -88 -114v-547q0 -75 -36 -121z" />
    <glyph glyph-name="approxequal" unicode="&#x2248;" horiz-adv-x="560" 
d="M324 344.5q-38 7.5 -46 9.5q-38 9 -64.5 13.5t-51.5 4.5q-32 0 -44 -10t-12 -35h-70q0 45 26.5 80t87.5 35q32 0 70.5 -8t45.5 -9q39 -9 64.5 -13.5t50.5 -4.5q32 0 44 10t12 35h70q0 -45 -26.5 -80t-87.5 -35q-31 0 -69 7.5zM324 187.5q-38 7.5 -46 9.5
q-38 9 -64.5 13.5t-51.5 4.5q-32 0 -44 -10t-12 -35h-70q0 45 26.5 80t87.5 35q32 0 70.5 -8t45.5 -9q39 -9 64.5 -13.5t50.5 -4.5q32 0 44 10t12 35h70q0 -45 -26.5 -80t-87.5 -35q-31 0 -69 7.5z" />
    <glyph glyph-name="notequal" unicode="&#x2260;" horiz-adv-x="560" 
d="M337 353l-37 -79h207v-80h-244l-52 -110h-70l52 110h-140v80h177l37 79h-214v80h252l45 96h70l-45 -96h132v-80h-170z" />
    <glyph glyph-name="lessequal" unicode="&#x2264;" horiz-adv-x="535" 
d="M457 187l-342 128v2l342 129v80l-407 -165v-90l407 -164v80zM50 70v-70h407v70h-407z" />
    <glyph glyph-name="greaterequal" unicode="&#x2265;" horiz-adv-x="511" 
d="M54 187l342 128v2l-342 129v80l407 -165v-90l-407 -164v80zM461 70v-70h-407v70h407z" />
    <glyph glyph-name="lozenge" unicode="&#x25ca;" horiz-adv-x="546" 
d="M228 715h90l202 -358l-202 -357h-90l-202 358zM430 354l-157 281h-2l-155 -275l157 -280h2z" />
    <glyph glyph-name="i.loclTRK" horiz-adv-x="140" 
d="M110 510v-510h-80v510h80zM33.5 709.5q13.5 14.5 36.5 14.5t36.5 -14.5t13.5 -35.5q0 -20 -13.5 -34.5t-36.5 -14.5t-36.5 14.5t-13.5 34.5q0 21 13.5 35.5z" />
    <glyph glyph-name="logo" horiz-adv-x="896" 
d="M799 593.5q29 -15.5 48 -46.5t19 -75q0 -56 -33 -85t-82 -29h-304v304q0 49 29 82t85 33q44 0 75 -19t46.5 -48t15.5 -57q0 -36 -19 -63q14 9 28 14t35 5q28 0 57 -15.5zM772.5 415q23.5 22 23.5 57q0 33 -21.5 55t-49.5 22q-39 0 -73 -32q1 -4 1 -12q0 -26 -17 -43.5
t-42 -17.5t-43 18t-18 43q0 24 18 41.5t43 17.5q8 0 12 -1q32 34 32 73q0 32 -21 51.5t-56 19.5t-57 -23.5t-22 -77.5v-143q0 -39 15.5 -54.5t54.5 -15.5h143q54 0 77.5 22zM97 593.5q-29 -15.5 -48 -46.5t-19 -75q0 -56 33 -85t82 -29h304v304q0 49 -29 82t-85 33
q-44 0 -75 -19t-46.5 -48t-15.5 -57q0 -36 19 -63q-14 9 -28 14t-35 5q-28 0 -57 -15.5zM123.5 415q-23.5 22 -23.5 57q0 33 21.5 55t49.5 22q39 0 73 -32q-1 -4 -1 -12q0 -26 17 -43.5t42 -17.5t43 18t18 43q0 24 -18 41.5t-43 17.5q-8 0 -12 -1q-32 34 -32 73
q0 32 21 51.5t56 19.5t57 -23.5t22 -77.5v-143q0 -39 -15.5 -54.5t-54.5 -15.5h-143q-54 0 -77.5 22zM799 124.5q29 15.5 48 46.5t19 75q0 56 -33 85t-82 29h-304v-304q0 -49 29 -82t85 -33q44 0 75 19t46.5 48t15.5 57q0 36 -19 63q14 -9 28 -14t35 -5q28 0 57 15.5z
M772.5 303q23.5 -22 23.5 -57q0 -33 -21.5 -55t-49.5 -22q-39 0 -73 32q1 4 1 12q0 26 -17 43.5t-42 17.5t-43 -18t-18 -43q0 -24 18 -41.5t43 -17.5q8 0 12 1q32 -34 32 -73q0 -32 -21 -51.5t-56 -19.5t-57 23.5t-22 77.5v143q0 39 15.5 54.5t54.5 15.5h143q54 0 77.5 -22z
M97 124.5q-29 15.5 -48 46.5t-19 75q0 56 33 85t82 29h304v-304q0 -49 -29 -82t-85 -33q-44 0 -75 19t-46.5 48t-15.5 57q0 36 19 63q-14 -9 -28 -14t-35 -5q-28 0 -57 15.5zM123.5 303q-23.5 -22 -23.5 -57q0 -33 21.5 -55t49.5 -22q39 0 73 32q-1 4 -1 12q0 26 17 43.5
t42 17.5t43 -18t18 -43q0 -24 -18 -41.5t-43 -17.5q-8 0 -12 1q-32 -34 -32 -73q0 -32 21 -51.5t56 -19.5t57 23.5t22 77.5v143q0 39 -15.5 54.5t-54.5 15.5h-143q-54 0 -77.5 -22z" />
    <glyph glyph-name="logo_petal" horiz-adv-x="473" 
d="M377 547.5q29 -15.5 48 -46.5t19 -75q0 -56 -33 -85t-82 -29h-304v304q0 49 29 82t85 33q44 0 75 -19t46.5 -48t15.5 -57q0 -36 -19 -63q14 9 28 14t35 5q28 0 57 -15.5zM350.5 369q23.5 22 23.5 57q0 33 -21.5 55t-49.5 22q-39 0 -73 -32q1 -4 1 -12q0 -26 -17 -43.5
t-42 -17.5t-43 18t-18 43q0 24 18 41.5t43 17.5q8 0 12 -1q32 34 32 73q0 32 -21 51.5t-56 19.5t-57 -23.5t-22 -77.5v-143q0 -39 15.5 -54.5t54.5 -15.5h143q54 0 77.5 22z" />
    </font>
</defs>
</svg>
